<svg width="114" height="114" viewBox="0 0 114 114" fill="none" xmlns="http://www.w3.org/2000/svg">
<g clip-path="url(#clip0_938_3142)">
<path d="M28.8077 84.8077C21.1674 77.1674 16.79 66.8901 16.6386 56.2366C16.4871 45.5831 20.5739 35.4261 28 28C35.426 20.574 45.583 16.4871 56.2365 16.6386C66.89 16.7901 77.1674 21.1674 84.8076 28.8077C92.4479 36.448 96.8253 46.7253 96.9767 57.3788C97.1282 68.0323 93.0414 78.1893 85.6153 85.6154C78.1893 93.0414 68.0323 97.1282 57.3788 96.9768C46.7253 96.8253 36.4479 92.4479 28.8077 84.8077V84.8077ZM39.3782 54.0502C39.0448 54.0397 38.7145 54.0956 38.4066 54.2148C38.0988 54.3339 37.8195 54.5139 37.585 54.7441C37.3506 54.9744 37.1657 55.2504 37.0412 55.556C36.9166 55.8616 36.8549 56.1907 36.8597 56.5241C36.8644 56.8574 36.9355 57.1884 37.0688 57.4977C37.202 57.8069 37.3949 58.0883 37.6359 58.3253C37.877 58.5624 38.1616 58.7504 38.4729 58.8783C38.7843 59.0063 39.1163 59.0716 39.4495 59.0706L68.5351 59.4841L58.8471 69.1721C58.3829 69.6362 58.1275 70.271 58.137 70.9369C58.1465 71.6027 58.42 72.2451 58.8976 72.7226C59.3751 73.2001 60.0174 73.4737 60.6832 73.4832C61.3491 73.4926 61.9839 73.2372 62.448 72.7731L76.3605 58.8606C76.8246 58.3964 77.0801 57.7616 77.0706 57.0958C77.0611 56.4299 76.7876 55.7876 76.31 55.3101L61.9962 40.9963C61.5187 40.5188 60.8764 40.2452 60.2105 40.2357C59.5447 40.2263 58.9099 40.4817 58.4457 40.9458C57.9816 41.4099 57.7262 42.0447 57.7357 42.7106C57.7451 43.3764 58.0187 44.0188 58.4962 44.4963L68.4637 54.4637L39.3782 54.0502Z" fill="black"/>
</g>
<defs>
<clipPath id="clip0_938_3142">
<rect width="79.1959" height="81.4804" fill="white" transform="translate(0 56) rotate(-45)"/>
</clipPath>
</defs>
</svg>
