<svg width="29" height="28" viewBox="0 0 29 28" fill="none" xmlns="http://www.w3.org/2000/svg">
<g clip-path="url(#clip0_699_2530)">
<path d="M5.94061 0.0078125C2.92453 0.0078125 0.456055 2.47624 0.456055 5.49237V22.5119C0.456055 25.528 2.92448 27.9956 5.94061 27.9956H22.9602C25.9763 27.9956 28.4438 25.528 28.4438 22.5119V5.49237C28.4438 2.47629 25.9763 0.0078125 22.9602 0.0078125H5.94061ZM7.32006 4.62636C8.7662 4.62636 9.65697 5.57572 9.68446 6.82366C9.68446 8.04404 8.76615 9.02009 7.29209 9.02009H7.26495C5.84633 9.02009 4.92942 8.04409 4.92942 6.82366C4.92942 5.57575 5.87408 4.62636 7.32003 4.62636H7.32006ZM19.7823 10.459C22.5635 10.459 24.6484 12.2769 24.6484 16.1832V23.4758H20.4217V16.6722C20.4217 14.9625 19.81 13.7961 18.2804 13.7961C17.1127 13.7961 16.4167 14.5823 16.1111 15.3417C15.9994 15.6134 15.972 15.9929 15.972 16.373V23.4758H11.7453C11.7453 23.4758 11.8008 11.9507 11.7453 10.7573H15.9729V12.5584C16.5345 11.6918 17.5392 10.459 19.7823 10.459V10.459ZM5.17873 10.7582H9.40541V23.4759H5.17873V10.7582V10.7582Z" fill="white"/>
</g>
<defs>
<clipPath id="clip0_699_2530">
<rect width="28" height="28" fill="white" transform="translate(0.452148)"/>
</clipPath>
</defs>
</svg>
