<svg width="29" height="28" viewBox="0 0 29 28" fill="none" xmlns="http://www.w3.org/2000/svg">
<g clip-path="url(#clip0_699_2528)">
<path d="M6.27246 0C3.28002 0 0.871094 2.40892 0.871094 5.40137V22.5986C0.871094 25.5911 3.28002 28 6.27246 28H23.4697C26.4622 28 28.8711 25.5911 28.8711 22.5986V5.40137C28.8711 2.40892 26.4622 0 23.4697 0H6.27246ZM13.0493 3.95937H15.8248V8.89263H20.4571V11.9569H15.8248V16.9619C15.8248 18.0932 15.8849 18.8199 16.0051 19.1415C16.1246 19.4625 16.348 19.7188 16.6736 19.9107C17.1054 20.1695 17.5987 20.2992 18.155 20.2992C19.1427 20.2992 20.1259 19.9775 21.1037 19.3349V22.4132C20.2694 22.8059 19.5148 23.0828 18.8392 23.2409C18.1629 23.399 17.4315 23.4781 16.6456 23.4781C15.7537 23.4781 14.9644 23.3645 14.2787 23.1394C13.5931 22.9138 13.0087 22.5923 12.5244 22.1761C12.04 21.7585 11.704 21.3152 11.5172 20.8452C11.3302 20.3758 11.2372 19.6947 11.2372 18.8029V11.9569H9.07946V9.19456C9.84605 8.94538 10.5038 8.58908 11.05 8.12356C11.5969 7.65873 12.0353 7.10013 12.366 6.44792C12.6971 5.79631 12.9249 4.96614 13.0493 3.95942V3.95937Z" fill="white"/>
</g>
<defs>
<clipPath id="clip0_699_2528">
<rect width="28" height="28" fill="white" transform="translate(0.871094)"/>
</clipPath>
</defs>
</svg>
