<svg width="29" height="28" viewBox="0 0 29 28" fill="none" xmlns="http://www.w3.org/2000/svg">
<g clip-path="url(#clip0_699_2534)">
<path d="M23.6224 8.78646C22.9418 9.09028 22.2066 9.29687 21.4167 9.40625C22.2431 8.92014 22.8082 8.2092 23.112 7.27344C22.322 7.73524 21.5078 8.04514 20.6693 8.20312C19.928 7.40104 18.9983 7 17.8802 7C16.8229 7 15.9206 7.3737 15.1732 8.12109C14.4258 8.86849 14.0521 9.77083 14.0521 10.8281C14.0521 11.1806 14.0825 11.4722 14.1432 11.7031C12.5755 11.6181 11.105 11.2231 9.73177 10.5182C8.35851 9.81337 7.19184 8.87153 6.23177 7.69271C5.87934 8.30035 5.70312 8.94444 5.70312 9.625C5.70312 11.0104 6.25608 12.0738 7.36198 12.8151C6.7908 12.803 6.18316 12.645 5.53906 12.3411V12.3776C5.53906 13.2891 5.84288 14.1003 6.45052 14.8112C7.05816 15.5221 7.80556 15.9627 8.69271 16.1328C8.34028 16.23 8.03038 16.2786 7.76302 16.2786C7.60503 16.2786 7.36806 16.2543 7.05208 16.2057C7.30729 16.9714 7.75998 17.6033 8.41016 18.1016C9.06033 18.5998 9.79861 18.855 10.625 18.8672C9.21528 19.9609 7.62934 20.5078 5.86719 20.5078C5.55122 20.5078 5.2474 20.4896 4.95573 20.4531C6.75434 21.5955 8.71094 22.1667 10.8255 22.1667C12.1866 22.1667 13.4627 21.951 14.6536 21.5195C15.8446 21.0881 16.8655 20.5109 17.7161 19.7878C18.5668 19.0647 19.299 18.2322 19.9128 17.2904C20.5265 16.3485 20.9822 15.3641 21.2799 14.3372C21.5777 13.3103 21.7266 12.2865 21.7266 11.2656C21.7266 11.0469 21.7205 10.8828 21.7083 10.7734C22.474 10.2266 23.112 9.56424 23.6224 8.78646ZM28.2891 5.25V22.75C28.2891 24.1962 27.7756 25.4327 26.7487 26.4596C25.7218 27.4865 24.4852 28 23.0391 28H5.53906C4.09288 28 2.85634 27.4865 1.82943 26.4596C0.802517 25.4327 0.289062 24.1962 0.289062 22.75V5.25C0.289062 3.80382 0.802517 2.56727 1.82943 1.54036C2.85634 0.513455 4.09288 0 5.53906 0H23.0391C24.4852 0 25.7218 0.513455 26.7487 1.54036C27.7756 2.56727 28.2891 3.80382 28.2891 5.25Z" fill="white"/>
</g>
<defs>
<clipPath id="clip0_699_2534">
<rect width="28" height="28" fill="white" transform="translate(0.289062)"/>
</clipPath>
</defs>
</svg>
