<svg width="48" height="43" viewBox="0 0 48 43" fill="none" xmlns="http://www.w3.org/2000/svg">
<g clip-path="url(#clip0_199_10782)">
<path d="M47.32 0H0V42.59H47.32V0Z" fill="url(#paint0_radial_199_10782)"/>
<path d="M20.6499 28.7197C18.9225 28.7213 17.2214 28.2966 15.6974 27.4833C14.1734 26.6701 12.8735 25.4934 11.9131 24.0576C10.9527 22.6218 10.3614 20.9712 10.1915 19.2522C10.0217 17.5332 10.2785 15.7988 10.9393 14.2028C11.6002 12.6068 12.6446 11.1985 13.98 10.1027C15.3153 9.00695 16.9004 8.25756 18.5947 7.92098C20.289 7.5844 22.0402 7.67102 23.693 8.17318C25.3458 8.67533 26.8491 9.57752 28.0698 10.7997C29.5364 12.2681 30.5349 14.1382 30.9393 16.1738C31.3437 18.2094 31.1359 20.3192 30.3419 22.2367C29.548 24.1541 28.2035 25.7933 26.4785 26.9472C24.7535 28.1011 22.7253 28.7179 20.6499 28.7197ZM20.6499 9.85973C18.7157 9.85908 16.8411 10.5291 15.3456 11.7556C13.85 12.9822 12.8262 14.6893 12.4482 16.5862C12.0703 18.4831 12.3617 20.4523 13.2729 22.1584C14.1842 23.8644 15.6588 25.2017 17.4455 25.9424C19.2323 26.6831 21.2206 26.7814 23.0716 26.2204C24.9227 25.6595 26.5219 24.474 27.5969 22.8661C28.6719 21.2582 29.1561 19.3273 28.967 17.4024C28.7779 15.4775 27.9271 13.6777 26.5598 12.3097C25.7854 11.5311 24.8645 10.9137 23.8501 10.4932C22.8357 10.0727 21.748 9.85736 20.6499 9.85973Z" fill="white"/>
<path d="M37.4204 36.0696C37.135 36.0666 36.8621 35.9517 36.6604 35.7496L26.5603 25.6496C26.4605 25.5505 26.3813 25.4327 26.327 25.3029C26.2728 25.1731 26.2446 25.0339 26.2441 24.8932C26.2437 24.7525 26.2708 24.6131 26.3242 24.4829C26.3776 24.3528 26.4562 24.2344 26.5553 24.1346C26.6545 24.0348 26.7723 23.9555 26.9021 23.9013C27.0319 23.847 27.1711 23.8188 27.3118 23.8184C27.4525 23.8179 27.5919 23.8452 27.7221 23.8986C27.8522 23.952 27.9705 24.0305 28.0703 24.1296L38.1803 34.2396C38.3265 34.3911 38.4253 34.582 38.4645 34.7889C38.5036 34.9958 38.4815 35.2096 38.4008 35.404C38.32 35.5984 38.1842 35.765 38.01 35.8833C37.8358 36.0016 37.6309 36.0663 37.4204 36.0696Z" fill="white"/>
</g>
<defs>
<radialGradient id="paint0_radial_199_10782" cx="0" cy="0" r="1" gradientUnits="userSpaceOnUse" gradientTransform="translate(18.34 14.9595) scale(39.6 41.58)">
<stop stop-color="#FFB71B"/>
<stop offset="0.1" stop-color="#FEAC23"/>
<stop offset="0.27" stop-color="#FA8E37"/>
<stop offset="0.5" stop-color="#F35E57"/>
<stop offset="0.72" stop-color="#EC297B"/>
</radialGradient>
<clipPath id="clip0_199_10782">
<rect width="47.32" height="42.59" fill="white"/>
</clipPath>
</defs>
</svg>
