<svg width="24" height="24" viewBox="0 0 24 24" fill="none" xmlns="http://www.w3.org/2000/svg">
<path d="M1.6875 21.375H22.3125C22.5611 21.375 22.7996 21.4738 22.9754 21.6496C23.1512 21.8254 23.25 22.0639 23.25 22.3125C23.25 22.5611 23.1512 22.7996 22.9754 22.9754C22.7996 23.1512 22.5611 23.25 22.3125 23.25H1.6875C1.43886 23.25 1.2004 23.1512 1.02459 22.9754C0.848772 22.7996 0.75 22.5611 0.75 22.3125C0.75 22.0639 0.848772 21.8254 1.02459 21.6496C1.2004 21.4738 1.43886 21.375 1.6875 21.375ZM12.9375 13.9425L19.86 7.01813L21.1856 8.34375L11.9062 17.625L2.625 8.34375L3.95062 7.01813L11.0625 14.13V0.75H12.9375V13.9425Z" fill="white"/>
</svg>
