<svg width="29" height="28" viewBox="0 0 29 28" fill="none" xmlns="http://www.w3.org/2000/svg">
<g clip-path="url(#clip0_699_2532)">
<path d="M21.1602 13.3538C21.3755 13.6769 21.5909 14 21.6986 14.5385H18.2525C18.2525 14.4308 18.2525 14.2154 18.3602 14C18.4678 13.7846 18.4679 13.6769 18.6832 13.4615C18.7909 13.2462 19.0063 13.1385 19.2217 13.0308C19.4371 12.9231 19.7602 12.8154 20.0832 12.8154C20.514 12.9231 20.9448 13.0308 21.1602 13.3538V13.3538ZM11.2525 12.6C11.4678 12.3846 11.6832 12.0615 11.6832 11.6308C11.6832 11.4154 11.6832 11.2 11.5755 10.9846C11.4678 10.8769 11.3602 10.6615 11.2525 10.6615C11.1448 10.5538 10.9294 10.5538 10.714 10.4462H7.914V12.9231H10.2832C10.6063 12.9231 10.9294 12.8154 11.2525 12.6V12.6ZM10.3909 14.4308H7.914V17.3385H10.3909C10.6063 17.3385 10.8217 17.3385 11.0371 17.2308C11.2525 17.2308 11.4678 17.1231 11.5755 17.0154C11.6832 16.9077 11.8986 16.8 12.0063 16.5846C12.114 16.3692 12.114 16.1538 12.114 15.9385C12.114 15.4 12.0063 14.9692 11.6832 14.7538C11.3602 14.5385 10.9294 14.4308 10.3909 14.4308ZM28.1602 5.27692V22.7231C28.1602 25.6308 25.7909 28 22.8832 28H5.43708C2.52939 28 0.160156 25.6308 0.160156 22.7231V5.27692C0.160156 2.36923 2.52939 0 5.43708 0H22.8832C25.7909 0 28.1602 2.36923 28.1602 5.27692ZM17.8217 10.3385H22.1294V9.26154H17.8217V10.3385ZM14.3755 16.1538C14.3755 15.5077 14.2678 14.9692 13.9448 14.4308C13.6217 14 13.1909 13.6769 12.5448 13.4615C12.9755 13.2462 13.4063 12.9231 13.6217 12.6C13.8371 12.2769 13.9448 11.8462 13.9448 11.3077C13.9448 10.7692 13.8371 10.4462 13.7294 10.0154C13.514 9.69231 13.2986 9.36923 13.0832 9.26154C12.7602 9.04615 12.4371 8.93846 12.0063 8.83077C11.4678 8.61538 11.0371 8.61539 10.4986 8.61539H5.54477V19.1692H10.714C11.1448 19.1692 11.6832 19.0615 12.114 18.9538C12.5448 18.8462 12.9755 18.6308 13.2986 18.4154C13.6217 18.2 13.9448 17.8769 14.1602 17.4462C14.2678 17.1231 14.3755 16.6923 14.3755 16.1538V16.1538ZM18.2525 15.8308H23.7448C23.7448 15.1846 23.7448 14.6462 23.6371 14.1077C23.5294 13.5692 23.314 13.0308 22.9909 12.7077C22.6679 12.2769 22.2371 11.9538 21.8063 11.7385C21.2679 11.5231 20.7294 11.3077 20.0832 11.3077C19.5448 11.3077 19.0063 11.4154 18.4678 11.6308C18.0371 11.8462 17.6063 12.1692 17.1755 12.4923C16.8525 12.8154 16.5294 13.2462 16.4217 13.7846C16.2063 14.3231 16.0986 14.8615 16.0986 15.4C16.0986 15.9385 16.2063 16.5846 16.4217 17.0154C16.6371 17.5538 16.8525 17.9846 17.1755 18.3077C17.4986 18.6308 17.9294 18.9538 18.3602 19.1692C18.8986 19.3846 19.4371 19.4923 19.9755 19.4923C20.8371 19.4923 21.5909 19.2769 22.2371 18.8462C22.8832 18.4154 23.314 17.7692 23.6371 16.9077H21.8063C21.6986 17.1231 21.5909 17.3385 21.2679 17.5538C20.9448 17.7692 20.6217 17.8769 20.1909 17.8769C19.6525 17.8769 19.114 17.7692 18.7909 17.4462C18.4678 17.0154 18.2525 16.4769 18.2525 15.8308V15.8308Z" fill="white"/>
</g>
<defs>
<clipPath id="clip0_699_2532">
<rect width="28" height="28" fill="white" transform="translate(0.160156)"/>
</clipPath>
</defs>
</svg>
