<svg width="376" height="376" viewBox="0 0 376 376" fill="none" xmlns="http://www.w3.org/2000/svg">
<path d="M192.501 154.5H163.334M192.501 125.333V154.5V125.333ZM192.501 154.5V183.667V154.5ZM192.501 154.5H221.667H192.501Z" stroke="black" stroke-width="6" stroke-linecap="round" stroke-linejoin="round"/>
<path d="M192.501 227.417C232.771 227.417 265.417 194.771 265.417 154.5C265.417 114.229 232.771 81.5835 192.501 81.5835C152.23 81.5835 119.584 114.229 119.584 154.5C119.584 194.771 152.23 227.417 192.501 227.417Z" stroke="black" stroke-width="6" stroke-linejoin="round"/>
<path d="M112.562 262.25H116.359V278.047C116.359 279.786 116.031 281.188 115.375 282.25C114.729 283.312 113.854 284.089 112.75 284.578C111.656 285.068 110.438 285.312 109.094 285.312C107.698 285.312 106.453 285.068 105.359 284.578C104.266 284.089 103.406 283.312 102.781 282.25C102.156 281.188 101.844 279.786 101.844 278.047V262.25H105.625V278.047C105.625 279.13 105.76 279.969 106.031 280.562C106.312 281.156 106.708 281.568 107.219 281.797C107.74 282.026 108.365 282.141 109.094 282.141C109.823 282.141 110.443 282.026 110.953 281.797C111.474 281.568 111.87 281.156 112.141 280.562C112.422 279.969 112.562 279.13 112.562 278.047V262.25ZM127.797 276.562H123V273.391H127.797C128.578 273.391 129.208 273.224 129.688 272.891C130.177 272.557 130.531 272.099 130.75 271.516C130.979 270.932 131.094 270.271 131.094 269.531C131.094 268.823 130.979 268.156 130.75 267.531C130.531 266.906 130.182 266.401 129.703 266.016C129.224 265.63 128.589 265.438 127.797 265.438H124.062V285H120.281V262.25H127.797C129.297 262.25 130.578 262.562 131.641 263.188C132.703 263.812 133.516 264.672 134.078 265.766C134.641 266.849 134.922 268.094 134.922 269.5C134.922 270.969 134.641 272.229 134.078 273.281C133.516 274.333 132.703 275.146 131.641 275.719C130.578 276.281 129.297 276.562 127.797 276.562ZM150.531 281.828V285H141.078V281.828H150.531ZM142.078 262.25V285H138.281V262.25H142.078ZM167.969 271.766V275.641C167.969 277.245 167.781 278.651 167.406 279.859C167.042 281.068 166.51 282.078 165.812 282.891C165.125 283.693 164.292 284.297 163.312 284.703C162.344 285.109 161.26 285.312 160.062 285.312C158.875 285.312 157.792 285.109 156.812 284.703C155.844 284.297 155.005 283.693 154.297 282.891C153.599 282.078 153.057 281.068 152.672 279.859C152.297 278.651 152.109 277.245 152.109 275.641V271.766C152.109 270.141 152.297 268.719 152.672 267.5C153.047 266.271 153.583 265.245 154.281 264.422C154.99 263.599 155.828 262.979 156.797 262.562C157.776 262.146 158.854 261.938 160.031 261.938C161.229 261.938 162.312 262.146 163.281 262.562C164.26 262.979 165.099 263.599 165.797 264.422C166.495 265.245 167.031 266.271 167.406 267.5C167.781 268.719 167.969 270.141 167.969 271.766ZM164.203 275.641V271.734C164.203 270.578 164.109 269.589 163.922 268.766C163.745 267.932 163.479 267.255 163.125 266.734C162.771 266.203 162.333 265.812 161.812 265.562C161.302 265.302 160.708 265.172 160.031 265.172C159.375 265.172 158.786 265.302 158.266 265.562C157.755 265.812 157.318 266.203 156.953 266.734C156.599 267.255 156.328 267.932 156.141 268.766C155.964 269.589 155.875 270.578 155.875 271.734V275.641C155.875 276.776 155.969 277.755 156.156 278.578C156.344 279.391 156.615 280.057 156.969 280.578C157.333 281.089 157.776 281.469 158.297 281.719C158.818 281.969 159.406 282.094 160.062 282.094C160.729 282.094 161.323 281.969 161.844 281.719C162.365 281.469 162.797 281.089 163.141 280.578C163.495 280.057 163.76 279.391 163.938 278.578C164.115 277.755 164.203 276.776 164.203 275.641ZM179.312 265.375L173.812 285H169.844L177.062 262.25H179.531L179.312 265.375ZM183.703 285L178.188 265.375L177.922 262.25H180.438L187.688 285H183.703ZM183.797 276.547V279.734H173.203V276.547H183.797ZM195.859 285H191.906L191.938 281.828H195.859C197.078 281.828 198.052 281.604 198.781 281.156C199.51 280.698 200.036 280 200.359 279.062C200.682 278.125 200.844 276.927 200.844 275.469V271.766C200.844 270.641 200.75 269.682 200.562 268.891C200.385 268.089 200.104 267.438 199.719 266.938C199.344 266.427 198.849 266.052 198.234 265.812C197.62 265.562 196.88 265.438 196.016 265.438H191.828V262.25H196.016C197.318 262.25 198.495 262.458 199.547 262.875C200.599 263.292 201.5 263.906 202.25 264.719C203.01 265.521 203.594 266.516 204 267.703C204.406 268.891 204.609 270.255 204.609 271.797V275.469C204.609 277.01 204.406 278.375 204 279.562C203.594 280.74 203.01 281.734 202.25 282.547C201.49 283.349 200.573 283.958 199.5 284.375C198.427 284.792 197.214 285 195.859 285ZM194.078 262.25V285H190.281V262.25H194.078ZM228.328 271.719V274.906H218.75V271.719H228.328ZM219.641 262.25V285H215.844V262.25H219.641ZM231.297 262.25V285H227.516V262.25H231.297ZM248.266 281.828V285H238.391V281.828H248.266ZM239.391 262.25V285H235.594V262.25H239.391ZM246.938 271.719V274.844H238.391V271.719H246.938ZM248.172 262.25V265.438H238.391V262.25H248.172ZM251.422 262.25H258.297C259.797 262.25 261.068 262.51 262.109 263.031C263.151 263.552 263.943 264.323 264.484 265.344C265.036 266.354 265.312 267.609 265.312 269.109C265.312 270.245 265.141 271.245 264.797 272.109C264.464 272.974 263.979 273.703 263.344 274.297C262.708 274.88 261.943 275.333 261.047 275.656L259.938 276.266H254.125L254.109 273.078H258.203C258.943 273.078 259.557 272.917 260.047 272.594C260.536 272.271 260.901 271.823 261.141 271.25C261.391 270.677 261.516 270.026 261.516 269.297C261.516 268.516 261.406 267.839 261.188 267.266C260.969 266.682 260.625 266.234 260.156 265.922C259.688 265.599 259.068 265.438 258.297 265.438H255.219V285H251.422V262.25ZM262.016 285L257.688 274.781L261.641 274.766L266.078 284.797V285H262.016ZM281.453 281.828V285H271.578V281.828H281.453ZM272.578 262.25V285H268.781V262.25H272.578ZM280.125 271.719V274.844H271.578V271.719H280.125ZM281.359 262.25V265.438H271.578V262.25H281.359Z" fill="black"/>
</svg>
