<svg width="1803" height="1605" viewBox="0 0 1803 1605" fill="none" xmlns="http://www.w3.org/2000/svg">
<path d="M907.463 603.774H704.598M907.463 603.774V400.909M907.463 603.774V806.64M907.463 603.774H1110.32" stroke="black" stroke-width="41.7318" stroke-linecap="round" stroke-linejoin="round"/>
<path d="M907.463 1110.93C1187.55 1110.93 1414.62 883.871 1414.62 603.774C1414.62 323.677 1187.55 96.6174 907.463 96.6174C627.366 96.6174 400.303 323.677 400.303 603.774C400.303 883.871 627.366 1110.93 907.463 1110.93Z" stroke="black" stroke-width="41.7318" stroke-linejoin="round"/>
<path d="M107.592 1318.14H145.708V1476.96C145.708 1494.44 142.416 1508.54 135.831 1519.21C129.346 1529.89 120.562 1537.7 109.48 1542.62C98.4975 1547.55 86.2706 1550 72.7789 1550C58.7652 1550 46.2673 1547.55 35.2852 1542.62C24.3132 1537.7 15.6801 1529.89 9.40601 1519.21C3.13197 1508.54 0 1494.44 0 1476.96V1318.14H37.9554V1476.96C37.9554 1487.85 39.3106 1496.28 42.031 1502.24C44.8519 1508.22 48.8271 1512.36 53.9568 1514.66C59.1868 1516.96 65.4609 1518.12 72.7789 1518.12C80.097 1518.12 86.3208 1516.96 91.4405 1514.66C96.6705 1512.36 100.646 1508.22 103.366 1502.24C106.187 1496.28 107.592 1487.85 107.592 1476.96V1318.14ZM260.528 1462.03H212.374V1430.15H260.528C268.368 1430.15 274.693 1428.47 279.511 1425.12C284.42 1421.76 287.974 1417.16 290.172 1411.3C292.471 1405.42 293.625 1398.78 293.625 1391.34C293.625 1384.22 292.471 1377.52 290.172 1371.23C287.974 1364.95 284.47 1359.87 279.662 1356C274.853 1352.12 268.479 1350.19 260.528 1350.19H223.035V1546.86H185.079V1318.14H260.528C275.586 1318.14 288.446 1321.27 299.116 1327.57C309.777 1333.84 317.939 1342.49 323.58 1353.49C329.232 1364.37 332.053 1376.89 332.053 1391.03C332.053 1405.8 329.232 1418.46 323.58 1429.04C317.939 1439.62 309.777 1447.79 299.116 1453.55C288.446 1459.2 275.586 1462.03 260.528 1462.03ZM488.743 1514.97V1546.86H393.849V1514.97H488.743ZM403.888 1318.14V1546.86H365.772V1318.14H403.888ZM663.794 1413.81V1452.77C663.794 1468.9 661.907 1483.03 658.142 1495.18C654.488 1507.33 649.148 1517.49 642.141 1525.66C635.245 1533.72 626.882 1539.8 617.045 1543.88C607.328 1547.96 596.446 1550 584.42 1550C572.504 1550 561.632 1547.96 551.795 1543.88C542.077 1539.8 533.655 1533.72 526.548 1525.66C519.541 1517.49 514.1 1507.33 510.235 1495.18C506.471 1483.03 504.584 1468.9 504.584 1452.77V1413.81C504.584 1397.47 506.471 1383.18 510.235 1370.92C514 1358.56 519.381 1348.25 526.387 1339.97C533.505 1331.7 541.917 1325.47 551.644 1321.27C561.472 1317.09 572.293 1315 584.109 1315C596.135 1315 607.006 1317.09 616.734 1321.27C626.561 1325.47 634.984 1331.7 641.99 1339.97C648.997 1348.25 654.378 1358.56 658.142 1370.92C661.907 1383.18 663.794 1397.47 663.794 1413.81ZM625.989 1452.77V1413.49C625.989 1401.87 625.045 1391.92 623.168 1383.65C621.391 1375.26 618.721 1368.46 615.168 1363.22C611.614 1357.88 607.217 1353.95 601.987 1351.44C596.867 1348.82 590.905 1347.51 584.109 1347.51C577.523 1347.51 571.611 1348.82 566.391 1351.44C561.261 1353.95 556.874 1357.88 553.21 1363.22C549.657 1368.46 546.936 1375.26 545.059 1383.65C543.282 1391.92 542.389 1401.87 542.389 1413.49V1452.77C542.389 1464.18 543.332 1474.02 545.21 1482.3C547.097 1490.47 549.817 1497.17 553.371 1502.4C557.025 1507.54 561.472 1511.36 566.702 1513.88C571.932 1516.39 577.834 1517.65 584.42 1517.65C591.115 1517.65 597.078 1516.39 602.308 1513.88C607.538 1511.36 611.875 1507.54 615.328 1502.4C618.882 1497.17 621.542 1490.47 623.329 1482.3C625.106 1474.02 625.989 1464.18 625.989 1452.77ZM777.66 1349.56L722.449 1546.86H682.616L755.074 1318.14H779.859L777.66 1349.56ZM821.739 1546.86L766.377 1349.56L763.707 1318.14H788.964L861.743 1546.86H821.739ZM822.683 1461.88V1493.92H716.335V1461.88H822.683ZM943.767 1546.86H904.085L904.406 1514.97H943.767C956.004 1514.97 965.781 1512.72 973.099 1508.22C980.417 1503.61 985.698 1496.59 988.94 1487.16C992.182 1477.74 993.809 1465.7 993.809 1451.04V1413.81C993.809 1402.5 992.865 1392.86 990.978 1384.9C989.201 1376.84 986.38 1370.3 982.515 1365.27C978.751 1360.13 973.782 1356.36 967.608 1353.95C961.445 1351.44 954.016 1350.19 945.343 1350.19H903.302V1318.14H945.343C958.413 1318.14 970.228 1320.23 980.789 1324.42C991.349 1328.61 1000.39 1334.79 1007.92 1342.96C1015.55 1351.02 1021.41 1361.03 1025.49 1372.96C1029.57 1384.9 1031.6 1398.62 1031.6 1414.12V1451.04C1031.6 1466.53 1029.57 1480.26 1025.49 1492.19C1021.41 1504.03 1015.55 1514.03 1007.92 1522.2C1000.29 1530.26 991.088 1536.39 980.317 1540.58C969.546 1544.77 957.369 1546.86 943.767 1546.86ZM925.888 1318.14V1546.86H887.772V1318.14H925.888ZM1269.71 1413.34V1445.38H1173.56V1413.34H1269.71ZM1182.5 1318.14V1546.86H1144.39V1318.14H1182.5ZM1299.51 1318.14V1546.86H1261.55V1318.14H1299.51ZM1469.85 1514.97V1546.86H1370.72V1514.97H1469.85ZM1380.76 1318.14V1546.86H1342.65V1318.14H1380.76ZM1456.52 1413.34V1444.76H1370.72V1413.34H1456.52ZM1468.91 1318.14V1350.19H1370.72V1318.14H1468.91ZM1501.53 1318.14H1570.55C1585.61 1318.14 1598.37 1320.75 1608.82 1325.99C1619.28 1331.23 1627.23 1338.98 1632.66 1349.24C1638.2 1359.4 1640.97 1372.02 1640.97 1387.1C1640.97 1398.52 1639.25 1408.57 1635.8 1417.26C1632.46 1425.96 1627.59 1433.28 1621.21 1439.26C1614.83 1445.12 1607.15 1449.67 1598.15 1452.92L1587.02 1459.05H1528.67L1528.51 1427H1569.61C1577.03 1427 1583.2 1425.38 1588.12 1422.13C1593.03 1418.89 1596.69 1414.38 1599.1 1408.62C1601.61 1402.86 1602.86 1396.32 1602.86 1388.99C1602.86 1381.13 1601.76 1374.33 1599.57 1368.57C1597.37 1362.7 1593.92 1358.19 1589.21 1355.05C1584.51 1351.81 1578.29 1350.19 1570.55 1350.19H1539.65V1546.86H1501.53V1318.14ZM1607.88 1546.86L1564.44 1444.12L1604.12 1443.97L1648.66 1544.82V1546.86H1607.88ZM1803 1514.97V1546.86H1703.87V1514.97H1803ZM1713.91 1318.14V1546.86H1675.79V1318.14H1713.91ZM1789.67 1413.34V1444.76H1703.87V1413.34H1789.67ZM1802.06 1318.14V1350.19H1703.87V1318.14H1802.06Z" fill="black"/>
</svg>
