<svg viewBox="0 0 153 215" fill="none" xmlns="http://www.w3.org/2000/svg">
<path d="M76.5007 76.5002H47.334M76.5007 47.3335V76.5002V47.3335ZM76.5007 76.5002V105.667V76.5002ZM76.5007 76.5002H105.667H76.5007Z" stroke="black" stroke-width="6" stroke-linecap="round" stroke-linejoin="round"/>
<path d="M76.5007 149.417C116.771 149.417 149.417 116.771 149.417 76.5002C149.417 36.2294 116.771 3.5835 76.5007 3.5835C36.2299 3.5835 3.58398 36.2294 3.58398 76.5002C3.58398 116.771 36.2299 149.417 76.5007 149.417Z" stroke="black" stroke-width="6" stroke-linejoin="round"/>
<path d="M48.6367 198.359H51.2471V209.22C51.2471 210.416 51.0215 211.379 50.5703 212.109C50.1263 212.84 49.5247 213.373 48.7656 213.71C48.0137 214.047 47.1758 214.215 46.252 214.215C45.2923 214.215 44.4365 214.047 43.6846 213.71C42.9326 213.373 42.3418 212.84 41.9121 212.109C41.4824 211.379 41.2676 210.416 41.2676 209.22V198.359H43.8672V209.22C43.8672 209.965 43.9603 210.541 44.1465 210.949C44.3398 211.357 44.612 211.64 44.9629 211.798C45.321 211.955 45.7507 212.034 46.252 212.034C46.7533 212.034 47.1794 211.955 47.5303 211.798C47.8883 211.64 48.1605 211.357 48.3467 210.949C48.54 210.541 48.6367 209.965 48.6367 209.22V198.359ZM59.1104 208.199H55.8125V206.019H59.1104C59.6475 206.019 60.0807 205.904 60.4102 205.675C60.7467 205.446 60.9902 205.131 61.1406 204.729C61.2982 204.328 61.377 203.874 61.377 203.365C61.377 202.878 61.2982 202.42 61.1406 201.99C60.9902 201.561 60.7503 201.213 60.4209 200.948C60.0915 200.683 59.6546 200.551 59.1104 200.551H56.543V214H53.9434V198.359H59.1104C60.1416 198.359 61.0225 198.574 61.7529 199.004C62.4834 199.434 63.042 200.024 63.4287 200.776C63.8154 201.521 64.0088 202.377 64.0088 203.344C64.0088 204.354 63.8154 205.22 63.4287 205.943C63.042 206.667 62.4834 207.225 61.7529 207.619C61.0225 208.006 60.1416 208.199 59.1104 208.199ZM74.7402 211.819V214H68.2412V211.819H74.7402ZM68.9287 198.359V214H66.3184V198.359H68.9287ZM86.7285 204.901V207.565C86.7285 208.668 86.5996 209.635 86.3418 210.466C86.0911 211.297 85.7259 211.991 85.2461 212.55C84.7734 213.101 84.2005 213.517 83.5273 213.796C82.8613 214.075 82.1165 214.215 81.293 214.215C80.4766 214.215 79.7318 214.075 79.0586 213.796C78.3926 213.517 77.8161 213.101 77.3291 212.55C76.8493 211.991 76.4769 211.297 76.2119 210.466C75.9541 209.635 75.8252 208.668 75.8252 207.565V204.901C75.8252 203.784 75.9541 202.807 76.2119 201.969C76.4697 201.124 76.8385 200.418 77.3184 199.853C77.8053 199.287 78.3818 198.861 79.0479 198.574C79.721 198.288 80.4622 198.145 81.2715 198.145C82.0951 198.145 82.8398 198.288 83.5059 198.574C84.179 198.861 84.7555 199.287 85.2354 199.853C85.7152 200.418 86.084 201.124 86.3418 201.969C86.5996 202.807 86.7285 203.784 86.7285 204.901ZM84.1396 207.565V204.88C84.1396 204.085 84.0752 203.405 83.9463 202.839C83.8245 202.266 83.6419 201.8 83.3984 201.442C83.1549 201.077 82.8542 200.809 82.4961 200.637C82.1452 200.458 81.737 200.368 81.2715 200.368C80.8203 200.368 80.4157 200.458 80.0576 200.637C79.7067 200.809 79.4059 201.077 79.1553 201.442C78.9118 201.8 78.7256 202.266 78.5967 202.839C78.4749 203.405 78.4141 204.085 78.4141 204.88V207.565C78.4141 208.346 78.4785 209.019 78.6074 209.585C78.7363 210.144 78.9225 210.602 79.166 210.96C79.4167 211.311 79.721 211.572 80.0791 211.744C80.4372 211.916 80.8418 212.002 81.293 212.002C81.7513 212.002 82.1595 211.916 82.5176 211.744C82.8757 211.572 83.1729 211.311 83.4092 210.96C83.6527 210.602 83.8353 210.144 83.957 209.585C84.0788 209.019 84.1396 208.346 84.1396 207.565ZM94.5273 200.508L90.7461 214H88.0176L92.9805 198.359H94.6777L94.5273 200.508ZM97.5459 214L93.7539 200.508L93.5713 198.359H95.3008L100.285 214H97.5459ZM97.6104 208.188V210.38H90.3271V208.188H97.6104ZM105.903 214H103.186L103.207 211.819H105.903C106.741 211.819 107.411 211.665 107.912 211.357C108.413 211.042 108.775 210.562 108.997 209.918C109.219 209.273 109.33 208.45 109.33 207.447V204.901C109.33 204.128 109.266 203.469 109.137 202.925C109.015 202.373 108.822 201.926 108.557 201.582C108.299 201.231 107.959 200.973 107.536 200.809C107.114 200.637 106.605 200.551 106.011 200.551H103.132V198.359H106.011C106.906 198.359 107.715 198.503 108.438 198.789C109.162 199.076 109.781 199.498 110.297 200.057C110.82 200.608 111.221 201.292 111.5 202.108C111.779 202.925 111.919 203.863 111.919 204.923V207.447C111.919 208.507 111.779 209.445 111.5 210.262C111.221 211.071 110.82 211.755 110.297 212.313C109.774 212.865 109.144 213.284 108.406 213.57C107.669 213.857 106.834 214 105.903 214ZM104.679 198.359V214H102.068V198.359H104.679Z" fill="black"/>
</svg>
