<svg width="1251" height="1605" viewBox="0 0 1251 1605" fill="none" xmlns="http://www.w3.org/2000/svg">
<path d="M631.463 603.774H428.598M631.463 603.774V400.908M631.463 603.774V806.639M631.463 603.774H834.322" stroke="black" stroke-width="41.7318" stroke-linecap="round" stroke-linejoin="round"/>
<path d="M631.463 1110.93C911.553 1110.93 1138.62 883.871 1138.62 603.774C1138.62 323.676 911.553 96.6169 631.463 96.6169C351.366 96.6169 124.303 323.676 124.303 603.774C124.303 883.871 351.366 1110.93 631.463 1110.93Z" stroke="black" stroke-width="41.7318" stroke-linejoin="round"/>
<path d="M75.461 1353.21H101.87V1463.08C101.87 1475.18 99.589 1484.93 95.0263 1492.31C90.5332 1499.7 84.4473 1505.11 76.7686 1508.51C69.1595 1511.91 60.688 1513.61 51.34 1513.61C41.6304 1513.61 32.9711 1511.91 25.362 1508.51C17.7598 1505.11 11.7782 1499.7 7.43116 1492.31C3.08409 1484.93 0.914062 1475.18 0.914062 1463.08V1353.21H27.2121V1463.08C27.2121 1470.61 28.151 1476.45 30.0359 1480.57C31.9903 1484.71 34.7447 1487.57 38.2988 1489.16C41.9226 1490.76 46.2696 1491.56 51.34 1491.56C56.4105 1491.56 60.7228 1490.76 64.27 1489.16C67.8937 1487.57 70.648 1484.71 72.5328 1480.57C74.4873 1476.45 75.461 1470.61 75.461 1463.08V1353.21ZM181.425 1452.75H148.061V1430.7H181.425C186.857 1430.7 191.239 1429.54 194.578 1427.22C197.979 1424.9 200.441 1421.71 201.964 1417.66C203.557 1413.59 204.357 1409 204.357 1403.85C204.357 1398.93 203.557 1394.29 201.964 1389.94C200.441 1385.59 198.014 1382.08 194.682 1379.4C191.35 1376.72 186.934 1375.38 181.425 1375.38H155.447V1511.44H129.149V1353.21H181.425C191.858 1353.21 200.768 1355.38 208.161 1359.73C215.548 1364.07 221.203 1370.05 225.111 1377.66C229.027 1385.2 230.982 1393.86 230.982 1403.63C230.982 1413.85 229.027 1422.62 225.111 1429.93C221.203 1437.25 215.548 1442.9 208.161 1446.89C200.768 1450.8 191.858 1452.75 181.425 1452.75ZM339.547 1489.38V1511.44H273.799V1489.38H339.547ZM280.754 1353.21V1511.44H254.345V1353.21H280.754ZM460.834 1419.39V1446.35C460.834 1457.5 459.526 1467.28 456.918 1475.68C454.386 1484.09 450.686 1491.12 445.831 1496.77C441.053 1502.35 435.259 1506.55 428.443 1509.38C421.71 1512.2 414.171 1513.61 405.838 1513.61C397.582 1513.61 390.05 1512.2 383.233 1509.38C376.501 1506.55 370.665 1502.35 365.741 1496.77C360.886 1491.12 357.116 1484.09 354.438 1475.68C351.83 1467.28 350.523 1457.5 350.523 1446.35V1419.39C350.523 1408.09 351.83 1398.2 354.438 1389.72C357.047 1381.18 360.775 1374.04 365.63 1368.32C370.561 1362.59 376.389 1358.28 383.129 1355.38C389.938 1352.48 397.436 1351.04 405.623 1351.04C413.955 1351.04 421.488 1352.48 428.227 1355.38C435.037 1358.28 440.872 1362.59 445.727 1368.32C450.582 1374.04 454.31 1381.18 456.918 1389.72C459.526 1398.2 460.834 1408.09 460.834 1419.39ZM434.64 1446.35V1419.17C434.64 1411.13 433.986 1404.25 432.686 1398.53C431.454 1392.73 429.604 1388.02 427.142 1384.4C424.68 1380.7 421.634 1377.98 418.01 1376.24C414.463 1374.44 410.331 1373.53 405.623 1373.53C401.06 1373.53 396.963 1374.44 393.346 1376.24C389.792 1377.98 386.753 1380.7 384.214 1384.4C381.752 1388.02 379.867 1392.73 378.566 1398.53C377.335 1404.25 376.716 1411.13 376.716 1419.17V1446.35C376.716 1454.24 377.37 1461.05 378.671 1466.77C379.978 1472.43 381.863 1477.06 384.325 1480.69C386.857 1484.24 389.938 1486.88 393.562 1488.62C397.186 1490.36 401.275 1491.23 405.838 1491.23C410.477 1491.23 414.609 1490.36 418.232 1488.62C421.856 1486.88 424.861 1484.24 427.254 1480.69C429.716 1477.06 431.559 1472.43 432.797 1466.77C434.028 1461.05 434.64 1454.24 434.64 1446.35ZM539.728 1374.94L501.474 1511.44H473.875L524.078 1353.21H541.251L539.728 1374.94ZM570.269 1511.44L531.91 1374.94L530.06 1353.21H547.559L597.985 1511.44H570.269ZM570.922 1452.65V1474.81H497.238V1452.65H570.922ZM654.817 1511.44H627.323L627.546 1489.38H654.817C663.296 1489.38 670.07 1487.82 675.141 1484.71C680.211 1481.52 683.87 1476.67 686.116 1470.14C688.363 1463.62 689.489 1455.29 689.489 1445.15V1419.39C689.489 1411.57 688.836 1404.9 687.528 1399.4C686.297 1393.82 684.342 1389.29 681.665 1385.81C679.056 1382.26 675.614 1379.65 671.336 1377.98C667.065 1376.24 661.919 1375.38 655.909 1375.38H626.78V1353.21H655.909C664.965 1353.21 673.151 1354.65 680.468 1357.56C687.785 1360.46 694.052 1364.73 699.269 1370.38C704.555 1375.96 708.617 1382.88 711.44 1391.14C714.264 1399.4 715.676 1408.89 715.676 1419.61V1445.15C715.676 1455.87 714.264 1465.36 711.44 1473.62C708.617 1481.81 704.555 1488.73 699.269 1494.38C693.983 1499.96 687.605 1504.19 680.142 1507.09C672.678 1509.99 664.242 1511.44 654.817 1511.44ZM642.43 1353.21V1511.44H616.021V1353.21H642.43ZM880.649 1419.07V1441.23H814.031V1419.07H880.649ZM820.228 1353.21V1511.44H793.819V1353.21H820.228ZM901.299 1353.21V1511.44H875.001V1353.21H901.299ZM1019.32 1489.38V1511.44H950.64V1489.38H1019.32ZM957.596 1353.21V1511.44H931.186V1353.21H957.596ZM1010.09 1419.07V1440.8H950.64V1419.07H1010.09ZM1018.67 1353.21V1375.38H950.64V1353.21H1018.67ZM1041.27 1353.21H1089.09C1099.53 1353.21 1108.37 1355.02 1115.61 1358.64C1122.85 1362.26 1128.36 1367.63 1132.13 1374.73C1135.96 1381.75 1137.88 1390.48 1137.88 1400.91C1137.88 1408.82 1136.69 1415.77 1134.3 1421.78C1131.99 1427.8 1128.61 1432.87 1124.2 1437C1119.77 1441.05 1114.45 1444.2 1108.22 1446.45L1100.51 1450.69H1060.08L1059.96 1428.52H1088.44C1093.59 1428.52 1097.86 1427.4 1101.26 1425.15C1104.67 1422.91 1107.2 1419.79 1108.87 1415.81C1110.61 1411.82 1111.48 1407.29 1111.48 1402.22C1111.48 1396.79 1110.72 1392.08 1109.2 1388.1C1107.68 1384.03 1105.28 1380.92 1102.02 1378.75C1098.77 1376.5 1094.46 1375.38 1089.09 1375.38H1067.68V1511.44H1041.27V1353.21ZM1114.96 1511.44L1084.86 1440.37L1112.35 1440.26L1143.21 1510.03V1511.44H1114.96ZM1250.15 1489.38V1511.44H1181.47V1489.38H1250.15ZM1188.42 1353.21V1511.44H1162.01V1353.21H1188.42ZM1240.91 1419.07V1440.8H1181.47V1419.07H1240.91ZM1249.5 1353.21V1375.38H1181.47V1353.21H1249.5Z" fill="black"/>
</svg>
