<svg viewBox="0 0 43 24" fill="none" xmlns="http://www.w3.org/2000/svg">
<path d="M41.3228 22.1185C40.9847 22.3116 40.5837 22.3625 40.208 22.26C39.8323 22.1576 39.5127 21.9101 39.3194 21.5721C35.063 14.1255 27.3697 13.4998 21.5006 13.4998L5.95237 13.4998L13.725 21.2725C14.0008 21.5479 14.1559 21.9215 14.1562 22.3113C14.1563 22.5043 14.1184 22.6954 14.0447 22.8738C13.971 23.0521 13.8628 23.2142 13.7265 23.3507C13.5901 23.4873 13.4282 23.5957 13.2499 23.6696C13.0717 23.7436 12.8806 23.7818 12.6876 23.7819C12.4946 23.782 12.3035 23.7442 12.1252 23.6704C11.9468 23.5967 11.7847 23.4886 11.6482 23.3522L1.36694 13.071C1.23016 12.9345 1.12164 12.7724 1.04759 12.594C0.973548 12.4156 0.935436 12.2243 0.935436 12.0311C0.935436 11.8379 0.973548 11.6466 1.04759 11.4682C1.12164 11.2897 1.23016 11.1276 1.36694 10.9912L11.6482 0.709964C11.924 0.434561 12.2979 0.279997 12.6876 0.280273C13.0774 0.280548 13.4511 0.435641 13.7265 0.711433C14.0019 0.987225 14.1564 1.36112 14.1562 1.75088C14.1559 2.14063 14.0008 2.51431 13.725 2.78971L5.95237 10.5623L21.5006 10.5623C27.3814 10.5623 36.7256 11.1117 41.8692 20.1151C42.0623 20.4532 42.1132 20.8542 42.0107 21.2299C41.9083 21.6056 41.6608 21.9252 41.3228 22.1185Z" fill="black"/>
</svg>
