<svg viewBox="0 0 20 20" fill="none" xmlns="http://www.w3.org/2000/svg">
<path fill-rule="evenodd" clip-rule="evenodd" d="M14.3248 12.8992L19.7048 18.2792C19.8939 18.4685 20 18.7251 20 18.9926C19.9999 19.2601 19.8935 19.5166 19.7043 19.7057C19.515 19.8948 19.2584 20.001 18.9909 20.0009C18.7234 20.0008 18.4669 19.8945 18.2778 19.7052L12.8978 14.3252C11.2895 15.5709 9.26705 16.1571 7.24189 15.9646C5.21674 15.7721 3.341 14.8153 1.99625 13.2888C0.6515 11.7624 -0.0612416 9.78105 0.00301976 7.74778C0.0672812 5.71451 0.903718 3.78209 2.34217 2.34364C3.78063 0.905183 5.71305 0.068746 7.74631 0.00448461C9.77958 -0.0597768 11.761 0.652965 13.2874 1.99771C14.8138 3.34246 15.7706 5.21821 15.9631 7.24336C16.1556 9.26851 15.5694 11.2909 14.3238 12.8992H14.3248ZM7.99977 14.0002C9.59107 14.0002 11.1172 13.3681 12.2424 12.2429C13.3676 11.1177 13.9998 9.59153 13.9998 8.00023C13.9998 6.40893 13.3676 4.88281 12.2424 3.75759C11.1172 2.63237 9.59107 2.00023 7.99977 2.00023C6.40847 2.00023 4.88235 2.63237 3.75713 3.75759C2.63191 4.88281 1.99977 6.40893 1.99977 8.00023C1.99977 9.59153 2.63191 11.1177 3.75713 12.2429C4.88235 13.3681 6.40847 14.0002 7.99977 14.0002Z" fill="black"/>
</svg>
