<svg viewBox="0 0 837 359" fill="none" xmlns="http://www.w3.org/2000/svg">
<path d="M569.287 -54.031C571.984 -54.0099 574.615 -53.1843 576.847 -51.6583C579.079 -50.1323 580.812 -47.9745 581.827 -45.4571C582.843 -42.9398 583.095 -40.1758 582.552 -37.5142C582.009 -34.8526 580.695 -32.4127 578.777 -30.5026C576.859 -28.5924 574.421 -27.2976 571.773 -26.7817C569.124 -26.2658 566.384 -26.5518 563.897 -27.6037C561.409 -28.6556 559.287 -30.4262 557.799 -32.692C556.31 -34.9578 555.521 -37.6172 555.531 -40.3344C555.531 -42.1466 555.888 -43.9408 556.581 -45.6131C557.274 -47.2853 558.29 -48.8024 559.569 -50.0764C560.849 -51.3503 562.367 -52.3558 564.035 -53.0346C565.703 -53.7135 567.488 -54.0521 569.287 -54.031ZM569.287 -11.3955C572.133 -11.3955 574.915 -10.5453 577.282 -8.95248C579.649 -7.35965 581.493 -5.09573 582.582 -2.44693C583.672 0.201904 583.957 3.11658 583.401 5.92856C582.846 8.74051 581.475 11.3235 579.463 13.3508C577.45 15.3781 574.886 16.7587 572.094 17.318C569.303 17.8773 566.409 17.5902 563.78 16.4931C561.15 15.3959 558.903 13.5379 557.321 11.1541C555.74 8.77017 554.896 5.96759 554.896 3.10052C554.952 -0.707001 556.492 -4.33966 559.185 -7.01227C561.878 -9.68488 565.507 -11.1828 569.287 -11.1824V-11.3955ZM569.287 28.6818C572.656 28.6818 575.95 29.6883 578.752 31.5739C581.553 33.4596 583.737 36.1397 585.026 39.2754C586.316 42.4111 586.653 45.8616 585.996 49.1904C585.338 52.5193 583.716 55.5771 581.333 57.9771C578.951 60.377 575.915 62.0114 572.611 62.6736C569.306 63.3357 565.88 62.9959 562.767 61.6971C559.655 60.3982 556.994 58.1986 555.122 55.3766C553.25 52.5545 552.251 49.2366 552.251 45.8425C552.306 41.3283 554.126 37.0179 557.315 33.8456C560.504 30.6733 564.805 28.8947 569.287 28.895V28.6818ZM526.643 -47.2627C527.975 -47.2626 529.276 -46.8643 530.382 -46.1182C531.488 -45.372 532.349 -44.3118 532.856 -43.072C533.363 -41.8321 533.493 -40.4685 533.229 -39.1541C532.966 -37.8397 532.32 -36.6339 531.375 -35.6894C530.43 -34.745 529.228 -34.1046 527.922 -33.8495C526.615 -33.5944 525.262 -33.736 524.035 -34.2565C522.808 -34.7769 521.763 -35.6528 521.031 -36.7729C520.299 -37.8929 519.914 -39.2066 519.924 -40.5475C519.979 -42.3005 520.713 -43.9622 521.969 -45.1773C523.224 -46.3923 524.902 -47.0642 526.643 -47.0494V-47.2627ZM526.643 -4.6272C528.161 -4.6272 529.644 -4.17398 530.905 -3.32486C532.167 -2.47574 533.15 -1.26883 533.731 0.143219C534.312 1.55527 534.464 3.10904 534.167 4.60806C533.871 6.10709 533.141 7.48407 532.068 8.56479C530.995 9.64554 529.628 10.3815 528.14 10.6797C526.652 10.9779 525.109 10.8248 523.708 10.2399C522.306 9.65503 521.108 8.66458 520.265 7.39377C519.422 6.12299 518.972 4.62894 518.972 3.10052C519.027 1.0882 519.859 -0.823029 521.292 -2.22644C522.725 -3.62988 524.645 -4.41473 526.643 -4.41397V-4.6272ZM526.643 34.6508C528.841 34.6508 530.989 35.3072 532.816 36.5369C534.643 37.7667 536.067 39.5146 536.908 41.5596C537.749 43.6047 537.969 45.855 537.54 48.026C537.112 50.197 536.054 52.1911 534.5 53.7563C532.946 55.3216 530.966 56.3875 528.811 56.8193C526.656 57.2511 524.422 57.0295 522.391 56.1825C520.361 55.3354 518.626 53.9009 517.405 52.0604C516.184 50.2199 515.533 48.0561 515.533 45.8425C515.575 42.907 516.765 40.1067 518.846 38.0508C520.927 35.9949 523.729 34.8496 526.643 34.8639V34.6508ZM526.643 73.9287C529.783 73.9287 532.851 74.8663 535.461 76.6231C538.072 78.38 540.106 80.877 541.307 83.7985C542.509 86.72 542.823 89.9347 542.211 93.0361C541.598 96.1375 540.087 98.9864 537.867 101.222C535.647 103.458 532.819 104.981 529.74 105.598C526.661 106.215 523.469 105.898 520.569 104.688C517.669 103.478 515.19 101.429 513.446 98.7996C511.702 96.1704 510.771 93.0792 510.771 89.917C510.827 85.7137 512.524 81.7016 515.494 78.7491C518.465 75.7967 522.47 74.1414 526.643 74.1418V73.9287ZM483.365 -42.5727C483.798 -42.5833 484.225 -42.4628 484.589 -42.2268C484.954 -41.9908 485.24 -41.6501 485.411 -41.2487C485.582 -40.8474 485.629 -40.4037 485.547 -39.9749C485.465 -39.5462 485.257 -39.152 484.951 -38.8432C484.644 -38.5345 484.253 -38.3253 483.828 -38.2426C483.402 -38.16 482.961 -38.2078 482.563 -38.3798C482.164 -38.5517 481.826 -38.84 481.592 -39.2074C481.358 -39.5747 481.238 -40.0045 481.249 -40.441C481.301 -40.9687 481.547 -41.4576 481.939 -41.8123C482.33 -42.1671 482.838 -42.3622 483.365 -42.3595V-42.5727ZM483.365 0.382477C484.108 0.382477 484.822 0.680115 485.348 1.20984C485.874 1.73953 486.169 2.45795 486.169 3.20706C486.176 3.57999 486.108 3.95056 485.97 4.29651C485.832 4.64249 485.625 4.95673 485.364 5.22049C485.102 5.48422 484.79 5.69208 484.446 5.83145C484.103 5.97083 483.735 6.03891 483.365 6.03165C482.621 6.03165 481.908 5.7341 481.382 5.20438C480.856 4.67468 480.561 3.95621 480.561 3.20706C480.614 2.49548 480.933 1.83066 481.453 1.34619C481.973 0.861755 482.656 0.593658 483.365 0.595703V0.382477ZM483.365 39.7137C484.591 39.7032 485.793 40.0599 486.818 40.7386C487.843 41.4173 488.645 42.3874 489.121 43.5258C489.598 44.6642 489.728 45.9196 489.495 47.1326C489.263 48.3457 488.677 49.4617 487.814 50.3391C486.95 51.2165 485.847 51.8156 484.645 52.0606C483.443 52.3055 482.195 52.1852 481.061 51.7149C479.927 51.2445 478.957 50.4454 478.275 49.4189C477.592 48.3923 477.228 47.1847 477.228 45.9492C477.269 44.3374 477.934 42.8057 479.08 41.6807C480.227 40.5557 481.764 39.9263 483.365 39.9269V39.7137ZM483.365 77.979C485.709 77.979 488 78.6792 489.949 79.991C491.898 81.3027 493.417 83.1672 494.314 85.3485C495.211 87.5299 495.446 89.9302 494.988 92.2459C494.531 94.5616 493.402 96.6888 491.745 98.3584C490.088 100.028 487.976 101.165 485.677 101.626C483.378 102.086 480.995 101.85 478.829 100.946C476.664 100.043 474.813 98.5125 473.511 96.5493C472.209 94.5862 471.513 92.2781 471.513 89.917C471.569 86.7879 472.842 83.806 475.059 81.6131C477.275 79.4202 480.258 78.1917 483.365 78.1922V77.979ZM483.365 114.539C487.029 114.539 490.612 115.634 493.658 117.686C496.705 119.738 499.078 122.655 500.478 126.066C501.878 129.478 502.242 133.231 501.523 136.851C500.804 140.47 499.035 143.794 496.44 146.401C493.845 149.007 490.54 150.779 486.945 151.493C483.349 152.207 479.624 151.83 476.242 150.41C472.859 148.99 469.97 146.591 467.942 143.516C465.914 140.442 464.837 136.83 464.847 133.139C464.903 128.234 466.88 123.549 470.348 120.105C473.817 116.662 478.495 114.738 483.365 114.752V114.539ZM440.721 41.8988C441.516 41.8988 442.294 42.1364 442.955 42.5814C443.616 43.0265 444.132 43.6591 444.436 44.3992C444.74 45.1393 444.82 45.9536 444.665 46.7393C444.51 47.5251 444.127 48.2467 443.565 48.8132C443.002 49.3796 442.286 49.7654 441.506 49.9217C440.726 50.0779 439.917 49.9978 439.182 49.6912C438.448 49.3846 437.82 48.8655 437.378 48.1995C436.936 47.5334 436.7 46.7502 436.7 45.9492C436.755 44.9123 437.202 43.9361 437.95 43.222C438.699 42.5079 439.69 42.1105 440.721 42.112V41.8988ZM441.039 79.5779C443.069 79.5779 445.053 80.1842 446.741 81.3203C448.429 82.4564 449.745 84.0712 450.521 85.9604C451.298 87.8496 451.502 89.9285 451.106 91.9341C450.71 93.9396 449.732 95.7818 448.296 97.2278C446.861 98.6737 445.032 99.6585 443.041 100.057C441.05 100.456 438.986 100.252 437.111 99.4691C435.235 98.6865 433.632 97.3613 432.504 95.661C431.377 93.9608 430.775 91.9619 430.775 89.917C430.83 87.212 431.936 84.6366 433.855 82.7435C435.774 80.8504 438.353 79.7905 441.039 79.7911V79.5779ZM441.039 115.605C444.494 115.605 447.872 116.638 450.744 118.573C453.617 120.507 455.854 123.257 457.174 126.474C458.494 129.691 458.837 133.23 458.159 136.643C457.481 140.056 455.813 143.189 453.366 145.647C450.918 148.104 447.803 149.775 444.412 150.448C441.022 151.12 437.51 150.764 434.32 149.425C431.131 148.086 428.408 145.823 426.496 142.924C424.584 140.025 423.569 136.619 423.579 133.139C423.634 128.553 425.471 124.172 428.695 120.934C431.919 117.696 436.275 115.859 440.827 115.818L441.039 115.605ZM396.596 41.8988C397.391 41.8988 398.169 42.1364 398.83 42.5814C399.491 43.0265 400.007 43.6591 400.311 44.3992C400.615 45.1393 400.695 45.9536 400.54 46.7393C400.385 47.5251 400.002 48.2467 399.439 48.8132C398.877 49.3796 398.161 49.7654 397.381 49.9217C396.601 50.0779 395.792 49.9978 395.057 49.6912C394.323 49.3846 393.695 48.8655 393.253 48.1995C392.811 47.5334 392.575 46.7502 392.575 45.9492C392.626 44.9481 393.044 44.0017 393.748 43.293C394.451 42.5842 395.391 42.1634 396.385 42.112L396.596 41.8988ZM396.279 79.5779C398.309 79.5779 400.293 80.1842 401.981 81.3203C403.669 82.4564 404.985 84.0712 405.762 85.9604C406.538 87.8496 406.742 89.9285 406.346 91.9341C405.95 93.9396 404.972 95.7818 403.537 97.2278C402.101 98.6737 400.272 99.6585 398.281 100.057C396.29 100.456 394.226 100.252 392.351 99.4691C390.475 98.6865 388.872 97.3613 387.745 95.661C386.617 93.9608 386.015 91.9619 386.015 89.917C386.056 87.2443 387.128 84.6926 389.004 82.8025C390.881 80.9124 393.414 79.8323 396.067 79.7911L396.279 79.5779ZM396.279 115.605C399.734 115.605 403.112 116.638 405.984 118.573C408.857 120.507 411.094 123.257 412.414 126.474C413.734 129.691 414.077 133.23 413.399 136.643C412.721 140.056 411.053 143.189 408.606 145.647C406.159 148.104 403.043 149.775 399.652 150.448C396.262 151.12 392.75 150.764 389.56 149.425C386.371 148.086 383.648 145.823 381.736 142.924C379.824 140.025 378.809 136.619 378.819 133.139C378.875 128.516 380.741 124.103 384.011 120.859C387.28 117.615 391.689 115.804 396.279 115.818V115.605ZM353.953 -42.5727C354.386 -42.5833 354.812 -42.4628 355.177 -42.2268C355.542 -41.9908 355.828 -41.6501 355.999 -41.2487C356.169 -40.8474 356.217 -40.4037 356.135 -39.9749C356.053 -39.5462 355.845 -39.152 355.539 -38.8432C355.232 -38.5345 354.841 -38.3253 354.415 -38.2426C353.99 -38.16 353.549 -38.2078 353.151 -38.3798C352.752 -38.5517 352.414 -38.84 352.18 -39.2074C351.945 -39.5747 351.826 -40.0045 351.836 -40.441C351.881 -40.9257 352.089 -41.3803 352.426 -41.7294C352.763 -42.0784 353.208 -42.3008 353.688 -42.3595L353.953 -42.5727ZM353.953 0.382477C354.701 0.382355 355.42 0.678253 355.954 1.20648C356.489 1.73474 356.796 2.45306 356.81 3.20706C356.82 3.77841 356.661 4.34 356.354 4.82022C356.046 5.30045 355.604 5.67755 355.083 5.90356C354.562 6.12961 353.986 6.19427 353.428 6.08932C352.871 5.98438 352.357 5.7146 351.952 5.31433C351.547 4.91406 351.27 4.40137 351.155 3.84171C351.04 3.28204 351.094 2.70068 351.308 2.17169C351.523 1.6427 351.889 1.19009 352.36 0.87146C352.831 0.552795 353.385 0.382568 353.953 0.382477ZM353.953 39.7137C355.179 39.7032 356.381 40.0599 357.406 40.7386C358.431 41.4173 359.232 42.3874 359.709 43.5258C360.186 44.6642 360.316 45.9196 360.083 47.1326C359.85 48.3457 359.265 49.4617 358.401 50.3391C357.538 51.2165 356.435 51.8156 355.233 52.0606C354.031 52.3055 352.783 52.1852 351.649 51.7149C350.515 51.2445 349.545 50.4454 348.862 49.4189C348.18 48.3923 347.815 47.1847 347.815 45.9492C347.854 44.3825 348.482 42.8891 349.572 41.7711C350.663 40.6531 352.134 39.9939 353.688 39.9269L353.953 39.7137ZM353.953 77.979C356.297 77.979 358.588 78.6792 360.537 79.991C362.486 81.3027 364.005 83.1672 364.902 85.3485C365.799 87.5299 366.033 89.9302 365.576 92.2459C365.119 94.5616 363.99 96.6888 362.333 98.3584C360.675 100.028 358.564 101.165 356.265 101.626C353.966 102.086 351.583 101.85 349.417 100.946C347.252 100.043 345.401 98.5125 344.099 96.5493C342.796 94.5862 342.101 92.2781 342.101 89.917C342.155 86.8335 343.392 83.8907 345.552 81.705C347.711 79.5194 350.627 78.2606 353.688 78.1922L353.953 77.979ZM353.953 114.539C357.617 114.539 361.2 115.634 364.246 117.686C367.292 119.738 369.666 122.655 371.066 126.066C372.466 129.478 372.829 133.231 372.111 136.851C371.392 140.47 369.623 143.794 367.028 146.401C364.433 149.007 361.128 150.779 357.533 151.493C353.937 152.207 350.212 151.83 346.829 150.41C343.447 148.99 340.558 146.591 338.53 143.516C336.502 140.442 335.424 136.83 335.435 133.139C335.49 128.27 337.438 123.618 340.861 120.18C344.283 116.742 348.908 114.794 353.741 114.752L353.953 114.539ZM310.674 -47.2627C312.005 -47.2626 313.306 -46.8643 314.413 -46.1182C315.519 -45.372 316.38 -44.3118 316.887 -43.072C317.394 -41.8321 317.524 -40.4685 317.26 -39.1541C316.997 -37.8397 316.351 -36.6339 315.406 -35.6894C314.461 -34.745 313.259 -34.1046 311.952 -33.8495C310.645 -33.5944 309.293 -33.736 308.066 -34.2565C306.839 -34.7769 305.793 -35.6528 305.061 -36.7729C304.329 -37.8929 303.944 -39.2066 303.955 -40.5475C303.996 -42.2682 304.696 -43.9062 305.909 -45.1182C307.122 -46.3303 308.754 -47.0224 310.462 -47.0494L310.674 -47.2627ZM310.674 -4.6272C312.191 -4.6272 313.675 -4.17398 314.936 -3.32486C316.198 -2.47574 317.181 -1.26883 317.762 0.143219C318.342 1.55527 318.494 3.10904 318.198 4.60806C317.902 6.10709 317.172 7.48407 316.099 8.56479C315.026 9.64554 313.659 10.3815 312.171 10.6797C310.682 10.9779 309.14 10.8248 307.738 10.2399C306.336 9.65503 305.138 8.66458 304.295 7.39377C303.452 6.12299 303.002 4.62894 303.002 3.10052C303.043 1.12036 303.842 -0.767334 305.232 -2.16782C306.623 -3.5683 308.497 -4.37314 310.462 -4.41397L310.674 -4.6272ZM310.674 34.6508C312.872 34.6508 315.02 35.3072 316.847 36.5369C318.674 37.7667 320.098 39.5146 320.939 41.5596C321.78 43.6047 322 45.855 321.571 48.026C321.143 50.197 320.084 52.1911 318.53 53.7563C316.977 55.3216 314.997 56.3875 312.842 56.8193C310.686 57.2511 308.452 57.0295 306.422 56.1825C304.392 55.3354 302.657 53.9009 301.436 52.0604C300.215 50.2199 299.563 48.0561 299.563 45.8425C299.618 42.9479 300.783 40.1871 302.816 38.1399C304.848 36.0928 307.589 34.9185 310.462 34.8639L310.674 34.6508ZM310.674 73.9287C313.813 73.9287 316.882 74.8663 319.492 76.6231C322.102 78.38 324.137 80.877 325.338 83.7985C326.54 86.72 326.854 89.9347 326.241 93.0361C325.629 96.1375 324.117 98.9864 321.897 101.222C319.678 103.458 316.849 104.981 313.771 105.598C310.692 106.215 307.5 105.898 304.6 104.688C301.7 103.478 299.221 101.429 297.477 98.7996C295.733 96.1704 294.802 93.0792 294.802 89.917C294.857 85.7503 296.524 81.7698 299.449 78.8233C302.374 75.8767 306.326 74.197 310.462 74.1418L310.674 73.9287ZM267.978 -54.2442C270.654 -54.1708 273.249 -53.3065 275.441 -51.7588C277.633 -50.2111 279.325 -48.0482 280.306 -45.5393C281.288 -43.0305 281.515 -40.2864 280.96 -37.6484C280.405 -35.0105 279.092 -32.5952 277.185 -30.703C275.277 -28.8108 272.86 -27.5253 270.233 -27.0064C267.606 -26.4875 264.886 -26.7581 262.41 -27.7845C259.935 -28.8109 257.814 -30.548 256.311 -32.7794C254.808 -35.0108 253.989 -37.6381 253.957 -40.3344C253.964 -42.1491 254.327 -43.9445 255.026 -45.6171C255.725 -47.2896 256.746 -48.8062 258.03 -50.0794C259.313 -51.3527 260.835 -52.3574 262.506 -53.0356C264.177 -53.7138 265.964 -54.0521 267.766 -54.031L267.978 -54.2442ZM267.978 -11.6087C270.824 -11.6087 273.606 -10.7585 275.973 -9.16571C278.339 -7.57288 280.184 -5.30887 281.273 -2.66006C282.362 -0.011261 282.647 2.90344 282.092 5.71539C281.537 8.52737 280.166 11.1103 278.153 13.1376C276.141 15.1649 273.577 16.5455 270.785 17.1049C267.993 17.6642 265.1 17.3771 262.47 16.2799C259.841 15.1828 257.593 13.3248 256.012 10.9409C254.431 8.55704 253.587 5.75436 253.587 2.88733C253.695 -0.846313 255.231 -4.39359 257.872 -7.01486C260.514 -9.63614 264.058 -11.1291 267.766 -11.1824L267.978 -11.6087ZM267.978 28.4686C271.349 28.4581 274.648 29.4555 277.457 31.3348C280.265 33.214 282.457 35.8905 283.755 39.0253C285.052 42.16 285.397 45.6122 284.746 48.9445C284.094 52.2769 282.476 55.3396 280.096 57.7449C277.715 60.1502 274.68 61.7899 271.374 62.4565C268.067 63.1229 264.639 62.7862 261.523 61.4889C258.407 60.1916 255.743 57.9921 253.869 55.1689C251.995 52.3457 250.994 49.0258 250.994 45.6294C251.103 41.1981 252.91 36.9811 256.036 33.8617C259.163 30.7423 263.366 28.9625 267.766 28.895L267.978 28.4686ZM633.411 77.2329C635.615 73.1406 638.867 69.7177 642.829 67.3202C638.206 64.4451 634.626 60.1471 632.618 55.0625C631.306 57.7997 629.443 60.2319 627.148 62.2046C624.852 64.1772 622.175 65.6471 619.285 66.5208C625.169 68.3 630.15 72.2873 633.199 77.6593L633.411 77.2329ZM678.171 58.2601C676.058 61.9674 673.057 65.0823 669.441 67.3202C673.768 69.9406 677.243 73.7742 679.441 78.3521C681.844 74.0336 685.55 70.5988 690.022 68.546C685.042 66.6717 680.806 63.2095 677.959 58.6865L678.171 58.2601ZM679.441 100.896C677.24 105.502 673.744 109.357 669.388 111.981C674.473 115.196 678.232 120.155 679.97 125.944C681.305 122.336 683.601 119.169 686.607 116.79C689.612 114.412 693.21 112.914 697.006 112.46C693.366 112.181 689.847 111.016 686.751 109.067C683.655 107.118 681.074 104.442 679.229 101.269L679.441 100.896ZM677.219 -9.42368C679.354 -13.1633 682.393 -16.2983 686.054 -18.537C682.232 -20.885 679.079 -24.1898 676.901 -28.1299C674.604 -24.17 671.249 -20.9387 667.219 -18.8034C671.355 -16.6764 674.818 -13.4277 677.219 -9.42368ZM677.219 15.9977C675.219 19.3168 672.485 22.1255 669.23 24.205C672.916 26.4341 675.962 29.5938 678.065 33.3717C680.048 30.0248 682.785 27.195 686.054 25.1111C682.4 22.8872 679.361 19.7711 677.219 16.051V15.9977ZM635.316 146.622C632.959 150.581 629.599 153.837 625.581 156.055C630.762 159.236 634.546 164.286 636.162 170.178C637.173 167.185 638.832 164.456 641.019 162.189C643.206 159.921 645.866 158.172 648.807 157.068C643.182 155.362 638.355 151.673 635.21 146.675L635.316 146.622ZM633.305 102.335C631.317 105.634 628.579 108.411 625.316 110.435C629.46 112.624 632.921 115.926 635.316 119.975C637.28 116.929 639.858 114.333 642.882 112.354C638.828 110.011 635.481 106.603 633.199 102.494L633.305 102.335ZM201.949 119.975C204.277 115.999 207.62 112.723 211.631 110.489C208.381 108.448 205.646 105.675 203.642 102.388C201.412 106.541 198.101 110.005 194.065 112.407C197.189 114.333 199.846 116.936 201.843 120.028L201.949 119.975ZM159.094 33.2118C161.212 29.4456 164.254 26.2895 167.929 24.0452C164.69 21.9637 161.973 19.1545 159.993 15.8379C157.823 19.5687 154.769 22.6998 151.104 24.9512C154.385 27.0208 157.125 29.8537 159.094 33.2118ZM157.877 78.5652C160.055 73.9911 163.512 70.157 167.823 67.5334C164.219 65.2815 161.22 62.1698 159.094 58.4734C156.343 63.1572 152.115 66.7783 147.083 68.7591C151.662 70.8359 155.449 74.3513 157.877 78.7785V78.5652ZM157.4 126.104C159.139 120.315 162.897 115.356 167.982 112.141C163.628 109.531 160.146 105.671 157.982 101.055C156.2 104.258 153.678 106.981 150.629 108.994C147.581 111.007 144.096 112.251 140.47 112.62C144.273 113.104 147.868 114.641 150.857 117.058C153.846 119.476 156.111 122.681 157.4 126.317V126.104ZM159.993 -9.42368C162.375 -13.4239 165.82 -16.673 169.94 -18.8034C165.919 -20.9525 162.568 -24.1805 160.258 -28.1299C158.112 -24.1658 154.952 -20.8533 151.104 -18.537C154.769 -16.2856 157.823 -13.1545 159.993 -9.42368ZM201.049 170.232C202.703 164.359 206.478 159.321 211.631 156.109C207.612 153.89 204.252 150.634 201.896 146.675C198.794 151.77 193.963 155.557 188.299 157.334C191.237 158.403 193.904 160.113 196.109 162.343C198.314 164.573 200.001 167.267 201.049 170.232ZM204.065 77.6593C207.256 72.4256 212.308 68.6139 218.191 67.0004C215.305 66.1322 212.632 64.6638 210.345 62.6902C208.057 60.7165 206.206 58.2814 204.912 55.5421C202.867 60.6208 199.272 64.9134 194.648 67.7999C198.536 70.1982 201.715 73.6029 203.853 77.6593H204.065ZM699.546 159.626C696.168 159.636 692.869 160.655 690.066 162.553C687.263 164.451 685.081 167.143 683.795 170.289C682.51 173.436 682.179 176.895 682.844 180.231C683.51 183.567 685.141 186.629 687.534 189.031C689.926 191.433 692.971 193.067 696.284 193.727C699.598 194.387 703.031 194.043 706.15 192.739C709.27 191.434 711.936 189.228 713.811 186.398C715.687 183.568 716.688 180.242 716.688 176.84C716.688 174.557 716.238 172.296 715.362 170.19C714.487 168.084 713.204 166.175 711.589 164.573C709.974 162.971 708.059 161.708 705.955 160.859C703.851 160.01 701.6 159.591 699.334 159.626H699.546ZM742.718 165.435C740.479 165.435 738.29 166.104 736.428 167.357C734.566 168.61 733.115 170.392 732.258 172.476C731.401 174.559 731.177 176.853 731.614 179.065C732.051 181.277 733.129 183.31 734.712 184.905C736.296 186.5 738.313 187.586 740.51 188.026C742.706 188.466 744.982 188.24 747.051 187.377C749.12 186.514 750.888 185.052 752.132 183.176C753.377 181.301 754.041 179.096 754.041 176.84C754.041 175.324 753.741 173.824 753.159 172.426C752.577 171.028 751.724 169.761 750.65 168.699C749.576 167.637 748.303 166.802 746.905 166.241C745.506 165.681 744.011 165.407 742.507 165.435H742.718ZM785.521 170.764C784.37 170.764 783.245 171.108 782.288 171.752C781.33 172.397 780.584 173.312 780.144 174.383C779.703 175.455 779.588 176.633 779.813 177.771C780.037 178.908 780.592 179.952 781.405 180.772C782.219 181.592 783.256 182.15 784.385 182.377C785.514 182.603 786.685 182.487 787.748 182.043C788.811 181.599 789.72 180.848 790.36 179.884C790.999 178.92 791.341 177.786 791.341 176.627C791.313 175.857 791.136 175.1 790.818 174.399C790.5 173.698 790.048 173.067 789.487 172.543C788.927 172.018 788.27 171.61 787.553 171.341C786.836 171.073 786.074 170.949 785.309 170.978L785.521 170.764ZM828.905 174.175C828.26 174.175 827.641 174.434 827.184 174.893C826.728 175.353 826.471 175.977 826.471 176.627C826.464 176.951 826.522 177.273 826.642 177.574C826.762 177.874 826.941 178.147 827.168 178.377C827.395 178.606 827.667 178.786 827.965 178.907C828.264 179.027 828.584 179.086 828.905 179.078C829.551 179.078 830.17 178.82 830.626 178.36C831.082 177.901 831.339 177.277 831.339 176.627C831.272 175.981 830.959 175.387 830.465 174.969C829.972 174.552 829.336 174.344 828.694 174.388L828.905 174.175ZM656.056 203.754C652.762 203.764 649.545 204.758 646.811 206.609C644.077 208.46 641.949 211.085 640.696 214.154C639.443 217.222 639.12 220.596 639.769 223.849C640.418 227.102 642.01 230.088 644.343 232.431C646.675 234.773 649.645 236.367 652.877 237.01C656.108 237.654 659.456 237.318 662.498 236.046C665.541 234.774 668.14 232.622 669.969 229.863C671.798 227.103 672.774 223.859 672.774 220.541C672.774 218.332 672.342 216.145 671.501 214.105C670.66 212.064 669.428 210.211 667.874 208.652C666.321 207.092 664.478 205.857 662.45 205.016C660.422 204.176 658.249 203.747 656.056 203.754ZM699.017 208.284C696.61 208.284 694.257 209.003 692.256 210.349C690.255 211.696 688.695 213.611 687.774 215.851C686.853 218.09 686.612 220.555 687.082 222.933C687.551 225.31 688.71 227.495 690.412 229.209C692.114 230.923 694.282 232.091 696.643 232.564C699.003 233.036 701.45 232.794 703.674 231.866C705.897 230.938 707.798 229.367 709.135 227.351C710.472 225.336 711.186 222.966 711.186 220.541C711.131 217.355 709.846 214.315 707.604 212.067C705.362 209.818 702.339 208.538 699.175 208.497L699.017 208.284ZM742.295 213.133C740.838 213.123 739.411 213.548 738.195 214.356C736.979 215.163 736.028 216.317 735.463 217.669C734.898 219.022 734.745 220.513 735.023 221.954C735.301 223.394 735.997 224.719 737.023 225.76C738.05 226.802 739.36 227.513 740.788 227.803C742.216 228.093 743.697 227.949 745.044 227.39C746.391 226.831 747.543 225.882 748.353 224.662C749.164 223.443 749.596 222.009 749.596 220.541C749.543 218.65 748.774 216.851 747.445 215.513C746.117 214.176 744.331 213.4 742.454 213.347L742.295 213.133ZM785.256 217.45C784.649 217.45 784.056 217.632 783.551 217.971C783.047 218.311 782.653 218.794 782.421 219.358C782.189 219.923 782.128 220.545 782.247 221.144C782.365 221.744 782.657 222.295 783.086 222.727C783.516 223.159 784.062 223.454 784.658 223.573C785.253 223.692 785.87 223.631 786.431 223.397C786.991 223.163 787.471 222.767 787.808 222.259C788.145 221.75 788.325 221.153 788.325 220.541C788.274 219.786 787.95 219.076 787.413 218.545C786.877 218.015 786.166 217.701 785.415 217.663L785.256 217.45ZM440.562 291.37C437.412 291.317 434.318 292.209 431.673 293.934C429.029 295.658 426.953 298.136 425.711 301.052C424.469 303.969 424.117 307.192 424.699 310.31C425.281 313.429 426.772 316.303 428.981 318.566C431.19 320.828 434.017 322.378 437.103 323.017C440.189 323.655 443.394 323.355 446.309 322.153C449.225 320.951 451.72 318.902 453.476 316.267C455.232 313.633 456.17 310.531 456.17 307.358C456.184 303.206 454.568 299.218 451.674 296.263C448.779 293.307 444.842 291.625 440.721 291.583L440.562 291.37ZM440.562 341.946C438.886 341.935 437.244 342.426 435.845 343.357C434.446 344.287 433.353 345.615 432.704 347.173C432.055 348.73 431.88 350.446 432.201 352.104C432.521 353.761 433.323 355.286 434.505 356.483C435.687 357.681 437.195 358.499 438.839 358.832C440.482 359.165 442.187 359 443.737 358.356C445.287 357.712 446.612 356.619 447.544 355.216C448.477 353.812 448.975 352.162 448.975 350.473C448.881 348.313 447.977 346.269 446.445 344.756C444.913 343.242 442.867 342.371 440.721 342.319L440.562 341.946ZM482.889 342.692C481.361 342.692 479.867 343.148 478.597 344.003C477.327 344.858 476.337 346.073 475.752 347.495C475.168 348.917 475.014 350.482 475.313 351.991C475.611 353.5 476.346 354.887 477.427 355.975C478.507 357.063 479.883 357.804 481.382 358.104C482.88 358.405 484.433 358.25 485.845 357.662C487.256 357.073 488.463 356.075 489.311 354.796C490.16 353.516 490.613 352.012 490.613 350.473C490.574 348.505 489.792 346.627 488.425 345.221C487.059 343.814 485.211 342.986 483.259 342.905L482.889 342.692ZM526.485 343.705C525.156 343.705 523.857 344.101 522.752 344.845C521.647 345.589 520.785 346.646 520.277 347.883C519.768 349.12 519.635 350.48 519.894 351.793C520.154 353.106 520.794 354.312 521.733 355.259C522.673 356.205 523.87 356.85 525.174 357.111C526.477 357.372 527.828 357.238 529.056 356.726C530.284 356.214 531.333 355.346 532.072 354.233C532.81 353.12 533.204 351.812 533.204 350.473C533.153 348.778 532.473 347.163 531.297 345.949C530.121 344.735 528.536 344.01 526.855 343.918L526.485 343.705ZM568.811 345.463C567.827 345.463 566.866 345.757 566.048 346.308C565.23 346.858 564.592 347.64 564.216 348.556C563.84 349.471 563.741 350.478 563.933 351.45C564.125 352.422 564.599 353.315 565.294 354.015C565.99 354.716 566.876 355.193 567.841 355.386C568.805 355.58 569.805 355.48 570.714 355.101C571.623 354.722 572.4 354.08 572.946 353.256C573.493 352.432 573.784 351.464 573.784 350.473C573.738 349.26 573.257 348.106 572.43 347.224C571.603 346.341 570.486 345.792 569.287 345.676L568.811 345.463ZM612.724 346.849C612.219 346.787 611.706 346.833 611.22 346.986C610.733 347.138 610.285 347.393 609.904 347.733C609.522 348.073 609.217 348.491 609.008 348.958C608.799 349.426 608.691 349.933 608.691 350.446C608.691 350.959 608.799 351.466 609.008 351.934C609.217 352.402 609.522 352.819 609.904 353.159C610.285 353.5 610.733 353.754 611.22 353.907C611.706 354.059 612.219 354.106 612.724 354.044C613.596 353.936 614.4 353.511 614.982 352.849C615.565 352.186 615.886 351.331 615.886 350.446C615.886 349.561 615.565 348.706 614.982 348.044C614.4 347.381 613.596 346.956 612.724 346.849ZM483.047 292.116C480.107 292.116 477.233 292.994 474.788 294.639C472.343 296.285 470.437 298.624 469.312 301.36C468.187 304.097 467.892 307.108 468.466 310.013C469.04 312.918 470.456 315.586 472.535 317.681C474.614 319.775 477.263 321.201 480.147 321.779C483.031 322.357 486.02 322.061 488.737 320.927C491.453 319.794 493.775 317.874 495.409 315.411C497.043 312.949 497.914 310.053 497.914 307.091C497.862 303.238 496.337 299.554 493.657 296.804C490.976 294.055 487.347 292.452 483.524 292.329L483.047 292.116ZM526.379 293.341C523.679 293.341 521.04 294.148 518.795 295.659C516.55 297.17 514.801 299.317 513.768 301.829C512.734 304.342 512.464 307.107 512.991 309.774C513.518 312.441 514.818 314.891 516.727 316.814C518.636 318.737 521.068 320.047 523.716 320.577C526.364 321.108 529.108 320.835 531.603 319.795C534.097 318.754 536.229 316.992 537.729 314.73C539.228 312.469 540.029 309.811 540.029 307.091C539.977 303.563 538.58 300.19 536.128 297.671C533.676 295.151 530.356 293.677 526.855 293.555L526.379 293.341ZM568.705 295.473C566.424 295.473 564.194 296.155 562.297 297.431C560.4 298.708 558.922 300.522 558.049 302.645C557.176 304.768 556.948 307.104 557.393 309.358C557.838 311.612 558.936 313.682 560.549 315.307C562.162 316.931 564.217 318.038 566.455 318.486C568.692 318.935 571.011 318.704 573.119 317.825C575.226 316.946 577.028 315.457 578.295 313.546C579.562 311.635 580.239 309.389 580.239 307.091C580.178 304.158 579.022 301.356 577.002 299.243C574.983 297.13 572.247 295.86 569.34 295.686L568.705 295.473ZM612.46 298.138C610.7 298.127 608.976 298.643 607.507 299.621C606.039 300.598 604.891 301.993 604.21 303.628C603.529 305.263 603.346 307.065 603.683 308.805C604.02 310.545 604.862 312.146 606.103 313.403C607.344 314.661 608.927 315.519 610.653 315.869C612.379 316.218 614.169 316.044 615.796 315.368C617.423 314.692 618.814 313.545 619.793 312.071C620.772 310.598 621.295 308.864 621.295 307.091C621.249 304.869 620.384 302.743 618.869 301.128C617.353 299.512 615.295 298.523 613.095 298.351L612.46 298.138ZM655.474 301.336C654.346 301.346 653.246 301.693 652.314 302.331C651.381 302.97 650.657 303.873 650.232 304.925C649.808 305.978 649.702 307.134 649.929 308.247C650.155 309.359 650.704 310.38 651.505 311.18C652.306 311.979 653.324 312.522 654.431 312.74C655.538 312.958 656.684 312.841 657.725 312.404C658.766 311.967 659.656 311.229 660.281 310.283C660.907 309.338 661.241 308.227 661.241 307.091C661.195 305.69 660.643 304.353 659.688 303.333C658.733 302.312 657.442 301.678 656.056 301.549L655.474 301.336ZM698.699 303.894C698.071 303.894 697.458 304.081 696.936 304.433C696.414 304.784 696.007 305.283 695.766 305.868C695.526 306.452 695.463 307.095 695.586 307.715C695.708 308.335 696.011 308.905 696.455 309.352C696.899 309.8 697.464 310.104 698.08 310.228C698.696 310.351 699.334 310.288 699.914 310.046C700.494 309.804 700.99 309.394 701.339 308.868C701.687 308.342 701.874 307.724 701.874 307.091C701.841 306.38 701.573 305.7 701.113 305.16C700.653 304.619 700.027 304.248 699.334 304.107L698.699 303.894ZM568.97 244.737C565.412 244.737 561.934 245.8 558.976 247.791C556.017 249.782 553.712 252.612 552.35 255.923C550.989 259.234 550.632 262.877 551.327 266.392C552.021 269.907 553.734 273.136 556.25 275.67C558.765 278.204 561.971 279.93 565.46 280.629C568.949 281.328 572.566 280.969 575.853 279.598C579.14 278.226 581.95 275.904 583.927 272.924C585.903 269.944 586.958 266.441 586.958 262.857C586.907 258.197 585.075 253.736 581.843 250.401C578.611 247.067 574.228 245.114 569.604 244.95L568.97 244.737ZM612.301 247.668C609.316 247.658 606.396 248.539 603.909 250.202C601.423 251.865 599.482 254.233 598.332 257.007C597.183 259.782 596.877 262.838 597.453 265.787C598.028 268.737 599.46 271.449 601.567 273.578C603.674 275.708 606.36 277.16 609.287 277.75C612.213 278.34 615.248 278.043 618.006 276.895C620.764 275.747 623.123 273.8 624.782 271.301C626.441 268.802 627.327 265.863 627.327 262.857C627.277 258.983 625.759 255.274 623.084 252.49C620.409 249.707 616.778 248.058 612.936 247.881L612.301 247.668ZM655.474 251.878C653.318 251.878 651.211 252.522 649.418 253.729C647.626 254.935 646.229 256.65 645.404 258.656C644.579 260.662 644.363 262.869 644.784 264.999C645.205 267.128 646.243 269.085 647.767 270.62C649.291 272.155 651.233 273.201 653.347 273.625C655.462 274.048 657.653 273.831 659.644 273C661.636 272.169 663.338 270.762 664.536 268.956C665.733 267.151 666.373 265.028 666.373 262.857C666.323 260.081 665.231 257.427 663.317 255.43C661.403 253.432 658.808 252.239 656.056 252.092L655.474 251.878ZM698.329 255.875C696.916 255.875 695.535 256.297 694.361 257.088C693.186 257.879 692.271 259.002 691.73 260.317C691.189 261.632 691.048 263.078 691.324 264.474C691.599 265.869 692.279 267.151 693.278 268.158C694.277 269.164 695.55 269.849 696.935 270.127C698.321 270.404 699.757 270.262 701.062 269.717C702.367 269.173 703.483 268.251 704.268 267.067C705.053 265.884 705.471 264.493 705.471 263.07C705.426 261.305 704.738 259.618 703.538 258.33C702.338 257.043 700.71 256.245 698.964 256.089L698.329 255.875ZM741.925 259.233C740.915 259.233 739.946 259.637 739.231 260.357C738.517 261.076 738.116 262.053 738.116 263.07C738.116 264.088 738.517 265.064 739.231 265.784C739.946 266.503 740.915 266.907 741.925 266.907C742.935 266.907 743.904 266.503 744.618 265.784C745.333 265.064 745.734 264.088 745.734 263.07C745.734 262.053 745.333 261.076 744.618 260.357C743.904 259.637 742.935 259.233 741.925 259.233ZM741.925 71.5305C738.336 71.5305 734.827 72.6026 731.843 74.6112C728.858 76.6198 726.532 79.4747 725.159 82.8149C723.785 86.1551 723.426 89.8306 724.126 93.3766C724.826 96.9225 726.555 100.18 729.093 102.736C731.631 105.293 734.864 107.034 738.385 107.739C741.905 108.444 745.554 108.082 748.87 106.699C752.186 105.315 755.02 102.972 757.014 99.9662C759.008 96.9601 760.072 93.4258 760.072 89.8104C760.021 85.1169 758.18 80.623 754.929 77.2596C751.679 73.8963 747.269 71.9212 742.613 71.7436L741.925 71.5305ZM784.78 77.3928C782.342 77.3928 779.959 78.1211 777.931 79.4856C775.904 80.85 774.324 82.7894 773.391 85.0584C772.458 87.3274 772.214 89.8241 772.689 92.2329C773.165 94.6417 774.339 96.8543 776.063 98.591C777.787 100.328 779.984 101.51 782.375 101.989C784.766 102.468 787.245 102.223 789.498 101.283C791.75 100.343 793.676 98.7513 795.03 96.7092C796.385 94.6671 797.108 92.2663 797.108 89.8104C797.059 86.6706 795.831 83.666 793.671 81.4015C791.512 79.137 788.58 77.7808 785.468 77.606L784.78 77.3928ZM828.217 84.4277C827.171 84.4277 826.148 84.7402 825.278 85.3258C824.408 85.9114 823.73 86.7437 823.329 87.7176C822.929 88.6914 822.824 89.763 823.028 90.7968C823.232 91.8306 823.736 92.7802 824.476 93.5256C825.216 94.2709 826.159 94.7785 827.185 94.9841C828.211 95.1898 829.275 95.0842 830.242 94.6808C831.209 94.2774 832.035 93.5944 832.616 92.718C833.198 91.8416 833.508 90.8112 833.508 89.7571C833.468 88.4928 832.984 87.2839 832.14 86.3466C831.297 85.4093 830.15 84.8046 828.905 84.6408L828.217 84.4277ZM742.454 118.483C739.451 118.483 736.515 119.38 734.018 121.061C731.521 122.741 729.575 125.13 728.425 127.925C727.276 130.72 726.975 133.795 727.561 136.762C728.147 139.729 729.593 142.455 731.717 144.594C733.84 146.733 736.546 148.19 739.492 148.78C742.437 149.37 745.49 149.067 748.265 147.909C751.039 146.752 753.411 144.791 755.079 142.276C756.748 139.761 757.638 136.803 757.638 133.778C757.625 129.726 756.02 125.844 753.176 122.978C750.331 120.113 746.477 118.497 742.454 118.483ZM785.309 125.038C783.553 125.048 781.84 125.582 780.386 126.573C778.931 127.563 777.8 128.965 777.135 130.602C776.47 132.239 776.302 134.037 776.651 135.771C777 137.504 777.85 139.094 779.096 140.341C780.341 141.588 781.925 142.435 783.647 142.776C785.37 143.118 787.155 142.937 788.776 142.258C790.397 141.579 791.782 140.431 792.756 138.96C793.731 137.489 794.251 135.76 794.251 133.991C794.272 132.798 794.056 131.612 793.615 130.503C793.175 129.395 792.519 128.387 791.685 127.538C790.852 126.688 789.859 126.016 788.764 125.559C787.669 125.102 786.494 124.871 785.309 124.878V125.038ZM828.852 129.888C828.109 129.888 827.383 130.11 826.765 130.525C826.147 130.941 825.666 131.532 825.382 132.224C825.097 132.915 825.023 133.676 825.168 134.41C825.313 135.144 825.671 135.818 826.196 136.347C826.721 136.876 827.391 137.237 828.119 137.383C828.848 137.529 829.603 137.454 830.29 137.167C830.976 136.881 831.563 136.396 831.976 135.774C832.388 135.152 832.609 134.42 832.609 133.672C832.63 133.161 832.549 132.652 832.37 132.174C832.191 131.697 831.917 131.26 831.566 130.892C831.215 130.524 830.794 130.23 830.327 130.03C829.861 129.83 829.359 129.727 828.852 129.728V129.888ZM785.468 32.0926C782.695 32.0926 779.984 32.9209 777.678 34.4728C775.373 36.0246 773.576 38.2303 772.515 40.811C771.453 43.3916 771.176 46.2313 771.717 48.9709C772.258 51.7104 773.593 54.2269 775.554 56.2021C777.515 58.1772 780.013 59.5223 782.733 60.0672C785.452 60.6122 788.271 60.3325 790.833 59.2635C793.395 58.1946 795.585 56.3845 797.126 54.062C798.666 51.7394 799.488 49.0089 799.488 46.2156C799.509 44.3476 799.162 42.4938 798.467 40.7619C797.772 39.0299 796.742 37.454 795.438 36.1256C794.134 34.7972 792.582 33.7426 790.87 33.0229C789.159 32.3032 787.322 31.9326 785.468 31.9327V32.0926ZM828.905 39.3406C827.555 39.3406 826.236 39.7439 825.113 40.4993C823.991 41.2547 823.116 42.3284 822.6 43.5847C822.083 44.8409 821.948 46.2233 822.211 47.5569C822.475 48.8905 823.125 50.1155 824.079 51.077C825.034 52.0385 826.25 52.6932 827.574 52.9585C828.898 53.2238 830.27 53.0876 831.517 52.5673C832.764 52.0469 833.83 51.1658 834.58 50.0352C835.33 48.9046 835.73 47.5754 835.73 46.2156C835.759 45.2975 835.603 44.3831 835.272 43.5271C834.941 42.6711 834.442 41.8913 833.805 41.2343C833.167 40.5774 832.405 40.0569 831.563 39.704C830.721 39.3511 829.817 39.1731 828.905 39.1808V39.3406ZM785.468 -11.8219C782.452 -11.8219 779.504 -10.9203 776.997 -9.23141C774.49 -7.54251 772.537 -5.14218 771.385 -2.33444C770.234 0.473267 769.935 3.56207 770.527 6.54089C771.119 9.51971 772.576 12.2545 774.712 14.3989C776.849 16.5433 779.569 18.001 782.528 18.5872C785.487 19.1734 788.552 18.8618 791.336 17.6919C794.119 16.522 796.495 14.5464 798.163 12.0153C799.831 9.48422 800.716 6.51151 800.705 3.47354C800.734 1.44507 800.36 -0.568695 799.605 -2.44968C798.851 -4.33066 797.731 -6.04105 796.312 -7.4805C794.893 -8.91995 793.202 -10.0595 791.34 -10.8325C789.478 -11.6054 787.482 -11.9962 785.468 -11.9818V-11.8219ZM828.905 11.521C830.485 11.521 832.03 11.049 833.344 10.1648C834.657 9.28052 835.681 8.02365 836.286 6.55316C836.891 5.0827 837.049 3.46463 836.741 1.90356C836.432 0.342529 835.672 -1.0914 834.554 -2.21686C833.437 -3.34232 832.014 -4.10876 830.464 -4.41928C828.914 -4.72977 827.308 -4.57037 825.848 -3.96127C824.388 -3.35217 823.14 -2.32077 822.263 -0.997375C821.385 0.326019 820.916 1.88193 820.916 3.47354C820.944 5.58447 821.8 7.59857 823.296 9.07629C824.793 10.554 826.809 11.3754 828.905 11.3611V11.521ZM785.468 -55.4699C782.452 -55.4699 779.504 -54.5684 776.997 -52.8795C774.49 -51.1906 772.537 -48.7902 771.385 -45.9825C770.234 -43.1748 769.935 -40.086 770.527 -37.1072C771.119 -34.1284 772.576 -31.3936 774.712 -29.2491C776.849 -27.1047 779.569 -25.6471 782.528 -25.0609C785.487 -24.4747 788.552 -24.7863 791.336 -25.9561C794.119 -27.126 796.495 -29.1016 798.163 -31.6327C799.831 -34.1638 800.716 -37.1366 800.705 -40.1745C800.726 -42.201 800.347 -44.2115 799.59 -46.0893C798.833 -47.967 797.714 -49.6745 796.296 -51.1125C794.878 -52.5505 793.191 -53.6904 791.332 -54.4659C789.473 -55.2414 787.48 -55.637 785.468 -55.6298V-55.4699ZM828.905 -32.0738C830.498 -32.0632 832.058 -32.5293 833.387 -33.413C834.717 -34.2967 835.756 -35.5581 836.373 -37.0374C836.989 -38.5167 837.156 -40.1471 836.852 -41.722C836.548 -43.2968 835.786 -44.7452 834.663 -45.8835C833.541 -47.0217 832.108 -47.7986 830.546 -48.1155C828.985 -48.4324 827.365 -48.2751 825.893 -47.6636C824.42 -47.052 823.161 -46.0138 822.275 -44.6805C821.389 -43.3472 820.916 -41.7789 820.916 -40.1745C820.944 -38.0587 821.798 -36.0391 823.293 -34.5529C824.788 -33.0667 826.805 -32.2334 828.905 -32.2336V-32.0738ZM113.963 -4.46732C112.122 -9.05347 108.754 -12.8516 104.437 -15.2108C100.12 -17.57 95.1229 -18.3434 90.302 -17.3984C85.4811 -16.4534 81.1367 -13.8488 78.0132 -10.0311C74.8896 -6.21344 73.1815 -1.42035 73.1815 3.52682C73.1815 8.47397 74.8896 13.2672 78.0132 17.0848C81.1367 20.9025 85.4811 23.5071 90.302 24.4521C95.1229 25.3971 100.12 24.6237 104.437 22.2645C108.754 19.9053 112.122 16.1071 113.963 11.521C115.885 17.3077 119.785 22.2186 124.968 25.3775C122.218 27.1148 119.839 29.3851 117.968 32.0566C116.097 34.7282 114.772 37.7476 114.069 40.9395C112.786 36.134 109.813 31.9621 105.703 29.2004C101.594 26.4388 96.6279 25.2755 91.7303 25.9274C86.8328 26.5793 82.3373 29.0019 79.0809 32.744C75.8245 36.4861 74.0291 41.2927 74.0291 46.2689C74.0291 51.2451 75.8245 56.0518 79.0809 59.7939C82.3373 63.536 86.8328 65.9585 91.7303 66.6104C96.6279 67.2623 101.594 66.0992 105.703 63.3375C109.813 60.5758 112.786 56.4038 114.069 51.5983C114.935 55.5367 116.749 59.2002 119.351 62.2669C121.952 65.3336 125.262 67.7094 128.989 69.1855C124.394 71.2188 120.593 74.7225 118.175 79.1533C115.758 83.5841 114.86 88.6944 115.619 93.692C116.379 98.6895 118.754 103.295 122.377 106.794C125.999 110.294 130.667 112.491 135.655 113.047C131.976 113.456 128.473 114.85 125.509 117.083C122.545 119.316 120.228 122.308 118.799 125.747C117.371 129.187 116.882 132.949 117.383 136.643C117.885 140.337 119.359 143.828 121.652 146.755C123.945 149.682 126.974 151.937 130.424 153.287C133.875 154.636 137.621 155.031 141.274 154.43C144.927 153.829 148.354 152.255 151.199 149.87C154.044 147.484 156.203 144.376 157.453 140.866C158.639 144.754 160.755 148.289 163.615 151.161C166.475 154.032 169.991 156.152 173.855 157.334C170.545 158.561 167.599 160.614 165.291 163.301C162.984 165.988 161.391 169.22 160.661 172.696C159.932 176.171 160.089 179.777 161.12 183.174C162.15 186.572 164.019 189.65 166.552 192.122C169.086 194.594 172.2 196.378 175.604 197.307C179.008 198.236 182.59 198.28 186.016 197.434C189.441 196.589 192.598 194.882 195.19 192.474C197.782 190.065 199.725 187.033 200.838 183.662C202.079 188.075 204.547 192.04 207.949 195.089C211.351 198.139 215.547 200.146 220.043 200.876C215.094 201.887 210.693 204.713 207.696 208.808C204.699 212.902 203.319 217.972 203.823 223.034C204.327 228.095 206.68 232.788 210.425 236.201C214.17 239.613 219.04 241.503 224.091 241.503C229.141 241.503 234.011 239.613 237.756 236.201C241.501 232.788 243.854 228.095 244.358 223.034C244.863 217.972 243.482 212.902 240.485 208.808C237.488 204.713 233.088 201.887 228.138 200.876C231.791 200.208 235.242 198.702 238.224 196.475C241.205 194.248 243.638 191.359 245.333 188.032C248.047 193.709 252.791 198.144 258.613 200.449C255.319 201.949 252.436 204.233 250.212 207.103C247.987 209.973 246.488 213.344 245.843 216.927C245.198 220.51 245.425 224.197 246.507 227.671C247.589 231.146 249.491 234.304 252.052 236.874C254.613 239.444 257.754 241.349 261.207 242.426C264.66 243.503 268.321 243.72 271.876 243.057C275.43 242.394 278.772 240.871 281.613 238.621C284.454 236.37 286.711 233.457 288.188 230.134C289.546 233.482 291.627 236.481 294.282 238.916C296.936 241.35 300.096 243.156 303.531 244.204C299.053 245.806 295.28 248.951 292.88 253.083C290.479 257.215 289.605 262.068 290.412 266.786C291.219 271.504 293.655 275.783 297.29 278.867C300.925 281.952 305.524 283.644 310.277 283.644C315.03 283.644 319.63 281.952 323.265 278.867C326.9 275.783 329.336 271.504 330.142 266.786C330.949 262.068 330.075 257.215 327.675 253.083C325.274 248.951 321.502 245.806 317.023 244.204C320.11 243.295 322.986 241.776 325.484 239.735C327.982 237.695 330.052 235.174 331.573 232.319C334.158 237.454 338.417 241.537 343.636 243.884C340.376 245.577 337.597 248.076 335.559 251.148C333.521 254.22 332.292 257.762 331.987 261.444C331.681 265.125 332.31 268.825 333.813 272.194C335.316 275.564 337.645 278.493 340.581 280.707C343.517 282.922 346.963 284.348 350.596 284.852C354.23 285.357 357.93 284.922 361.351 283.591C364.772 282.259 367.801 280.073 370.153 277.239C372.505 274.405 374.104 271.014 374.798 267.387C375.47 271.051 377.051 274.484 379.392 277.368C381.733 280.252 384.76 282.494 388.191 283.885C391.622 285.276 395.347 285.771 399.019 285.325C402.691 284.879 406.191 283.506 409.195 281.333C412.2 279.16 414.611 276.257 416.204 272.895C417.797 269.533 418.522 265.82 418.31 262.1C418.098 258.381 416.957 254.775 414.992 251.619C413.028 248.462 410.303 245.857 407.072 244.044C411.85 241.9 415.858 238.328 418.553 233.812C421.212 238.338 425.207 241.915 429.981 244.044C426.775 245.864 424.076 248.469 422.133 251.617C420.191 254.766 419.067 258.357 418.866 262.058C418.664 265.759 419.392 269.452 420.982 272.796C422.572 276.139 424.972 279.025 427.961 281.187C430.951 283.349 434.432 284.718 438.085 285.166C441.739 285.615 445.445 285.129 448.863 283.754C452.28 282.379 455.298 280.158 457.639 277.298C459.98 274.437 461.567 271.029 462.255 267.387C462.949 271.014 464.548 274.405 466.9 277.239C469.252 280.073 472.281 282.259 475.702 283.591C479.123 284.922 482.823 285.357 486.457 284.852C490.09 284.348 493.536 282.922 496.472 280.707C499.408 278.493 501.736 275.564 503.24 272.194C504.743 268.825 505.372 265.125 505.066 261.444C504.761 257.762 503.532 254.22 501.494 251.148C499.456 248.076 496.677 245.577 493.417 243.884C498.646 241.552 502.909 237.464 505.48 232.319C507.001 235.174 509.071 237.695 511.569 239.735C514.067 241.776 516.943 243.295 520.03 244.204C515.551 245.806 511.779 248.951 509.378 253.083C506.977 257.215 506.104 262.068 506.911 266.786C507.717 271.504 510.153 275.783 513.788 278.867C517.423 281.952 522.023 283.644 526.776 283.644C531.528 283.644 536.128 281.952 539.763 278.867C543.398 275.783 545.834 271.504 546.641 266.786C547.448 262.068 546.574 257.215 544.173 253.083C541.773 248.951 538 245.806 533.521 244.204C536.96 243.15 540.124 241.341 542.786 238.908C545.448 236.476 547.542 233.479 548.917 230.134C550.392 233.464 552.648 236.382 555.491 238.638C558.334 240.895 561.678 242.421 565.237 243.086C568.795 243.75 572.461 243.534 575.918 242.454C579.375 241.375 582.52 239.465 585.081 236.89C587.643 234.314 589.544 231.15 590.622 227.669C591.7 224.189 591.921 220.497 591.268 216.911C590.614 213.326 589.105 209.954 586.871 207.086C584.636 204.218 581.743 201.941 578.44 200.449C584.265 198.129 589.02 193.7 591.773 188.032C593.449 191.362 595.87 194.256 598.844 196.484C601.819 198.713 605.266 200.216 608.915 200.876C603.983 201.892 599.602 204.717 596.62 208.803C593.638 212.888 592.268 217.943 592.776 222.987C593.283 228.032 595.631 232.708 599.366 236.108C603.1 239.508 607.955 241.39 612.989 241.39C618.022 241.39 622.877 239.508 626.612 236.108C630.346 232.708 632.695 228.032 633.202 222.987C633.709 217.943 632.339 212.888 629.357 208.803C626.375 204.717 621.994 201.892 617.063 200.876C621.549 200.137 625.734 198.125 629.126 195.076C632.518 192.028 634.977 188.068 636.215 183.662C637.327 187.033 639.271 190.065 641.863 192.474C644.455 194.882 647.612 196.589 651.037 197.434C654.463 198.28 658.045 198.236 661.449 197.307C664.853 196.378 667.967 194.594 670.5 192.122C673.034 189.65 674.903 186.572 675.933 183.174C676.964 179.777 677.121 176.171 676.392 172.696C675.662 169.22 674.069 165.988 671.762 163.301C669.454 160.614 666.508 158.561 663.198 157.334C667.062 156.152 670.578 154.032 673.438 151.161C676.298 148.289 678.414 144.754 679.6 140.866C680.85 144.373 683.008 147.479 685.851 149.863C688.694 152.246 692.118 153.82 695.768 154.422C699.418 155.025 703.162 154.632 706.611 153.286C710.06 151.941 713.089 149.69 715.384 146.768C717.679 143.846 719.156 140.359 719.663 136.669C720.17 132.978 719.688 129.218 718.267 125.778C716.845 122.338 714.537 119.344 711.58 117.105C708.623 114.867 705.126 113.466 701.45 113.047C706.439 112.491 711.107 110.294 714.729 106.794C718.352 103.295 720.727 98.6895 721.486 93.692C722.246 88.6944 721.348 83.5841 718.93 79.1533C716.513 74.7225 712.712 71.2188 708.117 69.1855C711.834 67.7023 715.133 65.3233 717.725 62.2571C720.317 59.1909 722.123 55.531 722.984 51.5983C724.267 56.4038 727.24 60.5758 731.35 63.3375C735.459 66.0992 740.425 67.2623 745.323 66.6104C750.22 65.9585 754.716 63.536 757.972 59.7939C761.228 56.0518 763.024 51.2451 763.024 46.2689C763.024 41.2927 761.228 36.4861 757.972 32.744C754.716 29.0019 750.22 26.5793 745.323 25.9274C740.425 25.2755 735.459 26.4388 731.35 29.2004C727.24 31.9621 724.267 36.134 722.984 40.9395C722.322 37.7723 721.047 34.7677 719.231 32.0974C717.415 29.4271 715.095 27.1436 712.402 25.3775C717.568 22.2126 721.45 17.3016 723.354 11.521C725.196 16.1071 728.564 19.9053 732.881 22.2645C737.197 24.6237 742.195 25.3971 747.015 24.4521C751.836 23.5071 756.181 20.9025 759.304 17.0848C762.428 13.2672 764.136 8.47397 764.136 3.52682C764.136 -1.42035 762.428 -6.21344 759.304 -10.0311C756.181 -13.8488 751.836 -16.4534 747.015 -17.3984C742.195 -18.3434 737.197 -17.57 732.881 -15.2108C728.564 -12.8516 725.196 -9.05347 723.354 -4.46732C721.466 -10.257 717.581 -15.1732 712.402 -18.3238C717.568 -21.4887 721.45 -26.3997 723.354 -32.1804C724.646 -28.8637 726.742 -25.926 729.451 -23.6357C732.16 -21.3453 735.395 -19.7753 738.862 -19.0693C742.329 -18.3632 745.916 -18.5436 749.295 -19.5939C752.675 -20.6441 755.739 -22.5309 758.208 -25.0815C760.677 -27.6323 762.472 -30.7656 763.429 -34.1953C764.387 -37.6249 764.475 -41.2415 763.687 -44.7146C762.899 -48.1876 761.259 -51.4062 758.918 -54.0764C756.577 -56.7466 753.608 -58.7832 750.284 -60H735.417C732.685 -58.9706 730.194 -57.3835 728.1 -55.3384C726.006 -53.2932 724.354 -50.834 723.248 -48.1153C721.705 -52.7881 718.858 -56.9142 715.048 -60H683.303C680.75 -57.8788 678.614 -55.2936 677.007 -52.3789C675.227 -55.3784 672.85 -57.9735 670.023 -60H642.353C639.756 -58.1844 637.541 -55.8704 635.834 -53.1909C634.127 -50.5113 632.962 -47.5187 632.406 -44.3847C631.486 -48.6349 629.208 -52.4639 625.92 -55.2845C622.633 -58.105 618.518 -59.7616 614.206 -60H612.089C608.416 -59.8055 604.869 -58.5806 601.85 -56.4634C598.831 -54.3463 596.459 -51.4212 595.003 -48.0183C593.546 -44.6154 593.063 -40.8702 593.608 -37.2054C594.152 -33.5406 595.703 -30.1021 598.085 -27.278C600.467 -24.4539 603.585 -22.3567 607.087 -21.223C610.59 -20.0893 614.337 -19.9642 617.906 -20.862C621.475 -21.7598 624.724 -23.6446 627.286 -26.3037C629.848 -28.9629 631.622 -32.2905 632.406 -35.9109C633.053 -32.2544 634.519 -28.7944 636.692 -25.7934C638.864 -22.7923 641.687 -20.329 644.945 -18.5903C641.875 -17.0104 639.169 -14.7997 637 -12.1009C634.831 -9.40207 633.248 -6.27502 632.353 -2.92175C630.837 -7.55475 627.732 -11.4923 623.595 -14.028C619.458 -16.5638 614.56 -17.5319 609.778 -16.7587C604.997 -15.9855 600.645 -13.5217 597.504 -9.80905C594.363 -6.09641 592.637 -1.37787 592.637 3.50021C592.637 8.37833 594.363 13.0969 597.504 16.8095C600.645 20.5222 604.997 22.986 609.778 23.7592C614.56 24.5323 619.458 23.5642 623.595 21.0284C627.732 18.4927 630.837 14.5552 632.353 9.92221C633.967 15.9121 637.74 21.0807 642.934 24.4183C638.154 27.2559 634.435 31.6014 632.353 36.7825C630.801 33.4924 628.457 30.6453 625.535 28.5001C622.612 26.3549 619.203 24.9798 615.619 24.4997C612.034 24.0196 608.387 24.4498 605.01 25.7513C601.632 27.0528 598.631 29.1841 596.28 31.9515C593.928 34.7189 592.301 38.0345 591.546 41.5969C590.791 45.1592 590.932 48.8552 591.956 52.3487C592.98 55.8421 594.855 59.0222 597.411 61.5997C599.966 64.1772 603.12 66.0704 606.587 67.107C601.961 68.3793 597.824 71.0289 594.718 74.709C591.613 78.3891 589.682 82.9282 589.18 87.7319C588.554 82.6144 586.013 77.9304 582.077 74.6348C578.14 71.3392 573.103 69.6803 567.994 69.9963C562.885 70.3124 558.088 72.5797 554.581 76.3358C551.074 80.0919 549.121 85.0539 549.121 90.2101C549.121 95.3664 551.074 100.328 554.581 104.084C558.088 107.84 562.885 110.108 567.994 110.424C573.103 110.74 578.14 109.081 582.077 105.785C586.013 102.49 588.554 97.8058 589.18 92.6883C589.572 96.4171 590.829 100.001 592.852 103.149C594.874 106.297 597.604 108.921 600.82 110.808C595.83 113.571 591.887 117.918 589.604 123.173C587.97 119.942 585.599 117.149 582.686 115.021C579.772 112.893 576.399 111.492 572.843 110.932C569.288 110.372 565.651 110.671 562.232 111.802C558.813 112.933 555.709 114.865 553.175 117.44C550.641 120.014 548.75 123.157 547.657 126.611C546.563 130.065 546.299 133.73 546.885 137.307C547.471 140.884 548.892 144.269 551.029 147.186C553.167 150.102 555.961 152.466 559.182 154.083C554.226 156.265 550.105 160.004 547.436 164.742C545.651 161.632 543.2 158.961 540.263 156.924C537.325 154.887 533.974 153.534 530.453 152.964C535.302 152.004 539.624 149.26 542.575 145.267C545.526 141.273 546.895 136.316 546.417 131.361C545.938 126.405 543.645 121.807 539.985 118.462C536.325 115.116 531.559 113.263 526.617 113.263C521.674 113.263 516.909 115.116 513.249 118.462C509.589 121.807 507.296 126.405 506.817 131.361C506.338 136.316 507.708 141.273 510.659 145.267C513.61 149.26 517.931 152.004 522.781 152.964C518.562 153.653 514.603 155.464 511.31 158.209C508.018 160.953 505.512 164.534 504.052 168.579C502.349 164.217 499.341 160.495 495.444 157.931C491.548 155.367 486.957 154.087 482.306 154.269C477.656 154.45 473.177 156.085 469.489 158.945C465.802 161.805 463.088 165.749 461.726 170.232C460.671 166.664 458.739 163.422 456.108 160.806C453.478 158.19 450.235 156.286 446.68 155.269C443.125 154.252 439.372 154.156 435.77 154.989C432.168 155.822 428.833 157.557 426.074 160.034C423.314 162.511 421.221 165.65 419.986 169.159C418.752 172.668 418.417 176.434 419.013 180.108C419.608 183.783 421.115 187.246 423.393 190.178C425.671 193.109 428.647 195.414 432.044 196.879C426.409 198.808 421.643 202.702 418.606 207.857C415.554 202.714 410.793 198.825 405.167 196.879C408.54 195.404 411.491 193.097 413.746 190.171C416.002 187.246 417.489 183.795 418.072 180.138C418.656 176.48 418.315 172.734 417.082 169.244C415.85 165.754 413.765 162.633 411.02 160.168C408.274 157.703 404.957 155.975 401.374 155.141C397.791 154.308 394.057 154.396 390.517 155.399C386.977 156.402 383.745 158.286 381.118 160.878C378.491 163.47 376.554 166.687 375.486 170.232C374.098 165.772 371.374 161.855 367.689 159.016C364.004 156.178 359.537 154.557 354.901 154.376C350.265 154.195 345.687 155.463 341.795 158.006C337.903 160.548 334.886 164.242 333.16 168.579C331.718 164.532 329.225 160.948 325.94 158.201C322.655 155.454 318.699 153.646 314.483 152.964C319.33 151.998 323.645 149.25 326.591 145.255C329.537 141.261 330.901 136.305 330.42 131.352C329.938 126.4 327.644 121.805 323.984 118.462C320.325 115.12 315.561 113.268 310.621 113.268C305.681 113.268 300.918 115.12 297.258 118.462C293.599 121.805 291.305 126.4 290.823 131.352C290.341 136.305 291.706 141.261 294.651 145.255C297.597 149.25 301.913 151.998 306.759 152.964C303.242 153.527 299.895 154.877 296.965 156.916C294.035 158.954 291.596 161.629 289.828 164.742C287.14 160 283.001 156.261 278.03 154.083C281.251 152.466 284.045 150.102 286.182 147.186C288.32 144.269 289.74 140.884 290.327 137.307C290.913 133.73 290.648 130.065 289.555 126.611C288.461 123.157 286.57 120.014 284.036 117.44C281.503 114.865 278.399 112.933 274.98 111.802C271.561 110.671 267.924 110.372 264.368 110.932C260.813 111.492 257.44 112.893 254.526 115.021C251.612 117.149 249.241 119.942 247.608 123.173C245.329 117.933 241.407 113.59 236.445 110.808C239.654 108.918 242.375 106.292 244.389 103.144C246.402 99.9955 247.65 96.4134 248.031 92.6883C248.658 97.82 251.204 102.518 255.151 105.823C259.098 109.129 264.148 110.793 269.271 110.477C274.394 110.161 279.205 107.888 282.722 104.122C286.238 100.356 288.196 95.3805 288.196 90.2101C288.196 85.0398 286.238 80.0641 282.722 76.298C279.205 72.5319 274.394 70.259 269.271 69.9429C264.148 69.6268 259.098 71.2913 255.151 74.5969C251.204 77.9025 248.658 82.6002 248.031 87.7319C247.544 82.9233 245.618 78.377 242.51 74.6943C239.402 71.0116 235.258 68.3659 230.625 67.107C234.074 66.066 237.211 64.1744 239.751 61.6035C242.292 59.0327 244.155 55.864 245.172 52.3846C246.189 48.9051 246.328 45.2249 245.577 41.6776C244.826 38.1303 243.207 34.828 240.868 32.0699C238.53 29.3118 235.545 27.1852 232.184 25.8828C228.823 24.5804 225.193 24.1434 221.622 24.6114C218.051 25.0794 214.653 26.4377 211.735 28.563C208.817 30.6883 206.472 33.5135 204.912 36.7825C202.806 31.6159 199.093 27.2771 194.33 24.4183C199.525 21.0807 203.298 15.9121 204.912 9.92221C206.427 14.5552 209.532 18.4927 213.669 21.0284C217.806 23.5642 222.705 24.5323 227.486 23.7592C232.268 22.986 236.619 20.5222 239.76 16.8095C242.902 13.0969 244.627 8.37833 244.627 3.50021C244.627 -1.37787 242.902 -6.09641 239.76 -9.80905C236.619 -13.5217 232.268 -15.9855 227.486 -16.7587C222.705 -17.5319 217.806 -16.5638 213.669 -14.028C209.532 -11.4923 206.427 -7.55475 204.912 -2.92175C204.017 -6.27502 202.434 -9.40207 200.265 -12.1009C198.096 -14.7997 195.389 -17.0104 192.32 -18.5903C195.585 -20.3194 198.414 -22.78 200.588 -25.7827C202.761 -28.7854 204.222 -32.2503 204.859 -35.9109C205.634 -32.2674 207.407 -28.9156 209.978 -26.236C212.548 -23.5564 215.813 -21.6563 219.402 -20.7514C222.99 -19.8465 226.759 -19.973 230.279 -21.1165C233.8 -22.2601 236.932 -24.3749 239.32 -27.2209C241.708 -30.067 243.256 -33.5302 243.788 -37.2177C244.321 -40.9052 243.817 -44.6692 242.333 -48.0826C240.849 -51.4959 238.445 -54.4218 235.393 -56.5284C232.342 -58.6349 228.765 -59.8376 225.069 -60H223.165C218.84 -59.7668 214.709 -58.1142 211.404 -55.2947C208.098 -52.4752 205.8 -48.6435 204.859 -44.3847C204.302 -47.5187 203.137 -50.5113 201.43 -53.1909C199.723 -55.8704 197.508 -58.1844 194.912 -60H167.241C164.415 -57.9735 162.037 -55.3784 160.258 -52.3789C158.651 -55.2936 156.515 -57.8788 153.961 -60H122.217C118.392 -56.9172 115.527 -52.7918 113.963 -48.1153C112.863 -50.8289 111.22 -53.2848 109.135 -55.3297C107.05 -57.3745 104.569 -58.9644 101.847 -60H87.086C83.7546 -58.7923 80.7773 -56.762 78.4267 -54.095C76.076 -51.428 74.4272 -48.2096 73.6313 -44.7345C72.8353 -41.2594 72.9176 -37.6387 73.8705 -34.2039C74.8235 -30.7691 76.6168 -27.6299 79.0861 -25.0741C81.5554 -22.5182 84.6217 -20.6272 88.0044 -19.5743C91.3871 -18.5213 94.9781 -18.3401 98.4484 -19.0471C101.919 -19.7542 105.157 -21.327 107.868 -23.6214C110.578 -25.9159 112.674 -28.8587 113.963 -32.1804C115.885 -26.3936 119.785 -21.4828 124.968 -18.3238C119.805 -15.2151 115.906 -10.3614 113.963 -4.6272V-4.46732ZM679.652 126.317C677.914 120.529 674.156 115.569 669.071 112.354C673.427 109.73 676.922 105.875 679.123 101.269C680.894 104.47 683.406 107.193 686.446 109.207C689.486 111.22 692.963 112.464 696.583 112.834C692.806 113.305 689.23 114.812 686.245 117.189C683.26 119.567 680.979 122.724 679.652 126.317ZM679.229 78.7785C677.031 74.2005 673.556 70.367 669.23 67.7465C672.845 65.5086 675.847 62.3938 677.959 58.6865C680.722 63.3597 684.946 66.9774 689.969 68.9724C685.438 70.9969 681.673 74.4346 679.229 78.7785ZM677.959 33.425C675.856 29.647 672.811 26.4874 669.124 24.2584C672.379 22.1789 675.113 19.37 677.113 16.051C679.248 19.7906 682.287 22.9257 685.948 25.1644C682.703 27.1878 679.968 29.9426 677.959 33.2118V33.425ZM676.796 -28.0767C678.973 -24.1366 682.126 -20.8316 685.948 -18.4837C682.333 -16.2458 679.331 -13.131 677.219 -9.42368C674.818 -13.4277 671.355 -16.6764 667.219 -18.8034C671.203 -20.9402 674.519 -24.1509 676.796 -28.0767ZM648.86 157.121C645.919 158.225 643.259 159.974 641.072 162.242C638.885 164.509 637.226 167.239 636.215 170.232C634.599 164.34 630.815 159.29 625.634 156.109C629.652 153.89 633.012 150.634 635.369 146.675C638.479 151.673 643.266 155.379 648.86 157.121ZM642.776 112.407C639.752 114.386 637.175 116.983 635.21 120.028C632.815 115.979 629.354 112.678 625.21 110.489C628.473 108.464 631.211 105.688 633.199 102.388C635.429 106.541 638.74 110.005 642.776 112.407ZM632.194 55.4888C634.203 60.5734 637.783 64.8714 642.405 67.7465C638.444 70.1441 635.192 73.567 632.988 77.6593C629.797 72.4256 624.745 68.6139 618.861 67.0004C621.795 66.147 624.517 64.6809 626.851 62.6975C629.184 60.7142 631.077 58.2579 632.406 55.4888H632.194ZM589.445 143.744C591.741 148.99 595.681 153.333 600.661 156.109C596.77 158.471 593.617 161.887 591.561 165.968C588.987 160.617 584.622 156.352 579.234 153.923C583.707 151.752 587.363 148.181 589.656 143.744H589.445ZM547.119 188.885C549.914 194.047 554.43 198.049 559.869 200.183C554.83 202.478 550.802 206.555 548.547 211.641C546.227 205.961 541.861 201.373 536.325 198.797C540.995 196.767 544.903 193.296 547.489 188.885H547.119ZM503.734 185.101C505.947 191.16 510.457 196.086 516.273 198.797C511.489 201.035 507.553 204.775 505.057 209.456C502.292 204.005 497.644 199.759 491.989 197.518C494.731 196.371 497.216 194.681 499.298 192.548C501.379 190.415 503.014 187.882 504.105 185.101H503.734ZM461.884 258.913C461.26 255.593 459.886 252.463 457.867 249.764C455.849 247.066 453.24 244.871 450.245 243.351C454.923 241.055 458.757 237.323 461.197 232.692C463.884 237.455 468.047 241.199 473.048 243.351C470.205 244.964 467.759 247.199 465.891 249.893C464.022 252.587 462.78 255.67 462.255 258.913H461.884ZM461.302 183.395C462.234 186.531 463.834 189.424 465.991 191.873C468.147 194.321 470.808 196.266 473.788 197.571C468.443 199.712 463.995 203.647 461.197 208.71C458.349 203.509 453.753 199.503 448.234 197.412C451.39 196.268 454.243 194.409 456.573 191.979C458.903 189.549 460.648 186.612 461.673 183.395H461.302ZM374.428 258.913C373.824 255.712 372.511 252.688 370.587 250.068C368.664 247.448 366.179 245.298 363.317 243.778C368.303 241.623 372.448 237.878 375.116 233.119C377.57 237.738 381.4 241.466 386.068 243.778C383.202 245.313 380.706 247.465 378.759 250.081C376.811 252.696 375.459 255.712 374.798 258.913H374.428ZM375.645 183.395C376.619 186.572 378.297 189.484 380.552 191.912C382.806 194.34 385.579 196.22 388.66 197.412C383.151 199.519 378.56 203.521 375.698 208.71C372.919 203.651 368.489 199.715 363.159 197.571C366.127 196.248 368.778 194.297 370.932 191.851C373.087 189.405 374.694 186.522 375.645 183.395ZM333.319 185.101C335.457 190.637 339.678 195.1 345.064 197.518C339.409 199.759 334.761 204.005 331.996 209.456C329.512 204.765 325.573 201.022 320.779 198.797C326.466 196.022 330.838 191.101 332.948 185.101H333.319ZM289.987 188.885C292.421 193.204 296.115 196.665 300.569 198.797C295.011 201.342 290.635 205.94 288.347 211.641C286.071 206.551 282.025 202.475 276.972 200.183C282.367 198.02 286.841 194.022 289.617 188.885H289.987ZM247.661 143.744C249.904 148.163 253.504 151.733 257.925 153.923C252.526 156.336 248.156 160.606 245.598 165.968C243.537 161.873 240.362 158.454 236.445 156.109C241.326 153.288 245.169 148.95 247.396 143.744H247.661ZM204.964 55.4888C206.259 58.228 208.11 60.6632 210.398 62.6369C212.685 64.6106 215.358 66.0789 218.244 66.9471C212.361 68.5606 207.309 72.3723 204.118 77.606C201.929 73.5027 198.674 70.0763 194.7 67.6932C199.218 64.7782 202.715 60.5099 204.7 55.4888H204.964ZM204.118 102.388C205.986 105.623 208.554 108.392 211.631 110.489C207.497 112.691 204.039 115.99 201.631 120.028C199.695 116.96 197.112 114.358 194.065 112.407C198.165 110.065 201.55 106.637 203.853 102.494L204.118 102.388ZM202.107 146.675C204.464 150.634 207.824 153.89 211.843 156.109C206.689 159.321 202.915 164.359 201.261 170.232C200.256 167.244 198.605 164.518 196.427 162.251C194.25 159.984 191.6 158.232 188.669 157.121C194.143 155.308 198.808 151.61 201.843 146.675H202.107ZM160.522 -28.0767C162.833 -24.1273 166.184 -20.8993 170.204 -18.7502C166.085 -16.6197 162.639 -13.3706 160.258 -9.37039C158.088 -13.1013 155.034 -16.2323 151.369 -18.4837C155.119 -20.8368 158.185 -24.1461 160.258 -28.0767H160.522ZM160.258 16.051C162.238 19.3676 164.954 22.177 168.194 24.2584C164.519 26.5027 161.477 29.6587 159.358 33.425C157.39 30.0669 154.65 27.234 151.369 25.1644C154.937 22.8789 157.897 19.7505 159.993 16.051H160.258ZM159.358 58.6865C161.485 62.383 164.483 65.4946 168.088 67.7465C163.777 70.3701 160.32 74.2043 158.141 78.7785C155.732 74.4646 152.028 71.0314 147.56 68.9724C152.415 66.9021 156.465 63.2901 159.094 58.6865H159.358ZM158.141 101.322C160.305 105.937 163.786 109.797 168.141 112.407C163.056 115.622 159.297 120.582 157.559 126.37C156.229 122.759 153.934 119.589 150.928 117.21C147.921 114.83 144.32 113.334 140.523 112.887C144.126 112.487 147.582 111.224 150.601 109.202C153.621 107.181 156.115 104.46 157.877 101.269L158.141 101.322ZM137.56 159.626C134.18 159.626 130.876 160.636 128.066 162.527C125.255 164.419 123.065 167.107 121.772 170.252C120.478 173.398 120.14 176.859 120.799 180.198C121.459 183.537 123.086 186.605 125.476 189.012C127.866 191.42 130.911 193.059 134.226 193.723C137.541 194.387 140.977 194.047 144.1 192.744C147.222 191.441 149.891 189.234 151.769 186.404C153.647 183.573 154.649 180.245 154.649 176.84C154.649 172.275 152.849 167.896 149.644 164.668C146.439 161.44 142.092 159.626 137.56 159.626ZM94.3873 165.435C92.148 165.435 89.959 166.104 88.0971 167.357C86.2352 168.61 84.7838 170.392 83.9269 172.476C83.0699 174.559 82.8458 176.853 83.2827 179.065C83.7195 181.277 84.7978 183.31 86.3812 184.905C87.9647 186.5 89.9822 187.586 92.1785 188.026C94.3748 188.466 96.6512 188.24 98.7202 187.377C100.789 186.514 102.557 185.052 103.802 183.176C105.046 181.301 105.71 179.096 105.71 176.84C105.71 173.843 104.539 170.966 102.45 168.831C100.361 166.697 97.5213 165.477 94.546 165.435H94.3873ZM51.6379 170.764C50.4869 170.764 49.3616 171.108 48.4045 171.752C47.4474 172.397 46.7016 173.312 46.2611 174.383C45.8206 175.455 45.7053 176.633 45.9298 177.771C46.1544 178.908 46.7087 179.952 47.5226 180.772C48.3365 181.592 49.3736 182.15 50.5026 182.377C51.6315 182.603 52.8016 182.487 53.865 182.043C54.9284 181.599 55.8375 180.848 56.4769 179.884C57.1165 178.92 57.4576 177.786 57.4576 176.627C57.392 175.141 56.7731 173.734 55.7239 172.687C54.6747 171.64 53.2726 171.03 51.7967 170.978L51.6379 170.764ZM8.20062 174.175C7.55939 174.189 6.9483 174.452 6.49475 174.908C6.04126 175.365 5.7804 175.981 5.76691 176.627C5.8537 177.222 6.14996 177.765 6.60162 178.158C7.05334 178.551 7.63025 178.767 8.22705 178.767C8.82391 178.767 9.40082 178.551 9.85254 178.158C10.3042 177.765 10.6005 177.222 10.6873 176.627C10.6255 176.036 10.3577 175.487 9.93127 175.077C9.50494 174.667 8.94775 174.423 8.35931 174.388L8.20062 174.175ZM180.839 203.754C177.542 203.754 174.32 204.738 171.579 206.583C168.839 208.428 166.703 211.049 165.441 214.117C164.18 217.185 163.85 220.56 164.493 223.816C165.136 227.073 166.723 230.064 169.054 232.412C171.385 234.76 174.354 236.359 177.587 237.006C180.82 237.654 184.171 237.322 187.216 236.051C190.262 234.781 192.865 232.629 194.696 229.868C196.527 227.107 197.504 223.862 197.504 220.541C197.504 216.089 195.749 211.819 192.623 208.671C189.498 205.522 185.259 203.754 180.839 203.754ZM137.877 208.284C135.471 208.284 133.118 209.003 131.117 210.349C129.116 211.696 127.556 213.611 126.635 215.851C125.714 218.09 125.473 220.555 125.943 222.933C126.412 225.31 127.571 227.495 129.273 229.209C130.975 230.923 133.143 232.091 135.503 232.564C137.864 233.036 140.311 232.794 142.534 231.866C144.758 230.938 146.658 229.367 147.995 227.351C149.333 225.336 150.046 222.966 150.046 220.541C149.991 217.327 148.684 214.264 146.408 212.011C144.132 209.758 141.068 208.496 137.877 208.497V208.284ZM94.6519 213.133C93.1953 213.123 91.7681 213.548 90.5518 214.356C89.3354 215.163 88.3846 216.317 87.8199 217.669C87.2551 219.022 87.102 220.513 87.3797 221.954C87.6575 223.394 88.3537 224.719 89.3801 225.76C90.4064 226.802 91.7167 227.513 93.1447 227.803C94.5727 228.093 96.0541 227.949 97.401 227.39C98.7479 226.831 99.8995 225.882 100.71 224.662C101.52 223.443 101.953 222.009 101.953 220.541C101.898 218.623 101.107 216.801 99.7448 215.459C98.3829 214.117 96.5571 213.36 94.6519 213.347V213.133ZM51.6379 217.45C51.0334 217.461 50.4454 217.651 49.9478 217.997C49.4501 218.343 49.0649 218.829 48.8408 219.395C48.6166 219.961 48.5634 220.58 48.6877 221.176C48.812 221.772 49.1084 222.318 49.5396 222.745C49.9708 223.172 50.5175 223.461 51.1113 223.576C51.705 223.691 52.3193 223.627 52.877 223.392C53.4346 223.156 53.9108 222.76 54.2457 222.253C54.5806 221.746 54.7594 221.15 54.7595 220.541C54.7053 219.75 54.351 219.009 53.7699 218.474C53.1888 217.938 52.4255 217.648 51.6379 217.663V217.45ZM396.332 291.37C393.192 291.37 390.124 292.307 387.513 294.064C384.903 295.821 382.869 298.318 381.668 301.239C380.466 304.161 380.152 307.376 380.764 310.477C381.377 313.578 382.888 316.427 385.108 318.663C387.328 320.899 390.156 322.422 393.235 323.039C396.314 323.656 399.505 323.339 402.406 322.129C405.306 320.919 407.785 318.87 409.529 316.24C411.273 313.611 412.204 310.52 412.204 307.358C412.211 305.266 411.804 303.194 411.006 301.263C410.209 299.331 409.037 297.58 407.558 296.111C406.08 294.642 404.326 293.485 402.398 292.707C400.47 291.929 398.408 291.547 396.332 291.583V291.37ZM396.332 341.946C394.657 341.946 393.021 342.446 391.629 343.383C390.237 344.32 389.152 345.652 388.511 347.21C387.87 348.768 387.702 350.482 388.029 352.136C388.356 353.791 389.162 355.31 390.346 356.502C391.53 357.695 393.038 358.507 394.68 358.836C396.322 359.165 398.024 358.996 399.571 358.351C401.118 357.706 402.44 356.613 403.37 355.21C404.3 353.808 404.797 352.159 404.797 350.473C404.701 348.277 403.768 346.202 402.19 344.683C400.613 343.164 398.514 342.317 396.332 342.319V341.946ZM354.005 342.692C352.478 342.692 350.984 343.148 349.714 344.003C348.444 344.858 347.454 346.073 346.869 347.495C346.284 348.917 346.131 350.482 346.429 351.991C346.727 353.5 347.463 354.887 348.543 355.975C349.624 357.063 351 357.804 352.499 358.104C353.997 358.405 355.55 358.25 356.962 357.662C358.373 357.073 359.579 356.075 360.428 354.796C361.277 353.516 361.73 352.012 361.73 350.473C361.703 349.451 361.476 348.444 361.062 347.511C360.648 346.577 360.056 345.735 359.319 345.032C358.582 344.33 357.714 343.78 356.767 343.415C355.819 343.05 354.808 342.877 353.794 342.905L354.005 342.692ZM310.41 343.705C309.081 343.705 307.781 344.101 306.676 344.845C305.571 345.589 304.71 346.646 304.202 347.883C303.693 349.12 303.56 350.48 303.819 351.793C304.079 353.106 304.719 354.312 305.658 355.259C306.598 356.205 307.795 356.85 309.099 357.111C310.402 357.372 311.753 357.238 312.981 356.726C314.209 356.214 315.258 355.346 315.996 354.233C316.735 353.12 317.129 351.812 317.129 350.473C317.101 349.584 316.9 348.709 316.537 347.898C316.174 347.088 315.656 346.357 315.012 345.748C314.368 345.14 313.612 344.665 312.786 344.35C311.96 344.036 311.08 343.889 310.198 343.918L310.41 343.705ZM268.083 345.463C267.1 345.463 266.138 345.757 265.32 346.308C264.503 346.858 263.865 347.64 263.489 348.556C263.112 349.471 263.014 350.478 263.206 351.45C263.397 352.422 263.871 353.315 264.567 354.015C265.262 354.716 266.148 355.193 267.113 355.386C268.078 355.58 269.078 355.48 269.987 355.101C270.895 354.722 271.672 354.08 272.218 353.256C272.765 352.432 273.057 351.464 273.057 350.473C273.03 349.805 272.871 349.15 272.589 348.545C272.307 347.941 271.907 347.399 271.414 346.952C270.921 346.505 270.345 346.162 269.718 345.943C269.091 345.724 268.428 345.633 267.766 345.676L268.083 345.463ZM224.223 346.849C223.509 346.838 222.808 347.042 222.21 347.434C221.611 347.825 221.142 348.388 220.862 349.049C220.581 349.71 220.502 350.44 220.635 351.147C220.768 351.853 221.106 352.504 221.607 353.016C222.108 353.528 222.749 353.879 223.448 354.023C224.148 354.167 224.874 354.099 225.534 353.826C226.195 353.553 226.76 353.089 227.157 352.492C227.555 351.895 227.768 351.192 227.768 350.473C227.748 349.989 227.631 349.515 227.424 349.078C227.217 348.642 226.924 348.252 226.563 347.933C226.201 347.614 225.78 347.372 225.323 347.223C224.866 347.073 224.384 347.018 223.905 347.062L224.223 346.849ZM353.9 292.116C350.957 292.105 348.077 292.974 345.626 294.614C343.174 296.253 341.26 298.588 340.127 301.323C338.993 304.059 338.691 307.072 339.259 309.98C339.827 312.889 341.238 315.562 343.315 317.662C345.393 319.761 348.041 321.193 350.927 321.775C353.812 322.357 356.804 322.064 359.524 320.932C362.243 319.8 364.569 317.881 366.205 315.417C367.841 312.953 368.714 310.055 368.714 307.091C368.686 305.12 368.273 303.174 367.497 301.364C366.721 299.554 365.597 297.916 364.191 296.545C362.786 295.173 361.125 294.095 359.304 293.371C357.484 292.648 355.539 292.294 353.582 292.329L353.9 292.116ZM310.568 293.341C307.869 293.341 305.229 294.148 302.985 295.659C300.74 297.17 298.99 299.317 297.957 301.829C296.924 304.342 296.654 307.107 297.18 309.774C297.707 312.441 299.007 314.891 300.916 316.814C302.825 318.737 305.257 320.047 307.905 320.577C310.553 321.108 313.298 320.835 315.792 319.795C318.286 318.754 320.418 316.992 321.918 314.73C323.418 312.469 324.218 309.811 324.218 307.091C324.198 305.274 323.819 303.48 323.103 301.812C322.387 300.144 321.349 298.636 320.049 297.376C318.749 296.116 317.214 295.129 315.531 294.473C313.849 293.817 312.054 293.505 310.251 293.555L310.568 293.341ZM268.242 295.473C265.961 295.473 263.731 296.155 261.834 297.431C259.938 298.708 258.459 300.522 257.586 302.645C256.713 304.768 256.485 307.104 256.93 309.358C257.375 311.612 258.473 313.682 260.086 315.307C261.699 316.931 263.755 318.038 265.992 318.486C268.229 318.935 270.548 318.704 272.656 317.825C274.763 316.946 276.565 315.457 277.832 313.546C279.099 311.635 279.776 309.389 279.776 307.091C279.742 305.54 279.401 304.011 278.774 302.594C278.146 301.177 277.245 299.9 276.122 298.838C274.998 297.776 273.676 296.95 272.232 296.409C270.789 295.868 269.252 295.622 267.713 295.686L268.242 295.473ZM224.54 298.138C222.78 298.127 221.056 298.643 219.588 299.621C218.119 300.598 216.972 301.993 216.291 303.628C215.61 305.263 215.426 307.065 215.763 308.805C216.1 310.545 216.943 312.146 218.184 313.403C219.424 314.661 221.008 315.519 222.734 315.869C224.459 316.218 226.249 316.044 227.877 315.368C229.504 314.692 230.895 313.545 231.874 312.071C232.853 310.598 233.376 308.864 233.376 307.091C233.349 305.892 233.084 304.711 232.595 303.617C232.106 302.523 231.404 301.539 230.531 300.724C229.657 299.909 228.63 299.279 227.51 298.871C226.39 298.463 225.2 298.286 224.011 298.351L224.54 298.138ZM181.473 301.336C180.343 301.336 179.239 301.673 178.299 302.306C177.359 302.938 176.627 303.837 176.194 304.889C175.762 305.94 175.649 307.098 175.869 308.214C176.09 309.331 176.634 310.356 177.433 311.161C178.232 311.966 179.25 312.514 180.359 312.737C181.467 312.959 182.616 312.845 183.66 312.409C184.704 311.973 185.597 311.236 186.225 310.289C186.852 309.343 187.188 308.23 187.188 307.091C187.162 306.307 186.977 305.535 186.645 304.825C186.313 304.115 185.839 303.481 185.255 302.961C184.67 302.442 183.986 302.049 183.244 301.806C182.503 301.563 181.721 301.476 180.944 301.549L181.473 301.336ZM138.301 303.894C137.671 303.883 137.052 304.062 136.523 304.406C135.994 304.751 135.579 305.247 135.33 305.83C135.082 306.414 135.012 307.058 135.128 307.682C135.245 308.306 135.543 308.88 135.984 309.333C136.426 309.785 136.992 310.095 137.609 310.223C138.226 310.351 138.867 310.291 139.45 310.05C140.033 309.81 140.532 309.4 140.883 308.873C141.235 308.346 141.422 307.726 141.422 307.091C141.403 306.624 141.281 306.167 141.067 305.752C140.853 305.338 140.551 304.975 140.183 304.691C139.815 304.406 139.389 304.206 138.936 304.106C138.483 304.005 138.013 304.005 137.56 304.107L138.301 303.894ZM268.03 244.737C264.473 244.737 260.995 245.8 258.036 247.791C255.078 249.782 252.773 252.612 251.411 255.923C250.05 259.234 249.693 262.877 250.387 266.392C251.081 269.907 252.795 273.136 255.311 275.67C257.826 278.204 261.032 279.93 264.521 280.629C268.011 281.328 271.627 280.969 274.914 279.598C278.201 278.226 281.011 275.904 282.987 272.924C284.964 269.944 286.019 266.441 286.019 262.857C285.985 260.452 285.477 258.078 284.525 255.872C283.573 253.666 282.196 251.673 280.474 250.007C278.751 248.341 276.718 247.037 274.491 246.169C272.264 245.301 269.888 244.886 267.501 244.95L268.03 244.737ZM224.699 247.668C221.715 247.658 218.794 248.539 216.307 250.202C213.821 251.865 211.88 254.233 210.731 257.007C209.581 259.782 209.275 262.838 209.851 265.787C210.427 268.737 211.858 271.449 213.965 273.578C216.072 275.708 218.758 277.16 221.685 277.75C224.611 278.34 227.646 278.043 230.404 276.895C233.163 275.747 235.521 273.8 237.18 271.301C238.839 268.802 239.725 265.863 239.725 262.857C239.691 260.842 239.26 258.853 238.458 257.006C237.655 255.16 236.497 253.492 235.05 252.099C233.604 250.706 231.897 249.616 230.03 248.892C228.162 248.168 226.17 247.825 224.17 247.881L224.699 247.668ZM181.473 251.878C179.32 251.889 177.218 252.542 175.433 253.755C173.647 254.967 172.259 256.686 171.442 258.692C170.625 260.699 170.417 262.905 170.843 265.031C171.27 267.157 172.312 269.109 173.838 270.639C175.365 272.169 177.307 273.209 179.419 273.628C181.532 274.048 183.721 273.827 185.709 272.995C187.698 272.162 189.397 270.755 190.592 268.951C191.787 267.147 192.425 265.026 192.425 262.857C192.399 261.383 192.078 259.929 191.482 258.582C190.885 257.235 190.026 256.023 188.954 255.019C187.883 254.014 186.621 253.237 185.245 252.734C183.869 252.231 182.406 252.013 180.944 252.092L181.473 251.878ZM138.618 255.875C137.206 255.875 135.825 256.297 134.65 257.088C133.475 257.879 132.56 259.002 132.019 260.317C131.479 261.632 131.337 263.078 131.613 264.474C131.888 265.869 132.569 267.151 133.568 268.158C134.566 269.164 135.839 269.849 137.225 270.127C138.61 270.404 140.046 270.262 141.351 269.717C142.657 269.173 143.772 268.251 144.557 267.067C145.342 265.884 145.761 264.493 145.761 263.07C145.727 262.099 145.501 261.145 145.094 260.264C144.687 259.383 144.109 258.594 143.393 257.942C142.678 257.291 141.839 256.791 140.928 256.473C140.017 256.154 139.051 256.024 138.089 256.089L138.618 255.875ZM95.0751 259.233C94.0648 259.233 93.0959 259.637 92.3815 260.357C91.6671 261.076 91.2657 262.053 91.2657 263.07C91.2657 264.088 91.6671 265.064 92.3815 265.784C93.0959 266.503 94.0648 266.907 95.0751 266.907C96.0854 266.907 97.0544 266.503 97.7688 265.784C98.4832 265.064 98.8845 264.088 98.8845 263.07C98.8845 262.053 98.4832 261.076 97.7688 260.357C97.0544 259.637 96.0854 259.233 95.0751 259.233ZM95.0751 71.5305C91.4859 71.5305 87.9773 72.6026 84.993 74.6112C82.0087 76.6198 79.6827 79.4747 78.3091 82.8149C76.9356 86.1551 76.5762 89.8306 77.2764 93.3766C77.9766 96.9225 79.705 100.18 82.243 102.736C84.7809 105.293 88.0145 107.034 91.5348 107.739C95.055 108.444 98.7037 108.082 102.02 106.699C105.336 105.315 108.17 102.972 110.164 99.9662C112.158 96.9601 113.222 93.4258 113.222 89.8104C113.196 87.373 112.685 84.9657 111.721 82.73C110.757 80.4943 109.359 78.4753 107.609 76.792C105.859 75.1086 103.793 73.7948 101.531 72.9278C99.2695 72.0608 96.8586 71.6582 94.4402 71.7436L95.0751 71.5305ZM52.2198 77.3928C49.7817 77.3928 47.3984 78.1211 45.3712 79.4856C43.3439 80.85 41.7637 82.7894 40.8307 85.0584C39.8976 87.3274 39.6536 89.8241 40.1293 92.2329C40.605 94.6417 41.779 96.8543 43.5031 98.591C45.2271 100.328 47.4236 101.51 49.8149 101.989C52.2062 102.468 54.6849 102.223 56.9374 101.283C59.19 100.343 61.1152 98.7513 62.4697 96.7092C63.8243 94.6671 64.5474 92.2663 64.5474 89.8104C64.5212 88.1424 64.1617 86.4969 63.4902 84.9721C62.8187 83.4472 61.8491 82.0743 60.6393 80.9353C59.4294 79.7962 58.0042 78.9143 56.4485 78.3423C54.8929 77.7703 53.2388 77.5199 51.585 77.606L52.2198 77.3928ZM8.78265 84.4277C7.73627 84.4277 6.71332 84.7402 5.84326 85.3258C4.97321 85.9114 4.29504 86.7437 3.89459 87.7176C3.49414 88.6914 3.38947 89.763 3.59363 90.7968C3.79779 91.8306 4.30151 92.7802 5.04144 93.5256C5.78137 94.2709 6.72412 94.7785 7.75043 94.9841C8.77673 95.1898 9.84064 95.0842 10.8074 94.6808C11.7742 94.2774 12.6003 93.5944 13.1817 92.718C13.7631 91.8416 14.0734 90.8112 14.0734 89.7571C14.0494 89.0181 13.873 88.2922 13.5555 87.6256C13.2379 86.959 12.7861 86.3662 12.2288 85.885C11.6714 85.4038 11.0208 85.0447 10.3182 84.8305C9.6156 84.6163 8.87646 84.5517 8.14783 84.6408L8.78265 84.4277ZM94.599 118.483C91.5958 118.483 88.66 119.38 86.163 121.061C83.6659 122.741 81.7195 125.13 80.5703 127.925C79.421 130.72 79.1204 133.795 79.7062 136.762C80.2922 139.729 81.7383 142.455 83.8619 144.594C85.9855 146.733 88.6912 148.19 91.6367 148.78C94.5822 149.37 97.6352 149.067 100.41 147.909C103.184 146.752 105.556 144.791 107.224 142.276C108.893 139.761 109.783 136.803 109.783 133.778C109.783 129.722 108.184 125.831 105.336 122.963C102.488 120.094 98.6262 118.483 94.599 118.483ZM51.7437 125.038C49.9857 125.038 48.2673 125.563 46.8055 126.547C45.3439 127.531 44.2045 128.929 43.5318 130.565C42.859 132.201 42.6831 134.001 43.0261 135.738C43.369 137.475 44.2156 139.07 45.4587 140.322C46.7017 141.575 48.2854 142.427 50.0096 142.773C51.7338 143.118 53.5211 142.941 55.1452 142.263C56.7693 141.586 58.1576 140.438 59.1343 138.966C60.111 137.493 60.6321 135.762 60.6321 133.991C60.6461 132.804 60.4269 131.626 59.9871 130.524C59.5474 129.423 58.8957 128.419 58.0696 127.573C57.2435 126.726 56.2595 126.051 55.1738 125.589C54.0881 125.127 52.9224 124.885 51.7437 124.878V125.038ZM8.20062 129.888C7.45764 129.888 6.73145 130.11 6.11371 130.525C5.49597 130.941 5.01447 131.532 4.73016 132.224C4.4458 132.915 4.3714 133.676 4.51636 134.41C4.66132 135.144 5.01904 135.818 5.54437 136.347C6.06976 136.876 6.7392 137.237 7.4679 137.383C8.19659 137.529 8.95184 137.454 9.63824 137.167C10.3246 136.881 10.9113 136.396 11.3241 135.774C11.7368 135.152 11.9572 134.42 11.9572 133.672C11.9786 133.161 11.8972 132.652 11.718 132.174C11.5389 131.697 11.2656 131.26 10.9146 130.892C10.5637 130.524 10.1423 130.23 9.67584 130.03C9.20947 129.83 8.70752 129.727 8.20062 129.728V129.888ZM51.585 32.0926C48.812 32.0926 46.1013 32.9209 43.7956 34.4728C41.4899 36.0246 39.6929 38.2303 38.6317 40.811C37.5706 43.3916 37.2928 46.2313 37.8338 48.9709C38.3748 51.7104 39.7101 54.2269 41.6709 56.2021C43.6317 58.1772 46.1299 59.5223 48.8497 60.0672C51.5694 60.6122 54.3884 60.3325 56.9504 59.2635C59.5123 58.1946 61.7021 56.3845 63.2427 54.062C64.7833 51.7394 65.6055 49.0089 65.6055 46.2156C65.6265 44.3476 65.2794 42.4938 64.5842 40.7619C63.889 39.0299 62.8596 37.454 61.5555 36.1256C60.2515 34.7972 58.6988 33.7426 56.9873 33.0229C55.2759 32.3032 53.4396 31.9326 51.585 31.9327V32.0926ZM8.14783 39.3406C6.79572 39.3301 5.47101 39.7244 4.34167 40.4734C3.21234 41.2223 2.32935 42.2923 1.80463 43.5476C1.27991 44.8029 1.13715 46.1868 1.39453 47.5239C1.65186 48.861 2.29767 50.091 3.25 51.0578C4.20239 52.0246 5.4184 52.6848 6.74371 52.9544C8.06909 53.224 9.44415 53.091 10.6944 52.5722C11.9446 52.0535 13.0135 51.1724 13.7659 50.0406C14.5182 48.9089 14.9199 47.5776 14.92 46.2156C14.9484 45.302 14.7941 44.3919 14.4664 43.5396C14.1388 42.6871 13.6445 41.9097 13.0128 41.2535C12.3811 40.5973 11.6249 40.0757 10.7891 39.7197C9.95343 39.3636 9.05524 39.1803 8.14783 39.1808V39.3406ZM51.585 18.8224C54.5987 18.8224 57.5446 17.9221 60.0504 16.2356C62.5562 14.5491 64.5092 12.1519 65.6625 9.34726C66.8158 6.54263 67.1177 3.45654 66.5297 0.479156C65.9418 -2.4982 64.4905 -5.23309 62.3595 -7.37967C60.2285 -9.52621 57.5134 -10.988 54.5577 -11.5803C51.6019 -12.1725 48.5381 -11.8685 45.7538 -10.7068C42.9695 -9.5451 40.5899 -7.57782 38.9156 -5.05374C37.2413 -2.52963 36.3475 0.437866 36.3475 3.47354C36.3893 7.51654 38.0131 11.3796 40.8662 14.2236C43.7192 17.0675 47.5711 18.6627 51.585 18.6625V18.8224ZM8.14783 -4.57385C6.56769 -4.57385 5.02301 -4.10193 3.70923 -3.21768C2.39545 -2.3334 1.3714 -1.07654 0.766724 0.393951C0.162048 1.86441 0.00396729 3.48248 0.312256 5.04352C0.620483 6.60458 1.38129 8.03851 2.4986 9.16397C3.61591 10.2894 5.03949 11.0559 6.58923 11.3664C8.13892 11.6769 9.74524 11.5175 11.2051 10.9084C12.6649 10.2994 13.9127 9.26788 14.7905 7.94449C15.6683 6.62109 16.1368 5.06519 16.1368 3.47354C16.1508 2.40527 15.9549 1.34479 15.5604 0.353119C15.1658 -0.63855 14.5803 -1.54184 13.8377 -2.30469C13.0952 -3.06754 12.2102 -3.6748 11.2336 -4.09171C10.2571 -4.50861 9.20837 -4.72681 8.14783 -4.73373V-4.57385ZM51.585 -24.8257C54.5987 -24.8257 57.5446 -25.7259 60.0504 -27.4124C62.5562 -29.099 64.5092 -31.4962 65.6625 -34.3008C66.8158 -37.1054 67.1177 -40.1915 66.5297 -43.1689C65.9418 -46.1463 64.4905 -48.8812 62.3595 -51.0277C60.2285 -53.1743 57.5134 -54.6361 54.5577 -55.2283C51.6019 -55.8206 48.5381 -55.5166 45.7538 -54.3549C42.9695 -53.1932 40.5899 -51.2259 38.9156 -48.7018C37.2413 -46.1777 36.3475 -43.2102 36.3475 -40.1745C36.3893 -36.1315 38.0131 -32.2684 40.8662 -29.4245C43.7192 -26.5805 47.5711 -24.9854 51.585 -24.9856V-24.8257ZM8.14783 -32.0738C9.72687 -32.095 11.2646 -32.584 12.5696 -33.4799C13.8745 -34.3759 14.8886 -35.6389 15.4856 -37.1116C16.0825 -38.5844 16.2358 -40.2015 15.9264 -41.7614C15.6169 -43.3213 14.8582 -44.7549 13.7452 -45.8833C12.6321 -47.0117 11.214 -47.7851 9.66748 -48.1069C8.12097 -48.4288 6.51459 -48.2849 5.04871 -47.6931C3.58282 -47.1013 2.32239 -46.088 1.42456 -44.7794C0.526733 -43.4707 0.03125 -41.9248 -6.10352e-05 -40.3344C-0.00012207 -39.2615 0.211304 -38.1994 0.62207 -37.2096C1.03284 -36.2197 1.63464 -35.3219 2.39264 -34.5683C3.1507 -33.8146 4.0498 -33.2202 5.03772 -32.8194C6.0257 -32.4186 7.08282 -32.2195 8.14783 -32.2336V-32.0738Z" fill="url(#paint0_radial_949_19667)" fill-opacity="0.5"/>
<defs>
<radialGradient id="paint0_radial_949_19667" cx="0" cy="0" r="1" gradientUnits="userSpaceOnUse" gradientTransform="translate(403.207 148.482) rotate(180) scale(330.648 333.064)">
<stop offset="0.16" stop-color="#FFB71B"/>
<stop offset="0.27" stop-color="#FEAC23"/>
<stop offset="0.48" stop-color="#FA8E37"/>
<stop offset="0.74" stop-color="#F35E57"/>
<stop offset="1" stop-color="#EC297B"/>
</radialGradient>
</defs>
</svg>
