<svg width="114" height="114" viewBox="0 0 114 114" fill="none" xmlns="http://www.w3.org/2000/svg">
<g clip-path="url(#clip0_938_3165)">
<path d="M84.8076 84.8077C92.4478 77.1674 96.8252 66.8901 96.9767 56.2366C97.1281 45.5831 93.0413 35.4261 85.6153 28C78.1892 20.574 68.0322 16.4871 57.3787 16.6386C46.7252 16.7901 36.4479 21.1674 28.8076 28.8077C21.1673 36.448 16.79 46.7253 16.6385 57.3788C16.487 68.0323 20.5739 78.1893 27.9999 85.6154C35.426 93.0414 45.583 97.1282 56.2365 96.9768C66.89 96.8253 77.1673 92.4479 84.8076 84.8077V84.8077ZM74.2371 54.0502C74.5705 54.0397 74.9007 54.0956 75.2086 54.2148C75.5165 54.3339 75.7958 54.5139 76.0302 54.7441C76.2647 54.9744 76.4495 55.2504 76.5741 55.556C76.6986 55.8616 76.7603 56.1907 76.7556 56.5241C76.7508 56.8574 76.6797 57.1884 76.5465 57.4977C76.4132 57.8069 76.2204 58.0883 75.9793 58.3253C75.7382 58.5624 75.4537 58.7504 75.1423 58.8783C74.8309 59.0063 74.4989 59.0716 74.1657 59.0706L45.0802 59.4841L54.7682 69.1721C55.2323 69.6362 55.4877 70.271 55.4783 70.9369C55.4688 71.6027 55.1952 72.2451 54.7177 72.7226C54.2402 73.2001 53.5978 73.4737 52.932 73.4832C52.2661 73.4926 51.6313 73.2372 51.1672 72.7731L37.2547 58.8606C36.7906 58.3964 36.5352 57.7616 36.5446 57.0958C36.5541 56.4299 36.8277 55.7876 37.3052 55.3101L51.619 40.9963C52.0965 40.5188 52.7389 40.2452 53.4047 40.2357C54.0705 40.2263 54.7054 40.4817 55.1695 40.9458C55.6336 41.4099 55.889 42.0447 55.8796 42.7106C55.8701 43.3764 55.5965 44.0188 55.119 44.4963L45.1515 54.4637L74.2371 54.0502Z" fill="black"/>
</g>
<defs>
<clipPath id="clip0_938_3165">
<rect width="79.1959" height="81.4804" fill="white" transform="matrix(-0.707107 -0.707107 -0.707107 0.707107 113.615 56)"/>
</clipPath>
</defs>
</svg>
