<svg width="102" height="42" viewBox="0 0 102 42" fill="none" xmlns="http://www.w3.org/2000/svg">
<g clip-path="url(#clip0_921_3142)">
<path d="M81 0H21C9.40202 0 0 9.40202 0 21C0 32.598 9.40202 42 21 42H81C92.598 42 102 32.598 102 21C102 9.40202 92.598 0 81 0Z" fill="url(#paint0_radial_921_3142)"/>
<path d="M47.7526 28.4863C45.9852 28.4879 44.2447 28.0533 42.6854 27.2213C41.1261 26.3892 39.7962 25.1853 38.8135 23.7162C37.8308 22.2472 37.2259 20.5584 37.0521 18.7996C36.8783 17.0407 37.141 15.2662 37.8172 13.6332C38.4933 12.0003 39.562 10.5593 40.9283 9.43818C42.2945 8.31703 43.9163 7.55029 45.6499 7.20591C47.3834 6.86154 49.1751 6.95017 50.8662 7.46395C52.5573 7.97773 54.0954 8.90081 55.3444 10.1513V10.1513C56.8449 11.6537 57.8666 13.5671 58.2803 15.6499C58.6941 17.7326 58.4814 19.8912 57.6691 21.8531C56.8567 23.815 55.4812 25.4922 53.7162 26.6728C51.9513 27.8534 49.8761 28.4844 47.7526 28.4863V28.4863ZM47.7526 9.18956C45.7737 9.18889 43.8556 9.87443 42.3255 11.1294C40.7953 12.3843 39.7477 14.131 39.361 16.0718C38.9744 18.0126 39.2725 20.0275 40.2049 21.773C41.1372 23.5186 42.646 24.8869 44.4741 25.6447C46.3022 26.4025 48.3366 26.5031 50.2305 25.9291C52.1244 25.3552 53.7606 24.1423 54.8605 22.4971C55.9604 20.852 56.4559 18.8764 56.2624 16.9069C56.0689 14.9374 55.1984 13.096 53.7994 11.6963V11.6963C53.0071 10.8997 52.0648 10.2679 51.0269 9.83768C49.989 9.40742 48.8762 9.18714 47.7526 9.18956V9.18956Z" fill="white"/>
<path d="M64.9116 36.0076C64.6196 36.0045 64.3404 35.887 64.134 35.6802L53.8001 25.3463C53.6979 25.2449 53.6169 25.1243 53.5614 24.9915C53.5059 24.8587 53.477 24.7163 53.4766 24.5724C53.4761 24.4284 53.5039 24.2858 53.5585 24.1526C53.6131 24.0195 53.6935 23.8984 53.7949 23.7963C53.8964 23.6941 54.017 23.613 54.1498 23.5575C54.2826 23.502 54.425 23.4731 54.5689 23.4727C54.7129 23.4722 54.8555 23.5001 54.9887 23.5547C55.1219 23.6094 55.2429 23.6897 55.345 23.7911L65.6891 34.1353C65.8388 34.2902 65.9398 34.4856 65.9799 34.6972C66.02 34.9089 65.9973 35.1276 65.9147 35.3266C65.8321 35.5255 65.6931 35.696 65.5149 35.817C65.3367 35.938 65.127 36.0042 64.9116 36.0076V36.0076Z" fill="white"/>
</g>
<defs>
<radialGradient id="paint0_radial_921_3142" cx="0" cy="0" r="1" gradientUnits="userSpaceOnUse" gradientTransform="translate(-38.5) rotate(14.003) scale(208.702 100.254)">
<stop stop-color="#ce651e"/>
<!-- <stop stop-color="#FFB71B"/>
<stop offset="0.172741" stop-color="#FEAC23"/>
<stop offset="0.339526" stop-color="#FA8E37"/>
<stop offset="0.549209" stop-color="#F35E57"/>
<stop offset="0.72" stop-color="#EC297B"/> -->
</radialGradient>
<clipPath id="clip0_921_3142">
<rect width="102" height="42" fill="white"/>
</clipPath>
</defs>
</svg>
