<svg width="29" height="28" viewBox="0 0 29 28" fill="none" xmlns="http://www.w3.org/2000/svg">
<g clip-path="url(#clip0_699_2536)">
<path fill-rule="evenodd" clip-rule="evenodd" d="M6.00041 0C3.00738 0 0.581055 2.42633 0.581055 5.41935V22.5806C0.581055 25.5737 3.00738 28 6.00041 28H23.1617C26.1547 28 28.5811 25.5737 28.5811 22.5806V5.41935C28.5811 2.42633 26.1547 0 23.1617 0H6.00041ZM9.93071 14.4516C9.93071 11.6305 12.2074 9.35377 15.0285 9.35377C17.8495 9.35377 20.1263 11.6305 20.1263 14.4516C20.1263 17.2727 17.8495 19.5495 15.0285 19.5495C12.2074 19.5495 9.93071 17.2727 9.93071 14.4516ZM11.7153 14.4516C11.7153 16.276 13.2041 17.7649 15.0285 17.7649C16.8528 17.7649 18.3417 16.276 18.3417 14.4516C18.3417 12.6272 16.8528 11.1384 15.0285 11.1384C13.2041 11.1384 11.7153 12.6272 11.7153 14.4516ZM19.1445 9.14746C19.1445 8.48879 19.6764 7.95689 20.335 7.95689C20.4914 7.95669 20.6463 7.98735 20.7909 8.04711C20.9354 8.10688 21.0667 8.19457 21.1773 8.30516C21.2879 8.41576 21.3756 8.54708 21.4354 8.69162C21.4951 8.83615 21.5258 8.99106 21.5256 9.14746C21.5256 9.80862 20.9937 10.338 20.335 10.338C19.6764 10.338 19.1445 9.80614 19.1445 9.14746ZM24.9659 13.9497C24.9657 14.1169 24.9655 14.2842 24.9655 14.4516C24.9655 14.6389 24.9658 14.8259 24.9661 15.0128C24.9678 16.195 24.9696 17.3702 24.9009 18.5528C24.8239 20.1435 24.4635 21.5528 23.2978 22.7186C22.1345 23.8818 20.7228 24.2447 19.132 24.3218C17.9297 24.3894 16.735 24.3881 15.5328 24.3867C15.3657 24.3866 15.1984 24.3864 15.031 24.3864C14.8639 24.3864 14.6969 24.3866 14.53 24.3867C13.3295 24.3881 12.1345 24.3894 10.9299 24.3218C9.33916 24.2447 7.92988 23.8843 6.76418 22.7186C5.60096 21.5553 5.23808 20.1435 5.16103 18.5528C5.09338 17.3503 5.09471 16.1537 5.09604 14.9526C5.09622 14.7857 5.09641 14.6187 5.09641 14.4516C5.09641 14.2845 5.09622 14.1175 5.09604 13.9507C5.09471 12.7501 5.09338 11.5551 5.16103 10.3505C5.23808 8.75972 5.59848 7.35041 6.76418 6.18469C7.9274 5.02145 9.33916 4.65856 10.9299 4.58151C12.1322 4.51386 13.3269 4.51518 14.5291 4.51651C14.6962 4.5167 14.8635 4.51688 15.031 4.51688C15.1981 4.51688 15.3651 4.5167 15.5319 4.51651C16.7325 4.51518 17.9275 4.51386 19.132 4.58151C20.7228 4.65856 22.1321 5.01897 23.2978 6.18469C24.461 7.34793 24.8239 8.75972 24.9009 10.3505C24.9686 11.5528 24.9672 12.7475 24.9659 13.9497ZM22.0277 21.4509C22.3781 21.103 22.5968 20.7649 22.7783 20.3126C23.225 19.1882 23.2012 16.7346 23.1857 15.148C23.1832 14.8897 23.1809 14.6545 23.1809 14.4516C23.1809 14.2482 23.1832 14.0121 23.1858 13.7528C23.2012 12.1656 23.2252 9.71206 22.7808 8.58822C22.5993 8.13585 22.3806 7.8003 22.0301 7.44983C21.6822 7.09937 21.3441 6.88064 20.8918 6.6992C19.768 6.25479 17.3144 6.27871 15.7273 6.29419C15.468 6.29672 15.2319 6.29902 15.0285 6.29902C14.825 6.29902 14.5889 6.29672 14.3297 6.29419C12.7425 6.27871 10.289 6.25479 9.16518 6.6992C8.71281 6.88064 8.37727 7.10186 8.02682 7.44983C7.67636 7.79781 7.45763 8.13585 7.27619 8.58822C6.83179 9.71206 6.85572 12.1656 6.8712 13.7528C6.87372 14.0121 6.87603 14.2482 6.87603 14.4516C6.87603 14.6551 6.87372 14.8912 6.8712 15.1504C6.85572 16.7371 6.8318 19.1891 7.27619 20.315C7.45763 20.7674 7.67636 21.103 8.02682 21.4534C8.37479 21.8039 8.71281 22.0226 9.16518 22.2041C10.289 22.6485 12.7425 22.6245 14.3297 22.6091C14.5889 22.6065 14.825 22.6042 15.0285 22.6042C15.2313 22.6042 15.4666 22.6065 15.7248 22.609C17.3114 22.6245 19.7649 22.6483 20.8893 22.2016C21.3417 22.0201 21.6772 21.8014 22.0277 21.4509Z" fill="white"/>
</g>
<defs>
<clipPath id="clip0_699_2536">
<rect width="28" height="28" fill="white" transform="translate(0.581055)"/>
</clipPath>
</defs>
</svg>
