<svg width="5300" height="2129" viewBox="0 0 5300 2129" fill="none" xmlns="http://www.w3.org/2000/svg">
<path d="M1769.94 370.575L1763.82 374.217C1763.82 374.217 1762.66 375.376 1762.66 376.7C1762.66 377.363 1763.32 378.522 1763.32 378.522L1771.93 383.985C1777.39 387.627 1781.7 396.732 1781.7 406.5C1781.7 415.605 1774.91 426.035 1766.47 430.836C1761 433.816 1757.86 434.478 1745.77 434.478H1740.81C1722.43 434.478 1709.02 421.731 1709.02 405.175C1709.02 396.07 1713.99 386.799 1719.95 382.66L1726.57 378.356C1726.57 378.356 1727.73 377.197 1727.73 376.535C1727.73 375.873 1727.07 374.714 1726.57 374.052L1718.62 369.085C1713.16 365.443 1708.86 355.675 1708.86 347.067C1708.86 329.353 1722.27 317.764 1743.62 317.764C1768.62 317.764 1781.53 327.532 1781.53 347.729C1781.53 356.338 1776.07 366.602 1769.94 370.244V370.575ZM1743.12 551.192C1756.53 551.192 1761.5 552.351 1766.96 555.497C1775.57 560.298 1781.04 570.065 1781.04 579.833C1781.04 590.263 1775.57 600.03 1766.47 604.831C1761 607.811 1757.86 608.473 1745.77 608.473C1732.36 608.473 1728.72 607.811 1721.93 603.507C1713.99 598.54 1709.19 590.097 1709.19 581.488C1709.19 561.953 1721.44 551.027 1743.29 551.027L1743.12 551.192ZM1804.71 493.249C1780.87 493.249 1766.96 482.819 1766.96 463.946C1766.96 453.517 1772.43 444.411 1781.53 438.948C1787.66 435.306 1788.82 435.306 1801.07 435.306H1924.9C1942.61 435.306 1955.36 447.557 1955.36 463.284C1955.36 480.336 1942.61 493.249 1924.9 493.249H1804.71ZM1796.76 667.079C1779.71 667.079 1766.8 654.331 1766.8 638.438C1766.8 629.333 1771.1 620.724 1778.39 615.261C1783.85 610.957 1790.64 609.798 1805.21 609.798H1923.58C1941.95 609.798 1955.36 621.386 1955.36 637.776C1955.36 655.49 1942.61 667.079 1923.08 667.079H1796.76ZM1800.41 318.095C1780.21 318.095 1767.46 306.506 1767.46 289.455C1767.46 279.025 1773.59 268.761 1782.03 264.456C1788.65 260.814 1791.13 260.152 1807.69 260.152H1912.65C1931.52 260.152 1935.83 260.814 1941.95 264.456C1950.56 269.423 1955.36 279.025 1955.36 288.792C1955.36 308.99 1941.95 318.757 1913.81 318.757C1910.17 318.757 1907.02 318.757 1904.04 318.095H1800.41ZM1976.06 318.757C2000.39 318.757 2013.8 328.525 2013.8 347.398C2013.8 357.828 2007.68 368.092 1998.57 373.058C1993.11 376.038 1989.96 376.7 1977.22 376.7C1954.04 376.7 1941.29 366.271 1941.29 347.398C1941.29 328.525 1954.04 318.757 1976.06 318.757ZM1979.04 493.746C2000.39 493.746 2013.14 504.175 2013.14 522.386C2013.14 530.995 2008.84 540.762 2002.71 544.901L1996.09 549.206C1996.09 549.206 1994.93 550.364 1994.93 551.027C1994.93 552.848 1996.09 554.007 1999.73 555.993C2007.68 559.635 2013.14 570.065 2013.14 579.833C2013.14 587.779 2009.5 596.222 2003.37 602.348C1998.57 607.314 1989.3 609.135 1974.07 609.135C1954.53 609.135 1941.12 597.547 1941.12 580.495C1941.12 571.39 1947.25 560.298 1953.87 556.655C1959.34 553.676 1960 553.013 1960 551.855C1960 550.696 1959.34 549.371 1957.51 548.875C1946.59 542.749 1941.12 534.803 1941.12 523.214C1941.12 503.679 1953.38 493.911 1978.87 493.911L1979.04 493.746Z" fill="#D16A27"/>
<path d="M2148.23 493.249C2141.72 493.249 2138.47 494.077 2138.47 495.732C2138.47 496.891 2139.13 498.215 2142.11 500.036C2147.57 505.003 2152.54 514.108 2152.54 522.552C2152.54 531.657 2146.41 542.749 2140.29 546.391L2134.16 550.033C2134.16 550.033 2133.5 550.695 2133.5 551.854C2133.5 553.675 2134.16 554.338 2139.63 557.317C2146.41 560.96 2152.37 571.886 2152.37 580.495C2152.37 589.6 2146.91 600.692 2140.78 604.334C2134.16 608.639 2133.5 609.301 2133.5 609.797C2133.5 611.453 2135.93 613.66 2140.78 616.419C2146.91 620.062 2151.71 630.491 2151.71 638.935C2151.71 658.47 2138.3 668.899 2113.3 668.899C2092.61 668.899 2079.2 657.311 2079.2 639.597C2079.2 630.988 2084 620.062 2090.79 616.419L2096.91 612.115C2096.91 612.115 2098.07 611.453 2098.07 610.956C2098.07 610.46 2098.07 609.797 2097.41 609.797L2087.64 601.851C2083.34 598.871 2079.03 588.441 2079.03 581.819C2079.03 571.389 2084.5 560.463 2093.11 556.159C2096.09 555 2097.91 553.179 2097.91 551.854C2097.91 551.192 2097.24 550.695 2096.75 550.033L2088.14 544.57C2083.34 540.928 2079.03 530.498 2079.03 522.552C2079.03 513.446 2083.84 503.016 2089.96 499.374L2096.58 495.07C2097.74 495.07 2097.74 494.408 2097.74 493.249C2097.74 492.587 2097.08 491.428 2096.58 490.766L2089.96 487.123C2083.84 483.481 2079.03 472.555 2079.03 463.946C2079.03 454.179 2084.5 444.411 2091.28 440.107C2097.41 436.465 2098.07 435.802 2098.07 434.643C2098.07 433.485 2097.41 432.822 2091.28 429.18C2084.66 424.876 2079.03 414.612 2079.03 405.341C2079.03 395.573 2083.84 385.143 2091.28 381.501C2095.81 378.632 2098.07 376.811 2098.07 376.038C2098.07 374.217 2097.41 373.555 2093.77 371.734C2085.82 368.754 2079.2 356.503 2079.2 346.073C2079.2 336.968 2084 327.2 2090.79 322.896L2097.41 318.592C2097.41 318.592 2098.07 317.929 2098.07 317.433C2098.07 315.612 2098.07 314.949 2090.79 311.307C2084.66 307.665 2079.2 297.235 2079.2 288.13C2079.2 267.933 2092.61 258.165 2118.93 258.165C2139.13 258.165 2152.54 269.754 2152.54 288.13C2152.54 298.56 2146.41 308.327 2136.15 314.287C2134.33 315.446 2133.17 316.108 2133.17 317.267L2133.83 317.929L2142.44 324.055C2147.9 327.697 2152.87 338.127 2152.87 346.57C2152.87 357 2146.74 367.264 2138.3 371.568C2134.66 373.389 2134 374.051 2134 375.872C2134 376.535 2134.66 377.694 2135.16 378.356L2140.62 381.336C2147.9 385.64 2152.87 395.408 2152.87 405.175C2152.87 413.122 2149.23 421.565 2144.92 425.373C2139.46 429.677 2138.8 430.174 2138.8 431.995C2138.8 434.975 2139.46 434.975 2149.72 434.975H2318.75C2327.36 434.975 2327.86 434.312 2327.86 431.995C2327.86 430.836 2327.2 430.174 2322.4 425.869C2318.09 422.227 2313.79 412.459 2313.79 405.175C2313.79 396.07 2318.59 386.799 2324.71 382.66L2330.84 378.356C2332 377.694 2332.66 377.197 2332.66 376.535C2332.66 375.376 2332.66 374.051 2332 374.051L2324.71 369.085C2318.59 365.443 2314.28 355.013 2314.28 345.908C2314.28 336.14 2319.08 327.035 2326.53 322.73C2330.95 319.861 2333.16 318.04 2333.16 317.267C2333.16 316.108 2332 314.784 2327.03 312.301C2320.41 309.321 2314.28 297.732 2314.28 288.461C2314.28 270.085 2326.53 258.496 2347.89 258.496C2361.96 258.496 2367.43 259.655 2372.89 262.8C2381.5 267.601 2386.96 277.369 2386.96 287.799C2386.96 297.566 2381.5 307.996 2374.21 311.638C2369.41 314.618 2368.09 315.943 2368.09 317.102C2368.09 318.26 2369.25 318.923 2371.07 320.744C2381.99 327.366 2386.96 335.312 2386.96 346.404C2386.96 354.351 2382.16 364.781 2377.19 368.423L2368.09 374.548V375.707C2368.09 376.866 2368.75 378.19 2371.07 379.349C2380.84 384.316 2386.96 394.58 2386.96 405.506C2386.96 415.936 2380.17 426.863 2371.07 431.167C2368.58 432.326 2367.43 433.65 2367.43 434.147C2367.43 435.361 2370.3 437.568 2376.03 440.769C2381.5 444.411 2386.96 454.841 2386.96 463.284C2386.96 472.389 2381.5 482.819 2376.03 486.461C2368.09 490.766 2367.43 491.428 2367.43 493.083C2367.43 494.242 2368.09 494.904 2374.71 498.547C2381.33 502.189 2386.96 512.618 2386.96 522.386C2386.96 531.491 2382.16 541.259 2374.71 545.563L2369.91 548.543C2368.75 549.702 2368.09 550.364 2368.09 551.523C2368.09 552.185 2368.75 553.344 2369.25 554.006L2374.05 556.49C2381.33 560.794 2386.8 571.058 2386.8 580.991C2386.8 590.924 2380.67 601.685 2372.23 605.99C2368.58 607.811 2367.92 608.473 2367.92 610.294C2367.92 612.115 2367.92 612.115 2372.89 614.598C2380.84 618.241 2386.96 628.67 2386.96 638.935C2386.96 657.311 2374.21 668.237 2352.86 668.237C2339.45 668.237 2333.98 667.575 2329.02 664.595C2319.91 659.132 2313.79 649.364 2313.79 638.935C2313.79 628.008 2320.57 617.578 2330.18 613.274C2332 612.115 2332.66 611.453 2332.66 610.294C2332.66 609.135 2334.48 610.294 2322.89 601.685C2318.09 598.043 2313.79 588.276 2313.79 580.329C2313.79 570.562 2319.91 560.297 2327.86 555.993C2331.5 554.172 2332.66 553.013 2332.66 551.689C2332.66 551.026 2332.66 549.868 2332 549.868L2325.38 545.563C2319.25 541.259 2313.79 530.995 2313.79 521.724C2313.79 514.44 2317.43 505.831 2321.73 502.189C2327.2 497.388 2327.86 496.725 2327.86 494.904C2327.86 493.083 2326.7 492.421 2321.07 492.421H2148.4L2148.23 493.249Z" fill="#D16A27"/>
<path d="M2520.39 493.248C2517.41 493.248 2514.93 494.407 2514.93 495.731C2514.93 496.393 2515.59 496.89 2516.09 498.214L2520.89 502.519C2525.69 506.823 2529.49 515.266 2529.49 523.213C2529.49 532.318 2523.37 543.41 2516.75 547.052C2512.44 549.536 2510.13 551.357 2510.13 552.515L2510.79 553.178C2510.79 553.178 2511.95 554.337 2512.61 554.999L2518.73 559.303C2525.36 563.607 2529.66 571.554 2529.66 579.997C2529.66 589.765 2524.86 600.691 2518.73 604.333C2511.95 608.638 2510.79 609.3 2510.79 610.955C2510.79 612.114 2511.45 612.776 2514.43 613.935C2523.04 617.577 2529 629.166 2529 638.934C2529 649.86 2523.53 660.29 2513.77 665.091C2508.97 668.071 2504 668.733 2491.75 668.733C2479.5 668.733 2476.52 668.071 2471.05 665.091C2461.95 659.628 2456.49 649.86 2456.49 639.43C2456.49 629 2462.61 618.074 2471.05 614.432C2474.03 612.611 2474.7 611.949 2474.7 610.79C2474.7 609.576 2472.27 607.368 2467.41 604.168C2461.29 600.526 2456.49 590.096 2456.49 580.99C2456.49 571.885 2461.29 561.455 2468.74 557.151C2474.86 553.509 2475.52 553.509 2475.52 551.688C2475.52 550.529 2476.68 551.688 2466.42 544.403C2460.96 540.761 2456.65 530.994 2456.65 522.385C2456.65 511.955 2463.44 500.367 2471.22 496.724C2474.2 495.566 2474.86 494.903 2474.86 493.082C2474.86 491.923 2474.2 491.261 2473.7 491.261L2466.42 486.46C2460.96 482.818 2456.65 473.05 2456.65 463.945C2456.65 449.873 2468.9 435.305 2481.65 435.305C2493.24 434.642 2495.72 434.146 2495.72 432.325C2495.72 431.662 2492.74 428.02 2487.78 423.716C2484.13 420.736 2480.99 412.127 2480.99 404.843C2480.99 395.076 2487.11 384.646 2495.56 379.845C2500.36 377.361 2507.15 376.203 2518.73 376.203C2541.25 376.203 2554.16 386.632 2554.16 404.843C2554.16 412.127 2550.52 421.233 2546.22 424.875L2540.75 430.338C2540.75 430.338 2539.59 431.497 2539.59 432.159C2539.59 434.642 2540.26 434.642 2546.88 434.642H2671.37C2679.32 434.642 2680.48 434.642 2680.48 431.662C2680.48 430.504 2679.82 429.841 2676.84 427.358C2671.37 423.716 2666.41 413.948 2666.41 405.34C2666.41 386.963 2679.82 376.037 2701.17 376.037C2726.83 376.037 2739.58 385.805 2739.58 404.015C2739.58 413.121 2735.28 422.888 2729.15 427.193C2726.17 429.676 2725.51 430.835 2725.51 432.159C2725.51 434.642 2726.67 434.642 2737.1 435.139C2751.67 435.801 2763.92 449.211 2763.92 463.78C2763.92 472.885 2759.61 482.652 2753.49 486.295L2746.2 491.096C2746.2 491.096 2745.04 492.255 2745.04 492.917C2745.04 494.076 2746.2 495.4 2747.53 495.897L2753.65 500.201C2759.12 503.843 2764.08 514.273 2764.08 522.219C2764.08 530.828 2759.78 540.596 2754.31 544.735C2745.71 550.198 2745.21 550.86 2745.21 551.522C2745.21 552.681 2747.03 554.005 2753.82 558.806C2759.94 562.449 2764.25 572.878 2764.25 581.321C2764.25 589.268 2759.94 599.036 2754.48 603.34C2748.41 607.423 2745.37 609.852 2745.37 610.624C2745.37 611.397 2747.64 613.052 2752.16 615.591C2759.45 619.895 2764.41 630.159 2764.41 638.768C2764.41 658.303 2752.16 668.733 2730.31 668.733C2716.24 668.733 2712.6 668.071 2706.47 665.091C2697.36 659.628 2691.9 650.522 2691.9 639.43C2691.9 629.663 2696.7 620.557 2705.31 615.094L2707.79 613.273C2709.62 612.611 2710.28 611.452 2710.28 610.293C2710.28 609.134 2709.62 608.472 2705.31 605.989C2698.03 602.347 2691.9 590.758 2691.9 580.99C2691.9 571.885 2698.03 560.296 2705.97 556.654C2709.62 554.171 2710.28 553.674 2710.28 552.35C2710.28 551.688 2709.62 550.529 2709.12 549.867L2701.17 544.403C2696.21 541.423 2691.4 530.331 2691.4 523.709C2691.4 516.425 2695.05 507.32 2698.69 503.678C2706.64 496.393 2705.97 496.89 2705.97 495.731C2705.97 494.572 2704.81 493.248 2703.49 493.248H2521.05H2520.39ZM2563.76 376.203C2539.92 376.203 2527.18 365.773 2527.18 346.9C2527.18 328.027 2540.59 316.935 2561.28 316.935C2574.03 316.935 2581.48 318.756 2586.94 321.901C2594.89 326.868 2600.35 336.47 2600.35 345.741C2600.35 365.276 2586.94 376.203 2563.76 376.203ZM2608.3 258.495C2634.45 258.495 2646.71 267.6 2646.71 287.136C2646.71 306.671 2633.96 317.101 2611.94 317.101C2598.53 317.101 2593.07 316.438 2586.94 312.3C2579.66 307.333 2573.53 297.069 2573.53 288.46C2573.53 269.587 2586.28 258.495 2608.3 258.495ZM2635.12 321.405C2639.92 318.425 2645.55 317.763 2658.29 317.763C2680.31 317.763 2693.06 328.193 2693.06 346.403C2693.06 357.33 2686.93 367.759 2677.83 372.56C2672.37 375.044 2668.06 376.203 2655.31 376.203C2644.88 376.203 2641.24 375.54 2635.78 372.56C2627.17 367.594 2619.89 356.667 2619.89 347.562C2619.89 336.636 2626.01 325.544 2635.12 321.405Z" fill="#D16A27"/>
<path d="M2936.42 317.596C2951.65 317.596 2965.06 330.344 2965.06 345.574C2965.06 363.289 2951.65 376.036 2933.27 376.036H2894.2C2893.04 376.036 2891.72 376.698 2891.72 378.519C2891.72 379.678 2892.88 381.003 2896.52 383.486C2901.98 387.79 2906.29 397.558 2906.29 405.504C2906.29 414.113 2900.83 424.377 2895.36 428.019L2888.08 432.324C2888.08 432.324 2887.42 433.483 2887.42 434.807C2887.42 436.131 2888.08 437.29 2892.38 439.111C2899 442.754 2906.45 454.342 2906.45 462.951C2906.45 473.381 2900.33 484.307 2894.2 487.949C2888.74 490.432 2887.42 492.254 2887.42 493.412C2887.42 494.075 2888.08 495.233 2888.08 495.233L2894.7 499.538C2900.83 503.842 2905.63 514.106 2905.63 522.715C2905.63 531.324 2901.32 541.588 2895.2 545.23C2888.41 549.535 2887.25 550.693 2887.25 552.018C2887.25 553.342 2887.91 553.839 2895.86 559.302C2901.32 563.606 2905.63 573.374 2905.63 581.321C2905.63 590.426 2900.66 600.856 2894.04 604.498C2888.57 608.14 2887.25 609.464 2887.25 610.623C2887.25 611.782 2887.91 612.444 2894.04 616.749C2900.66 621.053 2905.63 630.82 2905.63 639.264C2905.63 658.137 2892.22 669.229 2869.7 669.229C2856.95 669.229 2853.31 668.566 2847.19 664.924C2838.58 659.461 2833.11 649.693 2833.11 639.264C2833.11 628.834 2837.92 619.729 2847.68 614.928C2850.66 613.769 2851.99 612.444 2851.99 610.623C2851.99 609.464 2850.83 608.14 2847.68 606.981C2839.74 603.339 2833.11 591.75 2833.11 581.321C2833.11 572.215 2837.92 562.448 2844.7 558.143L2850.17 554.501C2851.33 553.839 2851.99 552.68 2851.99 552.018C2851.99 551.356 2851.33 550.197 2850.83 550.197L2843.54 545.23C2838.08 541.588 2833.11 530.662 2833.11 522.715C2833.11 512.948 2838.58 502.518 2845.37 498.876C2850.83 495.233 2851.49 495.233 2851.49 493.412C2851.49 491.591 2850.83 490.929 2845.37 487.949C2838.74 483.645 2833.11 473.381 2833.11 463.613C2833.11 453.183 2839.24 442.257 2849.01 437.952C2851.49 436.794 2851.99 436.131 2851.99 434.973C2851.99 433.814 2850.83 432.489 2843.38 427.688C2837.92 424.708 2832.95 413.616 2832.95 405.173C2832.95 395.406 2839.07 384.479 2847.02 380.837C2850.66 378.354 2851.82 377.857 2851.82 376.533C2851.82 374.712 2850.66 373.553 2847.02 371.566C2838.41 367.262 2832.95 356.998 2832.95 346.568C2832.95 337.462 2837.75 327.695 2843.88 323.39L2850.5 319.748C2850.5 319.748 2851.66 318.59 2851.66 317.265C2851.66 316.603 2850.99 315.444 2850.5 315.444L2844.37 311.802C2837.58 307.498 2832.78 297.73 2832.78 287.962C2832.78 270.248 2845.53 258.66 2865.73 258.66C2884.1 258.66 2890.06 260.481 2897.51 267.268C2902.48 272.069 2906.62 280.678 2906.62 287.962C2906.62 297.068 2902.32 305.014 2895.03 311.14C2893.21 312.961 2892.05 314.12 2892.05 315.444C2892.05 317.265 2892.71 317.927 2900 317.927H2935.92L2936.42 317.596ZM2984.59 376.202C3010.75 376.202 3023.66 385.969 3023.66 404.842C3023.66 423.715 3010.92 434.807 2988.24 434.807C2975.49 434.807 2971.18 434.145 2965.72 430.503C2957.11 425.702 2950.49 415.272 2950.49 405.504C2950.49 387.79 2963.9 376.202 2984.59 376.202ZM3140.71 639.76C3140.71 650.687 3134.58 660.454 3125.48 665.421C3120.02 668.401 3115.71 669.063 3104.12 669.063C3080.28 669.063 3067.54 658.633 3067.54 639.76C3067.54 629.993 3073.66 619.563 3080.95 615.424C3085.75 612.941 3086.41 612.941 3086.41 611.12C3086.41 609.961 3085.75 609.299 3078.46 604.498C3072.34 600.856 3067.54 590.426 3067.54 581.983C3067.54 572.877 3072.34 563.11 3078.46 559.468L3085.08 554.501C3085.08 554.501 3086.24 553.342 3086.24 552.68C3086.24 552.018 3085.58 550.859 3085.08 550.197L3077.8 545.23C3072.34 541.588 3067.37 531.158 3067.37 522.715C3067.37 514.769 3071.01 506.16 3077.14 501.359C3080.12 498.876 3081.44 497.055 3081.44 496.392C3081.44 495.233 3078.96 493.412 3075.98 493.412H3045.52C3021.68 493.412 3008.93 483.645 3008.93 464.772C3008.93 450.203 3022.34 435.469 3035.09 435.469H3078.96C3080.12 435.469 3081.44 434.31 3081.44 432.986C3081.44 431.165 3080.78 430.006 3077.14 427.523C3071.67 423.881 3067.37 413.451 3067.37 405.504C3067.37 396.399 3072.83 385.307 3079.62 381.665C3084.59 379.182 3086.41 378.023 3086.41 376.698C3086.41 375.374 3086.41 374.877 3085.75 374.215L3075.98 367.427C3071.67 364.447 3067.37 354.68 3067.37 347.396C3067.37 338.29 3072.83 327.198 3078.96 323.556C3085.58 319.914 3086.91 318.59 3086.91 317.431C3086.91 316.768 3086.24 315.61 3085.75 314.947L3079.62 311.305C3072.34 306.339 3068.03 297.233 3068.03 288.128C3068.03 268.593 3080.78 258.825 3105.28 258.825C3127.8 258.825 3140.71 269.255 3140.71 288.128C3140.71 296.737 3135.91 307.001 3130.28 310.643L3123 314.947C3123 314.947 3121.84 316.106 3121.84 317.431C3121.84 318.093 3122.5 319.252 3123.66 319.914L3129.12 322.894C3135.91 327.86 3140.71 337.462 3140.71 346.733C3140.71 358.984 3137.07 364.447 3123.66 373.553C3122.5 374.712 3121.84 375.374 3121.84 376.036C3121.84 377.857 3123 379.016 3129.78 382.658C3135.91 386.3 3140.71 396.73 3140.71 405.835C3140.71 414.444 3135.91 424.708 3129.78 428.35L3123 432.655C3123 432.655 3121.84 433.814 3121.84 434.476C3121.84 436.297 3123 436.959 3128.62 439.939C3135.25 444.243 3140.88 454.508 3140.88 463.116C3140.88 471.725 3136.57 481.989 3131.77 485.135C3125.64 489.439 3122 492.419 3122 493.744C3122 494.406 3122.66 495.565 3123.82 496.227L3131.11 501.193C3136.07 504.835 3140.88 515.265 3140.88 523.212C3140.88 532.317 3135.41 542.747 3129.29 546.389L3123.82 550.031C3122.66 550.693 3122 551.19 3122 552.514C3122 553.177 3122.66 554.336 3123.82 554.998L3131.11 559.799C3136.07 563.441 3140.88 573.208 3140.88 581.155C3140.88 590.26 3135.41 601.352 3129.29 604.994C3123.16 608.637 3122 609.299 3122 611.12C3122 612.279 3121.34 612.279 3126.31 615.424C3126.97 615.424 3127.47 616.086 3128.13 616.583C3137.23 622.709 3140.88 629.993 3140.88 639.76H3140.71Z" fill="#D16A27"/>
<path d="M3324.97 317.596C3340.2 317.596 3353.61 330.344 3353.61 345.574C3353.61 363.289 3340.2 376.036 3321.82 376.036H3282.75C3281.59 376.036 3280.27 376.698 3280.27 378.519C3280.27 379.678 3281.43 381.003 3285.07 383.486C3290.53 387.79 3294.84 397.558 3294.84 405.504C3294.84 414.113 3289.37 424.377 3283.91 428.019L3276.63 432.324C3276.63 432.324 3275.96 433.483 3275.96 434.807C3275.96 436.131 3276.63 437.29 3280.93 439.111C3287.55 442.754 3295 454.342 3295 462.951C3295 473.381 3288.88 484.307 3282.75 487.949C3277.29 490.432 3275.96 492.254 3275.96 493.412C3275.96 494.075 3276.63 495.233 3276.63 495.233L3283.25 499.538C3289.37 503.842 3294.18 514.106 3294.18 522.715C3294.18 531.324 3289.87 541.588 3283.75 545.23C3276.96 549.535 3275.8 550.693 3275.8 552.018C3275.8 553.342 3276.46 553.839 3284.41 559.302C3289.87 563.606 3294.18 573.374 3294.18 581.321C3294.18 590.426 3289.21 600.856 3282.59 604.498C3277.12 608.14 3275.8 609.464 3275.8 610.623C3275.8 611.782 3276.46 612.444 3282.59 616.749C3289.21 621.053 3294.18 630.82 3294.18 639.264C3294.18 658.137 3280.77 669.229 3258.25 669.229C3245.5 669.229 3241.86 668.566 3235.74 664.924C3227.13 659.461 3221.66 649.693 3221.66 639.264C3221.66 628.834 3226.46 619.729 3236.23 614.928C3239.21 613.769 3240.54 612.444 3240.54 610.623C3240.54 609.464 3239.38 608.14 3236.23 606.981C3228.29 603.339 3221.66 591.75 3221.66 581.321C3221.66 572.215 3226.46 562.448 3233.25 558.143L3238.72 554.501C3239.87 553.839 3240.54 552.68 3240.54 552.018C3240.54 551.356 3239.87 550.197 3239.38 550.197L3232.09 545.23C3226.63 541.588 3221.66 530.662 3221.66 522.715C3221.66 512.948 3227.13 502.518 3233.91 498.876C3239.38 495.233 3240.04 495.233 3240.04 493.412C3240.04 491.591 3239.38 490.929 3233.91 487.949C3227.29 483.645 3221.66 473.381 3221.66 463.613C3221.66 453.183 3227.79 442.257 3237.56 437.952C3240.04 436.794 3240.54 436.131 3240.54 434.973C3240.54 433.814 3239.38 432.489 3231.93 427.688C3226.46 424.708 3221.5 413.616 3221.5 405.173C3221.5 395.406 3227.62 384.479 3235.57 380.837C3239.21 378.354 3240.37 377.857 3240.37 376.533C3240.37 374.712 3239.21 373.553 3235.57 371.566C3226.96 367.262 3221.5 356.998 3221.5 346.568C3221.5 337.462 3226.3 327.695 3232.42 323.39L3239.05 319.748C3239.05 319.748 3240.2 318.59 3240.2 317.265C3240.2 316.603 3239.54 315.444 3239.05 315.444L3232.92 311.802C3226.13 307.498 3221.33 297.73 3221.33 287.962C3221.33 270.248 3234.08 258.66 3254.28 258.66C3272.65 258.66 3278.61 260.481 3286.06 267.268C3291.03 272.069 3295.17 280.678 3295.17 287.962C3295.17 297.068 3290.86 305.014 3283.58 311.14C3281.76 312.961 3280.6 314.12 3280.6 315.444C3280.6 317.265 3281.26 317.927 3288.55 317.927H3324.47L3324.97 317.596ZM3373.14 376.202C3399.3 376.202 3412.21 385.969 3412.21 404.842C3412.21 423.715 3399.47 434.807 3376.79 434.807C3364.04 434.807 3359.73 434.145 3354.27 430.503C3345.66 425.702 3339.04 415.272 3339.04 405.504C3339.04 387.79 3352.45 376.202 3373.14 376.202ZM3529.26 639.76C3529.26 650.687 3523.13 660.454 3514.03 665.421C3508.56 668.401 3504.26 669.063 3492.67 669.063C3468.83 669.063 3456.08 658.633 3456.08 639.76C3456.08 629.993 3462.21 619.563 3469.49 615.424C3474.3 612.941 3474.96 612.941 3474.96 611.12C3474.96 609.961 3474.3 609.299 3467.01 604.498C3460.89 600.856 3456.08 590.426 3456.08 581.983C3456.08 572.877 3460.89 563.11 3467.01 559.468L3473.63 554.501C3473.63 554.501 3474.79 553.342 3474.79 552.68C3474.79 552.018 3474.13 550.859 3473.63 550.197L3466.35 545.23C3460.89 541.588 3455.92 531.158 3455.92 522.715C3455.92 514.769 3459.56 506.16 3465.69 501.359C3468.67 498.876 3469.99 497.055 3469.99 496.392C3469.99 495.233 3467.51 493.412 3464.53 493.412H3434.07C3410.23 493.412 3397.48 483.645 3397.48 464.772C3397.48 450.203 3410.89 435.469 3423.64 435.469H3467.51C3468.67 435.469 3469.99 434.31 3469.99 432.986C3469.99 431.165 3469.33 430.006 3465.69 427.523C3460.22 423.881 3455.92 413.451 3455.92 405.504C3455.92 396.399 3461.38 385.307 3468.17 381.665C3473.14 379.182 3474.96 378.023 3474.96 376.698C3474.96 375.374 3474.96 374.877 3474.3 374.215L3464.53 367.427C3460.22 364.447 3455.92 354.68 3455.92 347.396C3455.92 338.29 3461.38 327.198 3467.51 323.556C3474.13 319.914 3475.45 318.59 3475.45 317.431C3475.45 316.768 3474.79 315.61 3474.3 314.947L3468.17 311.305C3460.89 306.339 3456.58 297.233 3456.58 288.128C3456.58 268.593 3469.33 258.825 3493.83 258.825C3516.35 258.825 3529.26 269.255 3529.26 288.128C3529.26 296.737 3524.46 307.001 3518.83 310.643L3511.54 314.947C3511.54 314.947 3510.39 316.106 3510.39 317.431C3510.39 318.093 3511.05 319.252 3512.21 319.914L3517.67 322.894C3524.46 327.86 3529.26 337.462 3529.26 346.733C3529.26 358.984 3525.62 364.447 3512.21 373.553C3511.05 374.712 3510.39 375.374 3510.39 376.036C3510.39 377.857 3511.54 379.016 3518.33 382.658C3524.46 386.3 3529.26 396.73 3529.26 405.835C3529.26 414.444 3524.46 424.708 3518.33 428.35L3511.54 432.655C3511.54 432.655 3510.39 433.814 3510.39 434.476C3510.39 436.297 3511.54 436.959 3517.17 439.939C3523.8 444.243 3529.42 454.508 3529.42 463.116C3529.42 471.725 3525.12 481.989 3520.32 485.135C3514.19 489.439 3510.55 492.419 3510.55 493.744C3510.55 494.406 3511.21 495.565 3512.37 496.227L3519.66 501.193C3524.62 504.835 3529.42 515.265 3529.42 523.212C3529.42 532.317 3523.96 542.747 3517.84 546.389L3512.37 550.031C3511.21 550.693 3510.55 551.19 3510.55 552.514C3510.55 553.177 3511.21 554.336 3512.37 554.998L3519.66 559.799C3524.62 563.441 3529.42 573.208 3529.42 581.155C3529.42 590.26 3523.96 601.352 3517.84 604.994C3511.71 608.637 3510.55 609.299 3510.55 611.12C3510.55 612.279 3509.89 612.279 3514.86 615.424C3515.52 615.424 3516.01 616.086 3516.68 616.583C3525.78 622.709 3529.42 629.993 3529.42 639.76H3529.26Z" fill="#D16A27"/>
<path d="M3666.02 368.753L3657.41 374.217C3657.41 374.217 3656.25 375.375 3656.25 376.038C3656.25 376.7 3656.91 377.859 3657.41 378.521L3664.69 383.488C3670.15 386.467 3674.46 396.897 3674.46 405.506C3674.46 413.452 3670.15 423.882 3664.69 427.524L3657.41 432.491C3657.41 432.491 3656.25 433.65 3656.25 434.312C3656.25 436.133 3655.59 436.133 3664.19 441.1C3670.32 444.742 3674.62 455.172 3674.62 463.615C3674.62 472.72 3670.32 482.488 3664.19 486.13L3657.57 490.434C3657.57 490.434 3656.41 492.255 3656.41 492.917C3656.41 493.58 3657.08 494.739 3657.57 495.401L3663.7 499.043C3669.82 502.685 3674.62 513.115 3674.62 522.22C3674.62 532.65 3668.5 543.576 3659.39 547.881C3657.57 549.04 3656.41 549.702 3656.41 550.861C3656.41 552.019 3657.57 553.344 3660.72 555.165C3669.33 559.966 3674.79 569.734 3674.79 580.163C3674.79 597.215 3661.38 609.466 3642.51 608.804H3637.04C3615.03 608.804 3602.28 598.374 3602.28 580.163C3602.28 571.058 3607.08 561.29 3613.2 557.648L3619.83 553.344C3619.83 553.344 3620.99 552.185 3620.99 551.523C3620.99 550.364 3620.32 549.04 3619.16 549.04L3613.7 545.397C3607.58 541.093 3602.77 530.829 3602.77 522.22C3602.77 513.115 3607.08 503.347 3613.2 499.043L3619.83 495.401C3619.83 495.401 3620.99 493.58 3620.99 492.917C3620.99 492.255 3620.32 491.096 3619.83 491.096L3610.72 483.812C3607.08 481.329 3602.77 471.065 3602.77 464.277C3602.77 455.172 3607.58 444.245 3613.7 441.1C3620.49 436.795 3620.99 436.133 3620.99 434.974C3620.99 433.815 3620.99 433.153 3619.83 432.491L3613.2 427.524C3607.74 423.882 3602.77 414.115 3602.77 405.506C3602.77 395.738 3608.24 385.309 3615.03 381.666C3619.83 378.687 3621.15 377.362 3621.15 376.203C3621.15 375.541 3621.15 374.382 3620.49 374.382L3612.54 368.919C3607.08 365.277 3602.77 355.509 3602.77 347.563C3602.77 330.511 3616.85 317.598 3634.56 317.598L3641.85 318.26C3663.2 318.922 3674.79 329.187 3674.79 346.901C3674.79 354.847 3671.15 365.277 3666.18 368.919L3666.02 368.753ZM3688.53 667.078C3673.96 667.078 3660.55 653.668 3660.55 638.438C3660.55 623.207 3673.3 610.459 3691.01 610.459H3817.83C3836.2 610.459 3848.95 621.386 3848.95 637.941C3848.95 654.496 3836.2 667.244 3817.16 667.244H3688.37L3688.53 667.078ZM3709.22 317.598C3683.56 317.598 3682.41 317.598 3675.12 313.956C3666.51 309.155 3661.05 299.387 3661.05 288.957C3661.05 273.727 3673.3 260.317 3687.21 260.317H3818.99C3836.7 260.317 3849.45 272.568 3849.45 288.957C3849.45 306.671 3836.7 317.598 3815.84 317.598H3709.06H3709.22ZM3897.13 486.626L3889.18 491.427C3889.18 491.427 3888.52 492.09 3888.52 493.249C3888.52 493.911 3889.18 495.07 3889.68 495.732L3896.46 500.036C3901.93 503.678 3906.89 514.108 3906.89 521.392C3906.89 531.16 3901.93 541.59 3895.97 545.232C3889.84 548.874 3888.68 550.198 3888.68 551.357C3888.68 552.571 3890.95 554.613 3895.47 557.483C3902.09 561.125 3907.06 571.555 3907.06 579.998C3907.06 598.374 3894.31 609.3 3872.96 609.3C3847.96 609.3 3835.21 599.533 3835.21 580.66C3835.21 570.892 3840.67 560.463 3847.46 556.821C3852.92 553.841 3853.59 553.178 3853.59 551.357C3853.59 550.695 3852.92 549.536 3852.43 548.874L3845.14 543.907C3839.68 540.265 3835.38 530.498 3835.38 521.889C3835.38 512.121 3841.5 501.195 3848.79 497.553C3853.09 495.732 3854.25 495.07 3854.25 493.911C3854.25 491.427 3853.59 491.427 3846.3 487.289C3840.18 483.647 3835.38 473.217 3835.38 464.111C3835.38 454.344 3840.84 444.576 3847.63 440.272C3852.04 437.844 3854.25 436.023 3854.25 434.809C3854.25 434.809 3853.59 432.988 3853.09 432.988L3846.96 428.683C3840.84 425.703 3835.38 414.611 3835.38 405.506C3835.38 396.897 3840.18 387.13 3846.3 383.488L3853.09 379.183C3853.09 379.183 3854.25 378.024 3854.25 376.7C3854.25 375.486 3851.38 373.279 3845.64 370.078C3839.51 366.436 3835.21 357.827 3835.21 348.722C3835.21 329.849 3847.96 318.757 3869.31 318.757C3881.56 318.757 3888.19 319.419 3893.15 322.399C3901.76 327.862 3907.72 337.63 3907.72 347.397C3907.72 356.503 3902.26 367.429 3895.47 371.237C3890.01 374.879 3888.68 375.541 3888.68 376.7C3888.68 377.859 3889.35 378.521 3889.84 379.183L3897.79 384.15C3902.59 387.792 3907.56 398.222 3907.56 406.168C3907.56 415.936 3901.43 426.862 3894.15 430.504C3889.35 432.988 3888.68 433.484 3888.68 434.809C3888.68 436.133 3889.35 437.292 3891.66 438.451C3901.43 443.252 3907.56 453.682 3907.56 464.111C3907.56 472.72 3902.76 482.984 3897.13 486.626Z" fill="#D16A27"/>
<path d="M4083.86 317.596C4099.09 317.596 4112.5 330.344 4112.5 345.574C4112.5 363.289 4099.09 376.036 4080.71 376.036H4041.64C4040.49 376.036 4039.16 376.698 4039.16 378.519C4039.16 379.678 4040.32 381.003 4043.96 383.486C4049.43 387.79 4053.73 397.558 4053.73 405.504C4053.73 414.113 4048.27 424.377 4042.8 428.019L4035.52 432.324C4035.52 432.324 4034.86 433.483 4034.86 434.807C4034.86 436.131 4035.52 437.29 4039.82 439.111C4046.45 442.754 4053.9 454.342 4053.9 462.951C4053.9 473.381 4047.77 484.307 4041.64 487.949C4036.18 490.432 4034.86 492.254 4034.86 493.412C4034.86 494.075 4035.52 495.233 4035.52 495.233L4042.14 499.538C4048.27 503.842 4053.07 514.106 4053.07 522.715C4053.07 531.324 4048.76 541.588 4042.64 545.23C4035.85 549.535 4034.69 550.693 4034.69 552.018C4034.69 553.342 4035.35 553.839 4043.3 559.302C4048.76 563.606 4053.07 573.374 4053.07 581.321C4053.07 590.426 4048.1 600.856 4041.48 604.498C4036.02 608.14 4034.69 609.464 4034.69 610.623C4034.69 611.782 4035.35 612.444 4041.48 616.749C4048.1 621.053 4053.07 630.82 4053.07 639.264C4053.07 658.137 4039.66 669.229 4017.14 669.229C4004.4 669.229 4000.75 668.566 3994.63 664.924C3986.02 659.461 3980.56 649.693 3980.56 639.264C3980.56 628.834 3985.36 619.729 3995.12 614.928C3998.1 613.769 3999.43 612.444 3999.43 610.623C3999.43 609.464 3998.27 608.14 3995.12 606.981C3987.18 603.339 3980.56 591.75 3980.56 581.321C3980.56 572.215 3985.36 562.448 3992.14 558.143L3997.61 554.501C3998.77 553.839 3999.43 552.68 3999.43 552.018C3999.43 551.356 3998.77 550.197 3998.27 550.197L3990.99 545.23C3985.52 541.588 3980.56 530.662 3980.56 522.715C3980.56 512.948 3986.02 502.518 3992.81 498.876C3998.27 495.233 3998.93 495.233 3998.93 493.412C3998.93 491.591 3998.27 490.929 3992.81 487.949C3986.18 483.645 3980.56 473.381 3980.56 463.613C3980.56 453.183 3986.68 442.257 3996.45 437.952C3998.93 436.794 3999.43 436.131 3999.43 434.973C3999.43 433.814 3998.27 432.489 3990.82 427.688C3985.36 424.708 3980.39 413.616 3980.39 405.173C3980.39 395.406 3986.52 384.479 3994.46 380.837C3998.1 378.354 3999.26 377.857 3999.26 376.533C3999.26 374.712 3998.1 373.553 3994.46 371.566C3985.85 367.262 3980.39 356.998 3980.39 346.568C3980.39 337.462 3985.19 327.695 3991.32 323.39L3997.94 319.748C3997.94 319.748 3999.1 318.59 3999.1 317.265C3999.1 316.603 3998.44 315.444 3997.94 315.444L3991.81 311.802C3985.03 307.498 3980.22 297.73 3980.22 287.962C3980.22 270.248 3992.97 258.66 4013.17 258.66C4031.55 258.66 4037.51 260.481 4044.96 267.268C4049.92 272.069 4054.06 280.678 4054.06 287.962C4054.06 297.068 4049.76 305.014 4042.47 311.14C4040.65 312.961 4039.49 314.12 4039.49 315.444C4039.49 317.265 4040.15 317.927 4047.44 317.927H4083.36L4083.86 317.596ZM4132.04 376.202C4158.19 376.202 4171.11 385.969 4171.11 404.842C4171.11 423.715 4158.36 434.807 4135.68 434.807C4122.93 434.807 4118.63 434.145 4113.16 430.503C4104.55 425.702 4097.93 415.272 4097.93 405.504C4097.93 387.79 4111.34 376.202 4132.04 376.202ZM4288.15 639.76C4288.15 650.687 4282.03 660.454 4272.92 665.421C4267.46 668.401 4263.15 669.063 4251.56 669.063C4227.72 669.063 4214.98 658.633 4214.98 639.76C4214.98 629.993 4221.1 619.563 4228.39 615.424C4233.19 612.941 4233.85 612.941 4233.85 611.12C4233.85 609.961 4233.19 609.299 4225.9 604.498C4219.78 600.856 4214.98 590.426 4214.98 581.983C4214.98 572.877 4219.78 563.11 4225.9 559.468L4232.53 554.501C4232.53 554.501 4233.68 553.342 4233.68 552.68C4233.68 552.018 4233.02 550.859 4232.53 550.197L4225.24 545.23C4219.78 541.588 4214.81 531.158 4214.81 522.715C4214.81 514.769 4218.45 506.16 4224.58 501.359C4227.56 498.876 4228.88 497.055 4228.88 496.392C4228.88 495.233 4226.4 493.412 4223.42 493.412H4192.96C4169.12 493.412 4156.37 483.645 4156.37 464.772C4156.37 450.203 4169.78 435.469 4182.53 435.469H4226.4C4227.56 435.469 4228.88 434.31 4228.88 432.986C4228.88 431.165 4228.22 430.006 4224.58 427.523C4219.12 423.881 4214.81 413.451 4214.81 405.504C4214.81 396.399 4220.27 385.307 4227.06 381.665C4232.03 379.182 4233.85 378.023 4233.85 376.698C4233.85 375.374 4233.85 374.877 4233.19 374.215L4223.42 367.427C4219.12 364.447 4214.81 354.68 4214.81 347.396C4214.81 338.29 4220.27 327.198 4226.4 323.556C4233.02 319.914 4234.35 318.59 4234.35 317.431C4234.35 316.768 4233.68 315.61 4233.19 314.947L4227.06 311.305C4219.78 306.339 4215.47 297.233 4215.47 288.128C4215.47 268.593 4228.22 258.825 4252.72 258.825C4275.24 258.825 4288.15 269.255 4288.15 288.128C4288.15 296.737 4283.35 307.001 4277.72 310.643L4270.44 314.947C4270.44 314.947 4269.28 316.106 4269.28 317.431C4269.28 318.093 4269.94 319.252 4271.1 319.914L4276.56 322.894C4283.35 327.86 4288.15 337.462 4288.15 346.733C4288.15 358.984 4284.51 364.447 4271.1 373.553C4269.94 374.712 4269.28 375.374 4269.28 376.036C4269.28 377.857 4270.44 379.016 4277.22 382.658C4283.35 386.3 4288.15 396.73 4288.15 405.835C4288.15 414.444 4283.35 424.708 4277.22 428.35L4270.44 432.655C4270.44 432.655 4269.28 433.814 4269.28 434.476C4269.28 436.297 4270.44 436.959 4276.07 439.939C4282.69 444.243 4288.32 454.508 4288.32 463.116C4288.32 471.725 4284.01 481.989 4279.21 485.135C4273.09 489.439 4269.44 492.419 4269.44 493.744C4269.44 494.406 4270.11 495.565 4271.26 496.227L4278.55 501.193C4283.52 504.835 4288.32 515.265 4288.32 523.212C4288.32 532.317 4282.85 542.747 4276.73 546.389L4271.26 550.031C4270.11 550.693 4269.44 551.19 4269.44 552.514C4269.44 553.177 4270.11 554.336 4271.26 554.998L4278.55 559.799C4283.52 563.441 4288.32 573.208 4288.32 581.155C4288.32 590.26 4282.85 601.352 4276.73 604.994C4270.6 608.637 4269.44 609.299 4269.44 611.12C4269.44 612.279 4268.78 612.279 4273.75 615.424C4274.41 615.424 4274.91 616.086 4275.57 616.583C4284.67 622.709 4288.32 629.993 4288.32 639.76H4288.15Z" fill="#D16A27"/>
<path d="M1772.76 1105.46C1769.78 1105.46 1767.3 1106.62 1767.3 1107.95C1767.3 1108.61 1767.96 1109.11 1768.45 1110.43L1773.26 1114.73C1778.06 1119.04 1781.86 1127.48 1781.86 1135.43C1781.86 1144.53 1775.74 1155.63 1769.12 1159.27C1764.81 1161.75 1762.49 1163.57 1762.49 1164.73L1763.16 1165.39C1763.16 1165.39 1764.32 1166.55 1764.98 1167.21L1771.1 1171.52C1777.73 1175.82 1782.03 1183.77 1782.03 1192.21C1782.03 1201.98 1777.23 1212.91 1771.1 1216.55C1764.32 1220.85 1763.16 1221.52 1763.16 1223.17C1763.16 1224.33 1763.82 1224.99 1766.8 1226.15C1775.41 1229.79 1781.37 1241.38 1781.37 1251.15C1781.37 1262.08 1775.9 1272.51 1766.14 1277.31C1761.34 1280.29 1756.37 1280.95 1744.12 1280.95C1731.87 1280.95 1728.89 1280.29 1723.42 1277.31C1714.32 1271.84 1708.86 1262.08 1708.86 1251.65C1708.86 1241.22 1714.98 1230.29 1723.42 1226.65C1726.4 1224.83 1727.07 1224.16 1727.07 1223.01C1727.07 1221.79 1724.64 1219.58 1719.78 1216.38C1713.66 1212.74 1708.86 1202.31 1708.86 1193.21C1708.86 1184.1 1713.66 1173.67 1721.11 1169.37C1727.23 1165.72 1727.89 1165.72 1727.89 1163.9C1727.89 1162.74 1729.05 1163.9 1718.79 1156.62C1713.33 1152.98 1709.02 1143.21 1709.02 1134.6C1709.02 1124.17 1715.81 1112.58 1723.59 1108.94C1726.57 1107.78 1727.23 1107.12 1727.23 1105.3C1727.23 1104.14 1726.57 1103.48 1726.07 1103.48L1718.79 1098.68C1713.33 1095.03 1709.02 1085.27 1709.02 1076.16C1709.02 1062.09 1721.27 1047.52 1734.02 1047.52C1745.61 1046.86 1748.09 1046.36 1748.09 1044.54C1748.09 1043.88 1745.11 1040.24 1740.14 1035.93C1736.5 1032.95 1733.36 1024.34 1733.36 1017.06C1733.36 1007.29 1739.48 996.862 1747.93 992.061C1752.73 989.577 1759.51 988.418 1771.1 988.418C1793.62 988.418 1806.53 998.848 1806.53 1017.06C1806.53 1024.34 1802.89 1033.45 1798.58 1037.09L1793.12 1042.55C1793.12 1042.55 1791.96 1043.71 1791.96 1044.38C1791.96 1046.86 1792.62 1046.86 1799.25 1046.86H1923.74C1931.69 1046.86 1932.85 1046.86 1932.85 1043.88C1932.85 1042.72 1932.19 1042.06 1929.21 1039.57C1923.74 1035.93 1918.78 1026.16 1918.78 1017.56C1918.78 999.179 1932.19 988.253 1953.54 988.253C1979.2 988.253 1991.95 998.02 1991.95 1016.23C1991.95 1025.34 1987.65 1035.1 1981.52 1039.41C1978.54 1041.89 1977.88 1043.05 1977.88 1044.38C1977.88 1046.86 1979.04 1046.86 1989.47 1047.36C2004.03 1048.02 2016.29 1061.43 2016.29 1076C2016.29 1085.1 2011.98 1094.87 2005.86 1098.51L1998.57 1103.31C1998.57 1103.31 1997.41 1104.47 1997.41 1105.13C1997.41 1106.29 1998.57 1107.62 1999.9 1108.11L2006.02 1112.42C2011.48 1116.06 2016.45 1126.49 2016.45 1134.44C2016.45 1143.04 2012.15 1152.81 2006.68 1156.95C1998.07 1162.41 1997.58 1163.08 1997.58 1163.74C1997.58 1164.9 1999.4 1166.22 2006.19 1171.02C2012.31 1174.66 2016.62 1185.09 2016.62 1193.54C2016.62 1201.48 2012.31 1211.25 2006.85 1215.56C2000.78 1219.64 1997.74 1222.07 1997.74 1222.84C1997.74 1223.61 2000.01 1225.27 2004.53 1227.81C2011.82 1232.11 2016.78 1242.38 2016.78 1250.98C2016.78 1270.52 2004.53 1280.95 1982.68 1280.95C1968.61 1280.95 1964.96 1280.29 1958.84 1277.31C1949.73 1271.84 1944.27 1262.74 1944.27 1251.65C1944.27 1241.88 1949.07 1232.77 1957.68 1227.31L1960.16 1225.49C1961.98 1224.83 1962.65 1223.67 1962.65 1222.51C1962.65 1221.35 1961.98 1220.69 1957.68 1218.2C1950.4 1214.56 1944.27 1202.97 1944.27 1193.21C1944.27 1184.1 1950.4 1172.51 1958.34 1168.87C1961.98 1166.39 1962.65 1165.89 1962.65 1164.57C1962.65 1163.9 1961.98 1162.74 1961.49 1162.08L1953.54 1156.62C1948.57 1153.64 1943.77 1142.55 1943.77 1135.93C1943.77 1128.64 1947.42 1119.54 1951.06 1115.89C1959 1108.61 1958.34 1109.11 1958.34 1107.95C1958.34 1106.79 1957.18 1105.46 1955.86 1105.46H1773.42H1772.76ZM1816.13 988.418C1792.29 988.418 1779.55 977.989 1779.55 959.116C1779.55 940.243 1792.96 929.151 1813.65 929.151C1826.4 929.151 1833.85 930.972 1839.31 934.117C1847.26 939.084 1852.72 948.686 1852.72 957.957C1852.72 977.492 1839.31 988.418 1816.13 988.418ZM1860.67 870.711C1886.82 870.711 1899.07 879.816 1899.07 899.351C1899.07 918.887 1886.33 929.316 1864.31 929.316C1850.9 929.316 1845.44 928.654 1839.31 924.515C1832.03 919.549 1825.9 909.285 1825.9 900.676C1825.9 881.803 1838.65 870.711 1860.67 870.711ZM1887.49 933.621C1892.29 930.641 1897.92 929.979 1910.66 929.979C1932.68 929.979 1945.43 940.408 1945.43 958.619C1945.43 969.546 1939.3 979.975 1930.2 984.776C1924.74 987.26 1920.43 988.418 1907.68 988.418C1897.25 988.418 1893.61 987.756 1888.15 984.776C1879.54 979.81 1872.26 968.883 1872.26 959.778C1872.26 948.852 1878.38 937.76 1887.49 933.621Z" fill="#D16A27"/>
<path d="M2130.18 982.791L2124.06 986.433C2124.06 986.433 2122.9 987.592 2122.9 988.917C2122.9 989.579 2123.56 990.738 2123.56 990.738L2132.17 996.201C2137.63 999.843 2141.93 1008.95 2141.93 1018.72C2141.93 1027.82 2135.15 1038.25 2126.7 1043.05C2121.24 1046.03 2118.1 1046.69 2106.01 1046.69H2101.04C2082.67 1046.69 2069.26 1033.95 2069.26 1017.39C2069.26 1008.29 2074.06 999.015 2080.18 994.877L2086.81 990.572C2086.81 990.572 2087.96 989.413 2087.96 988.751C2087.96 988.089 2087.3 986.93 2086.81 986.268L2078.86 981.301C2073.4 977.659 2069.09 967.892 2069.09 959.283C2069.09 941.569 2082.5 929.98 2103.86 929.98C2128.86 929.98 2141.77 939.748 2141.77 959.945C2141.77 968.554 2136.31 978.818 2130.18 982.46V982.791ZM2103.36 1163.41C2116.77 1163.41 2121.74 1164.57 2127.2 1167.71C2135.81 1172.51 2141.27 1182.28 2141.27 1192.05C2141.27 1202.48 2135.81 1212.25 2126.7 1217.05C2121.24 1220.03 2118.1 1220.69 2106.01 1220.69C2092.6 1220.69 2088.96 1220.03 2082.17 1215.72C2074.22 1210.76 2069.42 1202.31 2069.42 1193.7C2069.42 1174.17 2081.67 1163.24 2103.53 1163.24L2103.36 1163.41ZM2164.95 1105.47C2141.11 1105.47 2127.2 1095.04 2127.2 1076.16C2127.2 1065.73 2132.66 1056.63 2141.77 1051.16C2147.89 1047.52 2149.05 1047.52 2161.3 1047.52H2285.14C2302.85 1047.52 2315.6 1059.77 2315.6 1075.5C2315.6 1092.55 2302.85 1105.47 2285.14 1105.47H2164.95ZM2157 1279.29C2139.95 1279.29 2127.03 1266.55 2127.03 1250.65C2127.03 1241.55 2131.34 1232.94 2138.62 1227.48C2144.09 1223.17 2150.87 1222.01 2165.44 1222.01H2283.81C2302.19 1222.01 2315.6 1233.6 2315.6 1249.99C2315.6 1267.71 2302.85 1279.29 2283.32 1279.29H2157ZM2160.64 930.311C2140.44 930.311 2127.7 918.723 2127.7 901.671C2127.7 891.241 2133.82 880.977 2142.27 876.672C2148.89 873.03 2151.37 872.368 2167.93 872.368H2272.89C2291.76 872.368 2296.06 873.03 2302.19 876.672C2310.8 881.639 2315.6 891.241 2315.6 901.009C2315.6 921.206 2302.19 930.973 2274.05 930.973C2270.4 930.973 2267.26 930.974 2264.28 930.311H2160.64ZM2336.29 930.973C2360.63 930.973 2374.04 940.741 2374.04 959.614C2374.04 970.044 2367.91 980.308 2358.81 985.275C2353.34 988.255 2350.2 988.917 2337.45 988.917C2314.27 988.917 2301.53 978.487 2301.53 959.614C2301.53 940.741 2314.27 930.973 2336.29 930.973ZM2339.27 1105.96C2360.63 1105.96 2373.38 1116.39 2373.38 1134.6C2373.38 1143.21 2369.07 1152.98 2362.95 1157.12L2356.32 1161.42C2356.32 1161.42 2355.17 1162.58 2355.17 1163.24C2355.17 1165.06 2356.32 1166.22 2359.97 1168.21C2367.91 1171.85 2373.38 1182.28 2373.38 1192.05C2373.38 1200 2369.73 1208.44 2363.61 1214.56C2358.81 1219.53 2349.54 1221.35 2334.31 1221.35C2314.77 1221.35 2301.36 1209.76 2301.36 1192.71C2301.36 1183.61 2307.49 1172.51 2314.11 1168.87C2319.57 1165.89 2320.23 1165.23 2320.23 1164.07C2320.23 1162.91 2319.57 1161.59 2317.75 1161.09C2306.82 1154.97 2301.36 1147.02 2301.36 1135.43C2301.36 1115.9 2313.61 1106.13 2339.11 1106.13L2339.27 1105.96Z" fill="#D16A27"/>
<path d="M2483.97 982.791L2477.84 986.433C2477.84 986.433 2476.68 987.592 2476.68 988.917C2476.68 989.579 2477.35 990.738 2477.35 990.738L2485.96 996.201C2491.42 999.843 2495.72 1008.95 2495.72 1018.72C2495.72 1027.82 2488.94 1038.25 2480.49 1043.05C2475.03 1046.03 2471.88 1046.69 2459.8 1046.69H2454.83C2436.46 1046.69 2423.05 1033.95 2423.05 1017.39C2423.05 1008.29 2427.85 999.015 2433.97 994.877L2440.59 990.572C2440.59 990.572 2441.75 989.413 2441.75 988.751C2441.75 988.089 2441.09 986.93 2440.59 986.268L2432.65 981.301C2427.18 977.659 2422.88 967.892 2422.88 959.283C2422.88 941.569 2436.29 929.98 2457.65 929.98C2482.64 929.98 2495.56 939.748 2495.56 959.945C2495.56 968.554 2490.09 978.818 2483.97 982.46V982.791ZM2457.15 1163.41C2470.56 1163.41 2475.53 1164.57 2480.99 1167.71C2489.6 1172.51 2495.06 1182.28 2495.06 1192.05C2495.06 1202.48 2489.6 1212.25 2480.49 1217.05C2475.03 1220.03 2471.88 1220.69 2459.8 1220.69C2446.39 1220.69 2442.75 1220.03 2435.96 1215.72C2428.01 1210.76 2423.21 1202.31 2423.21 1193.7C2423.21 1174.17 2435.46 1163.24 2457.31 1163.24L2457.15 1163.41ZM2518.73 1105.47C2494.89 1105.47 2480.99 1095.04 2480.99 1076.16C2480.99 1065.73 2486.45 1056.63 2495.56 1051.16C2501.68 1047.52 2502.84 1047.52 2515.09 1047.52H2638.93C2656.64 1047.52 2669.39 1059.77 2669.39 1075.5C2669.39 1092.55 2656.64 1105.47 2638.93 1105.47H2518.73ZM2510.79 1279.29C2493.74 1279.29 2480.82 1266.55 2480.82 1250.65C2480.82 1241.55 2485.13 1232.94 2492.41 1227.48C2497.87 1223.17 2504.66 1222.01 2519.23 1222.01H2637.6C2655.98 1222.01 2669.39 1233.6 2669.39 1249.99C2669.39 1267.71 2656.64 1279.29 2637.1 1279.29H2510.79ZM2514.43 930.311C2494.23 930.311 2481.49 918.723 2481.49 901.671C2481.49 891.241 2487.61 880.977 2496.05 876.672C2502.68 873.03 2505.16 872.368 2521.71 872.368H2626.67C2645.55 872.368 2649.85 873.03 2655.98 876.672C2664.59 881.639 2669.39 891.241 2669.39 901.009C2669.39 921.206 2655.98 930.973 2627.83 930.973C2624.19 930.973 2621.05 930.974 2618.07 930.311H2514.43ZM2690.08 930.973C2714.42 930.973 2727.83 940.741 2727.83 959.614C2727.83 970.044 2721.7 980.308 2712.6 985.275C2707.13 988.255 2703.99 988.917 2691.24 988.917C2668.06 988.917 2655.31 978.487 2655.31 959.614C2655.31 940.741 2668.06 930.973 2690.08 930.973ZM2693.06 1105.96C2714.42 1105.96 2727.16 1116.39 2727.16 1134.6C2727.16 1143.21 2722.86 1152.98 2716.73 1157.12L2710.11 1161.42C2710.11 1161.42 2708.95 1162.58 2708.95 1163.24C2708.95 1165.06 2710.11 1166.22 2713.75 1168.21C2721.7 1171.85 2727.16 1182.28 2727.16 1192.05C2727.16 1200 2723.52 1208.44 2717.4 1214.56C2712.6 1219.53 2703.33 1221.35 2688.09 1221.35C2668.56 1221.35 2655.15 1209.76 2655.15 1192.71C2655.15 1183.61 2661.27 1172.51 2667.9 1168.87C2673.36 1165.89 2674.02 1165.23 2674.02 1164.07C2674.02 1162.91 2673.36 1161.59 2671.54 1161.09C2660.61 1154.97 2655.15 1147.02 2655.15 1135.43C2655.15 1115.9 2667.4 1106.13 2692.9 1106.13L2693.06 1105.96Z" fill="#D16A27"/>
<path d="M2848.85 980.97L2840.24 986.433C2840.24 986.433 2839.08 987.592 2839.08 988.254C2839.08 988.916 2839.74 990.075 2840.24 990.737L2847.52 995.704C2852.99 998.684 2857.29 1009.11 2857.29 1017.72C2857.29 1025.67 2852.99 1036.1 2847.52 1039.74L2840.24 1044.71C2840.24 1044.71 2839.08 1045.87 2839.08 1046.53C2839.08 1048.35 2838.42 1048.35 2847.03 1053.32C2853.15 1056.96 2857.46 1067.39 2857.46 1075.83C2857.46 1084.94 2853.15 1094.7 2847.03 1098.35L2840.24 1102.65C2840.24 1102.65 2839.08 1104.47 2839.08 1105.13C2839.08 1105.8 2839.74 1106.95 2840.24 1107.62L2846.37 1111.26C2852.49 1114.9 2857.29 1125.33 2857.29 1134.44C2857.29 1144.87 2851.17 1155.79 2842.06 1160.1C2840.24 1161.26 2839.08 1161.92 2839.08 1163.08C2839.08 1164.24 2840.24 1165.56 2843.39 1167.38C2851.99 1172.18 2857.46 1181.95 2857.46 1192.38C2857.46 1209.43 2844.05 1221.68 2825.17 1221.02H2819.71C2797.69 1221.02 2784.95 1210.59 2784.95 1192.38C2784.95 1183.27 2789.75 1173.51 2795.87 1169.86L2802.49 1165.56C2802.49 1165.56 2803.65 1164.4 2803.65 1163.74C2803.65 1162.58 2802.99 1161.26 2801.83 1161.26L2796.37 1157.61C2790.24 1153.31 2785.44 1143.05 2785.44 1134.44C2785.44 1125.33 2789.75 1115.56 2795.87 1111.26L2802.49 1107.62C2802.49 1107.62 2803.65 1105.8 2803.65 1105.13C2803.65 1104.47 2802.99 1103.31 2802.49 1103.31L2793.39 1096.03C2789.75 1093.55 2785.44 1083.28 2785.44 1076.49C2785.44 1067.39 2790.24 1056.46 2796.37 1053.32C2803.16 1049.01 2803.65 1048.35 2803.65 1047.19C2803.65 1046.03 2803.65 1045.37 2802.49 1044.71L2795.87 1039.74C2790.41 1036.1 2785.44 1026.33 2785.44 1017.72C2785.44 1007.95 2790.91 997.525 2797.69 993.883C2802.49 990.903 2803.82 989.578 2803.82 988.42C2803.82 987.757 2803.82 986.598 2803.16 986.598L2795.21 981.135C2789.75 977.493 2785.44 967.726 2785.44 959.779C2785.44 942.727 2799.51 929.814 2817.23 929.814L2824.51 930.476C2845.87 931.139 2857.46 941.403 2857.46 959.117C2857.46 967.063 2853.81 977.493 2848.85 981.135V980.97ZM2871.36 1279.29C2856.79 1279.29 2843.39 1265.88 2843.39 1250.65C2843.39 1235.42 2856.13 1222.68 2873.85 1222.68H3000.66C3019.04 1222.68 3031.78 1233.6 3031.78 1250.16C3031.78 1266.71 3019.04 1279.46 3000 1279.46H2871.2L2871.36 1279.29ZM2892.06 929.814C2866.4 929.814 2865.24 929.814 2857.95 926.172C2849.35 921.371 2843.88 911.604 2843.88 901.174C2843.88 885.943 2856.13 872.533 2870.04 872.533H3001.82C3019.53 872.533 3032.28 884.784 3032.28 901.174C3032.28 918.888 3019.53 929.814 2998.67 929.814H2891.89H2892.06ZM3079.96 1098.84L3072.01 1103.64C3072.01 1103.64 3071.35 1104.31 3071.35 1105.46C3071.35 1106.13 3072.01 1107.29 3072.51 1107.95L3079.3 1112.25C3084.76 1115.89 3089.73 1126.32 3089.73 1133.61C3089.73 1143.38 3084.76 1153.81 3078.8 1157.45C3072.67 1161.09 3071.52 1162.41 3071.52 1163.57C3071.52 1164.79 3073.78 1166.83 3078.3 1169.7C3084.93 1173.34 3089.89 1183.77 3089.89 1192.21C3089.89 1210.59 3077.14 1221.52 3055.79 1221.52C3030.79 1221.52 3018.04 1211.75 3018.04 1192.88C3018.04 1183.11 3023.51 1172.68 3030.29 1169.04C3035.76 1166.06 3036.42 1165.39 3036.42 1163.57C3036.42 1162.91 3035.76 1161.75 3035.26 1161.09L3027.98 1156.12C3022.51 1152.48 3018.21 1142.71 3018.21 1134.11C3018.21 1124.34 3024.33 1113.41 3031.62 1109.77C3035.92 1107.95 3037.08 1107.29 3037.08 1106.13C3037.08 1103.64 3036.42 1103.64 3029.13 1099.5C3023.01 1095.86 3018.21 1085.43 3018.21 1076.33C3018.21 1066.56 3023.67 1056.79 3030.46 1052.49C3034.87 1050.06 3037.08 1048.24 3037.08 1047.02C3037.08 1047.02 3036.42 1045.2 3035.92 1045.2L3029.8 1040.9C3023.67 1037.92 3018.21 1026.83 3018.21 1017.72C3018.21 1009.11 3023.01 999.346 3029.13 995.704L3035.76 991.4C3035.76 991.4 3036.92 990.241 3036.92 988.916C3036.92 987.702 3034.05 985.495 3028.31 982.294C3022.18 978.652 3017.88 970.043 3017.88 960.938C3017.88 942.065 3030.62 930.973 3051.98 930.973C3064.23 930.973 3070.85 931.635 3075.82 934.615C3084.43 940.078 3090.39 949.846 3090.39 959.614C3090.39 968.719 3084.93 979.645 3078.14 983.453C3072.67 987.095 3071.35 987.757 3071.35 988.916C3071.35 990.075 3072.01 990.737 3072.51 991.4L3080.46 996.366C3085.26 1000.01 3090.22 1010.44 3090.22 1018.38C3090.22 1028.15 3084.1 1039.08 3076.81 1042.72C3072.01 1045.2 3071.35 1045.7 3071.35 1047.02C3071.35 1048.35 3072.01 1049.51 3074.33 1050.67C3084.1 1055.47 3090.22 1065.9 3090.22 1076.33C3090.22 1084.94 3085.42 1095.2 3079.79 1098.84H3079.96Z" fill="#D16A27"/>
<path d="M3217.37 982.129L3210.75 986.433C3210.75 986.433 3209.59 987.592 3209.59 988.917C3209.59 989.579 3210.25 990.738 3211.41 991.4L3216.88 995.042C3223 999.346 3227.8 1009.11 3227.8 1017.56C3227.8 1026 3223 1036.43 3217.37 1040.07L3210.09 1045.04C3210.09 1045.04 3208.93 1046.2 3208.93 1046.86C3208.93 1047.52 3209.59 1048.68 3210.09 1048.68L3216.88 1052.99C3223 1057.29 3227.8 1067.06 3227.8 1076.16C3227.8 1084.77 3223 1095.04 3217.37 1098.68L3210.09 1102.98C3210.09 1102.98 3209.43 1104.14 3209.43 1104.8C3209.43 1105.96 3210.09 1106.62 3210.58 1107.29L3216.71 1111.59C3222.84 1115.23 3227.64 1125.66 3227.64 1134.11C3227.64 1142.05 3223.33 1151.82 3218.53 1155.46L3209.43 1162.08C3209.43 1162.08 3208.76 1162.75 3208.76 1163.24C3208.76 1165.06 3209.43 1165.06 3216.71 1169.37C3222.84 1173.01 3227.64 1182.78 3227.64 1191.88C3227.64 1210.26 3214.89 1221.19 3194.69 1221.19C3180.62 1221.19 3175.82 1220.03 3169.69 1216.88C3161.08 1212.08 3155.12 1202.31 3155.12 1191.88C3155.12 1183.94 3159.43 1174.17 3165.55 1170.53L3172.84 1165.06C3172.84 1165.06 3174 1163.91 3174 1163.24C3174 1162.08 3173.34 1161.42 3167.38 1157.78C3160.59 1153.48 3155.12 1143.21 3155.12 1133.94C3155.12 1122.35 3159.93 1114.41 3171.51 1108.28C3172.67 1107.12 3174 1105.8 3174 1105.3C3174 1104.8 3173.34 1103.48 3173.34 1103.48L3164.73 1097.35C3159.26 1093.71 3154.96 1083.94 3154.96 1076C3154.96 1067.55 3159.76 1057.62 3165.39 1053.98L3172.67 1049.01C3172.67 1049.01 3173.83 1047.85 3173.83 1046.53C3173.83 1045.87 3173.17 1044.71 3172.67 1044.05L3164.73 1039.08C3159.93 1035.44 3155.62 1025.67 3155.62 1017.72C3155.62 1008.62 3160.42 998.188 3166.05 994.545C3173.34 990.241 3174 989.744 3174 988.42C3174 987.758 3174 987.261 3173.34 987.261L3164.23 980.639C3159.26 976.997 3155.12 967.229 3155.12 959.283C3155.12 942.231 3169.2 929.98 3189.23 929.98C3201.48 929.98 3207.6 931.139 3213.07 934.285C3222.17 939.251 3227.64 948.853 3227.64 958.621C3227.64 967.726 3222.84 978.156 3217.21 981.798L3217.37 982.129ZM3374.81 872.368C3388.88 872.368 3402.29 886.44 3402.29 901.009C3402.29 911.438 3396.83 921.703 3387.73 926.669C3382.26 929.649 3378.62 930.311 3362.73 930.311H3252.97C3239.56 930.311 3234.09 929.649 3228.63 926.669C3219.52 921.703 3214.06 912.101 3214.06 901.671C3214.06 882.798 3226.31 872.368 3248.83 872.368H3375.14H3374.81ZM3269.85 1279.29C3237.57 1279.29 3238.07 1279.29 3232.6 1277.47C3221.01 1273.17 3213.73 1262.91 3213.73 1250.65C3213.73 1240.22 3219.86 1229.96 3228.96 1225.66C3233.27 1223.17 3238.07 1222.68 3250.98 1222.68H3370.01C3389.55 1222.68 3402.29 1233.11 3402.29 1250.16C3402.29 1268.53 3389.55 1279.46 3369.35 1279.46H3269.85V1279.29ZM3422.33 930.973H3427.29C3447.99 931.636 3460.24 941.9 3460.24 959.614C3460.24 978.487 3447.49 988.917 3425.47 988.917C3412.06 988.917 3408.42 988.255 3402.96 985.275C3394.35 980.308 3388.39 969.382 3388.39 960.276C3388.39 941.9 3401.13 930.973 3422.49 930.973H3422.33ZM3423.48 1164.07C3447.32 1164.07 3460.07 1173.84 3460.07 1192.71C3460.07 1205.46 3451.46 1216.55 3439.38 1220.19C3436.4 1221.35 3430.77 1221.35 3419.84 1221.35C3401.47 1221.35 3388.06 1209.76 3388.06 1193.21C3388.06 1173.67 3400.31 1163.91 3423.48 1163.91V1164.07Z" fill="#D16A27"/>
<path d="M3517.52 930.311C3501.62 930.311 3488.88 917.564 3488.88 901.671C3488.88 885.778 3501.62 872.368 3518.84 872.368H3641.52C3664.69 872.368 3676.94 882.136 3676.94 901.009C3676.94 919.882 3664.2 930.311 3643.34 930.311H3609.73C3607.25 930.311 3604.76 931.47 3604.76 932.795C3604.76 934.119 3607.74 937.099 3612.05 940.741C3616.35 944.383 3619.33 952.992 3619.33 960.276C3619.33 971.865 3615.03 977.99 3602.28 986.433C3601.12 987.592 3600.46 988.255 3600.46 989.413C3600.46 990.572 3601.12 991.234 3604.1 992.393C3612.71 996.035 3619.33 1007.62 3619.33 1017.39C3619.33 1026.5 3614.53 1036.93 3608.41 1040.57L3602.28 1044.21C3602.28 1044.21 3601.12 1046.03 3601.12 1046.69C3601.12 1048.52 3600.46 1047.85 3609.07 1053.32C3614.53 1056.96 3619.5 1067.39 3619.5 1075.83C3619.5 1085.6 3613.37 1096.03 3605.43 1100.83C3601.78 1102.65 3600.46 1103.81 3600.46 1104.47C3600.46 1105.63 3601.12 1106.96 3601.62 1107.45L3607.74 1110.43C3614.53 1114.07 3619.33 1124.5 3619.33 1133.61C3619.33 1144.54 3613.21 1154.3 3604.1 1159.77C3601.62 1160.93 3601.12 1161.59 3601.12 1162.75C3601.12 1163.91 3601.78 1165.23 3604.76 1166.39C3613.87 1171.19 3619.33 1180.96 3619.33 1191.39C3619.33 1198.67 3616.35 1207.28 3612.05 1210.92C3605.92 1216.39 3605.43 1217.05 3605.43 1217.71C3605.43 1220.69 3607.25 1222.01 3612.05 1222.01H3648.63C3665.69 1222.01 3677.28 1232.94 3677.28 1248.83C3677.28 1266.55 3663.87 1278.8 3644.99 1278.8H3518.68C3502.29 1278.8 3489.37 1266.05 3489.37 1250.16C3489.37 1236.09 3501.62 1222.18 3513.71 1222.18H3553.28C3560.06 1222.18 3561.22 1221.52 3561.22 1218.54C3561.22 1217.38 3560.56 1216.05 3555.76 1211.92C3550.96 1208.27 3547.15 1199.17 3547.15 1191.72C3547.15 1180.79 3552.61 1172.18 3563.04 1166.06C3564.87 1164.9 3566.02 1164.24 3566.02 1163.08C3566.02 1162.42 3565.36 1161.26 3564.87 1161.26L3556.92 1155.79C3551.46 1152.81 3547.15 1142.38 3547.15 1133.77C3547.15 1123.34 3553.28 1113.08 3561.72 1108.11H3562.88C3564.7 1106.96 3565.36 1106.29 3565.36 1105.13C3565.36 1103.98 3564.2 1102.65 3557.42 1098.51C3551.95 1094.87 3546.99 1084.44 3546.99 1075.33C3546.99 1066.23 3553.11 1055.14 3560.4 1051C3564.7 1049.18 3565.2 1048.52 3565.2 1047.36C3565.2 1046.2 3564.53 1045.54 3564.04 1044.87L3556.75 1039.91C3551.29 1036.26 3546.32 1026.5 3546.32 1017.89C3546.32 1008.78 3551.79 997.691 3557.91 994.711C3564.04 991.069 3565.2 990.407 3565.2 988.586C3565.2 987.923 3565.2 986.765 3564.53 986.765L3557.25 982.46C3551.12 978.818 3546.32 969.05 3546.32 959.945C3546.32 953.323 3549.3 945.376 3552.95 941.569L3559.73 934.285C3559.73 934.285 3560.4 933.622 3560.4 932.463C3560.4 931.305 3559.24 929.98 3557.42 929.98H3517.19L3517.52 930.311Z" fill="#D16A27"/>
<path d="M3782.22 1105.46C3779.24 1105.46 3776.76 1106.62 3776.76 1107.95C3776.76 1108.61 3777.42 1109.11 3777.92 1110.43L3782.72 1114.73C3787.52 1119.04 3791.33 1127.48 3791.33 1135.43C3791.33 1144.53 3785.2 1155.63 3778.58 1159.27C3774.27 1161.75 3771.96 1163.57 3771.96 1164.73L3772.62 1165.39C3772.62 1165.39 3773.78 1166.55 3774.44 1167.21L3780.56 1171.52C3787.19 1175.82 3791.49 1183.77 3791.49 1192.21C3791.49 1201.98 3786.69 1212.91 3780.56 1216.55C3773.78 1220.85 3772.62 1221.52 3772.62 1223.17C3772.62 1224.33 3773.28 1224.99 3776.26 1226.15C3784.87 1229.79 3790.83 1241.38 3790.83 1251.15C3790.83 1262.08 3785.37 1272.51 3775.6 1277.31C3770.8 1280.29 3765.83 1280.95 3753.58 1280.95C3741.33 1280.95 3738.35 1280.29 3732.89 1277.31C3723.78 1271.84 3718.32 1262.08 3718.32 1251.65C3718.32 1241.22 3724.44 1230.29 3732.89 1226.65C3735.87 1224.83 3736.53 1224.16 3736.53 1223.01C3736.53 1221.79 3734.1 1219.58 3729.24 1216.38C3723.12 1212.74 3718.32 1202.31 3718.32 1193.21C3718.32 1184.1 3723.12 1173.67 3730.57 1169.37C3736.69 1165.72 3737.36 1165.72 3737.36 1163.9C3737.36 1162.74 3738.51 1163.9 3728.25 1156.62C3722.79 1152.98 3718.48 1143.21 3718.48 1134.6C3718.48 1124.17 3725.27 1112.58 3733.05 1108.94C3736.03 1107.78 3736.69 1107.12 3736.69 1105.3C3736.69 1104.14 3736.03 1103.48 3735.53 1103.48L3728.25 1098.68C3722.79 1095.03 3718.48 1085.27 3718.48 1076.16C3718.48 1062.09 3730.73 1047.52 3743.48 1047.52C3755.07 1046.86 3757.55 1046.36 3757.55 1044.54C3757.55 1043.88 3754.57 1040.24 3749.61 1035.93C3745.96 1032.95 3742.82 1024.34 3742.82 1017.06C3742.82 1007.29 3748.94 996.862 3757.39 992.061C3762.19 989.577 3768.98 988.418 3780.56 988.418C3803.08 988.418 3815.99 998.848 3815.99 1017.06C3815.99 1024.34 3812.35 1033.45 3808.05 1037.09L3802.58 1042.55C3802.58 1042.55 3801.42 1043.71 3801.42 1044.38C3801.42 1046.86 3802.09 1046.86 3808.71 1046.86H3933.2C3941.15 1046.86 3942.31 1046.86 3942.31 1043.88C3942.31 1042.72 3941.65 1042.06 3938.67 1039.57C3933.2 1035.93 3928.24 1026.16 3928.24 1017.56C3928.24 999.179 3941.65 988.253 3963 988.253C3988.66 988.253 4001.41 998.02 4001.41 1016.23C4001.41 1025.34 3997.11 1035.1 3990.98 1039.41C3988 1041.89 3987.34 1043.05 3987.34 1044.38C3987.34 1046.86 3988.5 1046.86 3998.93 1047.36C4013.5 1048.02 4025.75 1061.43 4025.75 1076C4025.75 1085.1 4021.44 1094.87 4015.32 1098.51L4008.03 1103.31C4008.03 1103.31 4006.87 1104.47 4006.87 1105.13C4006.87 1106.29 4008.03 1107.62 4009.36 1108.11L4015.48 1112.42C4020.95 1116.06 4025.91 1126.49 4025.91 1134.44C4025.91 1143.04 4021.61 1152.81 4016.15 1156.95C4007.54 1162.41 4007.04 1163.08 4007.04 1163.74C4007.04 1164.9 4008.86 1166.22 4015.65 1171.02C4021.77 1174.66 4026.08 1185.09 4026.08 1193.54C4026.08 1201.48 4021.77 1211.25 4016.31 1215.56C4010.24 1219.64 4007.21 1222.07 4007.21 1222.84C4007.21 1223.61 4009.47 1225.27 4013.99 1227.81C4021.28 1232.11 4026.24 1242.38 4026.24 1250.98C4026.24 1270.52 4013.99 1280.95 3992.14 1280.95C3978.07 1280.95 3974.43 1280.29 3968.3 1277.31C3959.2 1271.84 3953.73 1262.74 3953.73 1251.65C3953.73 1241.88 3958.7 1232.77 3967.14 1227.31L3969.63 1225.49C3971.45 1224.83 3972.11 1223.67 3972.11 1222.51C3972.11 1221.35 3971.45 1220.69 3967.14 1218.2C3959.86 1214.56 3953.73 1202.97 3953.73 1193.21C3953.73 1184.1 3959.86 1172.51 3967.8 1168.87C3971.45 1166.39 3972.11 1165.89 3972.11 1164.57C3972.11 1163.9 3971.45 1162.74 3970.95 1162.08L3963 1156.62C3958.04 1153.64 3953.24 1142.55 3953.24 1135.93C3953.24 1128.64 3956.88 1119.54 3960.52 1115.89C3968.47 1108.61 3967.8 1109.11 3967.8 1107.95C3967.8 1106.79 3966.65 1105.46 3965.32 1105.46H3782.88H3782.22ZM3825.59 988.418C3801.76 988.418 3789.01 977.989 3789.01 959.116C3789.01 940.243 3802.42 929.151 3823.11 929.151C3835.86 929.151 3843.31 930.972 3848.77 934.117C3856.72 939.084 3862.18 948.686 3862.18 957.957C3862.18 977.492 3848.77 988.418 3825.59 988.418ZM3870.13 870.711C3896.29 870.711 3908.54 879.816 3908.54 899.351C3908.54 918.887 3895.79 929.316 3873.77 929.316C3860.36 929.316 3854.9 928.654 3848.77 924.515C3841.49 919.549 3835.36 909.285 3835.36 900.676C3835.36 881.803 3848.11 870.711 3870.13 870.711ZM3896.95 933.621C3901.75 930.641 3907.38 929.979 3920.13 929.979C3942.14 929.979 3954.89 940.408 3954.89 958.619C3954.89 969.546 3948.77 979.975 3939.66 984.776C3934.2 987.26 3929.89 988.418 3917.15 988.418C3906.72 988.418 3903.07 987.756 3897.61 984.776C3889 979.81 3881.72 968.883 3881.72 959.778C3881.72 948.852 3887.84 937.76 3896.95 933.621Z" fill="#D16A27"/>
<path d="M4097.61 930.311C4079.89 930.311 4066.48 918.06 4066.48 901.671C4066.48 885.281 4079.89 872.368 4098.76 872.368H4338.48C4348.25 872.368 4353.05 873.527 4357.36 876.01C4367.12 881.473 4372.59 890.579 4372.59 901.009C4372.59 919.882 4359.84 930.311 4338.48 930.311H4256.2C4245.28 930.311 4242.13 931.47 4242.13 933.291C4242.13 933.953 4242.79 934.45 4242.79 934.45L4250.08 941.734C4253.72 946.039 4256.2 953.985 4256.2 960.607C4256.2 970.375 4250.08 981.301 4241.64 985.606C4238.66 986.765 4237.99 988.089 4237.99 989.248C4237.99 990.407 4237.99 991.069 4238.66 991.731L4245.94 996.698C4252.07 1000.34 4256.37 1010.11 4256.37 1018.72C4256.37 1029.15 4250.91 1039.41 4241.8 1043.71C4238.82 1045.54 4237.5 1046.2 4237.5 1048.02C4237.5 1049.18 4238.66 1050.5 4241.8 1051.66C4249.75 1055.3 4256.37 1066.89 4256.37 1077.32C4256.37 1088.91 4251.57 1096.86 4240.48 1102.98C4238.66 1104.14 4237.5 1105.47 4237.5 1106.62C4237.5 1107.78 4238.16 1108.45 4241.14 1109.6C4250.24 1113.91 4256.37 1124.83 4256.37 1135.76C4256.37 1145.53 4250.91 1156.46 4243.62 1160.1C4238.16 1162.58 4237.5 1163.08 4237.5 1164.4C4237.5 1166.22 4238.66 1166.89 4242.3 1168.71C4250.24 1172.35 4256.87 1183.94 4256.87 1193.7C4256.87 1202.15 4252.07 1212.58 4245.94 1216.22C4237.33 1221.68 4237.99 1221.19 4237.99 1222.84C4237.99 1224 4239.15 1225.32 4242.3 1226.48C4250.91 1230.79 4256.87 1240.56 4256.87 1251.48C4256.87 1270.35 4244.12 1280.78 4221.44 1280.78C4208.03 1280.78 4204.39 1280.12 4198.26 1276.48C4189.65 1271.68 4184.19 1261.91 4184.19 1252.14C4184.19 1243.04 4188.99 1233.27 4195.12 1228.97L4201.24 1225.32C4202.4 1224.66 4203.06 1224.17 4203.06 1223.5C4203.06 1222.35 4202.4 1221.02 4201.24 1220.52L4194.45 1216.22C4188.33 1211.92 4184.02 1202.81 4184.02 1193.7C4184.02 1184.6 4189.49 1174.17 4196.27 1169.86C4201.74 1166.89 4202.9 1166.22 4202.9 1164.9C4202.9 1164.24 4202.23 1163.08 4201.74 1162.42L4193.13 1156.95C4188.16 1153.31 4184.02 1143.54 4184.02 1135.6C4184.02 1126.99 4188.33 1116.72 4194.45 1113.08L4201.24 1108.78C4202.4 1108.11 4203.06 1106.96 4203.06 1106.29C4203.06 1105.13 4201.24 1103.81 4193.96 1099.01C4188.49 1095.37 4183.53 1084.94 4183.53 1076.49C4183.53 1065.57 4189.65 1055.8 4199.92 1050.83C4201.74 1049.67 4202.9 1049.01 4202.9 1047.85C4202.9 1047.19 4202.23 1046.03 4201.08 1045.37L4195.61 1042.39C4188.99 1038.75 4183.36 1027.82 4183.36 1018.55C4183.36 1009.28 4188.82 999.015 4194.95 995.373C4202.23 991.069 4202.23 990.407 4202.23 989.248C4202.23 988.586 4202.23 987.427 4201.08 987.427L4194.95 983.122C4188.82 979.48 4183.36 969.05 4183.36 960.607C4183.36 951.502 4187.67 942.893 4194.29 937.43C4197.27 935.609 4197.93 934.45 4197.93 933.126C4197.93 930.642 4196.11 930.146 4185.68 930.146H4097.27L4097.61 930.311Z" fill="#D16A27"/>
<path d="M4487.98 1104.8C4477.55 1104.8 4475.73 1105.47 4475.73 1107.78C4475.73 1108.94 4476.89 1110.27 4480.03 1112.09C4485.49 1117.05 4489.8 1126.16 4489.8 1134.6C4489.8 1143.71 4484.34 1154.14 4477.05 1158.44C4471.59 1161.42 4470.93 1162.08 4470.93 1163.24C4470.93 1164.4 4472.08 1165.06 4477.05 1168.21C4484.34 1172.51 4489.8 1182.28 4489.8 1192.05C4489.8 1209.76 4476.39 1221.35 4456.19 1221.35C4431.19 1221.35 4417.78 1211.58 4417.78 1192.71C4417.78 1180.46 4422.09 1173.18 4434.17 1166.55C4435.33 1165.4 4436.66 1164.73 4436.66 1163.57C4436.66 1162.42 4436.66 1161.75 4429.37 1158.11C4422.58 1154.47 4417.78 1143.54 4417.78 1134.27C4417.78 1123.84 4424.41 1112.25 4432.35 1109.27C4435.33 1108.11 4436.66 1106.79 4436.66 1105.63C4436.66 1104.97 4435.99 1103.81 4435.5 1103.81L4427.55 1099.01C4422.09 1095.37 4417.78 1084.94 4417.78 1075.83C4417.78 1066.73 4423.25 1056.3 4430.03 1051.99L4434.84 1049.51C4434.84 1049.51 4435.99 1048.35 4435.99 1047.69C4435.99 1046.53 4435.33 1045.87 4434.84 1045.2L4426.89 1039.74C4422.09 1036.76 4417.12 1026.33 4417.12 1017.72C4417.12 1009.11 4422.58 998.85 4428.71 995.208L4434.84 991.566C4435.99 990.903 4435.99 990.407 4435.99 989.744C4435.99 988.586 4435.99 987.261 4435.33 987.261L4426.23 981.136C4421.26 978.156 4417.12 968.388 4417.12 960.442C4417.12 942.066 4431.19 930.477 4453.71 930.477C4476.22 930.477 4489.63 941.403 4489.63 959.78C4489.63 967.726 4485.33 978.156 4480.53 981.136L4471.92 987.261C4471.92 987.261 4470.76 988.42 4470.76 989.082C4470.76 990.241 4471.42 990.903 4471.92 991.566L4479.2 995.87C4484.67 998.85 4489.63 1009.94 4489.63 1018.39C4489.63 1027.49 4485.33 1036.76 4478.71 1040.9C4476.22 1042.72 4475.73 1043.38 4475.73 1044.54C4475.73 1047.52 4477.55 1047.52 4487.98 1047.52H4605.02C4622.74 1047.52 4634.99 1059.11 4634.99 1075.5C4634.99 1093.21 4621.58 1104.8 4603.2 1104.8H4487.98ZM4662.47 872.368C4679.52 872.368 4692.93 884.619 4692.93 901.009C4692.93 915.081 4678.86 930.311 4666.11 930.311H4506.85C4488.47 930.311 4475.73 918.06 4475.73 901.671C4475.73 885.281 4488.47 872.368 4503.7 872.368H4662.3H4662.47ZM4517.28 1279.29H4509.33C4488.64 1279.29 4475.73 1268.37 4475.73 1250.65C4475.73 1236.09 4488.47 1222.68 4501.88 1222.68H4665.45L4669.75 1223.34L4673.4 1224C4684.32 1226.48 4693.59 1238.57 4693.59 1250.16C4693.59 1264.73 4680.18 1279.46 4666.11 1279.46H4517.28V1279.29Z" fill="#D16A27"/>
<path d="M4799.22 982.791L4793.09 986.433C4793.09 986.433 4791.93 987.592 4791.93 988.917C4791.93 989.579 4792.59 990.738 4792.59 990.738L4801.2 996.201C4806.67 999.843 4810.97 1008.95 4810.97 1018.72C4810.97 1027.82 4804.18 1038.25 4795.74 1043.05C4790.28 1046.03 4787.13 1046.69 4775.05 1046.69H4770.08C4751.7 1046.69 4738.29 1033.95 4738.29 1017.39C4738.29 1008.29 4743.09 999.015 4749.22 994.877L4755.84 990.572C4755.84 990.572 4757 989.413 4757 988.751C4757 988.089 4756.34 986.93 4755.84 986.268L4747.89 981.301C4742.43 977.659 4738.13 967.892 4738.13 959.283C4738.13 941.569 4751.54 929.98 4772.89 929.98C4797.89 929.98 4810.8 939.748 4810.8 959.945C4810.8 968.554 4805.34 978.818 4799.22 982.46V982.791ZM4772.4 1163.41C4785.81 1163.41 4790.77 1164.57 4796.24 1167.71C4804.84 1172.51 4810.31 1182.28 4810.31 1192.05C4810.31 1202.48 4804.84 1212.25 4795.74 1217.05C4790.28 1220.03 4787.13 1220.69 4775.05 1220.69C4761.64 1220.69 4757.99 1220.03 4751.21 1215.72C4743.26 1210.76 4738.46 1202.31 4738.46 1193.7C4738.46 1174.17 4750.71 1163.24 4772.56 1163.24L4772.4 1163.41ZM4833.98 1105.47C4810.14 1105.47 4796.24 1095.04 4796.24 1076.16C4796.24 1065.73 4801.7 1056.63 4810.8 1051.16C4816.93 1047.52 4818.09 1047.52 4830.34 1047.52H4954.17C4971.89 1047.52 4984.63 1059.77 4984.63 1075.5C4984.63 1092.55 4971.89 1105.47 4954.17 1105.47H4833.98ZM4826.04 1279.29C4808.98 1279.29 4796.07 1266.55 4796.07 1250.65C4796.07 1241.55 4800.37 1232.94 4807.66 1227.48C4813.12 1223.17 4819.91 1222.01 4834.48 1222.01H4952.85C4971.22 1222.01 4984.63 1233.6 4984.63 1249.99C4984.63 1267.71 4971.89 1279.29 4952.35 1279.29H4826.04ZM4829.68 930.311C4809.48 930.311 4796.73 918.723 4796.73 901.671C4796.73 891.241 4802.86 880.977 4811.3 876.672C4817.92 873.03 4820.41 872.368 4836.96 872.368H4941.92C4960.79 872.368 4965.1 873.03 4971.22 876.672C4979.83 881.639 4984.63 891.241 4984.63 901.009C4984.63 921.206 4971.22 930.973 4943.08 930.973C4939.44 930.973 4936.29 930.974 4933.31 930.311H4829.68ZM5005.33 930.973C5029.66 930.973 5043.07 940.741 5043.07 959.614C5043.07 970.044 5036.95 980.308 5027.84 985.275C5022.38 988.255 5019.23 988.917 5006.49 988.917C4983.31 988.917 4970.56 978.487 4970.56 959.614C4970.56 940.741 4983.31 930.973 5005.33 930.973ZM5008.31 1105.96C5029.66 1105.96 5042.41 1116.39 5042.41 1134.6C5042.41 1143.21 5038.11 1152.98 5031.98 1157.12L5025.36 1161.42C5025.36 1161.42 5024.2 1162.58 5024.2 1163.24C5024.2 1165.06 5025.36 1166.22 5029 1168.21C5036.95 1171.85 5042.41 1182.28 5042.41 1192.05C5042.41 1200 5038.77 1208.44 5032.64 1214.56C5027.84 1219.53 5018.57 1221.35 5003.34 1221.35C4983.81 1221.35 4970.4 1209.76 4970.4 1192.71C4970.4 1183.61 4976.52 1172.51 4983.14 1168.87C4988.61 1165.89 4989.27 1165.23 4989.27 1164.07C4989.27 1162.91 4988.61 1161.59 4986.79 1161.09C4975.86 1154.97 4970.4 1147.02 4970.4 1135.43C4970.4 1115.9 4982.65 1106.13 5008.14 1106.13L5008.31 1105.96Z" fill="#D16A27"/>
<path d="M1765.47 1597.16C1763.65 1597.82 1762.99 1598.98 1762.99 1599.64C1762.99 1601.46 1763.65 1602.62 1767.3 1604.44C1775.24 1608.08 1781.37 1619.01 1781.37 1628.28C1781.37 1638.05 1776.4 1648.97 1769.78 1652.62C1764.32 1655.6 1763.16 1656.92 1763.16 1658.74C1763.16 1659.4 1763.82 1660.56 1764.31 1661.22L1769.78 1664.2C1776.4 1668.51 1781.37 1678.77 1781.37 1688.04C1781.37 1696.65 1776.4 1706.42 1770.94 1710.56C1762.33 1715.36 1762.99 1715.36 1762.99 1716.68C1762.99 1718.51 1764.15 1719.17 1769.12 1722.81C1775.74 1726.45 1781.37 1737.38 1781.37 1745.99C1781.37 1755.09 1776.4 1765.52 1769.78 1769.83C1765.36 1772.7 1763.16 1774.52 1763.16 1775.29C1763.16 1776.45 1763.16 1777.11 1763.82 1777.77L1772.92 1783.9C1777.73 1786.88 1781.53 1796.65 1781.53 1804.1C1781.53 1822.97 1768.79 1834.06 1747.43 1834.06C1732.86 1834.06 1729.71 1833.4 1723.59 1829.76C1714.48 1824.29 1709.02 1814.53 1709.02 1804.1C1709.02 1794.99 1713.99 1786.38 1721.77 1780.92C1725.85 1778.05 1727.89 1776.23 1727.89 1775.46C1727.89 1774.3 1728.56 1774.79 1720.61 1769.33C1713.99 1765.69 1709.02 1755.26 1709.02 1746.15C1709.02 1736.39 1715.81 1724.13 1723.59 1720.49C1727.23 1719.33 1727.89 1718.67 1727.89 1717.51C1727.89 1715.69 1727.23 1715.03 1720.61 1711.39C1714.48 1707.74 1709.02 1696.82 1709.02 1688.21C1709.02 1676.62 1714.48 1667.52 1724.25 1662.55C1726.73 1661.39 1727.89 1660.07 1727.89 1658.91C1727.89 1657.75 1727.23 1657.09 1721.11 1653.44C1714.48 1649.14 1708.86 1638.88 1708.86 1629.6C1708.86 1618.02 1713.82 1609.41 1724.75 1603.45C1727.23 1602.29 1728.39 1600.96 1728.39 1600.47C1728.39 1599.31 1727.23 1598.65 1725.41 1597.49C1715.64 1592.52 1709.02 1581.59 1709.02 1570.67C1709.02 1560.9 1715.15 1549.97 1723.09 1546.33C1727.4 1543.85 1727.89 1543.35 1727.89 1542.03C1727.89 1541.37 1727.23 1540.21 1726.73 1539.54L1718.79 1534.58C1713.32 1530.94 1709.02 1521.17 1709.02 1512.56C1709.02 1494.18 1721.77 1483.26 1743.12 1483.26C1757.69 1483.26 1761.5 1483.92 1767.46 1487.56C1776.07 1492.53 1781.53 1502.13 1781.53 1512.56C1781.53 1522.99 1775.41 1533.25 1766.3 1538.22C1763.82 1539.38 1763.32 1540.7 1763.32 1541.86C1763.32 1543.68 1763.98 1543.68 1769.94 1547.33C1776.57 1551.63 1781.53 1561.4 1781.53 1571.66C1781.53 1583.25 1777.89 1589.38 1765.64 1597.32L1765.47 1597.16ZM1954.53 1835.05C1972.91 1835.05 1985.66 1846.64 1985.66 1862.54C1985.66 1879.59 1973.41 1891.84 1955.69 1891.84H1798.92C1780.54 1891.84 1767.13 1879.59 1767.13 1863.2C1767.13 1855.25 1770.77 1847.31 1776.9 1841.84C1783.52 1836.38 1789.15 1835.22 1808.68 1835.22H1954.53V1835.05Z" fill="#D16A27"/>
<path d="M2091.28 1597.16C2089.46 1597.82 2088.8 1598.98 2088.8 1599.64C2088.8 1601.46 2089.46 1602.62 2093.1 1604.44C2101.05 1608.08 2107.17 1619.01 2107.17 1628.28C2107.17 1638.05 2102.21 1648.97 2095.58 1652.62C2090.12 1655.6 2088.96 1656.92 2088.96 1658.74C2088.96 1659.4 2089.62 1660.56 2090.12 1661.22L2095.58 1664.2C2102.21 1668.51 2107.17 1678.77 2107.17 1688.04C2107.17 1696.65 2102.21 1706.42 2096.74 1710.56C2088.13 1715.36 2088.8 1715.36 2088.8 1716.68C2088.8 1718.51 2089.96 1719.17 2094.92 1722.81C2101.54 1726.45 2107.17 1737.38 2107.17 1745.99C2107.17 1755.09 2102.21 1765.52 2095.58 1769.83C2091.17 1772.7 2088.96 1774.52 2088.96 1775.29C2088.96 1776.45 2088.96 1777.11 2089.62 1777.77L2098.73 1783.9C2103.53 1786.88 2107.34 1796.65 2107.34 1804.1C2107.34 1822.97 2094.59 1834.06 2073.23 1834.06C2058.67 1834.06 2055.52 1833.4 2049.39 1829.76C2040.29 1824.29 2034.83 1814.53 2034.83 1804.1C2034.83 1794.99 2039.79 1786.38 2047.57 1780.92C2051.66 1778.05 2053.7 1776.23 2053.7 1775.46C2053.7 1774.3 2054.36 1774.79 2046.42 1769.33C2039.79 1765.69 2034.83 1755.26 2034.83 1746.15C2034.83 1736.39 2041.61 1724.13 2049.39 1720.49C2053.04 1719.33 2053.7 1718.67 2053.7 1717.51C2053.7 1715.69 2053.04 1715.03 2046.42 1711.39C2040.29 1707.74 2034.83 1696.82 2034.83 1688.21C2034.83 1676.62 2040.29 1667.52 2050.06 1662.55C2052.54 1661.39 2053.7 1660.07 2053.7 1658.91C2053.7 1657.75 2053.04 1657.09 2046.91 1653.44C2040.29 1649.14 2034.66 1638.88 2034.66 1629.6C2034.66 1618.02 2039.63 1609.41 2050.55 1603.45C2053.04 1602.29 2054.2 1600.96 2054.2 1600.47C2054.2 1599.31 2053.04 1598.65 2051.22 1597.49C2041.45 1592.52 2034.83 1581.59 2034.83 1570.67C2034.83 1560.9 2040.95 1549.97 2048.9 1546.33C2053.2 1543.85 2053.7 1543.35 2053.7 1542.03C2053.7 1541.37 2053.04 1540.21 2052.54 1539.54L2044.59 1534.58C2039.13 1530.94 2034.83 1521.17 2034.83 1512.56C2034.83 1494.18 2047.57 1483.26 2068.93 1483.26C2083.5 1483.26 2087.31 1483.92 2093.27 1487.56C2101.88 1492.53 2107.34 1502.13 2107.34 1512.56C2107.34 1522.99 2101.21 1533.25 2092.11 1538.22C2089.62 1539.38 2089.13 1540.7 2089.13 1541.86C2089.13 1543.68 2089.79 1543.68 2095.75 1547.33C2102.37 1551.63 2107.34 1561.4 2107.34 1571.66C2107.34 1583.25 2103.7 1589.38 2091.45 1597.32L2091.28 1597.16ZM2280.34 1835.05C2298.72 1835.05 2311.46 1846.64 2311.46 1862.54C2311.46 1879.59 2299.21 1891.84 2281.5 1891.84H2124.72C2106.35 1891.84 2092.94 1879.59 2092.94 1863.2C2092.94 1855.25 2096.58 1847.31 2102.7 1841.84C2109.32 1836.38 2114.95 1835.22 2134.49 1835.22H2280.34V1835.05Z" fill="#D16A27"/>
<path d="M2418.24 1594.67L2411.62 1598.98C2411.62 1598.98 2410.46 1600.14 2410.46 1601.46C2410.46 1602.12 2411.13 1603.28 2412.29 1603.95L2417.75 1607.59C2423.87 1611.89 2428.67 1621.66 2428.67 1630.1C2428.67 1638.55 2423.87 1648.98 2418.24 1652.62L2410.96 1657.58C2410.96 1657.58 2409.8 1658.74 2409.8 1659.41C2409.8 1660.07 2410.46 1661.23 2410.96 1661.23L2417.75 1665.53C2423.87 1669.84 2428.67 1679.6 2428.67 1688.71C2428.67 1697.32 2423.87 1707.58 2418.24 1711.22L2410.96 1715.53C2410.96 1715.53 2410.3 1716.69 2410.3 1717.35C2410.3 1718.51 2410.96 1719.17 2411.46 1719.83L2417.58 1724.14C2423.71 1727.78 2428.51 1738.21 2428.51 1746.65C2428.51 1754.6 2424.2 1764.37 2419.4 1768.01L2410.3 1774.63C2410.3 1774.63 2409.64 1775.29 2409.64 1775.79C2409.64 1777.61 2410.3 1777.61 2417.58 1781.91C2423.71 1785.56 2428.51 1795.32 2428.51 1804.43C2428.51 1822.81 2415.76 1833.73 2395.56 1833.73C2381.49 1833.73 2376.69 1832.57 2370.57 1829.43C2361.96 1824.63 2356 1814.86 2356 1804.43C2356 1796.48 2360.3 1786.71 2366.43 1783.07L2373.71 1777.61C2373.71 1777.61 2374.87 1776.45 2374.87 1775.79C2374.87 1774.63 2374.21 1773.97 2368.25 1770.33C2361.46 1766.02 2356 1755.76 2356 1746.49C2356 1734.9 2360.8 1726.95 2372.39 1720.83C2373.55 1719.67 2374.87 1718.34 2374.87 1717.85C2374.87 1717.35 2374.21 1716.02 2374.21 1716.02L2365.6 1709.9C2360.14 1706.26 2355.83 1696.49 2355.83 1688.54C2355.83 1680.1 2360.63 1670.17 2366.26 1666.52L2373.55 1661.56C2373.55 1661.56 2374.71 1660.4 2374.71 1659.07C2374.71 1658.41 2374.04 1657.25 2373.55 1656.59L2365.6 1651.62C2360.8 1647.98 2356.49 1638.21 2356.49 1630.27C2356.49 1621.16 2361.3 1610.73 2366.92 1607.09C2374.21 1602.79 2374.87 1602.29 2374.87 1600.97C2374.87 1600.3 2374.87 1599.81 2374.21 1599.81L2365.1 1593.18C2360.14 1589.54 2356 1579.77 2356 1571.83C2356 1554.78 2370.07 1542.53 2390.1 1542.53C2402.35 1542.53 2408.48 1543.68 2413.94 1546.83C2423.05 1551.8 2428.51 1561.4 2428.51 1571.17C2428.51 1580.27 2423.71 1590.7 2418.08 1594.34L2418.24 1594.67ZM2575.69 1484.91C2589.76 1484.91 2603.17 1498.99 2603.17 1513.55C2603.17 1523.98 2597.7 1534.25 2588.6 1539.21C2583.13 1542.19 2579.49 1542.86 2563.6 1542.86H2453.84C2440.43 1542.86 2434.97 1542.19 2429.5 1539.21C2420.4 1534.25 2414.93 1524.65 2414.93 1514.22C2414.93 1495.34 2427.19 1484.91 2449.7 1484.91H2576.02H2575.69ZM2470.73 1891.84C2438.44 1891.84 2438.94 1891.84 2433.48 1890.02C2421.89 1885.71 2414.6 1875.45 2414.6 1863.2C2414.6 1852.77 2420.73 1842.51 2429.83 1838.2C2434.14 1835.72 2438.94 1835.22 2451.85 1835.22H2570.88C2590.42 1835.22 2603.17 1845.65 2603.17 1862.7C2603.17 1881.08 2590.42 1892.01 2570.22 1892.01H2470.73V1891.84ZM2623.2 1543.52H2628.17C2648.86 1544.18 2661.11 1554.45 2661.11 1572.16C2661.11 1591.03 2648.36 1601.46 2626.34 1601.46C2612.93 1601.46 2609.29 1600.8 2603.83 1597.82C2595.22 1592.85 2589.26 1581.93 2589.26 1572.82C2589.26 1554.45 2602.01 1543.52 2623.36 1543.52H2623.2ZM2624.36 1776.62C2648.2 1776.62 2660.94 1786.38 2660.94 1805.26C2660.94 1818 2652.34 1829.1 2640.25 1832.74C2637.27 1833.9 2631.64 1833.9 2620.72 1833.9C2602.34 1833.9 2588.93 1822.31 2588.93 1805.75C2588.93 1786.22 2601.18 1776.45 2624.36 1776.45V1776.62Z" fill="#D16A27"/>
<path d="M479.17 699.843L456.552 714.367C454.075 716.843 451.929 719.154 451.929 724.105C451.929 726.581 454.075 731.532 454.075 731.532L485.939 753.484C506.41 768.009 522.425 804.815 522.425 843.767C522.425 880.409 497.495 921.837 465.632 941.313C445.16 953.526 433.769 956.002 388.368 956.002H370.208C301.858 956.002 252 904.671 252 838.816C252 802.174 270.325 765.533 292.943 748.533L317.873 731.367C320.349 728.892 322.495 726.581 322.495 723.94C322.495 721.299 320.349 716.678 317.873 714.202L288.486 694.726C268.014 680.036 252 640.919 252 606.754C252 535.947 302.024 489.567 381.434 489.567C474.712 489.567 522.425 528.684 522.425 609.229C522.425 643.395 501.953 684.823 479.17 699.512V699.843ZM379.288 1422.11C429.311 1422.11 447.307 1426.89 467.943 1439.27C499.807 1458.91 520.113 1497.87 520.113 1536.98C520.113 1578.41 499.807 1617.53 465.797 1637C445.325 1649.05 433.934 1651.53 388.533 1651.53C338.509 1651.53 324.972 1649.05 299.877 1632.05C270.491 1612.41 252.165 1578.25 252.165 1544.08C252.165 1466.01 297.731 1422.11 379.453 1422.11H379.288ZM608.769 1190.38C520.113 1190.38 467.943 1148.78 467.943 1073.19C467.943 1031.6 488.25 995.119 522.59 973.168C545.373 958.478 549.83 958.478 595.231 958.478H1056.5C1122.38 958.478 1170.09 1007.33 1170.09 1070.71C1170.09 1139.04 1122.38 1190.38 1056.5 1190.38H608.769ZM579.382 1885.74C515.821 1885.74 467.943 1834.41 467.943 1771.03C467.943 1734.38 483.792 1700.22 511.033 1678.27C531.505 1661.1 556.599 1656.32 611.08 1656.32H1051.72C1120.07 1656.32 1169.92 1702.69 1169.92 1768.55C1169.92 1839.36 1122.21 1885.74 1049.41 1885.74H579.052H579.382ZM592.92 489.897C517.967 489.897 470.255 443.683 470.255 375.186C470.255 333.594 493.038 292.166 524.901 275.165C549.83 260.476 558.91 258 620.325 258H1011.1C1081.6 258 1097.45 260.311 1120.23 275.165C1152.09 294.641 1170.25 333.759 1170.25 372.711C1170.25 453.256 1120.23 492.373 1015.73 492.373C1002.02 492.373 990.797 492.373 979.241 489.897H592.92ZM1247.35 492.373C1338.32 492.373 1388.34 531.49 1388.34 607.084C1388.34 648.677 1365.56 690.104 1331.55 709.581C1311.08 721.794 1299.69 724.105 1251.98 724.105C1165.63 724.105 1117.92 682.677 1117.92 606.919C1117.92 531.16 1165.63 492.208 1247.35 492.208V492.373ZM1258.75 1192.69C1338.32 1192.69 1386.03 1234.28 1386.03 1307.4C1386.03 1341.56 1370.18 1380.68 1347.4 1397.68L1322.47 1414.68C1320 1417.16 1317.85 1419.63 1317.85 1422.11C1317.85 1429.53 1322.47 1434.32 1336.01 1441.75C1365.56 1456.27 1386.2 1497.87 1386.2 1536.98C1386.2 1568.67 1372.5 1602.84 1349.71 1627.27C1331.55 1646.91 1297.54 1654.17 1240.75 1654.17C1168.11 1654.17 1117.92 1607.79 1117.92 1539.46C1117.92 1502.82 1140.7 1458.91 1165.63 1444.22C1186.1 1432.01 1188.42 1429.7 1188.42 1424.75C1188.42 1419.8 1186.27 1414.85 1179.33 1412.53C1138.39 1388.11 1117.92 1356.42 1117.92 1310.04C1117.92 1231.97 1163.49 1192.85 1258.91 1192.85L1258.75 1192.69Z" fill="#D16A27"/>
</svg>
