<?xml version="1.0" encoding="UTF-8"?>
<svg id="Layer_2" data-name="Layer 2" xmlns="http://www.w3.org/2000/svg" viewBox="0 0 444 122">
  <defs>
    <style>
      .cls-1 {
        fill: none;
      }

      .cls-2 {
        letter-spacing: .1em;
      }

      .cls-3 {
        letter-spacing: .1em;
      }

      .cls-4 {
        letter-spacing: .1em;
      }

      .cls-5, .cls-6 {
        fill: #010101;
      }

      .cls-7 {
        fill: #d16a27;
      }

      .cls-8 {
        fill: #231f20;
      }

      .cls-9 {
        letter-spacing: .07em;
      }

      .cls-10 {
        letter-spacing: .03em;
      }

      .cls-11 {
        letter-spacing: .08em;
      }

      .cls-12 {
        letter-spacing: .06em;
      }

      .cls-13 {
        letter-spacing: .06em;
      }

      .cls-6 {
        font-family: Roboto-Light, Roboto;
        font-size: 10.64px;
        font-weight: 300;
      }
    </style>
  </defs>
  <g id="Layer_1-2" data-name="Layer 1">
    <g>
      <g>
        <path class="cls-7" d="m47.76,41.42l-1.17.75c-.12.13-.24.25-.24.5,0,.13.11.38.11.38l1.64,1.13c1.06.75,1.88,2.65,1.88,4.67,0,1.89-1.29,4.04-2.94,5.04-1.06.63-1.64.76-4,.76h-.94c-3.53,0-6.11-2.65-6.11-6.05,0-1.9.95-3.78,2.11-4.67l1.29-.88c.12-.13.24-.25.24-.38s-.11-.37-.24-.5l-1.52-1.01c-1.06-.76-1.88-2.78-1.88-4.54,0-3.66,2.58-6.05,6.69-6.05,4.82,0,7.29,2.02,7.29,6.18,0,1.77-1.06,3.91-2.24,4.67Zm-5.16,37.34c2.58,0,3.52.25,4.58.88,1.64,1.01,2.7,3.03,2.7,5.05,0,2.14-1.05,4.16-2.81,5.17-1.06.63-1.64.75-4,.75-2.58,0-3.29-.13-4.58-1.01-1.52-1.01-2.47-2.78-2.47-4.54,0-4.04,2.35-6.31,6.58-6.31Zm11.86-11.98c-4.58,0-7.28-2.15-7.28-6.05,0-2.15,1.05-4.04,2.82-5.17,1.18-.76,1.41-.76,3.76-.76h23.84c3.4,0,5.87,2.53,5.87,5.8,0,3.53-2.47,6.18-5.87,6.18h-23.14Zm-1.52,35.95c-3.29,0-5.76-2.65-5.76-5.93,0-1.9.82-3.66,2.23-4.8,1.06-.88,2.35-1.13,5.17-1.13h22.77c3.53,0,6.11,2.4,6.11,5.8,0,3.66-2.47,6.05-6.22,6.05h-24.3Zm.7-72.16c-3.87,0-6.34-2.39-6.34-5.93,0-2.15,1.18-4.29,2.82-5.17,1.29-.76,1.76-.88,4.93-.88h20.19c3.64,0,4.47.12,5.64.88,1.64,1.01,2.58,3.02,2.58,5.04,0,4.16-2.58,6.18-7.98,6.18-.71,0-1.29,0-1.88-.13h-19.96Zm33.82.13c4.7,0,7.29,2.02,7.29,5.93,0,2.15-1.18,4.29-2.94,5.3-1.06.63-1.64.75-4.11.75-4.47,0-6.93-2.14-6.93-6.05s2.47-5.93,6.69-5.93Zm.59,36.2c4.11,0,6.58,2.15,6.58,5.93,0,1.77-.82,3.78-2,4.67l-1.29.88c-.12.13-.24.26-.24.38,0,.38.24.63.94,1.01,1.53.75,2.59,2.9,2.59,4.92,0,1.64-.71,3.4-1.88,4.66-.94,1.01-2.7,1.39-5.63,1.39-3.76,0-6.35-2.4-6.35-5.93,0-1.89,1.18-4.16,2.47-4.92,1.06-.63,1.18-.75,1.18-1.01s-.11-.51-.47-.63c-2.11-1.26-3.17-2.9-3.17-5.3,0-4.04,2.35-6.05,7.29-6.05Z"/>
        <g>
          <g>
            <g>
              <g>
                <path class="cls-5" d="m106.1,69.6l7.11-8.49c4.61,3.62,9.61,5.53,14.94,5.53,3.49,0,5.33-1.18,5.33-3.16v-.13c0-1.97-1.51-2.96-7.83-4.48-9.81-2.24-17.38-5-17.38-14.41v-.13c0-8.56,6.78-14.74,17.84-14.74,7.83,0,13.95,2.11,18.96,6.12l-6.38,9.02c-4.21-3.03-8.82-4.54-12.9-4.54-3.09,0-4.61,1.25-4.61,2.96v.13c0,2.11,1.58,3.03,8.03,4.48,10.53,2.3,17.11,5.73,17.11,14.35v.13c0,9.41-7.44,15.01-18.63,15.01-8.16,0-15.86-2.57-21.59-7.64Z"/>
                <path class="cls-5" d="m143.61,30.37h12.77v17.25h16.39v-17.25h12.77v46.08h-12.77v-17.51h-16.39v17.51h-12.77V30.37Z"/>
                <path class="cls-5" d="m200.75,30.04h12.31l19.62,46.4h-13.69l-3.29-8.29h-17.84l-3.29,8.29h-13.36l19.55-46.4Zm11.19,28.17l-5.13-13.03-5.2,13.03h10.33Z"/>
                <path class="cls-5" d="m228.26,30.37h11.91l18.96,24.35v-24.35h12.64v46.08h-11.12l-19.75-25.28v25.28h-12.64V30.37Z"/>
                <path class="cls-5" d="m273.55,30.37h11.91l18.96,24.35v-24.35h12.64v46.08h-11.12l-19.75-25.28v25.28h-12.64V30.37Z"/>
              </g>
              <path class="cls-5" d="m366.14,30.37h11.91l18.96,24.35v-24.35h12.64v46.08h-11.12l-19.75-25.28v25.28h-12.64V30.37Z"/>
            </g>
            <text class="cls-6" transform="translate(108.35 91.46)"><tspan class="cls-3" x="0" y="0">PREMIER IL</tspan><tspan class="cls-9" x="65.9" y="0">L</tspan><tspan class="cls-2" x="72.51" y="0">USTR</tspan><tspan class="cls-10" x="103.51" y="0">A</tspan><tspan class="cls-2" x="110.4" y="0">TION &amp; A</tspan><tspan class="cls-13" x="160.82" y="0">R</tspan><tspan class="cls-4" x="168.38" y="0">TIST REPRESE</tspan><tspan class="cls-11" x="249.85" y="0">N</tspan><tspan class="cls-12" x="258.25" y="0">T</tspan><tspan class="cls-10" x="265.23" y="0">A</tspan><tspan class="cls-4" x="272.12" y="0">TION</tspan></text>
          </g>
          <path class="cls-8" d="m316.08,53.21c0-13.55,10.67-23.39,25.24-23.39s25.24,9.84,25.24,23.39-10.67,23.39-25.24,23.39-25.24-9.84-25.24-23.39Zm35.27,0c0-6.97-4.47-11.18-10.03-11.18s-10.03,4.22-10.03,11.18,4.47,11.18,10.03,11.18,10.03-4.22,10.03-11.18Z"/>
        </g>
      </g>
      <rect class="cls-1" width="444" height="122"/>
    </g>
  </g>
</svg>