<svg width="363" height="100" viewBox="0 0 363 100" fill="none" xmlns="http://www.w3.org/2000/svg">
<g clip-path="url(#clip0_4_2)">
<path d="M92.8399 49.6099L92.4699 49.8299C92.4699 49.8299 92.3999 49.8999 92.3999 49.9799C92.3999 50.0199 92.4399 50.0899 92.4399 50.0899L92.9599 50.4199C93.2899 50.6399 93.5499 51.1899 93.5499 51.7799C93.5499 52.3299 93.1399 52.9599 92.6299 53.2499C92.2999 53.4299 92.1099 53.4699 91.3799 53.4699H91.0799C89.9699 53.4699 89.1599 52.6999 89.1599 51.6999C89.1599 51.1499 89.4599 50.5899 89.8199 50.3399L90.2199 50.0799C90.2199 50.0799 90.2899 50.0099 90.2899 49.9699C90.2899 49.9299 90.2499 49.8599 90.2199 49.8199L89.7399 49.5199C89.4099 49.2999 89.1499 48.7099 89.1499 48.1899C89.1499 47.1199 89.9599 46.4199 91.2499 46.4199C92.7599 46.4199 93.5399 47.0099 93.5399 48.2299C93.5399 48.7499 93.2099 49.3699 92.8399 49.5899V49.6099ZM91.2199 60.5199C92.0299 60.5199 92.3299 60.5899 92.6599 60.7799C93.1799 61.0699 93.5099 61.6599 93.5099 62.2499C93.5099 62.8799 93.1799 63.4699 92.6299 63.7599C92.2999 63.9399 92.1099 63.9799 91.3799 63.9799C90.5699 63.9799 90.3499 63.9399 89.9399 63.6799C89.4599 63.3799 89.1699 62.8699 89.1699 62.3499C89.1699 61.1699 89.9099 60.5099 91.2299 60.5099L91.2199 60.5199ZM94.9399 57.0199C93.4999 57.0199 92.6599 56.3899 92.6599 55.2499C92.6599 54.6199 92.9899 54.0699 93.5399 53.7399C93.9099 53.5199 93.9799 53.5199 94.7199 53.5199H102.2C103.27 53.5199 104.04 54.2599 104.04 55.2099C104.04 56.2399 103.27 57.0199 102.2 57.0199H94.9399ZM94.4599 67.5199C93.4299 67.5199 92.6499 66.7499 92.6499 65.7899C92.6499 65.2399 92.9099 64.7199 93.3499 64.3899C93.6799 64.1299 94.0899 64.0599 94.9699 64.0599H102.12C103.23 64.0599 104.04 64.7599 104.04 65.7499C104.04 66.8199 103.27 67.5199 102.09 67.5199H94.4599ZM94.6799 46.4399C93.4599 46.4399 92.6899 45.7399 92.6899 44.7099C92.6899 44.0799 93.0599 43.4599 93.5699 43.1999C93.9699 42.9799 94.1199 42.9399 95.1199 42.9399H101.46C102.6 42.9399 102.86 42.9799 103.23 43.1999C103.75 43.4999 104.04 44.0799 104.04 44.6699C104.04 45.8899 103.23 46.4799 101.53 46.4799C101.31 46.4799 101.12 46.4799 100.94 46.4399H94.6799ZM105.29 46.4799C106.76 46.4799 107.57 47.0699 107.57 48.2099C107.57 48.8399 107.2 49.4599 106.65 49.7599C106.32 49.9399 106.13 49.9799 105.36 49.9799C103.96 49.9799 103.19 49.3499 103.19 48.2099C103.19 47.0699 103.96 46.4799 105.29 46.4799ZM105.47 57.0499C106.76 57.0499 107.53 57.6799 107.53 58.7799C107.53 59.2999 107.27 59.8899 106.9 60.1399L106.5 60.3999C106.5 60.3999 106.43 60.4699 106.43 60.5099C106.43 60.6199 106.5 60.6899 106.72 60.8099C107.2 61.0299 107.53 61.6599 107.53 62.2499C107.53 62.7299 107.31 63.2399 106.94 63.6099C106.65 63.9099 106.09 64.0199 105.17 64.0199C103.99 64.0199 103.18 63.3199 103.18 62.2899C103.18 61.7399 103.55 61.0699 103.95 60.8499C104.28 60.6699 104.32 60.6299 104.32 60.5599C104.32 60.4899 104.28 60.4099 104.17 60.3799C103.51 60.0099 103.18 59.5299 103.18 58.8299C103.18 57.6499 103.92 57.0599 105.46 57.0599L105.47 57.0499Z" fill="#D16A27"/>
<path d="M115.69 57.0199C115.297 57.0199 115.1 57.0699 115.1 57.1699C115.1 57.2399 115.14 57.3199 115.32 57.4299C115.65 57.7299 115.95 58.2799 115.95 58.7899C115.95 59.3399 115.58 60.0099 115.21 60.2299L114.84 60.4499C114.84 60.4499 114.8 60.4899 114.8 60.5599C114.8 60.6699 114.84 60.7099 115.17 60.8899C115.58 61.1099 115.94 61.7699 115.94 62.2899C115.94 62.8399 115.61 63.5099 115.24 63.7299C114.84 63.9899 114.8 64.0299 114.8 64.0599C114.8 64.1599 114.947 64.2933 115.24 64.4599C115.61 64.6799 115.9 65.3099 115.9 65.8199C115.9 66.9999 115.09 67.6299 113.58 67.6299C112.33 67.6299 111.52 66.9299 111.52 65.8599C111.52 65.3399 111.81 64.6799 112.22 64.4599L112.59 64.1999C112.59 64.1999 112.66 64.1599 112.66 64.1299C112.66 64.0999 112.66 64.0599 112.62 64.0599L112.03 63.5799C111.77 63.3999 111.51 62.7699 111.51 62.3699C111.51 61.7399 111.84 61.0799 112.36 60.8199C112.54 60.7499 112.65 60.6399 112.65 60.5599C112.65 60.5199 112.61 60.4899 112.58 60.4499L112.06 60.1199C111.77 59.8999 111.51 59.2699 111.51 58.7899C111.51 58.2399 111.8 57.6099 112.17 57.3899L112.57 57.1299C112.64 57.1299 112.64 57.0899 112.64 57.0199C112.64 56.9799 112.6 56.9099 112.57 56.8699L112.17 56.6499C111.8 56.4299 111.51 55.7699 111.51 55.2499C111.51 54.6599 111.84 54.0699 112.25 53.8099C112.62 53.5899 112.66 53.5499 112.66 53.4799C112.66 53.4099 112.62 53.3699 112.25 53.1499C111.85 52.8899 111.51 52.2699 111.51 51.7099C111.51 51.1199 111.8 50.4899 112.25 50.2699C112.523 50.0966 112.66 49.9866 112.66 49.9399C112.66 49.8299 112.62 49.7899 112.4 49.6799C111.92 49.4999 111.52 48.7599 111.52 48.1299C111.52 47.5799 111.81 46.9899 112.22 46.7299L112.62 46.4699C112.62 46.4699 112.66 46.4299 112.66 46.3999C112.66 46.2899 112.66 46.2499 112.22 46.0299C111.85 45.8099 111.52 45.1799 111.52 44.6299C111.52 43.4099 112.33 42.8199 113.92 42.8199C115.14 42.8199 115.95 43.5199 115.95 44.6299C115.95 45.2599 115.58 45.8499 114.96 46.2099C114.85 46.2799 114.78 46.3199 114.78 46.3899L114.82 46.4299L115.34 46.7999C115.67 47.0199 115.97 47.6499 115.97 48.1599C115.97 48.7899 115.6 49.4099 115.09 49.6699C114.87 49.7799 114.83 49.8199 114.83 49.9299C114.83 49.9699 114.87 50.0399 114.9 50.0799L115.23 50.2599C115.67 50.5199 115.97 51.1099 115.97 51.6999C115.97 52.1799 115.75 52.6899 115.49 52.9199C115.16 53.1799 115.12 53.2099 115.12 53.3199C115.12 53.4999 115.16 53.4999 115.78 53.4999H125.99C126.51 53.4999 126.54 53.4599 126.54 53.3199C126.54 53.2499 126.5 53.2099 126.21 52.9499C125.95 52.7299 125.69 52.1399 125.69 51.6999C125.69 51.1499 125.98 50.5899 126.35 50.3399L126.72 50.0799C126.79 50.0399 126.83 50.0099 126.83 49.9699C126.83 49.8999 126.83 49.8199 126.79 49.8199L126.35 49.5199C125.98 49.2999 125.72 48.6699 125.72 48.1199C125.72 47.5299 126.01 46.9799 126.46 46.7199C126.727 46.5466 126.86 46.4366 126.86 46.3899C126.86 46.3199 126.79 46.2399 126.49 46.0899C126.09 45.9099 125.72 45.2099 125.72 44.6499C125.72 43.5399 126.46 42.8399 127.75 42.8399C128.6 42.8399 128.93 42.9099 129.26 43.0999C129.78 43.3899 130.11 43.9799 130.11 44.6099C130.11 45.1999 129.78 45.8299 129.34 46.0499C129.05 46.2299 128.97 46.3099 128.97 46.3799C128.97 46.4499 129.04 46.4899 129.15 46.5999C129.81 46.9999 130.11 47.4799 130.11 48.1499C130.11 48.6299 129.82 49.2599 129.52 49.4799L128.97 49.8499V49.9199C128.97 49.9899 129.01 50.0699 129.15 50.1399C129.74 50.4399 130.11 51.0599 130.11 51.7199C130.11 52.3499 129.7 53.0099 129.15 53.2699C129 53.3399 128.93 53.4199 128.93 53.4499C128.93 53.5233 129.103 53.6566 129.45 53.8499C129.78 54.0699 130.11 54.6999 130.11 55.2099C130.11 55.7599 129.78 56.3899 129.45 56.6099C128.97 56.8699 128.93 56.9099 128.93 57.0099C128.93 57.0799 128.97 57.1199 129.37 57.3399C129.77 57.5599 130.11 58.1899 130.11 58.7799C130.11 59.3299 129.82 59.9199 129.37 60.1799L129.08 60.3599C129.01 60.4299 128.97 60.4699 128.97 60.5399C128.97 60.5799 129.01 60.6499 129.04 60.6899L129.33 60.8399C129.77 61.0999 130.1 61.7199 130.1 62.3199C130.1 62.9199 129.73 63.5699 129.22 63.8299C129 63.9399 128.96 63.9799 128.96 64.0899C128.96 64.1999 128.96 64.1999 129.26 64.3499C129.74 64.5699 130.11 65.1999 130.11 65.8199C130.11 66.9299 129.34 67.5899 128.05 67.5899C127.24 67.5899 126.91 67.5499 126.61 67.3699C126.06 67.0399 125.69 66.4499 125.69 65.8199C125.69 65.1599 126.1 64.5299 126.68 64.2699C126.79 64.1999 126.83 64.1599 126.83 64.0899C126.83 64.0199 126.94 64.0899 126.24 63.5699C125.95 63.3499 125.69 62.7599 125.69 62.2799C125.69 61.6899 126.06 61.0699 126.54 60.8099C126.76 60.6999 126.83 60.6299 126.83 60.5499C126.83 60.5099 126.83 60.4399 126.79 60.4399L126.39 60.1799C126.02 59.9199 125.69 59.2999 125.69 58.7399C125.69 58.2999 125.91 57.7799 126.17 57.5599C126.5 57.2699 126.54 57.2299 126.54 57.1199C126.54 57.0099 126.47 56.9699 126.13 56.9699H115.7L115.69 57.0199Z" fill="#D16A27"/>
<path d="M138.17 57.02C137.99 57.02 137.84 57.09 137.84 57.17C137.84 57.21 137.88 57.24 137.91 57.32L138.2 57.58C138.49 57.84 138.72 58.35 138.72 58.83C138.72 59.38 138.35 60.05 137.95 60.27C137.69 60.42 137.55 60.53 137.55 60.6L137.59 60.64C137.59 60.64 137.66 60.71 137.7 60.75L138.07 61.01C138.47 61.27 138.73 61.75 138.73 62.26C138.73 62.85 138.44 63.51 138.07 63.73C137.66 63.99 137.59 64.03 137.59 64.13C137.59 64.2 137.63 64.24 137.81 64.31C138.33 64.53 138.69 65.23 138.69 65.82C138.69 66.48 138.36 67.11 137.77 67.4C137.48 67.58 137.18 67.62 136.44 67.62C135.7 67.62 135.52 67.58 135.19 67.4C134.64 67.07 134.31 66.48 134.31 65.85C134.31 65.22 134.68 64.56 135.19 64.34C135.37 64.23 135.41 64.19 135.41 64.12C135.41 64.0466 135.263 63.9133 134.97 63.72C134.6 63.5 134.31 62.87 134.31 62.32C134.31 61.77 134.6 61.14 135.05 60.88C135.42 60.66 135.46 60.66 135.46 60.55C135.46 60.48 135.53 60.55 134.91 60.11C134.58 59.89 134.32 59.3 134.32 58.78C134.32 58.15 134.73 57.45 135.2 57.23C135.38 57.16 135.42 57.12 135.42 57.01C135.42 56.94 135.38 56.9 135.35 56.9L134.91 56.61C134.58 56.39 134.32 55.8 134.32 55.25C134.32 54.4 135.06 53.52 135.83 53.52C136.53 53.48 136.68 53.45 136.68 53.34C136.68 53.3 136.5 53.08 136.2 52.82C135.98 52.64 135.79 52.12 135.79 51.68C135.79 51.09 136.16 50.46 136.67 50.17C136.96 50.02 137.37 49.95 138.07 49.95C139.43 49.95 140.21 50.58 140.21 51.68C140.21 52.12 139.99 52.67 139.73 52.89L139.4 53.22C139.4 53.22 139.33 53.29 139.33 53.33C139.33 53.48 139.37 53.48 139.77 53.48H147.29C147.77 53.48 147.84 53.48 147.84 53.3C147.84 53.23 147.8 53.19 147.62 53.04C147.29 52.82 146.99 52.23 146.99 51.71C146.99 50.6 147.8 49.94 149.09 49.94C150.64 49.94 151.41 50.53 151.41 51.63C151.41 52.18 151.15 52.77 150.78 53.03C150.6 53.18 150.56 53.25 150.56 53.33C150.56 53.48 150.63 53.48 151.26 53.51C152.14 53.55 152.88 54.36 152.88 55.24C152.88 55.79 152.62 56.38 152.25 56.6L151.81 56.89C151.81 56.89 151.74 56.96 151.74 57C151.74 57.07 151.81 57.15 151.89 57.18L152.26 57.44C152.59 57.66 152.89 58.29 152.89 58.77C152.89 59.29 152.63 59.88 152.3 60.13C151.78 60.46 151.75 60.5 151.75 60.54C151.75 60.61 151.86 60.69 152.27 60.98C152.64 61.2 152.9 61.83 152.9 62.34C152.9 62.82 152.64 63.41 152.31 63.67C151.943 63.9166 151.76 64.0633 151.76 64.11C151.76 64.1566 151.896 64.2566 152.17 64.41C152.61 64.67 152.91 65.29 152.91 65.81C152.91 66.99 152.17 67.62 150.85 67.62C150 67.62 149.78 67.58 149.41 67.4C148.86 67.07 148.53 66.52 148.53 65.85C148.53 65.26 148.82 64.71 149.34 64.38L149.49 64.27C149.6 64.23 149.64 64.16 149.64 64.09C149.64 64.02 149.6 63.98 149.34 63.83C148.9 63.61 148.53 62.91 148.53 62.32C148.53 61.77 148.9 61.07 149.38 60.85C149.6 60.7 149.64 60.67 149.64 60.59C149.64 60.55 149.6 60.48 149.57 60.44L149.09 60.11C148.79 59.93 148.5 59.26 148.5 58.86C148.5 58.42 148.72 57.87 148.94 57.65C149.42 57.21 149.38 57.24 149.38 57.17C149.38 57.1 149.31 57.02 149.23 57.02H138.21H138.17ZM140.79 49.95C139.35 49.95 138.58 49.32 138.58 48.18C138.58 47.04 139.39 46.37 140.64 46.37C141.41 46.37 141.86 46.48 142.19 46.67C142.67 46.97 143 47.55 143 48.11C143 49.29 142.19 49.95 140.79 49.95ZM143.48 42.84C145.06 42.84 145.8 43.39 145.8 44.57C145.8 45.75 145.03 46.38 143.7 46.38C142.89 46.38 142.56 46.34 142.19 46.09C141.75 45.79 141.38 45.17 141.38 44.65C141.38 43.51 142.15 42.84 143.48 42.84ZM145.1 46.64C145.39 46.46 145.73 46.42 146.5 46.42C147.83 46.42 148.6 47.05 148.6 48.15C148.6 48.81 148.23 49.44 147.68 49.73C147.35 49.88 147.09 49.95 146.32 49.95C145.69 49.95 145.47 49.91 145.14 49.73C144.62 49.43 144.18 48.77 144.18 48.22C144.18 47.56 144.55 46.89 145.1 46.64Z" fill="#D16A27"/>
<path d="M163.3 46.41C164.22 46.41 165.03 47.18 165.03 48.1C165.03 49.17 164.22 49.94 163.11 49.94H160.75C160.68 49.94 160.6 49.98 160.6 50.09C160.6 50.16 160.67 50.24 160.89 50.39C161.22 50.65 161.48 51.24 161.48 51.72C161.48 52.24 161.15 52.86 160.82 53.08L160.38 53.34C160.38 53.34 160.34 53.41 160.34 53.49C160.34 53.57 160.38 53.64 160.64 53.75C161.04 53.97 161.49 54.67 161.49 55.19C161.49 55.82 161.12 56.48 160.75 56.7C160.42 56.85 160.34 56.96 160.34 57.03C160.34 57.07 160.38 57.14 160.38 57.14L160.78 57.4C161.15 57.66 161.44 58.28 161.44 58.8C161.44 59.32 161.18 59.94 160.81 60.16C160.4 60.42 160.33 60.49 160.33 60.57C160.33 60.65 160.37 60.68 160.85 61.01C161.18 61.27 161.44 61.86 161.44 62.34C161.44 62.89 161.14 63.52 160.74 63.74C160.41 63.96 160.33 64.04 160.33 64.11C160.33 64.18 160.37 64.22 160.74 64.48C161.14 64.74 161.44 65.33 161.44 65.84C161.44 66.98 160.63 67.65 159.27 67.65C158.5 67.65 158.28 67.61 157.91 67.39C157.39 67.06 157.06 66.47 157.06 65.84C157.06 65.21 157.35 64.66 157.94 64.37C158.12 64.3 158.2 64.22 158.2 64.11C158.2 64.04 158.13 63.96 157.94 63.89C157.46 63.67 157.06 62.97 157.06 62.34C157.06 61.79 157.35 61.2 157.76 60.94L158.09 60.72C158.16 60.68 158.2 60.61 158.2 60.57C158.2 60.53 158.16 60.46 158.13 60.46L157.69 60.16C157.36 59.94 157.06 59.28 157.06 58.8C157.06 58.21 157.39 57.58 157.8 57.36C158.13 57.14 158.17 57.14 158.17 57.03C158.17 56.92 158.13 56.88 157.8 56.7C157.4 56.44 157.06 55.82 157.06 55.23C157.06 54.6 157.43 53.94 158.02 53.68C158.17 53.61 158.2 53.57 158.2 53.5C158.2 53.43 158.13 53.35 157.68 53.06C157.35 52.88 157.05 52.21 157.05 51.7C157.05 51.11 157.42 50.45 157.9 50.23C158.12 50.08 158.19 50.05 158.19 49.97C158.19 49.86 158.12 49.79 157.9 49.67C157.38 49.41 157.05 48.79 157.05 48.16C157.05 47.61 157.34 47.02 157.71 46.76L158.11 46.54C158.11 46.54 158.18 46.47 158.18 46.39C158.18 46.35 158.14 46.28 158.11 46.28L157.74 46.06C157.33 45.8 157.04 45.21 157.04 44.62C157.04 43.55 157.81 42.85 159.03 42.85C160.14 42.85 160.5 42.96 160.95 43.37C161.25 43.66 161.5 44.18 161.5 44.62C161.5 45.17 161.24 45.65 160.8 46.02C160.69 46.13 160.62 46.2 160.62 46.28C160.62 46.39 160.66 46.43 161.1 46.43H163.27L163.3 46.41ZM166.21 49.95C167.79 49.95 168.57 50.54 168.57 51.68C168.57 52.82 167.8 53.49 166.43 53.49C165.66 53.49 165.4 53.45 165.07 53.23C164.55 52.94 164.15 52.31 164.15 51.72C164.15 50.65 164.96 49.95 166.21 49.95ZM175.64 65.87C175.64 66.53 175.27 67.12 174.72 67.42C174.39 67.6 174.13 67.64 173.43 67.64C171.99 67.64 171.22 67.01 171.22 65.87C171.22 65.28 171.59 64.65 172.03 64.4C172.32 64.25 172.36 64.25 172.36 64.14C172.36 64.07 172.32 64.03 171.88 63.74C171.51 63.52 171.22 62.89 171.22 62.38C171.22 61.83 171.51 61.24 171.88 61.02L172.28 60.72C172.28 60.72 172.35 60.65 172.35 60.61C172.35 60.57 172.31 60.5 172.28 60.46L171.84 60.16C171.51 59.94 171.21 59.31 171.21 58.8C171.21 58.32 171.43 57.8 171.8 57.51C171.98 57.36 172.06 57.25 172.06 57.21C172.06 57.14 171.91 57.03 171.73 57.03H169.89C168.45 57.03 167.68 56.44 167.68 55.3C167.68 54.42 168.49 53.53 169.26 53.53H171.91C171.98 53.53 172.06 53.46 172.06 53.38C172.06 53.27 172.02 53.2 171.8 53.05C171.47 52.83 171.21 52.2 171.21 51.72C171.21 51.17 171.54 50.5 171.95 50.28C172.25 50.13 172.36 50.06 172.36 49.98C172.36 49.9 172.36 49.87 172.32 49.83L171.73 49.42C171.47 49.24 171.21 48.65 171.21 48.21C171.21 47.66 171.54 46.99 171.91 46.77C172.31 46.55 172.39 46.47 172.39 46.4C172.39 46.36 172.35 46.29 172.32 46.25L171.95 46.03C171.51 45.73 171.25 45.18 171.25 44.63C171.25 43.45 172.02 42.86 173.5 42.86C174.86 42.86 175.64 43.49 175.64 44.63C175.64 45.15 175.35 45.77 175.01 45.99L174.57 46.25C174.57 46.25 174.5 46.32 174.5 46.4C174.5 46.44 174.54 46.51 174.61 46.55L174.94 46.73C175.35 47.03 175.64 47.61 175.64 48.17C175.64 48.91 175.42 49.24 174.61 49.79C174.54 49.86 174.5 49.9 174.5 49.94C174.5 50.05 174.57 50.12 174.98 50.34C175.35 50.56 175.64 51.19 175.64 51.74C175.64 52.26 175.35 52.88 174.98 53.1L174.57 53.36C174.57 53.36 174.5 53.43 174.5 53.47C174.5 53.58 174.57 53.62 174.91 53.8C175.31 54.06 175.65 54.68 175.65 55.2C175.65 55.72 175.39 56.34 175.1 56.53C174.73 56.79 174.51 56.97 174.51 57.05C174.51 57.09 174.55 57.16 174.62 57.2L175.06 57.5C175.36 57.72 175.65 58.35 175.65 58.83C175.65 59.38 175.32 60.01 174.95 60.23L174.62 60.45C174.55 60.49 174.51 60.52 174.51 60.6C174.51 60.64 174.55 60.71 174.62 60.75L175.06 61.04C175.36 61.26 175.65 61.85 175.65 62.33C175.65 62.88 175.32 63.55 174.95 63.77C174.58 63.99 174.51 64.03 174.51 64.14C174.51 64.21 174.47 64.21 174.77 64.4C174.81 64.4 174.84 64.44 174.88 64.47C175.43 64.84 175.65 65.28 175.65 65.87H175.64Z" fill="#D16A27"/>
<path d="M186.77 46.41C187.69 46.41 188.5 47.18 188.5 48.1C188.5 49.17 187.69 49.94 186.58 49.94H184.22C184.15 49.94 184.07 49.98 184.07 50.09C184.07 50.16 184.14 50.24 184.36 50.39C184.69 50.65 184.95 51.24 184.95 51.72C184.95 52.24 184.62 52.86 184.29 53.08L183.85 53.34C183.85 53.34 183.81 53.41 183.81 53.49C183.81 53.57 183.85 53.64 184.11 53.75C184.51 53.97 184.96 54.67 184.96 55.19C184.96 55.82 184.59 56.48 184.22 56.7C183.89 56.85 183.81 56.96 183.81 57.03C183.81 57.07 183.85 57.14 183.85 57.14L184.25 57.4C184.62 57.66 184.91 58.28 184.91 58.8C184.91 59.32 184.65 59.94 184.28 60.16C183.87 60.42 183.8 60.49 183.8 60.57C183.8 60.65 183.84 60.68 184.32 61.01C184.65 61.27 184.91 61.86 184.91 62.34C184.91 62.89 184.61 63.52 184.21 63.74C183.88 63.96 183.8 64.04 183.8 64.11C183.8 64.18 183.84 64.22 184.21 64.48C184.61 64.74 184.91 65.33 184.91 65.84C184.91 66.98 184.1 67.65 182.74 67.65C181.97 67.65 181.75 67.61 181.38 67.39C180.86 67.06 180.53 66.47 180.53 65.84C180.53 65.21 180.82 64.66 181.41 64.37C181.59 64.3 181.67 64.22 181.67 64.11C181.67 64.04 181.6 63.96 181.41 63.89C180.93 63.67 180.53 62.97 180.53 62.34C180.53 61.79 180.82 61.2 181.23 60.94L181.56 60.72C181.63 60.68 181.67 60.61 181.67 60.57C181.67 60.53 181.63 60.46 181.6 60.46L181.16 60.16C180.83 59.94 180.53 59.28 180.53 58.8C180.53 58.21 180.86 57.58 181.27 57.36C181.6 57.14 181.64 57.14 181.64 57.03C181.64 56.92 181.6 56.88 181.27 56.7C180.87 56.44 180.53 55.82 180.53 55.23C180.53 54.6 180.9 53.94 181.49 53.68C181.64 53.61 181.67 53.57 181.67 53.5C181.67 53.43 181.6 53.35 181.15 53.06C180.82 52.88 180.52 52.21 180.52 51.7C180.52 51.11 180.89 50.45 181.37 50.23C181.59 50.08 181.66 50.05 181.66 49.97C181.66 49.86 181.59 49.79 181.37 49.67C180.85 49.41 180.52 48.79 180.52 48.16C180.52 47.61 180.81 47.02 181.18 46.76L181.58 46.54C181.58 46.54 181.65 46.47 181.65 46.39C181.65 46.35 181.61 46.28 181.58 46.28L181.21 46.06C180.8 45.8 180.51 45.21 180.51 44.62C180.51 43.55 181.28 42.85 182.5 42.85C183.61 42.85 183.97 42.96 184.42 43.37C184.72 43.66 184.97 44.18 184.97 44.62C184.97 45.17 184.71 45.65 184.27 46.02C184.16 46.13 184.09 46.2 184.09 46.28C184.09 46.39 184.13 46.43 184.57 46.43H186.74L186.77 46.41ZM189.68 49.95C191.26 49.95 192.04 50.54 192.04 51.68C192.04 52.82 191.27 53.49 189.9 53.49C189.13 53.49 188.87 53.45 188.54 53.23C188.02 52.94 187.62 52.31 187.62 51.72C187.62 50.65 188.43 49.95 189.68 49.95ZM199.11 65.87C199.11 66.53 198.74 67.12 198.19 67.42C197.86 67.6 197.6 67.64 196.9 67.64C195.46 67.64 194.69 67.01 194.69 65.87C194.69 65.28 195.06 64.65 195.5 64.4C195.79 64.25 195.83 64.25 195.83 64.14C195.83 64.07 195.79 64.03 195.35 63.74C194.98 63.52 194.69 62.89 194.69 62.38C194.69 61.83 194.98 61.24 195.35 61.02L195.75 60.72C195.75 60.72 195.82 60.65 195.82 60.61C195.82 60.57 195.78 60.5 195.75 60.46L195.31 60.16C194.98 59.94 194.68 59.31 194.68 58.8C194.68 58.32 194.9 57.8 195.27 57.51C195.45 57.36 195.53 57.25 195.53 57.21C195.53 57.14 195.38 57.03 195.2 57.03H193.36C191.92 57.03 191.15 56.44 191.15 55.3C191.15 54.42 191.96 53.53 192.73 53.53H195.38C195.45 53.53 195.53 53.46 195.53 53.38C195.53 53.27 195.49 53.2 195.27 53.05C194.94 52.83 194.68 52.2 194.68 51.72C194.68 51.17 195.01 50.5 195.42 50.28C195.72 50.13 195.83 50.06 195.83 49.98C195.83 49.9 195.83 49.87 195.79 49.83L195.2 49.42C194.94 49.24 194.68 48.65 194.68 48.21C194.68 47.66 195.01 46.99 195.38 46.77C195.78 46.55 195.86 46.47 195.86 46.4C195.86 46.36 195.82 46.29 195.79 46.25L195.42 46.03C194.98 45.73 194.72 45.18 194.72 44.63C194.72 43.45 195.49 42.86 196.97 42.86C198.33 42.86 199.11 43.49 199.11 44.63C199.11 45.15 198.82 45.77 198.48 45.99L198.04 46.25C198.04 46.25 197.97 46.32 197.97 46.4C197.97 46.44 198.01 46.51 198.08 46.55L198.41 46.73C198.82 47.03 199.11 47.61 199.11 48.17C199.11 48.91 198.89 49.24 198.08 49.79C198.01 49.86 197.97 49.9 197.97 49.94C197.97 50.05 198.04 50.12 198.45 50.34C198.82 50.56 199.11 51.19 199.11 51.74C199.11 52.26 198.82 52.88 198.45 53.1L198.04 53.36C198.04 53.36 197.97 53.43 197.97 53.47C197.97 53.58 198.04 53.62 198.38 53.8C198.78 54.06 199.12 54.68 199.12 55.2C199.12 55.72 198.86 56.34 198.57 56.53C198.2 56.79 197.98 56.97 197.98 57.05C197.98 57.09 198.02 57.16 198.09 57.2L198.53 57.5C198.83 57.72 199.12 58.35 199.12 58.83C199.12 59.38 198.79 60.01 198.42 60.23L198.09 60.45C198.02 60.49 197.98 60.52 197.98 60.6C197.98 60.64 198.02 60.71 198.09 60.75L198.53 61.04C198.83 61.26 199.12 61.85 199.12 62.33C199.12 62.88 198.79 63.55 198.42 63.77C198.05 63.99 197.98 64.03 197.98 64.14C197.98 64.21 197.94 64.21 198.24 64.4C198.28 64.4 198.31 64.44 198.35 64.47C198.9 64.84 199.12 65.28 199.12 65.87H199.11Z" fill="#D16A27"/>
<path d="M207.37 49.5L206.85 49.83C206.85 49.83 206.78 49.8999 206.78 49.9399C206.78 49.9799 206.82 50.05 206.85 50.09L207.29 50.3899C207.62 50.5699 207.88 51.2 207.88 51.72C207.88 52.2 207.62 52.8299 207.29 53.0499L206.85 53.3499C206.85 53.3499 206.78 53.4199 206.78 53.4599C206.78 53.5699 206.74 53.5699 207.26 53.8699C207.63 54.0899 207.89 54.7199 207.89 55.2299C207.89 55.78 207.63 56.37 207.26 56.59L206.86 56.8499C206.86 56.8499 206.79 56.96 206.79 57C206.79 57.04 206.83 57.11 206.86 57.15L207.23 57.3699C207.6 57.5899 207.89 58.22 207.89 58.77C207.89 59.4 207.52 60.0599 206.97 60.32C206.86 60.3899 206.79 60.43 206.79 60.5C206.79 60.57 206.86 60.6499 207.05 60.7599C207.57 61.0499 207.9 61.64 207.9 62.27C207.9 63.3 207.09 64.04 205.95 64H205.62C204.29 64 203.52 63.37 203.52 62.27C203.52 61.72 203.81 61.1299 204.18 60.91L204.58 60.65C204.58 60.65 204.65 60.58 204.65 60.54C204.65 60.47 204.61 60.3899 204.54 60.3899L204.21 60.1699C203.84 59.9099 203.55 59.29 203.55 58.77C203.55 58.22 203.81 57.6299 204.18 57.3699L204.58 57.15C204.58 57.15 204.65 57.04 204.65 57C204.65 56.96 204.61 56.8899 204.58 56.8899L204.03 56.45C203.81 56.3 203.55 55.68 203.55 55.27C203.55 54.72 203.84 54.0599 204.21 53.8699C204.62 53.6099 204.65 53.57 204.65 53.5C204.65 53.43 204.65 53.3899 204.58 53.3499L204.18 53.0499C203.85 52.8299 203.55 52.24 203.55 51.72C203.55 51.13 203.88 50.4999 204.29 50.2799C204.58 50.0999 204.66 50.02 204.66 49.95C204.66 49.91 204.66 49.84 204.62 49.84L204.14 49.5099C203.81 49.2899 203.55 48.7 203.55 48.22C203.55 47.19 204.4 46.41 205.47 46.41L205.91 46.45C207.2 46.49 207.9 47.11 207.9 48.18C207.9 48.66 207.68 49.2899 207.38 49.5099L207.37 49.5ZM208.73 67.5199C207.85 67.5199 207.04 66.71 207.04 65.79C207.04 64.87 207.81 64.0999 208.88 64.0999H216.54C217.65 64.0999 218.42 64.76 218.42 65.76C218.42 66.76 217.65 67.5299 216.5 67.5299H208.72L208.73 67.5199ZM209.98 46.41C208.43 46.41 208.36 46.4099 207.92 46.1899C207.4 45.8999 207.07 45.31 207.07 44.68C207.07 43.76 207.81 42.95 208.65 42.95H216.61C217.68 42.95 218.45 43.69 218.45 44.68C218.45 45.75 217.68 46.41 216.42 46.41H209.97H209.98ZM221.33 56.6199L220.85 56.91C220.85 56.91 220.81 56.95 220.81 57.02C220.81 57.06 220.85 57.1299 220.88 57.1699L221.29 57.43C221.62 57.65 221.92 58.28 221.92 58.72C221.92 59.31 221.62 59.94 221.26 60.16C220.89 60.3799 220.82 60.4599 220.82 60.5299C220.82 60.6033 220.957 60.7266 221.23 60.9C221.63 61.12 221.93 61.7499 221.93 62.2599C221.93 63.3699 221.16 64.0299 219.87 64.0299C218.36 64.0299 217.59 63.4399 217.59 62.2999C217.59 61.7099 217.92 61.08 218.33 60.86C218.66 60.68 218.7 60.6399 218.7 60.5299C218.7 60.4899 218.66 60.42 218.63 60.38L218.19 60.08C217.86 59.86 217.6 59.27 217.6 58.75C217.6 58.16 217.97 57.4999 218.41 57.2799C218.67 57.1699 218.74 57.13 218.74 57.06C218.74 56.91 218.7 56.91 218.26 56.66C217.89 56.4399 217.6 55.8099 217.6 55.2599C217.6 54.6699 217.93 54.08 218.34 53.82C218.607 53.6733 218.74 53.5633 218.74 53.49C218.74 53.49 218.7 53.38 218.67 53.38L218.3 53.1199C217.93 52.9399 217.6 52.27 217.6 51.72C217.6 51.2 217.89 50.6099 218.26 50.3899L218.67 50.13C218.67 50.13 218.74 50.0599 218.74 49.9799C218.74 49.9066 218.567 49.7733 218.22 49.58C217.85 49.36 217.59 48.84 217.59 48.29C217.59 47.15 218.36 46.4799 219.65 46.4799C220.39 46.4799 220.79 46.52 221.09 46.7C221.61 47.03 221.97 47.6199 221.97 48.2099C221.97 48.7599 221.64 49.42 221.23 49.65C220.9 49.87 220.82 49.9099 220.82 49.9799C220.82 50.05 220.86 50.09 220.89 50.13L221.37 50.43C221.66 50.65 221.96 51.2799 221.96 51.7599C221.96 52.3499 221.59 53.0099 221.15 53.2299C220.86 53.3799 220.82 53.41 220.82 53.49C220.82 53.57 220.86 53.6399 221 53.7099C221.59 53.9999 221.96 54.6299 221.96 55.2599C221.96 55.7799 221.67 56.3999 221.33 56.6199Z" fill="#D16A27"/>
<path d="M232.61 46.41C233.53 46.41 234.34 47.18 234.34 48.1C234.34 49.17 233.53 49.94 232.42 49.94H230.06C229.99 49.94 229.91 49.98 229.91 50.09C229.91 50.16 229.98 50.24 230.2 50.39C230.53 50.65 230.79 51.24 230.79 51.72C230.79 52.24 230.46 52.86 230.13 53.08L229.69 53.34C229.69 53.34 229.65 53.41 229.65 53.49C229.65 53.57 229.69 53.64 229.95 53.75C230.35 53.97 230.8 54.67 230.8 55.19C230.8 55.82 230.43 56.48 230.06 56.7C229.73 56.85 229.65 56.96 229.65 57.03C229.65 57.07 229.69 57.14 229.69 57.14L230.09 57.4C230.46 57.66 230.75 58.28 230.75 58.8C230.75 59.32 230.49 59.94 230.12 60.16C229.71 60.42 229.64 60.49 229.64 60.57C229.64 60.65 229.68 60.68 230.16 61.01C230.49 61.27 230.75 61.86 230.75 62.34C230.75 62.89 230.45 63.52 230.05 63.74C229.72 63.96 229.64 64.04 229.64 64.11C229.64 64.18 229.68 64.22 230.05 64.48C230.45 64.74 230.75 65.33 230.75 65.84C230.75 66.98 229.94 67.65 228.58 67.65C227.81 67.65 227.59 67.61 227.22 67.39C226.7 67.06 226.37 66.47 226.37 65.84C226.37 65.21 226.66 64.66 227.25 64.37C227.43 64.3 227.51 64.22 227.51 64.11C227.51 64.04 227.44 63.96 227.25 63.89C226.77 63.67 226.37 62.97 226.37 62.34C226.37 61.79 226.66 61.2 227.07 60.94L227.4 60.72C227.47 60.68 227.51 60.61 227.51 60.57C227.51 60.53 227.47 60.46 227.44 60.46L227 60.16C226.67 59.94 226.37 59.28 226.37 58.8C226.37 58.21 226.7 57.58 227.11 57.36C227.44 57.14 227.48 57.14 227.48 57.03C227.48 56.92 227.44 56.88 227.11 56.7C226.71 56.44 226.37 55.82 226.37 55.23C226.37 54.6 226.74 53.94 227.33 53.68C227.48 53.61 227.51 53.57 227.51 53.5C227.51 53.43 227.44 53.35 226.99 53.06C226.66 52.88 226.36 52.21 226.36 51.7C226.36 51.11 226.73 50.45 227.21 50.23C227.43 50.08 227.5 50.05 227.5 49.97C227.5 49.86 227.43 49.79 227.21 49.67C226.69 49.41 226.36 48.79 226.36 48.16C226.36 47.61 226.65 47.02 227.02 46.76L227.42 46.54C227.42 46.54 227.49 46.47 227.49 46.39C227.49 46.35 227.45 46.28 227.42 46.28L227.05 46.06C226.64 45.8 226.35 45.21 226.35 44.62C226.35 43.55 227.12 42.85 228.34 42.85C229.45 42.85 229.81 42.96 230.26 43.37C230.56 43.66 230.81 44.18 230.81 44.62C230.81 45.17 230.55 45.65 230.11 46.02C230 46.13 229.93 46.2 229.93 46.28C229.93 46.39 229.97 46.43 230.41 46.43H232.58L232.61 46.41ZM235.52 49.95C237.1 49.95 237.88 50.54 237.88 51.68C237.88 52.82 237.11 53.49 235.74 53.49C234.97 53.49 234.71 53.45 234.38 53.23C233.86 52.94 233.46 52.31 233.46 51.72C233.46 50.65 234.27 49.95 235.52 49.95ZM244.95 65.87C244.95 66.53 244.58 67.12 244.03 67.42C243.7 67.6 243.44 67.64 242.74 67.64C241.3 67.64 240.53 67.01 240.53 65.87C240.53 65.28 240.9 64.65 241.34 64.4C241.63 64.25 241.67 64.25 241.67 64.14C241.67 64.07 241.63 64.03 241.19 63.74C240.82 63.52 240.53 62.89 240.53 62.38C240.53 61.83 240.82 61.24 241.19 61.02L241.59 60.72C241.59 60.72 241.66 60.65 241.66 60.61C241.66 60.57 241.62 60.5 241.59 60.46L241.15 60.16C240.82 59.94 240.52 59.31 240.52 58.8C240.52 58.32 240.74 57.8 241.11 57.51C241.29 57.36 241.37 57.25 241.37 57.21C241.37 57.14 241.22 57.03 241.04 57.03H239.2C237.76 57.03 236.99 56.44 236.99 55.3C236.99 54.42 237.8 53.53 238.57 53.53H241.22C241.29 53.53 241.37 53.46 241.37 53.38C241.37 53.27 241.33 53.2 241.11 53.05C240.78 52.83 240.52 52.2 240.52 51.72C240.52 51.17 240.85 50.5 241.26 50.28C241.56 50.13 241.67 50.06 241.67 49.98C241.67 49.9 241.67 49.87 241.63 49.83L241.04 49.42C240.78 49.24 240.52 48.65 240.52 48.21C240.52 47.66 240.85 46.99 241.22 46.77C241.62 46.55 241.7 46.47 241.7 46.4C241.7 46.36 241.66 46.29 241.63 46.25L241.26 46.03C240.82 45.73 240.56 45.18 240.56 44.63C240.56 43.45 241.33 42.86 242.81 42.86C244.17 42.86 244.95 43.49 244.95 44.63C244.95 45.15 244.66 45.77 244.32 45.99L243.88 46.25C243.88 46.25 243.81 46.32 243.81 46.4C243.81 46.44 243.85 46.51 243.92 46.55L244.25 46.73C244.66 47.03 244.95 47.61 244.95 48.17C244.95 48.91 244.73 49.24 243.92 49.79C243.85 49.86 243.81 49.9 243.81 49.94C243.81 50.05 243.88 50.12 244.29 50.34C244.66 50.56 244.95 51.19 244.95 51.74C244.95 52.26 244.66 52.88 244.29 53.1L243.88 53.36C243.88 53.36 243.81 53.43 243.81 53.47C243.81 53.58 243.88 53.62 244.22 53.8C244.62 54.06 244.96 54.68 244.96 55.2C244.96 55.72 244.7 56.34 244.41 56.53C244.04 56.79 243.82 56.97 243.82 57.05C243.82 57.09 243.86 57.16 243.93 57.2L244.37 57.5C244.67 57.72 244.96 58.35 244.96 58.83C244.96 59.38 244.63 60.01 244.26 60.23L243.93 60.45C243.86 60.49 243.82 60.52 243.82 60.6C243.82 60.64 243.86 60.71 243.93 60.75L244.37 61.04C244.67 61.26 244.96 61.85 244.96 62.33C244.96 62.88 244.63 63.55 244.26 63.77C243.89 63.99 243.82 64.03 243.82 64.14C243.82 64.21 243.78 64.21 244.08 64.4C244.12 64.4 244.15 64.44 244.19 64.47C244.74 64.84 244.96 65.28 244.96 65.87H244.95Z" fill="#D16A27"/>
<path d="M93.0299 88.4899C92.8499 88.4899 92.6999 88.5599 92.6999 88.6399C92.6999 88.6799 92.7399 88.7099 92.7699 88.7899L93.0599 89.0499C93.3499 89.3099 93.5799 89.8199 93.5799 90.2999C93.5799 90.8499 93.2099 91.5199 92.8099 91.7399C92.5499 91.8899 92.4099 91.9999 92.4099 92.0699L92.4499 92.1099C92.4499 92.1099 92.5199 92.1799 92.5599 92.2199L92.9299 92.4799C93.3299 92.7399 93.5899 93.2199 93.5899 93.7299C93.5899 94.3199 93.2999 94.9799 92.9299 95.1999C92.5199 95.4599 92.4499 95.4999 92.4499 95.5999C92.4499 95.6699 92.4899 95.7099 92.6699 95.7799C93.1899 95.9999 93.5499 96.6999 93.5499 97.2899C93.5499 97.9499 93.2199 98.5799 92.6299 98.8699C92.3399 99.0499 92.0399 99.0899 91.2999 99.0899C90.5599 99.0899 90.3799 99.0499 90.0499 98.8699C89.4999 98.5399 89.1699 97.9499 89.1699 97.3199C89.1699 96.6899 89.5399 96.0299 90.0499 95.8099C90.2299 95.6999 90.2699 95.6599 90.2699 95.5899C90.2699 95.5166 90.1233 95.3833 89.8299 95.1899C89.4599 94.9699 89.1699 94.3399 89.1699 93.7899C89.1699 93.2399 89.4599 92.6099 89.9099 92.3499C90.2799 92.1299 90.3199 92.1299 90.3199 92.0199C90.3199 91.9499 90.3899 92.0199 89.7699 91.5799C89.4399 91.3599 89.1799 90.7699 89.1799 90.2499C89.1799 89.6199 89.5899 88.9199 90.0599 88.6999C90.2399 88.6299 90.2799 88.5899 90.2799 88.4799C90.2799 88.4099 90.2399 88.3699 90.2099 88.3699L89.7699 88.0799C89.4399 87.8599 89.1799 87.2699 89.1799 86.7199C89.1799 85.8699 89.9199 84.9899 90.6899 84.9899C91.3899 84.9499 91.5399 84.9199 91.5399 84.8099C91.5399 84.7699 91.3599 84.5499 91.0599 84.2899C90.8399 84.1099 90.6499 83.5899 90.6499 83.1499C90.6499 82.5599 91.0199 81.9299 91.5299 81.6399C91.8199 81.4899 92.2299 81.4199 92.9299 81.4199C94.2899 81.4199 95.0699 82.0499 95.0699 83.1499C95.0699 83.5899 94.8499 84.1399 94.5899 84.3599L94.2599 84.6899C94.2599 84.6899 94.1899 84.7599 94.1899 84.7999C94.1899 84.9499 94.2299 84.9499 94.6299 84.9499H102.15C102.63 84.9499 102.7 84.9499 102.7 84.7699C102.7 84.6999 102.66 84.6599 102.48 84.5099C102.15 84.2899 101.85 83.6999 101.85 83.1799C101.85 82.0699 102.66 81.4099 103.95 81.4099C105.5 81.4099 106.27 81.9999 106.27 83.0999C106.27 83.6499 106.01 84.2399 105.64 84.4999C105.46 84.6499 105.42 84.7199 105.42 84.7999C105.42 84.9499 105.49 84.9499 106.12 84.9799C107 85.0199 107.74 85.8299 107.74 86.7099C107.74 87.2599 107.48 87.8499 107.11 88.0699L106.67 88.3599C106.67 88.3599 106.6 88.4299 106.6 88.4699C106.6 88.5399 106.67 88.6199 106.75 88.6499L107.12 88.9099C107.45 89.1299 107.75 89.7599 107.75 90.2399C107.75 90.7599 107.49 91.3499 107.16 91.5999C106.64 91.9299 106.61 91.9699 106.61 92.0099C106.61 92.0799 106.72 92.1599 107.13 92.4499C107.5 92.6699 107.76 93.2999 107.76 93.8099C107.76 94.2899 107.5 94.8799 107.17 95.1399C106.803 95.3866 106.62 95.5333 106.62 95.5799C106.62 95.6266 106.757 95.7266 107.03 95.8799C107.47 96.1399 107.77 96.7599 107.77 97.2799C107.77 98.4599 107.03 99.0899 105.71 99.0899C104.86 99.0899 104.64 99.0499 104.27 98.8699C103.72 98.5399 103.39 97.9899 103.39 97.3199C103.39 96.7299 103.68 96.1799 104.2 95.8499L104.35 95.7399C104.46 95.6999 104.5 95.6299 104.5 95.5599C104.5 95.4899 104.46 95.4499 104.2 95.2999C103.76 95.0799 103.39 94.3799 103.39 93.7899C103.39 93.2399 103.76 92.5399 104.24 92.3199C104.46 92.1699 104.5 92.1399 104.5 92.0599C104.5 92.0199 104.46 91.9499 104.43 91.9099L103.95 91.5799C103.65 91.3999 103.36 90.7299 103.36 90.3299C103.36 89.8899 103.58 89.3399 103.8 89.1199C104.28 88.6799 104.24 88.7099 104.24 88.6399C104.24 88.5699 104.17 88.4899 104.09 88.4899H93.0699H93.0299ZM95.6499 81.4199C94.2099 81.4199 93.4399 80.7899 93.4399 79.6499C93.4399 78.5099 94.2499 77.8399 95.4999 77.8399C96.2699 77.8399 96.7199 77.9499 97.0499 78.1399C97.5299 78.4399 97.8599 79.0199 97.8599 79.5799C97.8599 80.7599 97.0499 81.4199 95.6499 81.4199ZM98.3399 74.3099C99.9199 74.3099 100.66 74.8599 100.66 76.0399C100.66 77.2199 99.8899 77.8499 98.5599 77.8499C97.7499 77.8499 97.4199 77.8099 97.0499 77.5599C96.6099 77.2599 96.2399 76.6399 96.2399 76.1199C96.2399 74.9799 97.0099 74.3099 98.3399 74.3099ZM99.9599 78.1099C100.25 77.9299 100.59 77.8899 101.36 77.8899C102.69 77.8899 103.46 78.5199 103.46 79.6199C103.46 80.2799 103.09 80.9099 102.54 81.1999C102.21 81.3499 101.95 81.4199 101.18 81.4199C100.55 81.4199 100.33 81.3799 99.9999 81.1999C99.4799 80.8999 99.0399 80.2399 99.0399 79.6899C99.0399 79.0299 99.4099 78.3599 99.9599 78.1099Z" fill="#D16A27"/>
<path d="M114.62 81.0799L114.25 81.2999C114.25 81.2999 114.18 81.3699 114.18 81.4499C114.18 81.4899 114.22 81.5599 114.22 81.5599L114.74 81.8899C115.07 82.1099 115.33 82.6599 115.33 83.2499C115.33 83.7999 114.92 84.4299 114.41 84.7199C114.08 84.8999 113.89 84.9399 113.16 84.9399H112.86C111.75 84.9399 110.94 84.1699 110.94 83.1699C110.94 82.6199 111.23 82.0599 111.6 81.8099L112 81.5499C112 81.5499 112.07 81.4799 112.07 81.4399C112.07 81.3999 112.03 81.3299 112 81.2899L111.52 80.9899C111.19 80.7699 110.93 80.1799 110.93 79.6599C110.93 78.5899 111.74 77.8899 113.03 77.8899C114.54 77.8899 115.32 78.4799 115.32 79.6999C115.32 80.2199 114.99 80.8399 114.62 81.0599V81.0799ZM113 91.9899C113.81 91.9899 114.11 92.0599 114.44 92.2499C114.96 92.5399 115.29 93.1299 115.29 93.7199C115.29 94.3499 114.96 94.9399 114.41 95.2299C114.08 95.4099 113.89 95.4499 113.16 95.4499C112.35 95.4499 112.13 95.4099 111.72 95.1499C111.24 94.8499 110.95 94.3399 110.95 93.8199C110.95 92.6399 111.69 91.9799 113.01 91.9799L113 91.9899ZM116.72 88.4899C115.28 88.4899 114.44 87.8599 114.44 86.7199C114.44 86.0899 114.77 85.5399 115.32 85.2099C115.69 84.9899 115.76 84.9899 116.5 84.9899H123.98C125.05 84.9899 125.82 85.7299 125.82 86.6799C125.82 87.7099 125.05 88.4899 123.98 88.4899H116.72ZM116.24 98.9899C115.21 98.9899 114.43 98.2199 114.43 97.2599C114.43 96.7099 114.69 96.1899 115.13 95.8599C115.46 95.5999 115.87 95.5299 116.75 95.5299H123.9C125.01 95.5299 125.82 96.2299 125.82 97.2199C125.82 98.2899 125.05 98.9899 123.87 98.9899H116.24ZM116.46 77.9099C115.24 77.9099 114.47 77.2099 114.47 76.1799C114.47 75.5499 114.84 74.9299 115.35 74.6699C115.75 74.4499 115.9 74.4099 116.9 74.4099H123.24C124.38 74.4099 124.64 74.4499 125.01 74.6699C125.53 74.9699 125.82 75.5499 125.82 76.1399C125.82 77.3599 125.01 77.9499 123.31 77.9499C123.09 77.9499 122.9 77.9499 122.72 77.9099H116.46ZM127.07 77.9499C128.54 77.9499 129.35 78.5399 129.35 79.6799C129.35 80.3099 128.98 80.9299 128.43 81.2299C128.1 81.4099 127.91 81.4499 127.14 81.4499C125.74 81.4499 124.97 80.8199 124.97 79.6799C124.97 78.5399 125.74 77.9499 127.07 77.9499ZM127.25 88.5199C128.54 88.5199 129.31 89.1499 129.31 90.2499C129.31 90.7699 129.05 91.3599 128.68 91.6099L128.28 91.8699C128.28 91.8699 128.21 91.9399 128.21 91.9799C128.21 92.0899 128.28 92.1599 128.5 92.2799C128.98 92.4999 129.31 93.1299 129.31 93.7199C129.31 94.1999 129.09 94.7099 128.72 95.0799C128.43 95.3799 127.87 95.4899 126.95 95.4899C125.77 95.4899 124.96 94.7899 124.96 93.7599C124.96 93.2099 125.33 92.5399 125.73 92.3199C126.06 92.1399 126.1 92.0999 126.1 92.0299C126.1 91.9599 126.06 91.8799 125.95 91.8499C125.29 91.4799 124.96 90.9999 124.96 90.2999C124.96 89.1199 125.7 88.5299 127.24 88.5299L127.25 88.5199Z" fill="#D16A27"/>
<path d="M135.99 81.0799L135.62 81.2999C135.62 81.2999 135.55 81.3699 135.55 81.4499C135.55 81.4899 135.59 81.5599 135.59 81.5599L136.11 81.8899C136.44 82.1099 136.7 82.6599 136.7 83.2499C136.7 83.7999 136.29 84.4299 135.78 84.7199C135.45 84.8999 135.26 84.9399 134.53 84.9399H134.23C133.12 84.9399 132.31 84.1699 132.31 83.1699C132.31 82.6199 132.6 82.0599 132.97 81.8099L133.37 81.5499C133.37 81.5499 133.44 81.4799 133.44 81.4399C133.44 81.3999 133.4 81.3299 133.37 81.2899L132.89 80.9899C132.56 80.7699 132.3 80.1799 132.3 79.6599C132.3 78.5899 133.11 77.8899 134.4 77.8899C135.91 77.8899 136.69 78.4799 136.69 79.6999C136.69 80.2199 136.36 80.8399 135.99 81.0599V81.0799ZM134.37 91.9899C135.18 91.9899 135.48 92.0599 135.81 92.2499C136.33 92.5399 136.66 93.1299 136.66 93.7199C136.66 94.3499 136.33 94.9399 135.78 95.2299C135.45 95.4099 135.26 95.4499 134.53 95.4499C133.72 95.4499 133.5 95.4099 133.09 95.1499C132.61 94.8499 132.32 94.3399 132.32 93.8199C132.32 92.6399 133.06 91.9799 134.38 91.9799L134.37 91.9899ZM138.09 88.4899C136.65 88.4899 135.81 87.8599 135.81 86.7199C135.81 86.0899 136.14 85.5399 136.69 85.2099C137.06 84.9899 137.13 84.9899 137.87 84.9899H145.35C146.42 84.9899 147.19 85.7299 147.19 86.6799C147.19 87.7099 146.42 88.4899 145.35 88.4899H138.09ZM137.61 98.9899C136.58 98.9899 135.8 98.2199 135.8 97.2599C135.8 96.7099 136.06 96.1899 136.5 95.8599C136.83 95.5999 137.24 95.5299 138.12 95.5299H145.27C146.38 95.5299 147.19 96.2299 147.19 97.2199C147.19 98.2899 146.42 98.9899 145.24 98.9899H137.61ZM137.83 77.9099C136.61 77.9099 135.84 77.2099 135.84 76.1799C135.84 75.5499 136.21 74.9299 136.72 74.6699C137.12 74.4499 137.27 74.4099 138.27 74.4099H144.61C145.75 74.4099 146.01 74.4499 146.38 74.6699C146.9 74.9699 147.19 75.5499 147.19 76.1399C147.19 77.3599 146.38 77.9499 144.68 77.9499C144.46 77.9499 144.27 77.9499 144.09 77.9099H137.83ZM148.44 77.9499C149.91 77.9499 150.72 78.5399 150.72 79.6799C150.72 80.3099 150.35 80.9299 149.8 81.2299C149.47 81.4099 149.28 81.4499 148.51 81.4499C147.11 81.4499 146.34 80.8199 146.34 79.6799C146.34 78.5399 147.11 77.9499 148.44 77.9499ZM148.62 88.5199C149.91 88.5199 150.68 89.1499 150.68 90.2499C150.68 90.7699 150.42 91.3599 150.05 91.6099L149.65 91.8699C149.65 91.8699 149.58 91.9399 149.58 91.9799C149.58 92.0899 149.65 92.1599 149.87 92.2799C150.35 92.4999 150.68 93.1299 150.68 93.7199C150.68 94.1999 150.46 94.7099 150.09 95.0799C149.8 95.3799 149.24 95.4899 148.32 95.4899C147.14 95.4899 146.33 94.7899 146.33 93.7599C146.33 93.2099 146.7 92.5399 147.1 92.3199C147.43 92.1399 147.47 92.0999 147.47 92.0299C147.47 91.9599 147.43 91.8799 147.32 91.8499C146.66 91.4799 146.33 90.9999 146.33 90.2999C146.33 89.1199 147.07 88.5299 148.61 88.5299L148.62 88.5199Z" fill="#D16A27"/>
<path d="M158.03 80.9699L157.51 81.2999C157.51 81.2999 157.44 81.3699 157.44 81.4099C157.44 81.4499 157.48 81.5199 157.51 81.5599L157.95 81.8599C158.28 82.0399 158.54 82.6699 158.54 83.1899C158.54 83.6699 158.28 84.2999 157.95 84.5199L157.51 84.8199C157.51 84.8199 157.44 84.8899 157.44 84.9299C157.44 85.0399 157.4 85.0399 157.92 85.3399C158.29 85.5599 158.55 86.1899 158.55 86.6999C158.55 87.2499 158.29 87.8399 157.92 88.0599L157.51 88.3199C157.51 88.3199 157.44 88.4299 157.44 88.4699C157.44 88.5099 157.48 88.5799 157.51 88.6199L157.88 88.8399C158.25 89.0599 158.54 89.6899 158.54 90.2399C158.54 90.8699 158.17 91.5299 157.62 91.7899C157.51 91.8599 157.44 91.8999 157.44 91.9699C157.44 92.0399 157.51 92.1199 157.7 92.2299C158.22 92.5199 158.55 93.1099 158.55 93.7399C158.55 94.7699 157.74 95.5099 156.6 95.4699H156.27C154.94 95.4699 154.17 94.8399 154.17 93.7399C154.17 93.1899 154.46 92.5999 154.83 92.3799L155.23 92.1199C155.23 92.1199 155.3 92.0499 155.3 92.0099C155.3 91.9399 155.26 91.8599 155.19 91.8599L154.86 91.6399C154.49 91.3799 154.2 90.7599 154.2 90.2399C154.2 89.6899 154.46 89.0999 154.83 88.8399L155.23 88.6199C155.23 88.6199 155.3 88.5099 155.3 88.4699C155.3 88.4299 155.26 88.3599 155.23 88.3599L154.68 87.9199C154.46 87.7699 154.2 87.1499 154.2 86.7399C154.2 86.1899 154.49 85.5299 154.86 85.3399C155.27 85.0799 155.3 85.0399 155.3 84.9699C155.3 84.8999 155.3 84.8599 155.23 84.8199L154.83 84.5199C154.5 84.2999 154.2 83.7099 154.2 83.1899C154.2 82.5999 154.53 81.9699 154.94 81.7499C155.23 81.5699 155.31 81.4899 155.31 81.4199C155.31 81.3799 155.31 81.3099 155.27 81.3099L154.79 80.9799C154.46 80.7599 154.2 80.1699 154.2 79.6899C154.2 78.6599 155.05 77.8799 156.12 77.8799L156.56 77.9199C157.85 77.9599 158.55 78.5799 158.55 79.6499C158.55 80.1299 158.33 80.7599 158.03 80.9799V80.9699ZM159.39 98.9899C158.51 98.9899 157.7 98.1799 157.7 97.2599C157.7 96.3399 158.47 95.5699 159.54 95.5699H167.2C168.31 95.5699 169.08 96.2299 169.08 97.2299C169.08 98.2299 168.31 98.9999 167.16 98.9999H159.38L159.39 98.9899ZM160.64 77.8799C159.09 77.8799 159.02 77.8799 158.58 77.6599C158.06 77.3699 157.73 76.7799 157.73 76.1499C157.73 75.2299 158.47 74.4199 159.31 74.4199H167.27C168.34 74.4199 169.11 75.1599 169.11 76.1499C169.11 77.2199 168.34 77.8799 167.08 77.8799H160.63H160.64ZM171.99 88.0899L171.51 88.3799C171.51 88.3799 171.47 88.4199 171.47 88.4899C171.47 88.5299 171.51 88.5999 171.54 88.6399L171.95 88.8999C172.28 89.1199 172.58 89.7499 172.58 90.1899C172.58 90.7799 172.28 91.4099 171.92 91.6299C171.55 91.8499 171.48 91.9299 171.48 91.9999C171.48 92.0733 171.617 92.1966 171.89 92.3699C172.29 92.5899 172.59 93.2199 172.59 93.7299C172.59 94.8399 171.82 95.4999 170.53 95.4999C169.02 95.4999 168.25 94.9099 168.25 93.7699C168.25 93.1799 168.58 92.5499 168.99 92.3299C169.32 92.1499 169.36 92.1099 169.36 91.9999C169.36 91.9599 169.32 91.8899 169.29 91.8499L168.85 91.5499C168.52 91.3299 168.26 90.7399 168.26 90.2199C168.26 89.6299 168.63 88.9699 169.07 88.7499C169.33 88.6399 169.4 88.5999 169.4 88.5299C169.4 88.3799 169.36 88.3799 168.92 88.1299C168.55 87.9099 168.26 87.2799 168.26 86.7299C168.26 86.1399 168.59 85.5499 169 85.2899C169.267 85.1433 169.4 85.0333 169.4 84.9599C169.4 84.9599 169.36 84.8499 169.33 84.8499L168.96 84.5899C168.59 84.4099 168.26 83.7399 168.26 83.1899C168.26 82.6699 168.55 82.0799 168.92 81.8599L169.32 81.5999C169.32 81.5999 169.39 81.5299 169.39 81.4499C169.39 81.3766 169.217 81.2433 168.87 81.0499C168.5 80.8299 168.24 80.3099 168.24 79.7599C168.24 78.6199 169.01 77.9499 170.3 77.9499C171.04 77.9499 171.44 77.9899 171.74 78.1699C172.26 78.4999 172.62 79.0899 172.62 79.6799C172.62 80.2299 172.29 80.8899 171.88 81.1199C171.55 81.3399 171.47 81.3799 171.47 81.4499C171.47 81.5199 171.51 81.5599 171.54 81.5999L172.02 81.8999C172.31 82.1199 172.61 82.7499 172.61 83.2299C172.61 83.8199 172.24 84.4799 171.8 84.6999C171.51 84.8499 171.47 84.8799 171.47 84.9599C171.47 85.0399 171.51 85.1099 171.65 85.1799C172.24 85.4699 172.61 86.0999 172.61 86.7299C172.61 87.2499 172.32 87.8699 171.98 88.0899H171.99Z" fill="#D16A27"/>
<path d="M180.29 81.0399L179.89 81.2999C179.89 81.2999 179.82 81.3699 179.82 81.4499C179.82 81.4899 179.86 81.5599 179.93 81.5999L180.26 81.8199C180.63 82.0799 180.92 82.6699 180.92 83.1799C180.92 83.6899 180.63 84.3199 180.29 84.5399L179.85 84.8399C179.85 84.8399 179.78 84.9099 179.78 84.9499C179.78 84.9899 179.82 85.0599 179.85 85.0599L180.26 85.3199C180.63 85.5799 180.92 86.1699 180.92 86.7199C180.92 87.2399 180.63 87.8599 180.29 88.0799L179.85 88.3399C179.85 88.3399 179.81 88.4099 179.81 88.4499C179.81 88.5199 179.85 88.5599 179.88 88.5999L180.25 88.8599C180.62 89.0799 180.91 89.7099 180.91 90.2199C180.91 90.6999 180.65 91.2899 180.36 91.5099L179.81 91.9099C179.81 91.9099 179.77 91.9499 179.77 91.9799C179.77 92.0899 179.81 92.0899 180.25 92.3499C180.62 92.5699 180.91 93.1599 180.91 93.7099C180.91 94.8199 180.14 95.4799 178.92 95.4799C178.07 95.4799 177.78 95.4099 177.41 95.2199C176.89 94.9299 176.53 94.3399 176.53 93.7099C176.53 93.2299 176.79 92.6399 177.16 92.4199L177.6 92.0899C177.6 92.0899 177.67 92.0199 177.67 91.9799C177.67 91.9099 177.63 91.8699 177.27 91.6499C176.86 91.3899 176.53 90.7699 176.53 90.2099C176.53 89.5099 176.82 89.0299 177.52 88.6599C177.59 88.5899 177.67 88.5099 177.67 88.4799C177.67 88.4499 177.63 88.3699 177.63 88.3699L177.11 87.9999C176.78 87.7799 176.52 87.1899 176.52 86.7099C176.52 86.1999 176.81 85.5999 177.15 85.3799L177.59 85.0799C177.59 85.0799 177.66 85.0099 177.66 84.9299C177.66 84.8899 177.62 84.8199 177.59 84.7799L177.11 84.4799C176.82 84.2599 176.56 83.6699 176.56 83.1899C176.56 82.6399 176.85 82.0099 177.19 81.7899C177.63 81.5299 177.67 81.4999 177.67 81.4199C177.67 81.3799 177.67 81.3499 177.63 81.3499L177.08 80.9499C176.78 80.7299 176.53 80.1399 176.53 79.6599C176.53 78.6299 177.38 77.8899 178.59 77.8899C179.33 77.8899 179.7 77.9599 180.03 78.1499C180.58 78.4499 180.91 79.0299 180.91 79.6199C180.91 80.1699 180.62 80.7999 180.28 81.0199L180.29 81.0399ZM189.8 74.4099C190.65 74.4099 191.46 75.2599 191.46 76.1399C191.46 76.7699 191.13 77.3899 190.58 77.6899C190.25 77.8699 190.03 77.9099 189.07 77.9099H182.44C181.63 77.9099 181.3 77.8699 180.97 77.6899C180.42 77.3899 180.09 76.8099 180.09 76.1799C180.09 75.0399 180.83 74.4099 182.19 74.4099H189.82H189.8ZM183.46 98.9899C181.51 98.9899 181.54 98.9899 181.21 98.8799C180.51 98.6199 180.07 97.9999 180.07 97.2599C180.07 96.6299 180.44 96.0099 180.99 95.7499C181.25 95.5999 181.54 95.5699 182.32 95.5699H189.51C190.69 95.5699 191.46 96.1999 191.46 97.2299C191.46 98.3399 190.69 98.9999 189.47 98.9999H183.46V98.9899ZM192.67 77.9499H192.97C194.22 77.9899 194.96 78.6099 194.96 79.6799C194.96 80.8199 194.19 81.4499 192.86 81.4499C192.05 81.4499 191.83 81.4099 191.5 81.2299C190.98 80.9299 190.62 80.2699 190.62 79.7199C190.62 78.6099 191.39 77.9499 192.68 77.9499H192.67ZM192.74 92.0299C194.18 92.0299 194.95 92.6199 194.95 93.7599C194.95 94.5299 194.43 95.1999 193.7 95.4199C193.52 95.4899 193.18 95.4899 192.52 95.4899C191.41 95.4899 190.6 94.7899 190.6 93.7899C190.6 92.6099 191.34 92.0199 192.74 92.0199V92.0299Z" fill="#D16A27"/>
<path d="M198.42 77.9099C197.46 77.9099 196.69 77.1399 196.69 76.1799C196.69 75.2199 197.46 74.4099 198.5 74.4099H205.91C207.31 74.4099 208.05 74.9999 208.05 76.1399C208.05 77.2799 207.28 77.9099 206.02 77.9099H203.99C203.84 77.9099 203.69 77.9799 203.69 78.0599C203.69 78.1399 203.87 78.3199 204.13 78.5399C204.39 78.7599 204.57 79.2799 204.57 79.7199C204.57 80.4199 204.31 80.7899 203.54 81.2999C203.47 81.3699 203.43 81.4099 203.43 81.4799C203.43 81.5499 203.47 81.5899 203.65 81.6599C204.17 81.8799 204.57 82.5799 204.57 83.1699C204.57 83.7199 204.28 84.3499 203.91 84.5699L203.54 84.7899C203.54 84.7899 203.47 84.8999 203.47 84.9399C203.47 85.0499 203.43 85.0099 203.95 85.3399C204.28 85.5599 204.58 86.1899 204.58 86.6999C204.58 87.2899 204.21 87.9199 203.73 88.2099C203.51 88.3199 203.43 88.3899 203.43 88.4299C203.43 88.4999 203.47 88.5799 203.5 88.6099L203.87 88.7899C204.28 89.0099 204.57 89.6399 204.57 90.1899C204.57 90.8499 204.2 91.4399 203.65 91.7699C203.5 91.8399 203.47 91.8799 203.47 91.9499C203.47 92.0199 203.51 92.0999 203.69 92.1699C204.24 92.4599 204.57 93.0499 204.57 93.6799C204.57 94.1199 204.39 94.6399 204.13 94.8599C203.76 95.1899 203.73 95.2299 203.73 95.2699C203.73 95.4499 203.84 95.5299 204.13 95.5299H206.34C207.37 95.5299 208.07 96.1899 208.07 97.1499C208.07 98.2199 207.26 98.9599 206.12 98.9599H198.49C197.5 98.9599 196.72 98.1899 196.72 97.2299C196.72 96.3799 197.46 95.5399 198.19 95.5399H200.58C200.99 95.5399 201.06 95.4999 201.06 95.3199C201.06 95.2499 201.02 95.1699 200.73 94.9199C200.44 94.6999 200.21 94.1499 200.21 93.6999C200.21 93.0399 200.54 92.5199 201.17 92.1499C201.28 92.0799 201.35 92.0399 201.35 91.9699C201.35 91.9299 201.31 91.8599 201.28 91.8599L200.8 91.5299C200.47 91.3499 200.21 90.7199 200.21 90.1999C200.21 89.5699 200.58 88.9499 201.09 88.6499H201.16C201.27 88.5799 201.31 88.5399 201.31 88.4699C201.31 88.3999 201.24 88.3199 200.83 88.0699C200.5 87.8499 200.2 87.2199 200.2 86.6699C200.2 86.1199 200.57 85.4499 201.01 85.1999C201.27 85.0899 201.3 85.0499 201.3 84.9799C201.3 84.9099 201.26 84.8699 201.23 84.8299L200.79 84.5299C200.46 84.3099 200.16 83.7199 200.16 83.1999C200.16 82.6499 200.49 81.9799 200.86 81.7999C201.23 81.5799 201.3 81.5399 201.3 81.4299C201.3 81.3899 201.3 81.3199 201.26 81.3199L200.82 81.0599C200.45 80.8399 200.16 80.2499 200.16 79.6999C200.16 79.2999 200.34 78.8199 200.56 78.5899L200.97 78.1499C200.97 78.1499 201.01 78.1099 201.01 78.0399C201.01 77.9699 200.94 77.8899 200.83 77.8899H198.4L198.42 77.9099Z" fill="#D16A27"/>
<path d="M214.41 88.4899C214.23 88.4899 214.08 88.5599 214.08 88.6399C214.08 88.6799 214.12 88.7099 214.15 88.7899L214.44 89.0499C214.73 89.3099 214.96 89.8199 214.96 90.2999C214.96 90.8499 214.59 91.5199 214.19 91.7399C213.93 91.8899 213.79 91.9999 213.79 92.0699L213.83 92.1099C213.83 92.1099 213.9 92.1799 213.94 92.2199L214.31 92.4799C214.71 92.7399 214.97 93.2199 214.97 93.7299C214.97 94.3199 214.68 94.9799 214.31 95.1999C213.9 95.4599 213.83 95.4999 213.83 95.5999C213.83 95.6699 213.87 95.7099 214.05 95.7799C214.57 95.9999 214.93 96.6999 214.93 97.2899C214.93 97.9499 214.6 98.5799 214.01 98.8699C213.72 99.0499 213.42 99.0899 212.68 99.0899C211.94 99.0899 211.76 99.0499 211.43 98.8699C210.88 98.5399 210.55 97.9499 210.55 97.3199C210.55 96.6899 210.92 96.0299 211.43 95.8099C211.61 95.6999 211.65 95.6599 211.65 95.5899C211.65 95.5166 211.503 95.3833 211.21 95.1899C210.84 94.9699 210.55 94.3399 210.55 93.7899C210.55 93.2399 210.84 92.6099 211.29 92.3499C211.66 92.1299 211.7 92.1299 211.7 92.0199C211.7 91.9499 211.77 92.0199 211.15 91.5799C210.82 91.3599 210.56 90.7699 210.56 90.2499C210.56 89.6199 210.97 88.9199 211.44 88.6999C211.62 88.6299 211.66 88.5899 211.66 88.4799C211.66 88.4099 211.62 88.3699 211.59 88.3699L211.15 88.0799C210.82 87.8599 210.56 87.2699 210.56 86.7199C210.56 85.8699 211.3 84.9899 212.07 84.9899C212.77 84.9499 212.92 84.9199 212.92 84.8099C212.92 84.7699 212.74 84.5499 212.44 84.2899C212.22 84.1099 212.03 83.5899 212.03 83.1499C212.03 82.5599 212.4 81.9299 212.91 81.6399C213.2 81.4899 213.61 81.4199 214.31 81.4199C215.67 81.4199 216.45 82.0499 216.45 83.1499C216.45 83.5899 216.23 84.1399 215.97 84.3599L215.64 84.6899C215.64 84.6899 215.57 84.7599 215.57 84.7999C215.57 84.9499 215.61 84.9499 216.01 84.9499H223.53C224.01 84.9499 224.08 84.9499 224.08 84.7699C224.08 84.6999 224.04 84.6599 223.86 84.5099C223.53 84.2899 223.23 83.6999 223.23 83.1799C223.23 82.0699 224.04 81.4099 225.33 81.4099C226.88 81.4099 227.65 81.9999 227.65 83.0999C227.65 83.6499 227.39 84.2399 227.02 84.4999C226.84 84.6499 226.8 84.7199 226.8 84.7999C226.8 84.9499 226.87 84.9499 227.5 84.9799C228.38 85.0199 229.12 85.8299 229.12 86.7099C229.12 87.2599 228.86 87.8499 228.49 88.0699L228.05 88.3599C228.05 88.3599 227.98 88.4299 227.98 88.4699C227.98 88.5399 228.05 88.6199 228.13 88.6499L228.5 88.9099C228.83 89.1299 229.13 89.7599 229.13 90.2399C229.13 90.7599 228.87 91.3499 228.54 91.5999C228.02 91.9299 227.99 91.9699 227.99 92.0099C227.99 92.0799 228.1 92.1599 228.51 92.4499C228.88 92.6699 229.14 93.2999 229.14 93.8099C229.14 94.2899 228.88 94.8799 228.55 95.1399C228.183 95.3866 228 95.5333 228 95.5799C228 95.6266 228.136 95.7266 228.41 95.8799C228.85 96.1399 229.15 96.7599 229.15 97.2799C229.15 98.4599 228.41 99.0899 227.09 99.0899C226.24 99.0899 226.02 99.0499 225.65 98.8699C225.1 98.5399 224.77 97.9899 224.77 97.3199C224.77 96.7299 225.07 96.1799 225.58 95.8499L225.73 95.7399C225.84 95.6999 225.88 95.6299 225.88 95.5599C225.88 95.4899 225.84 95.4499 225.58 95.2999C225.14 95.0799 224.77 94.3799 224.77 93.7899C224.77 93.2399 225.14 92.5399 225.62 92.3199C225.84 92.1699 225.88 92.1399 225.88 92.0599C225.88 92.0199 225.84 91.9499 225.81 91.9099L225.33 91.5799C225.03 91.3999 224.74 90.7299 224.74 90.3299C224.74 89.8899 224.96 89.3399 225.18 89.1199C225.66 88.6799 225.62 88.7099 225.62 88.6399C225.62 88.5699 225.55 88.4899 225.47 88.4899H214.45H214.41ZM217.03 81.4199C215.59 81.4199 214.82 80.7899 214.82 79.6499C214.82 78.5099 215.63 77.8399 216.88 77.8399C217.65 77.8399 218.1 77.9499 218.43 78.1399C218.91 78.4399 219.24 79.0199 219.24 79.5799C219.24 80.7599 218.43 81.4199 217.03 81.4199ZM219.72 74.3099C221.3 74.3099 222.04 74.8599 222.04 76.0399C222.04 77.2199 221.27 77.8499 219.94 77.8499C219.13 77.8499 218.8 77.8099 218.43 77.5599C217.99 77.2599 217.62 76.6399 217.62 76.1199C217.62 74.9799 218.39 74.3099 219.72 74.3099ZM221.34 78.1099C221.63 77.9299 221.97 77.8899 222.74 77.8899C224.07 77.8899 224.84 78.5199 224.84 79.6199C224.84 80.2799 224.47 80.9099 223.92 81.1999C223.59 81.3499 223.33 81.4199 222.56 81.4199C221.93 81.4199 221.71 81.3799 221.38 81.1999C220.86 80.8999 220.42 80.2399 220.42 79.6899C220.42 79.0299 220.79 78.3599 221.34 78.1099Z" fill="#D16A27"/>
<path d="M233.46 77.9099C232.39 77.9099 231.58 77.1699 231.58 76.1799C231.58 75.1899 232.39 74.4099 233.53 74.4099H248.01C248.6 74.4099 248.89 74.4799 249.15 74.6299C249.74 74.9599 250.07 75.5099 250.07 76.1399C250.07 77.2799 249.3 77.9099 248.01 77.9099H243.04C242.38 77.9099 242.19 77.9799 242.19 78.0899C242.19 78.1299 242.23 78.1599 242.23 78.1599L242.67 78.5999C242.89 78.8599 243.04 79.3399 243.04 79.7399C243.04 80.3299 242.67 80.9899 242.16 81.2499C241.98 81.3199 241.94 81.3999 241.94 81.4699C241.94 81.5399 241.94 81.5799 241.98 81.6199L242.42 81.9199C242.79 82.1399 243.05 82.7299 243.05 83.2499C243.05 83.8799 242.72 84.4999 242.17 84.7599C241.99 84.8699 241.91 84.9099 241.91 85.0199C241.91 85.0899 241.98 85.1699 242.17 85.2399C242.65 85.4599 243.05 86.1599 243.05 86.7899C243.05 87.4899 242.76 87.9699 242.09 88.3399C241.98 88.4099 241.91 88.4899 241.91 88.5599C241.91 88.6299 241.95 88.6699 242.13 88.7399C242.68 88.9999 243.05 89.6599 243.05 90.3199C243.05 90.9099 242.72 91.5699 242.28 91.7899C241.95 91.9399 241.91 91.9699 241.91 92.0499C241.91 92.1599 241.98 92.1999 242.2 92.3099C242.68 92.5299 243.08 93.2299 243.08 93.8199C243.08 94.3299 242.79 94.9599 242.42 95.1799C241.9 95.5099 241.94 95.4799 241.94 95.5799C241.94 95.6499 242.01 95.7299 242.2 95.7999C242.72 96.0599 243.08 96.6499 243.08 97.3099C243.08 98.4499 242.31 99.0799 240.94 99.0799C240.13 99.0799 239.91 99.0399 239.54 98.8199C239.02 98.5299 238.69 97.9399 238.69 97.3499C238.69 96.7999 238.98 96.2099 239.35 95.9499L239.72 95.7299C239.79 95.6899 239.83 95.6599 239.83 95.6199C239.83 95.5499 239.79 95.4699 239.72 95.4399L239.31 95.1799C238.94 94.9199 238.68 94.3699 238.68 93.8199C238.68 93.2699 239.01 92.6399 239.42 92.3799C239.75 92.1999 239.82 92.1599 239.82 92.0799C239.82 92.0399 239.78 91.9699 239.75 91.9299L239.23 91.5999C238.93 91.3799 238.68 90.7899 238.68 90.3099C238.68 89.7899 238.94 89.1699 239.31 88.9499L239.72 88.6899C239.79 88.6499 239.83 88.5799 239.83 88.5399C239.83 88.4699 239.72 88.3899 239.28 88.0999C238.95 87.8799 238.65 87.2499 238.65 86.7399C238.65 86.0799 239.02 85.4899 239.64 85.1899C239.75 85.1199 239.82 85.0799 239.82 85.0099C239.82 84.9699 239.78 84.8999 239.71 84.8599L239.38 84.6799C238.98 84.4599 238.64 83.7999 238.64 83.2399C238.64 82.6799 238.97 82.0599 239.34 81.8399C239.78 81.5799 239.78 81.5399 239.78 81.4699C239.78 81.4299 239.78 81.3599 239.71 81.3599L239.34 81.0999C238.97 80.8799 238.64 80.2499 238.64 79.7399C238.64 79.1899 238.9 78.6699 239.3 78.3399C239.48 78.2299 239.52 78.1599 239.52 78.0799C239.52 77.9299 239.41 77.8999 238.78 77.8999H233.44L233.46 77.9099Z" fill="#D16A27"/>
<path d="M257.04 88.4499C256.41 88.4499 256.3 88.4899 256.3 88.6299C256.3 88.6999 256.37 88.7799 256.56 88.8899C256.89 89.1899 257.15 89.7399 257.15 90.2499C257.15 90.7999 256.82 91.4299 256.38 91.6899C256.05 91.8699 256.01 91.9099 256.01 91.9799C256.01 92.0499 256.08 92.0899 256.38 92.2799C256.82 92.5399 257.15 93.1299 257.15 93.7199C257.15 94.7899 256.34 95.4899 255.12 95.4899C253.61 95.4899 252.8 94.8999 252.8 93.7599C252.8 93.0199 253.06 92.5799 253.79 92.1799C253.86 92.1099 253.94 92.0699 253.94 91.9999C253.94 91.9299 253.94 91.8899 253.5 91.6699C253.09 91.4499 252.8 90.7899 252.8 90.2299C252.8 89.5999 253.2 88.8999 253.68 88.7199C253.86 88.6499 253.94 88.5699 253.94 88.4999C253.94 88.4599 253.9 88.3899 253.87 88.3899L253.39 88.0999C253.06 87.8799 252.8 87.2499 252.8 86.6999C252.8 86.1499 253.13 85.5199 253.54 85.2599L253.83 85.1099C253.83 85.1099 253.9 85.0399 253.9 84.9999C253.9 84.9299 253.86 84.8899 253.83 84.8499L253.35 84.5199C253.06 84.3399 252.76 83.7099 252.76 83.1899C252.76 82.6699 253.09 82.0499 253.46 81.8299L253.83 81.6099C253.9 81.5699 253.9 81.5399 253.9 81.4999C253.9 81.4299 253.9 81.3499 253.86 81.3499L253.31 80.9799C253.01 80.7999 252.76 80.2099 252.76 79.7299C252.76 78.6199 253.61 77.9199 254.97 77.9199C256.33 77.9199 257.14 78.5799 257.14 79.6899C257.14 80.1699 256.88 80.7999 256.59 80.9799L256.07 81.3499C256.07 81.3499 256 81.4199 256 81.4599C256 81.5299 256.04 81.5699 256.07 81.6099L256.51 81.8699C256.84 82.0499 257.14 82.7199 257.14 83.2299C257.14 83.7799 256.88 84.3399 256.48 84.5899C256.33 84.6999 256.3 84.7399 256.3 84.8099C256.3 84.9899 256.41 84.9899 257.04 84.9899H264.11C265.18 84.9899 265.92 85.6899 265.92 86.6799C265.92 87.7499 265.11 88.4499 264 88.4499H257.04ZM267.58 74.4099C268.61 74.4099 269.42 75.1499 269.42 76.1399C269.42 76.9899 268.57 77.9099 267.8 77.9099H258.18C257.07 77.9099 256.3 77.1699 256.3 76.1799C256.3 75.1899 257.07 74.4099 257.99 74.4099H267.57H267.58ZM258.81 98.9899H258.33C257.08 98.9899 256.3 98.3299 256.3 97.2599C256.3 96.3799 257.07 95.5699 257.88 95.5699H267.76L268.02 95.6099L268.24 95.6499C268.9 95.7999 269.46 96.5299 269.46 97.2299C269.46 98.1099 268.65 98.9999 267.8 98.9999H258.81V98.9899Z" fill="#D16A27"/>
<path d="M275.84 81.0799L275.47 81.2999C275.47 81.2999 275.4 81.3699 275.4 81.4499C275.4 81.4899 275.44 81.5599 275.44 81.5599L275.96 81.8899C276.29 82.1099 276.55 82.6599 276.55 83.2499C276.55 83.7999 276.14 84.4299 275.63 84.7199C275.3 84.8999 275.11 84.9399 274.38 84.9399H274.08C272.97 84.9399 272.16 84.1699 272.16 83.1699C272.16 82.6199 272.45 82.0599 272.82 81.8099L273.22 81.5499C273.22 81.5499 273.29 81.4799 273.29 81.4399C273.29 81.3999 273.25 81.3299 273.22 81.2899L272.74 80.9899C272.41 80.7699 272.15 80.1799 272.15 79.6599C272.15 78.5899 272.96 77.8899 274.25 77.8899C275.76 77.8899 276.54 78.4799 276.54 79.6999C276.54 80.2199 276.21 80.8399 275.84 81.0599V81.0799ZM274.22 91.9899C275.03 91.9899 275.33 92.0599 275.66 92.2499C276.18 92.5399 276.51 93.1299 276.51 93.7199C276.51 94.3499 276.18 94.9399 275.63 95.2299C275.3 95.4099 275.11 95.4499 274.38 95.4499C273.57 95.4499 273.35 95.4099 272.94 95.1499C272.46 94.8499 272.17 94.3399 272.17 93.8199C272.17 92.6399 272.91 91.9799 274.23 91.9799L274.22 91.9899ZM277.94 88.4899C276.5 88.4899 275.66 87.8599 275.66 86.7199C275.66 86.0899 275.99 85.5399 276.54 85.2099C276.91 84.9899 276.98 84.9899 277.72 84.9899H285.2C286.27 84.9899 287.04 85.7299 287.04 86.6799C287.04 87.7099 286.27 88.4899 285.2 88.4899H277.94ZM277.46 98.9899C276.43 98.9899 275.65 98.2199 275.65 97.2599C275.65 96.7099 275.91 96.1899 276.35 95.8599C276.68 95.5999 277.09 95.5299 277.97 95.5299H285.12C286.23 95.5299 287.04 96.2299 287.04 97.2199C287.04 98.2899 286.27 98.9899 285.09 98.9899H277.46ZM277.68 77.9099C276.46 77.9099 275.69 77.2099 275.69 76.1799C275.69 75.5499 276.06 74.9299 276.57 74.6699C276.97 74.4499 277.12 74.4099 278.12 74.4099H284.46C285.6 74.4099 285.86 74.4499 286.23 74.6699C286.75 74.9699 287.04 75.5499 287.04 76.1399C287.04 77.3599 286.23 77.9499 284.53 77.9499C284.31 77.9499 284.12 77.9499 283.94 77.9099H277.68ZM288.29 77.9499C289.76 77.9499 290.57 78.5399 290.57 79.6799C290.57 80.3099 290.2 80.9299 289.65 81.2299C289.32 81.4099 289.13 81.4499 288.36 81.4499C286.96 81.4499 286.19 80.8199 286.19 79.6799C286.19 78.5399 286.96 77.9499 288.29 77.9499ZM288.47 88.5199C289.76 88.5199 290.53 89.1499 290.53 90.2499C290.53 90.7699 290.27 91.3599 289.9 91.6099L289.5 91.8699C289.5 91.8699 289.43 91.9399 289.43 91.9799C289.43 92.0899 289.5 92.1599 289.72 92.2799C290.2 92.4999 290.53 93.1299 290.53 93.7199C290.53 94.1999 290.31 94.7099 289.94 95.0799C289.65 95.3799 289.09 95.4899 288.17 95.4899C286.99 95.4899 286.18 94.7899 286.18 93.7599C286.18 93.2099 286.55 92.5399 286.95 92.3199C287.28 92.1399 287.32 92.0999 287.32 92.0299C287.32 91.9599 287.28 91.8799 287.17 91.8499C286.51 91.4799 286.18 90.9999 286.18 90.2999C286.18 89.1199 286.92 88.5299 288.46 88.5299L288.47 88.5199Z" fill="#D16A27"/>
<path d="M307.93 81.1899C307.82 81.2299 307.78 81.2999 307.78 81.3399C307.78 81.4499 307.82 81.5199 308.04 81.6299C308.52 81.8499 308.89 82.5099 308.89 83.0699C308.89 83.6599 308.59 84.3199 308.19 84.5399C307.86 84.7199 307.79 84.7999 307.79 84.9099C307.79 84.9499 307.83 85.0199 307.86 85.0599L308.19 85.2399C308.59 85.4999 308.89 86.1199 308.89 86.6799C308.89 87.1999 308.59 87.7899 308.26 88.0399C307.74 88.3299 307.78 88.3299 307.78 88.4099C307.78 88.5199 307.85 88.5599 308.15 88.7799C308.55 88.9999 308.89 89.6599 308.89 90.1799C308.89 90.7299 308.59 91.3599 308.19 91.6199C307.923 91.7933 307.79 91.9033 307.79 91.9499C307.79 92.0199 307.79 92.0599 307.83 92.0999L308.38 92.4699C308.67 92.6499 308.9 93.2399 308.9 93.6899C308.9 94.8299 308.13 95.4999 306.84 95.4999C305.96 95.4999 305.77 95.4599 305.4 95.2399C304.85 94.9099 304.52 94.3199 304.52 93.6899C304.52 93.1399 304.82 92.6199 305.29 92.2899C305.537 92.1166 305.66 92.0066 305.66 91.9599C305.66 91.8899 305.7 91.9199 305.22 91.5899C304.82 91.3699 304.52 90.7399 304.52 90.1899C304.52 89.5999 304.93 88.8599 305.4 88.6399C305.62 88.5699 305.66 88.5299 305.66 88.4599C305.66 88.3499 305.62 88.3099 305.22 88.0899C304.85 87.8699 304.52 87.2099 304.52 86.6899C304.52 85.9899 304.85 85.4399 305.44 85.1399C305.59 85.0699 305.66 84.9899 305.66 84.9199C305.66 84.8499 305.62 84.8099 305.25 84.5899C304.85 84.3299 304.51 83.7099 304.51 83.1499C304.51 82.4499 304.81 81.9299 305.47 81.5699C305.62 81.4999 305.69 81.4199 305.69 81.3899C305.69 81.3199 305.62 81.2799 305.51 81.2099C304.92 80.9099 304.52 80.2499 304.52 79.5899C304.52 78.9999 304.89 78.3399 305.37 78.1199C305.63 77.9699 305.66 77.9399 305.66 77.8599C305.66 77.8199 305.62 77.7499 305.59 77.7099L305.11 77.4099C304.78 77.1899 304.52 76.5999 304.52 76.0799C304.52 74.9699 305.29 74.3099 306.58 74.3099C307.46 74.3099 307.69 74.3499 308.05 74.5699C308.57 74.8699 308.9 75.4499 308.9 76.0799C308.9 76.7099 308.53 77.3299 307.98 77.6299C307.83 77.6999 307.8 77.7799 307.8 77.8499C307.8 77.9599 307.84 77.9599 308.2 78.1799C308.6 78.4399 308.9 79.0299 308.9 79.6499C308.9 80.3499 308.68 80.7199 307.94 81.1999L307.93 81.1899ZM319.35 95.5599C320.46 95.5599 321.23 96.2599 321.23 97.2199C321.23 98.2499 320.49 98.9899 319.42 98.9899H309.95C308.84 98.9899 308.03 98.2499 308.03 97.2599C308.03 96.7799 308.25 96.2999 308.62 95.9699C309.02 95.6399 309.36 95.5699 310.54 95.5699H319.35V95.5599Z" fill="#D16A27"/>
<path d="M327.61 81.1899C327.5 81.2299 327.46 81.2999 327.46 81.3399C327.46 81.4499 327.5 81.5199 327.72 81.6299C328.2 81.8499 328.57 82.5099 328.57 83.0699C328.57 83.6599 328.27 84.3199 327.87 84.5399C327.54 84.7199 327.47 84.7999 327.47 84.9099C327.47 84.9499 327.51 85.0199 327.54 85.0599L327.87 85.2399C328.27 85.4999 328.57 86.1199 328.57 86.6799C328.57 87.1999 328.27 87.7899 327.94 88.0399C327.42 88.3299 327.46 88.3299 327.46 88.4099C327.46 88.5199 327.53 88.5599 327.83 88.7799C328.23 88.9999 328.57 89.6599 328.57 90.1799C328.57 90.7299 328.27 91.3599 327.87 91.6199C327.603 91.7933 327.47 91.9033 327.47 91.9499C327.47 92.0199 327.47 92.0599 327.51 92.0999L328.06 92.4699C328.35 92.6499 328.58 93.2399 328.58 93.6899C328.58 94.8299 327.81 95.4999 326.52 95.4999C325.64 95.4999 325.45 95.4599 325.08 95.2399C324.53 94.9099 324.2 94.3199 324.2 93.6899C324.2 93.1399 324.5 92.6199 324.97 92.2899C325.217 92.1166 325.34 92.0066 325.34 91.9599C325.34 91.8899 325.38 91.9199 324.9 91.5899C324.5 91.3699 324.2 90.7399 324.2 90.1899C324.2 89.5999 324.61 88.8599 325.08 88.6399C325.3 88.5699 325.34 88.5299 325.34 88.4599C325.34 88.3499 325.3 88.3099 324.9 88.0899C324.53 87.8699 324.2 87.2099 324.2 86.6899C324.2 85.9899 324.53 85.4399 325.12 85.1399C325.27 85.0699 325.34 84.9899 325.34 84.9199C325.34 84.8499 325.3 84.8099 324.93 84.5899C324.53 84.3299 324.19 83.7099 324.19 83.1499C324.19 82.4499 324.49 81.9299 325.15 81.5699C325.3 81.4999 325.37 81.4199 325.37 81.3899C325.37 81.3199 325.3 81.2799 325.19 81.2099C324.6 80.9099 324.2 80.2499 324.2 79.5899C324.2 78.9999 324.57 78.3399 325.05 78.1199C325.31 77.9699 325.34 77.9399 325.34 77.8599C325.34 77.8199 325.3 77.7499 325.27 77.7099L324.79 77.4099C324.46 77.1899 324.2 76.5999 324.2 76.0799C324.2 74.9699 324.97 74.3099 326.26 74.3099C327.14 74.3099 327.37 74.3499 327.73 74.5699C328.25 74.8699 328.58 75.4499 328.58 76.0799C328.58 76.7099 328.21 77.3299 327.66 77.6299C327.51 77.6999 327.48 77.7799 327.48 77.8499C327.48 77.9599 327.52 77.9599 327.88 78.1799C328.28 78.4399 328.58 79.0299 328.58 79.6499C328.58 80.3499 328.36 80.7199 327.62 81.1999L327.61 81.1899ZM339.03 95.5599C340.14 95.5599 340.91 96.2599 340.91 97.2199C340.91 98.2499 340.17 98.9899 339.1 98.9899H329.63C328.52 98.9899 327.71 98.2499 327.71 97.2599C327.71 96.7799 327.93 96.2999 328.3 95.9699C328.7 95.6399 329.04 95.5699 330.22 95.5699H339.03V95.5599Z" fill="#D16A27"/>
<path d="M347.36 81.0399L346.96 81.2999C346.96 81.2999 346.89 81.3699 346.89 81.4499C346.89 81.4899 346.93 81.5599 347 81.5999L347.33 81.8199C347.7 82.0799 347.99 82.6699 347.99 83.1799C347.99 83.6899 347.7 84.3199 347.36 84.5399L346.92 84.8399C346.92 84.8399 346.85 84.9099 346.85 84.9499C346.85 84.9899 346.89 85.0599 346.92 85.0599L347.33 85.3199C347.7 85.5799 347.99 86.1699 347.99 86.7199C347.99 87.2399 347.7 87.8599 347.36 88.0799L346.92 88.3399C346.92 88.3399 346.88 88.4099 346.88 88.4499C346.88 88.5199 346.92 88.5599 346.95 88.5999L347.32 88.8599C347.69 89.0799 347.98 89.7099 347.98 90.2199C347.98 90.6999 347.72 91.2899 347.43 91.5099L346.88 91.9099C346.88 91.9099 346.84 91.9499 346.84 91.9799C346.84 92.0899 346.88 92.0899 347.32 92.3499C347.69 92.5699 347.98 93.1599 347.98 93.7099C347.98 94.8199 347.21 95.4799 345.99 95.4799C345.14 95.4799 344.85 95.4099 344.48 95.2199C343.96 94.9299 343.6 94.3399 343.6 93.7099C343.6 93.2299 343.86 92.6399 344.23 92.4199L344.67 92.0899C344.67 92.0899 344.74 92.0199 344.74 91.9799C344.74 91.9099 344.7 91.8699 344.34 91.6499C343.93 91.3899 343.6 90.7699 343.6 90.2099C343.6 89.5099 343.89 89.0299 344.59 88.6599C344.66 88.5899 344.74 88.5099 344.74 88.4799C344.74 88.4499 344.7 88.3699 344.7 88.3699L344.18 87.9999C343.85 87.7799 343.59 87.1899 343.59 86.7099C343.59 86.1999 343.88 85.5999 344.22 85.3799L344.66 85.0799C344.66 85.0799 344.73 85.0099 344.73 84.9299C344.73 84.8899 344.69 84.8199 344.66 84.7799L344.18 84.4799C343.89 84.2599 343.63 83.6699 343.63 83.1899C343.63 82.6399 343.92 82.0099 344.26 81.7899C344.7 81.5299 344.74 81.4999 344.74 81.4199C344.74 81.3799 344.74 81.3499 344.7 81.3499L344.15 80.9499C343.85 80.7299 343.6 80.1399 343.6 79.6599C343.6 78.6299 344.45 77.8899 345.66 77.8899C346.4 77.8899 346.77 77.9599 347.1 78.1499C347.65 78.4499 347.98 79.0299 347.98 79.6199C347.98 80.1699 347.69 80.7999 347.35 81.0199L347.36 81.0399ZM356.87 74.4099C357.72 74.4099 358.53 75.2599 358.53 76.1399C358.53 76.7699 358.2 77.3899 357.65 77.6899C357.32 77.8699 357.1 77.9099 356.14 77.9099H349.51C348.7 77.9099 348.37 77.8699 348.04 77.6899C347.49 77.3899 347.16 76.8099 347.16 76.1799C347.16 75.0399 347.9 74.4099 349.26 74.4099H356.89H356.87ZM350.53 98.9899C348.58 98.9899 348.61 98.9899 348.28 98.8799C347.58 98.6199 347.14 97.9999 347.14 97.2599C347.14 96.6299 347.51 96.0099 348.06 95.7499C348.32 95.5999 348.61 95.5699 349.39 95.5699H356.58C357.76 95.5699 358.53 96.1999 358.53 97.2299C358.53 98.3399 357.76 98.9999 356.54 98.9999H350.53V98.9899ZM359.74 77.9499H360.04C361.29 77.9899 362.03 78.6099 362.03 79.6799C362.03 80.8199 361.26 81.4499 359.93 81.4499C359.12 81.4499 358.9 81.4099 358.57 81.2299C358.05 80.9299 357.69 80.2699 357.69 79.7199C357.69 78.6099 358.46 77.9499 359.75 77.9499H359.74ZM359.81 92.0299C361.25 92.0299 362.02 92.6199 362.02 93.7599C362.02 94.5299 361.5 95.1999 360.77 95.4199C360.59 95.4899 360.25 95.4899 359.59 95.4899C358.48 95.4899 357.67 94.7899 357.67 93.7899C357.67 92.6099 358.41 92.0199 359.81 92.0199V92.0299Z" fill="#D16A27"/>
<path d="M13.76 26.76L12.39 27.64C12.24 27.79 12.11 27.93 12.11 28.23C12.11 28.38 12.24 28.68 12.24 28.68L14.17 30.01C15.41 30.89 16.38 33.12 16.38 35.48C16.38 37.7 14.87 40.21 12.94 41.39C11.7 42.13 11.01 42.28 8.26 42.28H7.16C3.02 42.28 0 39.17 0 35.18C0 32.96 1.11 30.74 2.48 29.71L3.99 28.67C4.14 28.52 4.27 28.38 4.27 28.22C4.27 28.06 4.14 27.78 3.99 27.63L2.21 26.45C0.97 25.56 0 23.19 0 21.12C0 16.83 3.03 14.02 7.84 14.02C13.49 14.02 16.38 16.39 16.38 21.27C16.38 23.34 15.14 25.85 13.76 26.74V26.76ZM7.71 70.52C10.74 70.52 11.83 70.81 13.08 71.56C15.01 72.75 16.24 75.11 16.24 77.48C16.24 79.99 15.01 82.36 12.95 83.54C11.71 84.27 11.02 84.42 8.27 84.42C5.24 84.42 4.42 84.27 2.9 83.24C1.12 82.05 0.01 79.98 0.01 77.91C0.01 73.18 2.77 70.52 7.72 70.52H7.71ZM21.61 56.48C16.24 56.48 13.08 53.96 13.08 49.38C13.08 46.86 14.31 44.65 16.39 43.32C17.77 42.43 18.04 42.43 20.79 42.43H48.73C52.72 42.43 55.61 45.39 55.61 49.23C55.61 53.37 52.72 56.48 48.73 56.48H21.61ZM19.83 98.61C15.98 98.61 13.08 95.5 13.08 91.66C13.08 89.44 14.04 87.37 15.69 86.04C16.93 85 18.45 84.71 21.75 84.71H48.44C52.58 84.71 55.6 87.52 55.6 91.51C55.6 95.8 52.71 98.61 48.3 98.61H19.81H19.83ZM20.65 14.04C16.11 14.04 13.22 11.24 13.22 7.08999C13.22 4.56999 14.6 2.05999 16.53 1.02999C18.04 0.13999 18.59 -0.0100098 22.31 -0.0100098H45.98C50.25 -0.0100098 51.21 0.12999 52.59 1.02999C54.52 2.20999 55.62 4.57999 55.62 6.93999C55.62 11.82 52.59 14.19 46.26 14.19C45.43 14.19 44.75 14.19 44.05 14.04H20.65ZM60.29 14.19C65.8 14.19 68.83 16.56 68.83 21.14C68.83 23.66 67.45 26.17 65.39 27.35C64.15 28.09 63.46 28.23 60.57 28.23C55.34 28.23 52.45 25.72 52.45 21.13C52.45 16.54 55.34 14.18 60.29 14.18V14.19ZM60.98 56.62C65.8 56.62 68.69 59.14 68.69 63.57C68.69 65.64 67.73 68.01 66.35 69.04L64.84 70.07C64.69 70.22 64.56 70.37 64.56 70.52C64.56 70.97 64.84 71.26 65.66 71.71C67.45 72.59 68.7 75.11 68.7 77.48C68.7 79.4 67.87 81.47 66.49 82.95C65.39 84.14 63.33 84.58 59.89 84.58C55.49 84.58 52.45 81.77 52.45 77.63C52.45 75.41 53.83 72.75 55.34 71.86C56.58 71.12 56.72 70.98 56.72 70.68C56.72 70.38 56.59 70.08 56.17 69.94C53.69 68.46 52.45 66.54 52.45 63.73C52.45 59 55.21 56.63 60.99 56.63L60.98 56.62Z" fill="#D16A27"/>
</g>
<defs>
<clipPath id="clip0_4_2">
<rect width="362.03" height="99.1" fill="white"/>
</clipPath>
</defs>
</svg>
