<svg width="12" height="19" viewBox="0 0 12 19" fill="none" xmlns="http://www.w3.org/2000/svg">
<path d="M0.650024 18.6C0.400024 18.35 0.275024 18.054 0.275024 17.712C0.275024 17.37 0.400024 17.0743 0.650024 16.825L7.97502 9.5L0.625024 2.15C0.391691 1.91667 0.275024 1.625 0.275024 1.275C0.275024 0.925 0.400024 0.625 0.650024 0.375C0.900024 0.125 1.19602 0 1.53802 0C1.88002 0 2.17569 0.125 2.42502 0.375L10.825 8.8C10.925 8.9 10.996 9.00833 11.038 9.125C11.08 9.24167 11.1007 9.36667 11.1 9.5C11.1 9.63333 11.079 9.75833 11.037 9.875C10.995 9.99167 10.9244 10.1 10.825 10.2L2.40002 18.625C2.16669 18.8583 1.87902 18.975 1.53702 18.975C1.19502 18.975 0.899358 18.85 0.650024 18.6Z" fill="black"/>
</svg>
