<?xml version="1.0" encoding="utf-8"?>
<!-- Generator: Adobe Illustrator 27.9.0, SVG Export Plug-In . SVG Version: 6.00 Build 0)  -->
<svg version="1.1" id="Layer_1" xmlns="http://www.w3.org/2000/svg" xmlns:xlink="http://www.w3.org/1999/xlink" x="0px" y="0px"
	 viewBox="0 0 389 20" style="enable-background:new 0 0 389 20;" xml:space="preserve">
<style type="text/css">
	.st0{clip-path:url(#SVGID_00000001641806704477903990000018046084003248456618_);}
	.st1{fill:#FFFFFF;}
</style>
<g>
	<defs>
		<rect id="SVGID_1_" width="389" height="20"/>
	</defs>
	<clipPath id="SVGID_00000070116199844384408750000014854116590608807586_">
		<use xlink:href="#SVGID_1_"  style="overflow:visible;"/>
	</clipPath>
	<g style="clip-path:url(#SVGID_00000070116199844384408750000014854116590608807586_);">
		<rect class="st1" width="389" height="20"/>
		<path d="M2.8,16h-1V3.9h1V16z M15.1,16h-1L7.1,5.7V16h-1V3.9h1l7,10.4V3.9h1V16z M24.8,10.4h-5.6V16h-1V3.9h7.5v0.9h-6.5v4.7h5.6
			V10.4z M36.6,10.6c0,1.1-0.2,2.1-0.6,2.9c-0.4,0.8-0.9,1.5-1.6,1.9c-0.7,0.5-1.5,0.7-2.5,0.7c-1.4,0-2.6-0.5-3.4-1.5
			c-0.9-1-1.3-2.4-1.3-4.1V9.3c0-1.1,0.2-2.1,0.6-2.9c0.4-0.9,0.9-1.5,1.7-2C30.2,4,31,3.7,31.9,3.7s1.7,0.2,2.5,0.7
			c0.7,0.4,1.3,1.1,1.7,1.9c0.4,0.8,0.6,1.8,0.6,2.8V10.6z M35.6,9.3c0-1.5-0.3-2.6-1-3.4c-0.7-0.8-1.6-1.2-2.7-1.2
			c-1.1,0-2,0.4-2.7,1.2c-0.7,0.8-1,2-1,3.5v1.3c0,1.4,0.3,2.6,1,3.4c0.7,0.8,1.6,1.3,2.7,1.3c1.2,0,2.1-0.4,2.7-1.2
			c0.6-0.8,1-2,1-3.5V9.3z M52.2,11.7c0,0.8-0.2,1.6-0.4,2.3c-0.3,0.7-0.6,1.2-1.1,1.6c-0.5,0.4-1,0.6-1.7,0.6c-0.5,0-1-0.1-1.3-0.4
			c-0.3-0.3-0.6-0.7-0.7-1.2c-0.6,1.1-1.4,1.6-2.5,1.6c-0.8,0-1.4-0.3-1.7-1c-0.4-0.7-0.5-1.6-0.4-2.7c0.1-0.9,0.3-1.7,0.6-2.4
			c0.3-0.7,0.8-1.3,1.3-1.7C44.8,8,45.4,7.8,46,7.8c0.4,0,0.8,0.1,1.1,0.2c0.3,0.1,0.7,0.4,1.1,0.7l-0.4,4.7c-0.1,0.6,0,1.1,0.2,1.5
			c0.2,0.4,0.6,0.5,1.1,0.5c0.7,0,1.2-0.3,1.7-1c0.4-0.7,0.7-1.6,0.7-2.7c0.1-2.2-0.3-3.9-1.3-5.1c-1-1.1-2.4-1.7-4.3-1.7
			c-1.2,0-2.2,0.3-3.2,0.9c-0.9,0.6-1.7,1.4-2.2,2.5s-0.8,2.3-0.9,3.7c-0.1,1.4,0.1,2.6,0.5,3.7c0.4,1.1,1.1,1.9,2,2.4
			c0.9,0.6,1.9,0.9,3.1,0.9c0.5,0,1-0.1,1.5-0.2c0.5-0.1,0.9-0.3,1.2-0.5l0.3,0.7c-0.3,0.2-0.8,0.4-1.3,0.5
			c-0.6,0.1-1.1,0.2-1.7,0.2c-1.4,0-2.6-0.3-3.6-0.9c-1-0.6-1.7-1.5-2.2-2.7c-0.5-1.2-0.7-2.5-0.6-4.1c0.1-1.5,0.4-2.9,1-4.1
			c0.6-1.2,1.5-2.1,2.5-2.8c1.1-0.7,2.3-1,3.6-1c1.4,0,2.6,0.3,3.6,0.9c1,0.6,1.7,1.4,2.2,2.6C52.1,8.8,52.3,10.2,52.2,11.7z
			 M43.3,13.6c0.1,0.6,0.2,1,0.5,1.3c0.2,0.3,0.6,0.4,1,0.4c1,0,1.8-0.7,2.3-2.1L47.3,9C47,8.7,46.5,8.6,46,8.6
			c-0.6,0-1.1,0.2-1.6,0.7c-0.4,0.5-0.8,1.2-1,2C43.2,12.2,43.2,12.9,43.3,13.6z M61.6,13c0-0.7-0.2-1.2-0.7-1.6
			c-0.5-0.4-1.3-0.8-2.6-1.1C57,10,56.1,9.6,55.5,9.2c-0.8-0.6-1.2-1.4-1.2-2.3c0-0.9,0.4-1.7,1.1-2.2c0.8-0.6,1.7-0.9,2.9-0.9
			c0.8,0,1.5,0.2,2.1,0.5C61.1,4.5,61.6,5,62,5.5c0.3,0.6,0.5,1.2,0.5,1.9h-1c0-0.8-0.3-1.5-0.8-2c-0.6-0.5-1.3-0.8-2.3-0.8
			c-0.9,0-1.7,0.2-2.2,0.6c-0.5,0.4-0.8,0.9-0.8,1.6c0,0.6,0.2,1.1,0.7,1.5c0.5,0.4,1.3,0.7,2.4,1c1.1,0.3,1.9,0.6,2.5,0.9
			c0.6,0.3,1,0.7,1.3,1.1c0.3,0.4,0.4,1,0.4,1.6c0,1-0.4,1.7-1.1,2.3c-0.8,0.6-1.8,0.9-3,0.9c-0.9,0-1.6-0.2-2.3-0.5
			c-0.7-0.3-1.2-0.7-1.6-1.3c-0.4-0.5-0.5-1.2-0.5-1.9h1c0,0.9,0.3,1.5,1,2c0.6,0.5,1.5,0.7,2.5,0.7c0.9,0,1.7-0.2,2.3-0.6
			C61.3,14.3,61.6,13.7,61.6,13z M73.8,16h-1v-5.8h-6.9V16h-1V3.9h1v5.4h6.9V3.9h1V16z M83.5,12.6H78L76.8,16h-1.1l4.6-12.1h1
			L85.8,16h-1.1L83.5,12.6z M78.3,11.7h4.8l-2.4-6.6L78.3,11.7z M96.6,16h-1L88.6,5.7V16h-1V3.9h1l7,10.4V3.9h1V16z M108.7,16h-1
			l-6.9-10.3V16h-1V3.9h1l7,10.4V3.9h1V16z M120.7,10.6c0,1.1-0.2,2.1-0.6,2.9c-0.4,0.8-0.9,1.5-1.6,1.9c-0.7,0.5-1.5,0.7-2.5,0.7
			c-1.4,0-2.6-0.5-3.4-1.5c-0.9-1-1.3-2.4-1.3-4.1V9.3c0-1.1,0.2-2.1,0.6-2.9c0.4-0.9,0.9-1.5,1.7-2c0.7-0.5,1.5-0.7,2.5-0.7
			s1.7,0.2,2.5,0.7c0.7,0.4,1.3,1.1,1.7,1.9c0.4,0.8,0.6,1.8,0.6,2.8V10.6z M119.7,9.3c0-1.5-0.3-2.6-1-3.4
			c-0.7-0.8-1.6-1.2-2.7-1.2c-1.1,0-2,0.4-2.7,1.2c-0.7,0.8-1,2-1,3.5v1.3c0,1.4,0.3,2.6,1,3.4c0.7,0.8,1.6,1.3,2.7,1.3
			c1.2,0,2.1-0.4,2.7-1.2c0.6-0.8,1-2,1-3.5V9.3z M132.2,16h-1l-6.9-10.3V16h-1V3.9h1l7,10.4V3.9h1V16z M142,12.6h-5.5l-1.2,3.4
			h-1.1l4.6-12.1h1l4.6,12.1h-1.1L142,12.6z M136.8,11.7h4.8l-2.4-6.6L136.8,11.7z M152.9,13c0-0.7-0.2-1.2-0.7-1.6
			c-0.5-0.4-1.3-0.8-2.6-1.1c-1.2-0.4-2.2-0.7-2.7-1.2c-0.8-0.6-1.2-1.4-1.2-2.3c0-0.9,0.4-1.7,1.1-2.2c0.8-0.6,1.7-0.9,2.9-0.9
			c0.8,0,1.5,0.2,2.1,0.5c0.6,0.3,1.1,0.7,1.5,1.3c0.3,0.6,0.5,1.2,0.5,1.9h-1c0-0.8-0.3-1.5-0.8-2c-0.6-0.5-1.3-0.8-2.3-0.8
			c-0.9,0-1.7,0.2-2.2,0.6c-0.5,0.4-0.8,0.9-0.8,1.6c0,0.6,0.2,1.1,0.7,1.5c0.5,0.4,1.3,0.7,2.4,1c1.1,0.3,1.9,0.6,2.5,0.9
			c0.6,0.3,1,0.7,1.3,1.1c0.3,0.4,0.4,1,0.4,1.6c0,1-0.4,1.7-1.1,2.3c-0.8,0.6-1.8,0.9-3,0.9c-0.9,0-1.6-0.2-2.3-0.5
			c-0.7-0.3-1.2-0.7-1.6-1.3c-0.4-0.5-0.5-1.2-0.5-1.9h1c0,0.9,0.3,1.5,1,2c0.6,0.5,1.5,0.7,2.5,0.7c0.9,0,1.7-0.2,2.3-0.6
			C152.6,14.3,152.9,13.7,152.9,13z M163,13c0-0.7-0.2-1.2-0.7-1.6c-0.5-0.4-1.3-0.8-2.6-1.1c-1.3-0.4-2.2-0.7-2.7-1.2
			c-0.8-0.6-1.2-1.4-1.2-2.3c0-0.9,0.4-1.7,1.1-2.2c0.8-0.6,1.7-0.9,2.9-0.9c0.8,0,1.5,0.2,2.1,0.5c0.6,0.3,1.1,0.7,1.5,1.3
			c0.3,0.6,0.5,1.2,0.5,1.9h-1c0-0.8-0.3-1.5-0.8-2c-0.6-0.5-1.3-0.8-2.3-0.8c-0.9,0-1.7,0.2-2.2,0.6c-0.5,0.4-0.8,0.9-0.8,1.6
			c0,0.6,0.2,1.1,0.7,1.5c0.5,0.4,1.3,0.7,2.4,1c1.1,0.3,1.9,0.6,2.5,0.9c0.6,0.3,1,0.7,1.3,1.1c0.3,0.4,0.4,1,0.4,1.6
			c0,1-0.4,1.7-1.1,2.3c-0.8,0.6-1.8,0.9-3,0.9c-0.9,0-1.6-0.2-2.3-0.5c-0.7-0.3-1.2-0.7-1.6-1.3c-0.4-0.5-0.5-1.2-0.5-1.9h1
			c0,0.9,0.3,1.5,1,2c0.6,0.5,1.5,0.7,2.5,0.7c0.9,0,1.7-0.2,2.3-0.6C162.7,14.3,163,13.7,163,13z M175.2,10.6
			c0,1.1-0.2,2.1-0.6,2.9c-0.4,0.8-0.9,1.5-1.6,1.9c-0.7,0.5-1.5,0.7-2.5,0.7c-1.4,0-2.6-0.5-3.4-1.5c-0.9-1-1.3-2.4-1.3-4.1V9.3
			c0-1.1,0.2-2.1,0.6-2.9c0.4-0.9,0.9-1.5,1.7-2c0.7-0.5,1.5-0.7,2.5-0.7c0.9,0,1.7,0.2,2.5,0.7c0.7,0.4,1.3,1.1,1.7,1.9
			c0.4,0.8,0.6,1.8,0.6,2.8V10.6z M174.2,9.3c0-1.5-0.3-2.6-1-3.4c-0.7-0.8-1.6-1.2-2.7-1.2c-1.1,0-2,0.4-2.7,1.2
			c-0.7,0.8-1,2-1,3.5v1.3c0,1.4,0.3,2.6,1,3.4c0.7,0.8,1.6,1.3,2.7,1.3c1.2,0,2.1-0.4,2.7-1.2c0.6-0.8,1-2,1-3.5V9.3z M186.3,12.2
			c-0.1,1.3-0.6,2.2-1.4,2.9c-0.8,0.7-1.8,1-3.1,1c-0.9,0-1.7-0.2-2.4-0.7c-0.7-0.4-1.2-1.1-1.6-1.9c-0.4-0.8-0.6-1.8-0.6-2.8V9.2
			c0-1.1,0.2-2,0.6-2.9c0.4-0.8,0.9-1.5,1.6-1.9c0.7-0.5,1.5-0.7,2.4-0.7c1.3,0,2.3,0.4,3.1,1.1c0.8,0.7,1.2,1.7,1.3,2.9h-1
			c-0.3-2.1-1.4-3.1-3.3-3.1c-1.1,0-2,0.4-2.6,1.2c-0.6,0.8-1,2-1,3.4v1.5c0,1.4,0.3,2.5,0.9,3.3c0.6,0.8,1.5,1.2,2.6,1.2
			c1.1,0,1.9-0.3,2.4-0.8c0.5-0.5,0.9-1.3,1-2.3H186.3z M190,16h-1V3.9h1V16z M200,12.6h-5.5l-1.2,3.4h-1.1l4.6-12.1h1l4.6,12.1
			h-1.1L200,12.6z M194.8,11.7h4.8l-2.4-6.6L194.8,11.7z M211.2,4.8h-4.1V16h-1V4.8h-4.1V3.9h9.3V4.8z M219.9,10.2h-5.7v4.9h6.5V16
			h-7.5V3.9h7.5v0.9h-6.5v4.6h5.7V10.2z M229.7,13c0-0.7-0.2-1.2-0.7-1.6c-0.5-0.4-1.3-0.8-2.6-1.1c-1.3-0.4-2.2-0.7-2.7-1.2
			c-0.8-0.6-1.2-1.4-1.2-2.3c0-0.9,0.4-1.7,1.1-2.2c0.8-0.6,1.7-0.9,2.9-0.9c0.8,0,1.5,0.2,2.1,0.5c0.6,0.3,1.1,0.7,1.5,1.3
			c0.3,0.6,0.5,1.2,0.5,1.9h-1c0-0.8-0.3-1.5-0.8-2c-0.6-0.5-1.3-0.8-2.3-0.8c-0.9,0-1.7,0.2-2.2,0.6c-0.5,0.4-0.8,0.9-0.8,1.6
			c0,0.6,0.2,1.1,0.7,1.5c0.5,0.4,1.3,0.7,2.4,1c1.1,0.3,1.9,0.6,2.5,0.9c0.6,0.3,1,0.7,1.3,1.1c0.3,0.4,0.4,1,0.4,1.6
			c0,1-0.4,1.7-1.1,2.3c-0.8,0.6-1.8,0.9-3,0.9c-0.9,0-1.6-0.2-2.3-0.5c-0.7-0.3-1.2-0.7-1.6-1.3c-0.4-0.5-0.5-1.2-0.5-1.9h1
			c0,0.9,0.3,1.5,1,2s1.5,0.7,2.5,0.7c0.9,0,1.7-0.2,2.3-0.6C229.4,14.3,229.7,13.7,229.7,13z M232.6,15.4c0-0.2,0.1-0.4,0.2-0.5
			c0.1-0.1,0.3-0.2,0.5-0.2c0.2,0,0.4,0.1,0.5,0.2c0.1,0.1,0.2,0.3,0.2,0.5c0,0.2-0.1,0.4-0.2,0.5c-0.1,0.1-0.3,0.2-0.5,0.2
			c-0.2,0-0.4-0.1-0.5-0.2C232.7,15.8,232.6,15.6,232.6,15.4z M245.6,12.2c-0.1,1.3-0.6,2.2-1.4,2.9c-0.8,0.7-1.8,1-3.1,1
			c-0.9,0-1.7-0.2-2.4-0.7c-0.7-0.4-1.2-1.1-1.6-1.9c-0.4-0.8-0.6-1.8-0.6-2.8V9.2c0-1.1,0.2-2,0.6-2.9c0.4-0.8,0.9-1.5,1.6-1.9
			c0.7-0.5,1.5-0.7,2.4-0.7c1.3,0,2.3,0.4,3.1,1.1c0.8,0.7,1.2,1.7,1.3,2.9h-1c-0.3-2.1-1.4-3.1-3.3-3.1c-1.1,0-2,0.4-2.6,1.2
			c-0.6,0.8-1,2-1,3.4v1.5c0,1.4,0.3,2.5,0.9,3.3c0.6,0.8,1.5,1.2,2.6,1.2c1.1,0,1.9-0.3,2.4-0.8c0.5-0.5,0.9-1.3,1-2.3H245.6z
			 M257,10.6c0,1.1-0.2,2.1-0.6,2.9c-0.4,0.8-0.9,1.5-1.6,1.9c-0.7,0.5-1.5,0.7-2.5,0.7c-1.4,0-2.6-0.5-3.4-1.5
			c-0.9-1-1.3-2.4-1.3-4.1V9.3c0-1.1,0.2-2.1,0.6-2.9c0.4-0.9,0.9-1.5,1.7-2c0.7-0.5,1.5-0.7,2.5-0.7c0.9,0,1.7,0.2,2.5,0.7
			c0.7,0.4,1.3,1.1,1.7,1.9c0.4,0.8,0.6,1.8,0.6,2.8V10.6z M256,9.3c0-1.5-0.3-2.6-1-3.4c-0.7-0.8-1.6-1.2-2.7-1.2
			c-1.1,0-2,0.4-2.7,1.2c-0.7,0.8-1,2-1,3.5v1.3c0,1.4,0.3,2.6,1,3.4c0.7,0.8,1.6,1.3,2.7,1.3c1.2,0,2.1-0.4,2.7-1.2
			c0.6-0.8,1-2,1-3.5V9.3z M260.9,3.9l4.5,10.7l4.5-10.7h1.4V16h-1v-5.3l0.1-5.4L265.8,16H265l-4.5-10.6l0.1,5.3V16h-1V3.9H260.9z
			 M278.1,9.8c0-0.4,0.1-0.8,0.4-1.1c0.3-0.3,0.7-0.4,1.1-0.4c0.5,0,0.8,0.1,1.1,0.4c0.3,0.3,0.4,0.6,0.4,1V10
			c0,0.4-0.1,0.8-0.4,1.1c-0.3,0.3-0.7,0.4-1.1,0.4c-0.5,0-0.8-0.1-1.1-0.4c-0.3-0.3-0.4-0.6-0.4-1.1V9.8z M295.2,16h-7.6v-0.8
			l4.1-4.7c0.7-0.8,1.2-1.4,1.4-2c0.3-0.5,0.4-1,0.4-1.5c0-0.8-0.2-1.4-0.7-1.8c-0.4-0.4-1.1-0.7-1.9-0.7c-0.8,0-1.5,0.3-2,0.8
			c-0.5,0.5-0.7,1.2-0.7,2h-1c0-0.7,0.2-1.3,0.5-1.9c0.3-0.6,0.7-1,1.3-1.3c0.6-0.3,1.2-0.5,1.9-0.5c1.1,0,2,0.3,2.6,0.9
			c0.6,0.6,0.9,1.4,0.9,2.4c0,0.6-0.2,1.2-0.5,1.9c-0.3,0.7-1,1.5-1.9,2.5l-3.4,3.8h6.3V16z M301.7,16h-1V5.1l-3.3,1.2V5.4l4.1-1.5
			h0.2V16z M314.1,16h-7.6v-0.8l4.1-4.7c0.7-0.8,1.2-1.4,1.4-2c0.3-0.5,0.4-1,0.4-1.5c0-0.8-0.2-1.4-0.7-1.8
			c-0.4-0.4-1.1-0.7-1.9-0.7c-0.8,0-1.5,0.3-2,0.8c-0.5,0.5-0.7,1.2-0.7,2h-1c0-0.7,0.2-1.3,0.5-1.9c0.3-0.6,0.7-1,1.3-1.3
			c0.6-0.3,1.2-0.5,1.9-0.5c1.1,0,2,0.3,2.6,0.9c0.6,0.6,0.9,1.4,0.9,2.4c0,0.6-0.2,1.2-0.5,1.9c-0.3,0.7-1,1.5-1.9,2.5l-3.4,3.8
			h6.4V16z M316,15.4c0-0.2,0.1-0.4,0.2-0.5c0.1-0.1,0.3-0.2,0.5-0.2c0.2,0,0.4,0.1,0.5,0.2c0.1,0.1,0.2,0.3,0.2,0.5
			c0,0.2-0.1,0.4-0.2,0.5c-0.1,0.1-0.3,0.2-0.5,0.2c-0.2,0-0.4-0.1-0.5-0.2C316,15.8,316,15.6,316,15.4z M322.2,9.4h1
			c0.6,0,1.1-0.1,1.5-0.3c0.4-0.2,0.8-0.5,1-0.8c0.2-0.4,0.3-0.8,0.3-1.2c0-0.8-0.2-1.4-0.7-1.8c-0.4-0.4-1.1-0.7-1.9-0.7
			c-0.8,0-1.4,0.2-1.9,0.7c-0.5,0.5-0.7,1.1-0.7,1.8h-1c0-0.6,0.2-1.2,0.5-1.7c0.3-0.5,0.8-0.9,1.3-1.2c0.6-0.3,1.2-0.4,1.9-0.4
			c1.1,0,2,0.3,2.6,0.9c0.6,0.6,0.9,1.4,0.9,2.5c0,0.6-0.2,1.1-0.6,1.6c-0.4,0.5-0.9,0.9-1.5,1.1c0.8,0.2,1.3,0.6,1.7,1.1
			c0.4,0.5,0.6,1.1,0.6,1.8c0,1-0.3,1.9-1,2.5c-0.7,0.6-1.6,0.9-2.7,0.9c-0.7,0-1.4-0.1-2-0.4c-0.6-0.3-1.1-0.7-1.4-1.2
			c-0.3-0.5-0.5-1.1-0.5-1.8h1c0,0.8,0.3,1.4,0.8,1.9c0.5,0.5,1.2,0.7,2.1,0.7c0.9,0,1.5-0.2,2-0.7c0.5-0.4,0.7-1.1,0.7-1.9
			c0-0.8-0.3-1.4-0.8-1.9c-0.5-0.4-1.3-0.6-2.3-0.6h-1V9.4z M331.6,9.4h1c0.6,0,1.1-0.1,1.5-0.3c0.4-0.2,0.8-0.5,1-0.8
			c0.2-0.4,0.3-0.8,0.3-1.2c0-0.8-0.2-1.4-0.7-1.8c-0.4-0.4-1.1-0.7-1.9-0.7c-0.8,0-1.4,0.2-1.9,0.7c-0.5,0.5-0.7,1.1-0.7,1.8h-1
			c0-0.6,0.2-1.2,0.5-1.7c0.3-0.5,0.8-0.9,1.3-1.2c0.6-0.3,1.2-0.4,1.9-0.4c1.1,0,2,0.3,2.6,0.9c0.6,0.6,0.9,1.4,0.9,2.5
			c0,0.6-0.2,1.1-0.6,1.6c-0.4,0.5-0.9,0.9-1.5,1.1c0.8,0.2,1.3,0.6,1.7,1.1c0.4,0.5,0.6,1.1,0.6,1.8c0,1-0.3,1.9-1,2.5
			c-0.7,0.6-1.6,0.9-2.7,0.9c-0.7,0-1.4-0.1-2-0.4c-0.6-0.3-1.1-0.7-1.4-1.2c-0.3-0.5-0.5-1.1-0.5-1.8h1c0,0.8,0.3,1.4,0.8,1.9
			c0.5,0.5,1.2,0.7,2.1,0.7c0.9,0,1.5-0.2,2-0.7c0.5-0.4,0.7-1.1,0.7-1.9c0-0.8-0.3-1.4-0.8-1.9c-0.5-0.4-1.3-0.6-2.3-0.6h-1V9.4z
			 M341.1,9.4h1c0.6,0,1.1-0.1,1.5-0.3c0.4-0.2,0.7-0.5,1-0.8c0.2-0.4,0.3-0.8,0.3-1.2c0-0.8-0.2-1.4-0.7-1.8
			c-0.4-0.4-1.1-0.7-1.9-0.7c-0.8,0-1.4,0.2-1.9,0.7c-0.5,0.5-0.7,1.1-0.7,1.8h-1c0-0.6,0.2-1.2,0.5-1.7c0.3-0.5,0.8-0.9,1.3-1.2
			c0.6-0.3,1.2-0.4,1.9-0.4c1.1,0,2,0.3,2.6,0.9c0.6,0.6,0.9,1.4,0.9,2.5c0,0.6-0.2,1.1-0.6,1.6c-0.4,0.5-0.9,0.9-1.5,1.1
			c0.8,0.2,1.3,0.6,1.7,1.1c0.4,0.5,0.6,1.1,0.6,1.8c0,1-0.3,1.9-1,2.5c-0.7,0.6-1.6,0.9-2.7,0.9c-0.7,0-1.4-0.1-2-0.4
			c-0.6-0.3-1.1-0.7-1.4-1.2c-0.3-0.5-0.5-1.1-0.5-1.8h1c0,0.8,0.3,1.4,0.8,1.9c0.5,0.5,1.2,0.7,2.1,0.7c0.9,0,1.5-0.2,2-0.7
			c0.5-0.4,0.7-1.1,0.7-1.9c0-0.8-0.3-1.4-0.8-1.9c-0.5-0.4-1.3-0.6-2.3-0.6h-1V9.4z M348.3,15.4c0-0.2,0.1-0.4,0.2-0.5
			c0.1-0.1,0.3-0.2,0.5-0.2c0.2,0,0.4,0.1,0.5,0.2c0.1,0.1,0.2,0.3,0.2,0.5c0,0.2-0.1,0.4-0.2,0.5c-0.1,0.1-0.3,0.2-0.5,0.2
			c-0.2,0-0.4-0.1-0.5-0.2C348.4,15.8,348.3,15.6,348.3,15.4z M359.9,16h-7.6v-0.8l4.1-4.7c0.7-0.8,1.2-1.4,1.4-2
			c0.3-0.5,0.4-1,0.4-1.5c0-0.8-0.2-1.4-0.7-1.8c-0.4-0.4-1.1-0.7-1.9-0.7c-0.8,0-1.5,0.3-2,0.8c-0.5,0.5-0.7,1.2-0.7,2h-1
			c0-0.7,0.2-1.3,0.5-1.9c0.3-0.6,0.7-1,1.3-1.3c0.6-0.3,1.2-0.5,1.9-0.5c1.1,0,2,0.3,2.6,0.9c0.6,0.6,0.9,1.4,0.9,2.4
			c0,0.6-0.2,1.2-0.5,1.9c-0.3,0.7-1,1.5-1.9,2.5l-3.4,3.8h6.4V16z M371.9,9.8l0.6-5.9h6v0.9h-5.2l-0.4,4.1c0.6-0.4,1.4-0.7,2.3-0.7
			c1.1,0,2,0.4,2.6,1.1c0.6,0.7,1,1.7,1,2.8c0,1.3-0.3,2.3-0.9,3s-1.5,1.1-2.7,1.1c-1.1,0-1.9-0.3-2.6-0.9c-0.7-0.6-1-1.4-1.1-2.5h1
			c0.1,0.8,0.4,1.4,0.8,1.9c0.5,0.4,1.1,0.6,1.9,0.6c0.9,0,1.5-0.3,2-0.8c0.4-0.5,0.7-1.3,0.7-2.3c0-0.9-0.2-1.6-0.7-2.2
			c-0.5-0.6-1.2-0.8-2-0.8c-0.5,0-0.9,0.1-1.2,0.2c-0.3,0.1-0.7,0.3-1.1,0.7L371.9,9.8z M362.4,9.8l0.6-5.9h6v0.9h-5.2l-0.4,4.1
			c0.6-0.4,1.4-0.7,2.3-0.7c1.1,0,2,0.4,2.6,1.1c0.6,0.7,1,1.7,1,2.8c0,1.3-0.3,2.3-0.9,3s-1.5,1.1-2.7,1.1c-1.1,0-1.9-0.3-2.6-0.9
			c-0.7-0.6-1-1.4-1.1-2.5h1c0.1,0.8,0.4,1.4,0.8,1.9c0.5,0.4,1.1,0.6,1.9,0.6c0.9,0,1.5-0.3,2-0.8c0.4-0.5,0.7-1.3,0.7-2.3
			c0-0.9-0.2-1.6-0.7-2.2c-0.5-0.6-1.2-0.8-2-0.8c-0.5,0-0.9,0.1-1.2,0.2c-0.3,0.1-0.7,0.3-1.1,0.7L362.4,9.8z M385.3,16h-1V5.1
			L381,6.3V5.4l4.1-1.5h0.2V16z"/>
	</g>
</g>
</svg>
