<svg width="389" height="20" viewBox="0 0 389 20" fill="none" xmlns="http://www.w3.org/2000/svg">
<g clip-path="url(#clip0_2209_2748)">
<rect width="389" height="20" fill="white"/>
<path d="M2.77246 16H1.75146V3.91406H2.77246V16ZM15.0576 16H14.0366L7.08887 5.65723V16H6.05957V3.91406H7.08887L14.0449 14.2651V3.91406H15.0576V16ZM24.7861 10.3555H19.1499V16H18.1289V3.91406H25.6162V4.78564H19.1499V9.48389H24.7861V10.3555ZM36.623 10.6128C36.623 11.7251 36.4294 12.7018 36.042 13.543C35.6602 14.3841 35.1123 15.0316 34.3984 15.4854C33.6846 15.9391 32.86 16.166 31.9248 16.166C30.5137 16.166 29.3737 15.6624 28.5049 14.6553C27.6361 13.6426 27.2017 12.2785 27.2017 10.563V9.31787C27.2017 8.21663 27.3953 7.24268 27.7827 6.396C28.1756 5.54378 28.729 4.89079 29.4429 4.43701C30.1567 3.9777 30.9785 3.74805 31.9082 3.74805C32.8379 3.74805 33.6569 3.97217 34.3652 4.42041C35.0791 4.86865 35.6297 5.50228 36.0171 6.32129C36.4045 7.1403 36.6064 8.08936 36.623 9.16846V10.6128ZM35.6021 9.30127C35.6021 7.84587 35.2728 6.70589 34.6143 5.88135C33.9557 5.0568 33.0537 4.64453 31.9082 4.64453C30.7848 4.64453 29.8883 5.05957 29.2188 5.88965C28.5547 6.71419 28.2227 7.868 28.2227 9.35107V10.6128C28.2227 12.0461 28.5547 13.1833 29.2188 14.0244C29.8828 14.86 30.7848 15.2778 31.9248 15.2778C33.0814 15.2778 33.9834 14.8656 34.6309 14.041C35.2783 13.2109 35.6021 12.0571 35.6021 10.5796V9.30127ZM52.2285 11.7417C52.2008 12.5552 52.0514 13.3105 51.7803 14.0078C51.5091 14.6995 51.1328 15.2336 50.6514 15.6099C50.1755 15.9806 49.6221 16.166 48.9912 16.166C48.4544 16.166 48.0173 16.0249 47.6797 15.7427C47.3421 15.4604 47.118 15.0648 47.0073 14.5557C46.4097 15.6292 45.5851 16.166 44.5337 16.166C43.759 16.166 43.1807 15.8312 42.7988 15.1616C42.417 14.492 42.2759 13.59 42.3755 12.4556C42.4585 11.5535 42.6632 10.7511 42.9897 10.0483C43.3218 9.34001 43.7507 8.78939 44.2764 8.39648C44.8076 7.99805 45.3748 7.79883 45.978 7.79883C46.4041 7.79883 46.7777 7.8597 47.0986 7.98145C47.4196 8.09766 47.7931 8.33561 48.2192 8.69531L47.7959 13.4268C47.7406 14.0687 47.8208 14.5667 48.0366 14.9209C48.258 15.2751 48.6094 15.4521 49.0908 15.4521C49.7715 15.4521 50.3221 15.1201 50.7427 14.4561C51.1688 13.7865 51.4067 12.8817 51.4565 11.7417C51.5617 9.50049 51.1356 7.81543 50.1782 6.68652C49.2209 5.55208 47.771 4.98486 45.8286 4.98486C44.661 4.98486 43.6068 5.27816 42.666 5.86475C41.7308 6.4458 40.992 7.27035 40.4497 8.33838C39.9074 9.40641 39.603 10.6377 39.5366 12.0322C39.4702 13.4268 39.6528 14.6553 40.0845 15.7178C40.5216 16.7747 41.1774 17.5882 42.0518 18.1582C42.9316 18.7282 43.9775 19.0132 45.1895 19.0132C45.6986 19.0132 46.1994 18.9523 46.6919 18.8306C47.1844 18.7088 47.5967 18.5511 47.9287 18.3574L48.186 19.0215C47.8706 19.2318 47.4307 19.4061 46.8662 19.5444C46.3018 19.6883 45.7318 19.7603 45.1562 19.7603C43.7728 19.7603 42.583 19.4476 41.5869 18.8223C40.5908 18.2025 39.8438 17.306 39.3457 16.1328C38.8532 14.9652 38.6401 13.5983 38.7065 12.0322C38.7729 10.4938 39.1105 9.13249 39.7192 7.94824C40.3335 6.75846 41.1719 5.83984 42.2344 5.19238C43.2969 4.53939 44.506 4.21289 45.8618 4.21289C47.2729 4.21289 48.4683 4.50895 49.4478 5.10107C50.4272 5.68766 51.1522 6.54818 51.6226 7.68262C52.0929 8.81706 52.2949 10.1701 52.2285 11.7417ZM43.2554 13.626C43.3162 14.1794 43.4712 14.6082 43.7202 14.9126C43.9692 15.2114 44.2985 15.3608 44.708 15.3608C45.7318 15.3608 46.4871 14.6553 46.9741 13.2441L47.3477 8.96094C46.9769 8.68978 46.5397 8.5542 46.0361 8.5542C45.4219 8.5542 44.8879 8.80046 44.4341 9.29297C43.9858 9.77995 43.6566 10.4551 43.4463 11.3184C43.236 12.1761 43.1724 12.9453 43.2554 13.626ZM61.5586 13.0283C61.5586 12.3587 61.3234 11.8302 60.853 11.4429C60.3826 11.05 59.5221 10.6792 58.2715 10.3306C57.0208 9.9764 56.1077 9.5918 55.5322 9.17676C54.7132 8.59017 54.3037 7.82096 54.3037 6.86914C54.3037 5.94499 54.6828 5.19515 55.4409 4.61963C56.2046 4.03857 57.1785 3.74805 58.3628 3.74805C59.1652 3.74805 59.8818 3.90299 60.5127 4.21289C61.1491 4.52279 61.6416 4.95443 61.9902 5.50781C62.3389 6.0612 62.5132 6.67822 62.5132 7.35889H61.4839C61.4839 6.53434 61.2017 5.87305 60.6372 5.375C60.0728 4.87142 59.3146 4.61963 58.3628 4.61963C57.4386 4.61963 56.7026 4.82715 56.1548 5.24219C55.6069 5.65169 55.333 6.18848 55.333 6.85254C55.333 7.4668 55.5793 7.96761 56.0718 8.35498C56.5643 8.74235 57.3529 9.08545 58.4375 9.38428C59.5221 9.67757 60.3439 9.9847 60.9028 10.3057C61.4618 10.6211 61.8823 11.0002 62.1646 11.4429C62.4468 11.8856 62.5879 12.4085 62.5879 13.0117C62.5879 13.9635 62.2061 14.7272 61.4424 15.3027C60.6842 15.8783 59.6826 16.166 58.4375 16.166C57.5853 16.166 56.8022 16.0138 56.0884 15.7095C55.38 15.4051 54.8405 14.979 54.4697 14.4312C54.1045 13.8833 53.9219 13.2552 53.9219 12.5469H54.9429C54.9429 13.3991 55.2611 14.0715 55.8975 14.564C56.5339 15.0565 57.3805 15.3027 58.4375 15.3027C59.3783 15.3027 60.1336 15.0952 60.7036 14.6802C61.2736 14.2651 61.5586 13.7145 61.5586 13.0283ZM73.7524 16H72.7231V10.2061H65.8169V16H64.7959V3.91406H65.8169V9.34277H72.7231V3.91406H73.7524V16ZM83.5059 12.6133H78.019L76.7739 16H75.7031L80.2769 3.91406H81.248L85.8218 16H84.7593L83.5059 12.6133ZM78.3345 11.7417H83.1821L80.7583 5.15918L78.3345 11.7417ZM96.6045 16H95.5835L88.6357 5.65723V16H87.6064V3.91406H88.6357L95.5918 14.2651V3.91406H96.6045V16ZM108.674 16H107.653L100.705 5.65723V16H99.6758V3.91406H100.705L107.661 14.2651V3.91406H108.674V16ZM120.677 10.6128C120.677 11.7251 120.483 12.7018 120.096 13.543C119.714 14.3841 119.166 15.0316 118.452 15.4854C117.738 15.9391 116.914 16.166 115.979 16.166C114.567 16.166 113.427 15.6624 112.559 14.6553C111.69 13.6426 111.255 12.2785 111.255 10.563V9.31787C111.255 8.21663 111.449 7.24268 111.836 6.396C112.229 5.54378 112.783 4.89079 113.497 4.43701C114.21 3.9777 115.032 3.74805 115.962 3.74805C116.892 3.74805 117.711 3.97217 118.419 4.42041C119.133 4.86865 119.683 5.50228 120.071 6.32129C120.458 7.1403 120.66 8.08936 120.677 9.16846V10.6128ZM119.656 9.30127C119.656 7.84587 119.326 6.70589 118.668 5.88135C118.009 5.0568 117.107 4.64453 115.962 4.64453C114.839 4.64453 113.942 5.05957 113.272 5.88965C112.608 6.71419 112.276 7.868 112.276 9.35107V10.6128C112.276 12.0461 112.608 13.1833 113.272 14.0244C113.937 14.86 114.839 15.2778 115.979 15.2778C117.135 15.2778 118.037 14.8656 118.685 14.041C119.332 13.2109 119.656 12.0571 119.656 10.5796V9.30127ZM132.248 16H131.227L124.279 5.65723V16H123.25V3.91406H124.279L131.235 14.2651V3.91406H132.248V16ZM141.993 12.6133H136.506L135.261 16H134.19L138.764 3.91406H139.735L144.309 16H143.247L141.993 12.6133ZM136.822 11.7417H141.669L139.246 5.15918L136.822 11.7417ZM152.934 13.0283C152.934 12.3587 152.698 11.8302 152.228 11.4429C151.758 11.05 150.897 10.6792 149.646 10.3306C148.396 9.9764 147.483 9.5918 146.907 9.17676C146.088 8.59017 145.679 7.82096 145.679 6.86914C145.679 5.94499 146.058 5.19515 146.816 4.61963C147.58 4.03857 148.554 3.74805 149.738 3.74805C150.54 3.74805 151.257 3.90299 151.888 4.21289C152.524 4.52279 153.017 4.95443 153.365 5.50781C153.714 6.0612 153.888 6.67822 153.888 7.35889H152.859C152.859 6.53434 152.577 5.87305 152.012 5.375C151.448 4.87142 150.69 4.61963 149.738 4.61963C148.814 4.61963 148.078 4.82715 147.53 5.24219C146.982 5.65169 146.708 6.18848 146.708 6.85254C146.708 7.4668 146.954 7.96761 147.447 8.35498C147.939 8.74235 148.728 9.08545 149.812 9.38428C150.897 9.67757 151.719 9.9847 152.278 10.3057C152.837 10.6211 153.257 11.0002 153.54 11.4429C153.822 11.8856 153.963 12.4085 153.963 13.0117C153.963 13.9635 153.581 14.7272 152.817 15.3027C152.059 15.8783 151.058 16.166 149.812 16.166C148.96 16.166 148.177 16.0138 147.463 15.7095C146.755 15.4051 146.215 14.979 145.845 14.4312C145.479 13.8833 145.297 13.2552 145.297 12.5469H146.318C146.318 13.3991 146.636 14.0715 147.272 14.564C147.909 15.0565 148.756 15.3027 149.812 15.3027C150.753 15.3027 151.509 15.0952 152.079 14.6802C152.649 14.2651 152.934 13.7145 152.934 13.0283ZM163.011 13.0283C163.011 12.3587 162.776 11.8302 162.305 11.4429C161.835 11.05 160.974 10.6792 159.724 10.3306C158.473 9.9764 157.56 9.5918 156.984 9.17676C156.165 8.59017 155.756 7.82096 155.756 6.86914C155.756 5.94499 156.135 5.19515 156.893 4.61963C157.657 4.03857 158.631 3.74805 159.815 3.74805C160.617 3.74805 161.334 3.90299 161.965 4.21289C162.601 4.52279 163.094 4.95443 163.442 5.50781C163.791 6.0612 163.965 6.67822 163.965 7.35889H162.936C162.936 6.53434 162.654 5.87305 162.089 5.375C161.525 4.87142 160.767 4.61963 159.815 4.61963C158.891 4.61963 158.155 4.82715 157.607 5.24219C157.059 5.65169 156.785 6.18848 156.785 6.85254C156.785 7.4668 157.031 7.96761 157.524 8.35498C158.016 8.74235 158.805 9.08545 159.89 9.38428C160.974 9.67757 161.796 9.9847 162.355 10.3057C162.914 10.6211 163.334 11.0002 163.617 11.4429C163.899 11.8856 164.04 12.4085 164.04 13.0117C164.04 13.9635 163.658 14.7272 162.895 15.3027C162.136 15.8783 161.135 16.166 159.89 16.166C159.037 16.166 158.254 16.0138 157.541 15.7095C156.832 15.4051 156.293 14.979 155.922 14.4312C155.557 13.8833 155.374 13.2552 155.374 12.5469H156.395C156.395 13.3991 156.713 14.0715 157.35 14.564C157.986 15.0565 158.833 15.3027 159.89 15.3027C160.83 15.3027 161.586 15.0952 162.156 14.6802C162.726 14.2651 163.011 13.7145 163.011 13.0283ZM175.18 10.6128C175.18 11.7251 174.986 12.7018 174.599 13.543C174.217 14.3841 173.669 15.0316 172.955 15.4854C172.241 15.9391 171.417 16.166 170.481 16.166C169.07 16.166 167.93 15.6624 167.062 14.6553C166.193 13.6426 165.758 12.2785 165.758 10.563V9.31787C165.758 8.21663 165.952 7.24268 166.339 6.396C166.732 5.54378 167.286 4.89079 168 4.43701C168.713 3.9777 169.535 3.74805 170.465 3.74805C171.395 3.74805 172.214 3.97217 172.922 4.42041C173.636 4.86865 174.186 5.50228 174.574 6.32129C174.961 7.1403 175.163 8.08936 175.18 9.16846V10.6128ZM174.159 9.30127C174.159 7.84587 173.829 6.70589 173.171 5.88135C172.512 5.0568 171.61 4.64453 170.465 4.64453C169.341 4.64453 168.445 5.05957 167.775 5.88965C167.111 6.71419 166.779 7.868 166.779 9.35107V10.6128C166.779 12.0461 167.111 13.1833 167.775 14.0244C168.439 14.86 169.341 15.2778 170.481 15.2778C171.638 15.2778 172.54 14.8656 173.188 14.041C173.835 13.2109 174.159 12.0571 174.159 10.5796V9.30127ZM186.311 12.2314C186.173 13.5042 185.716 14.4782 184.941 15.1533C184.172 15.8285 183.146 16.166 181.862 16.166C180.965 16.166 180.171 15.9419 179.479 15.4937C178.793 15.0454 178.262 14.4118 177.886 13.5928C177.509 12.7682 177.319 11.8275 177.313 10.7705V9.20166C177.313 8.12809 177.501 7.17627 177.877 6.34619C178.254 5.51611 178.793 4.87695 179.496 4.42871C180.204 3.97493 181.018 3.74805 181.937 3.74805C183.231 3.74805 184.252 4.09945 185 4.80225C185.752 5.49951 186.189 6.46517 186.311 7.69922H185.282C185.027 5.64616 183.912 4.61963 181.937 4.61963C180.841 4.61963 179.966 5.02913 179.313 5.84814C178.666 6.66715 178.342 7.79883 178.342 9.24316V10.7207C178.342 12.1152 178.658 13.2275 179.289 14.0576C179.925 14.8877 180.783 15.3027 181.862 15.3027C182.93 15.3027 183.735 15.0482 184.277 14.5391C184.82 14.0244 185.154 13.2552 185.282 12.2314H186.311ZM190.038 16H189.017V3.91406H190.038V16ZM199.999 12.6133H194.512L193.267 16H192.196L196.77 3.91406H197.741L202.315 16H201.252L199.999 12.6133ZM194.828 11.7417H199.675L197.251 5.15918L194.828 11.7417ZM211.222 4.78564H207.08V16H206.059V4.78564H201.925V3.91406H211.222V4.78564ZM219.854 10.2061H214.202V15.1367H220.701V16H213.181V3.91406H220.66V4.78564H214.202V9.34277H219.854V10.2061ZM229.699 13.0283C229.699 12.3587 229.464 11.8302 228.994 11.4429C228.523 11.05 227.663 10.6792 226.412 10.3306C225.161 9.9764 224.248 9.5918 223.673 9.17676C222.854 8.59017 222.444 7.82096 222.444 6.86914C222.444 5.94499 222.823 5.19515 223.582 4.61963C224.345 4.03857 225.319 3.74805 226.503 3.74805C227.306 3.74805 228.022 3.90299 228.653 4.21289C229.29 4.52279 229.782 4.95443 230.131 5.50781C230.479 6.0612 230.654 6.67822 230.654 7.35889H229.625C229.625 6.53434 229.342 5.87305 228.778 5.375C228.213 4.87142 227.455 4.61963 226.503 4.61963C225.579 4.61963 224.843 4.82715 224.295 5.24219C223.748 5.65169 223.474 6.18848 223.474 6.85254C223.474 7.4668 223.72 7.96761 224.212 8.35498C224.705 8.74235 225.493 9.08545 226.578 9.38428C227.663 9.67757 228.485 9.9847 229.043 10.3057C229.602 10.6211 230.023 11.0002 230.305 11.4429C230.587 11.8856 230.729 12.4085 230.729 13.0117C230.729 13.9635 230.347 14.7272 229.583 15.3027C228.825 15.8783 227.823 16.166 226.578 16.166C225.726 16.166 224.943 16.0138 224.229 15.7095C223.521 15.4051 222.981 14.979 222.61 14.4312C222.245 13.8833 222.062 13.2552 222.062 12.5469H223.083C223.083 13.3991 223.402 14.0715 224.038 14.564C224.674 15.0565 225.521 15.3027 226.578 15.3027C227.519 15.3027 228.274 15.0952 228.844 14.6802C229.414 14.2651 229.699 13.7145 229.699 13.0283ZM232.613 15.4023C232.613 15.2087 232.674 15.0454 232.795 14.9126C232.923 14.7743 233.097 14.7051 233.318 14.7051C233.54 14.7051 233.714 14.7743 233.841 14.9126C233.969 15.0454 234.032 15.2087 234.032 15.4023C234.032 15.596 233.969 15.7565 233.841 15.8838C233.714 16.0055 233.54 16.0664 233.318 16.0664C233.097 16.0664 232.923 16.0055 232.795 15.8838C232.674 15.7565 232.613 15.596 232.613 15.4023ZM245.562 12.2314C245.424 13.5042 244.967 14.4782 244.192 15.1533C243.423 15.8285 242.397 16.166 241.113 16.166C240.216 16.166 239.422 15.9419 238.73 15.4937C238.044 15.0454 237.513 14.4118 237.137 13.5928C236.76 12.7682 236.569 11.8275 236.564 10.7705V9.20166C236.564 8.12809 236.752 7.17627 237.128 6.34619C237.505 5.51611 238.044 4.87695 238.747 4.42871C239.455 3.97493 240.269 3.74805 241.188 3.74805C242.482 3.74805 243.503 4.09945 244.25 4.80225C245.003 5.49951 245.44 6.46517 245.562 7.69922H244.533C244.278 5.64616 243.163 4.61963 241.188 4.61963C240.092 4.61963 239.217 5.02913 238.564 5.84814C237.917 6.66715 237.593 7.79883 237.593 9.24316V10.7207C237.593 12.1152 237.909 13.2275 238.54 14.0576C239.176 14.8877 240.034 15.3027 241.113 15.3027C242.181 15.3027 242.986 15.0482 243.528 14.5391C244.071 14.0244 244.405 13.2552 244.533 12.2314H245.562ZM256.976 10.6128C256.976 11.7251 256.782 12.7018 256.395 13.543C256.013 14.3841 255.465 15.0316 254.751 15.4854C254.037 15.9391 253.213 16.166 252.277 16.166C250.866 16.166 249.726 15.6624 248.857 14.6553C247.989 13.6426 247.554 12.2785 247.554 10.563V9.31787C247.554 8.21663 247.748 7.24268 248.135 6.396C248.528 5.54378 249.082 4.89079 249.795 4.43701C250.509 3.9777 251.331 3.74805 252.261 3.74805C253.19 3.74805 254.009 3.97217 254.718 4.42041C255.432 4.86865 255.982 5.50228 256.37 6.32129C256.757 7.1403 256.959 8.08936 256.976 9.16846V10.6128ZM255.955 9.30127C255.955 7.84587 255.625 6.70589 254.967 5.88135C254.308 5.0568 253.406 4.64453 252.261 4.64453C251.137 4.64453 250.241 5.05957 249.571 5.88965C248.907 6.71419 248.575 7.868 248.575 9.35107V10.6128C248.575 12.0461 248.907 13.1833 249.571 14.0244C250.235 14.86 251.137 15.2778 252.277 15.2778C253.434 15.2778 254.336 14.8656 254.983 14.041C255.631 13.2109 255.955 12.0571 255.955 10.5796V9.30127ZM260.902 3.91406L265.359 14.5806L269.833 3.91406H271.195V16H270.174V10.7373L270.257 5.3418L265.758 16H264.969L260.487 5.3833L260.57 10.7041V16H259.549V3.91406H260.902ZM278.076 9.75781C278.076 9.32064 278.217 8.9637 278.5 8.68701C278.782 8.41032 279.153 8.27197 279.612 8.27197C280.066 8.27197 280.434 8.40755 280.716 8.67871C280.998 8.94434 281.145 9.2902 281.156 9.71631V10.0483C281.156 10.4966 281.015 10.8535 280.732 11.1191C280.45 11.3848 280.079 11.5176 279.62 11.5176C279.155 11.5176 278.782 11.382 278.5 11.1108C278.217 10.8397 278.076 10.48 278.076 10.0317V9.75781ZM295.201 16H287.63V15.2363L291.772 10.5381C292.459 9.74674 292.935 9.09375 293.2 8.5791C293.466 8.06445 293.599 7.56364 293.599 7.07666C293.599 6.31299 293.375 5.7098 292.926 5.26709C292.478 4.81885 291.861 4.59473 291.075 4.59473C290.262 4.59473 289.603 4.85482 289.1 5.375C288.602 5.89518 288.353 6.57031 288.353 7.40039H287.365C287.365 6.71973 287.517 6.09993 287.821 5.54102C288.131 4.9821 288.568 4.54492 289.133 4.22949C289.703 3.90853 290.35 3.74805 291.075 3.74805C292.182 3.74805 293.045 4.03857 293.665 4.61963C294.29 5.20068 294.603 5.99202 294.603 6.99365C294.603 7.55811 294.426 8.17513 294.072 8.84473C293.723 9.51432 293.106 10.3499 292.221 11.3516L288.851 15.1616H295.201V16ZM301.684 16H300.688V5.10938L297.4 6.32959V5.3999L301.518 3.87256H301.684V16ZM314.06 16H306.49V15.2363L310.632 10.5381C311.318 9.74674 311.794 9.09375 312.06 8.5791C312.325 8.06445 312.458 7.56364 312.458 7.07666C312.458 6.31299 312.234 5.7098 311.786 5.26709C311.337 4.81885 310.72 4.59473 309.935 4.59473C309.121 4.59473 308.463 4.85482 307.959 5.375C307.461 5.89518 307.212 6.57031 307.212 7.40039H306.224C306.224 6.71973 306.376 6.09993 306.681 5.54102C306.991 4.9821 307.428 4.54492 307.992 4.22949C308.562 3.90853 309.21 3.74805 309.935 3.74805C311.041 3.74805 311.905 4.03857 312.524 4.61963C313.15 5.20068 313.462 5.99202 313.462 6.99365C313.462 7.55811 313.285 8.17513 312.931 8.84473C312.583 9.51432 311.965 10.3499 311.08 11.3516L307.71 15.1616H314.06V16ZM315.986 15.4023C315.986 15.2087 316.047 15.0454 316.168 14.9126C316.296 14.7743 316.47 14.7051 316.691 14.7051C316.913 14.7051 317.087 14.7743 317.214 14.9126C317.342 15.0454 317.405 15.2087 317.405 15.4023C317.405 15.596 317.342 15.7565 317.214 15.8838C317.087 16.0055 316.913 16.0664 316.691 16.0664C316.47 16.0664 316.296 16.0055 316.168 15.8838C316.047 15.7565 315.986 15.596 315.986 15.4023ZM322.195 9.41748H323.224C323.794 9.41748 324.292 9.31787 324.718 9.11865C325.144 8.9139 325.468 8.63721 325.689 8.28857C325.916 7.93441 326.03 7.52767 326.03 7.06836C326.03 6.29362 325.811 5.68766 325.374 5.25049C324.937 4.81331 324.309 4.59473 323.49 4.59473C322.715 4.59473 322.079 4.82438 321.581 5.28369C321.088 5.73747 320.842 6.33789 320.842 7.08496H319.846C319.846 6.45964 320.003 5.88965 320.319 5.375C320.634 4.85482 321.071 4.45361 321.63 4.17139C322.189 3.88916 322.809 3.74805 323.49 3.74805C324.585 3.74805 325.449 4.04688 326.08 4.64453C326.71 5.24219 327.026 6.0612 327.026 7.10156C327.026 7.68262 326.84 8.2194 326.47 8.71191C326.104 9.19889 325.601 9.56413 324.959 9.80762C325.712 10.0179 326.282 10.3804 326.669 10.895C327.056 11.4041 327.25 12.0129 327.25 12.7212C327.25 13.756 326.912 14.5889 326.237 15.2197C325.562 15.8506 324.66 16.166 323.531 16.166C322.812 16.166 322.151 16.0221 321.547 15.7344C320.95 15.4466 320.485 15.0454 320.153 14.5308C319.826 14.0106 319.663 13.4074 319.663 12.7212H320.659C320.659 13.4904 320.928 14.1185 321.464 14.6055C322.001 15.0869 322.69 15.3276 323.531 15.3276C324.389 15.3276 325.056 15.109 325.532 14.6719C326.013 14.2292 326.254 13.59 326.254 12.7544C326.254 11.9465 325.994 11.3294 325.474 10.9033C324.959 10.4772 324.198 10.2642 323.191 10.2642H322.195V9.41748ZM331.625 9.41748H332.654C333.224 9.41748 333.722 9.31787 334.148 9.11865C334.574 8.9139 334.898 8.63721 335.119 8.28857C335.346 7.93441 335.459 7.52767 335.459 7.06836C335.459 6.29362 335.241 5.68766 334.804 5.25049C334.367 4.81331 333.738 4.59473 332.919 4.59473C332.145 4.59473 331.508 4.82438 331.01 5.28369C330.518 5.73747 330.271 6.33789 330.271 7.08496H329.275C329.275 6.45964 329.433 5.88965 329.749 5.375C330.064 4.85482 330.501 4.45361 331.06 4.17139C331.619 3.88916 332.239 3.74805 332.919 3.74805C334.015 3.74805 334.878 4.04688 335.509 4.64453C336.14 5.24219 336.456 6.0612 336.456 7.10156C336.456 7.68262 336.27 8.2194 335.899 8.71191C335.534 9.19889 335.031 9.56413 334.389 9.80762C335.141 10.0179 335.711 10.3804 336.099 10.895C336.486 11.4041 336.68 12.0129 336.68 12.7212C336.68 13.756 336.342 14.5889 335.667 15.2197C334.992 15.8506 334.09 16.166 332.961 16.166C332.242 16.166 331.58 16.0221 330.977 15.7344C330.379 15.4466 329.915 15.0454 329.583 14.5308C329.256 14.0106 329.093 13.4074 329.093 12.7212H330.089C330.089 13.4904 330.357 14.1185 330.894 14.6055C331.431 15.0869 332.12 15.3276 332.961 15.3276C333.819 15.3276 334.486 15.109 334.961 14.6719C335.443 14.2292 335.684 13.59 335.684 12.7544C335.684 11.9465 335.424 11.3294 334.903 10.9033C334.389 10.4772 333.628 10.2642 332.621 10.2642H331.625V9.41748ZM341.054 9.41748H342.083C342.653 9.41748 343.152 9.31787 343.578 9.11865C344.004 8.9139 344.327 8.63721 344.549 8.28857C344.776 7.93441 344.889 7.52767 344.889 7.06836C344.889 6.29362 344.671 5.68766 344.233 5.25049C343.796 4.81331 343.168 4.59473 342.349 4.59473C341.574 4.59473 340.938 4.82438 340.44 5.28369C339.947 5.73747 339.701 6.33789 339.701 7.08496H338.705C338.705 6.45964 338.863 5.88965 339.178 5.375C339.494 4.85482 339.931 4.45361 340.49 4.17139C341.049 3.88916 341.668 3.74805 342.349 3.74805C343.445 3.74805 344.308 4.04688 344.939 4.64453C345.57 5.24219 345.885 6.0612 345.885 7.10156C345.885 7.68262 345.7 8.2194 345.329 8.71191C344.964 9.19889 344.46 9.56413 343.818 9.80762C344.571 10.0179 345.141 10.3804 345.528 10.895C345.916 11.4041 346.109 12.0129 346.109 12.7212C346.109 13.756 345.772 14.5889 345.097 15.2197C344.422 15.8506 343.52 16.166 342.391 16.166C341.671 16.166 341.01 16.0221 340.407 15.7344C339.809 15.4466 339.344 15.0454 339.012 14.5308C338.686 14.0106 338.522 13.4074 338.522 12.7212H339.519C339.519 13.4904 339.787 14.1185 340.324 14.6055C340.861 15.0869 341.549 15.3276 342.391 15.3276C343.248 15.3276 343.915 15.109 344.391 14.6719C344.873 14.2292 345.113 13.59 345.113 12.7544C345.113 11.9465 344.853 11.3294 344.333 10.9033C343.818 10.4772 343.057 10.2642 342.05 10.2642H341.054V9.41748ZM348.342 15.4023C348.342 15.2087 348.403 15.0454 348.525 14.9126C348.652 14.7743 348.826 14.7051 349.048 14.7051C349.269 14.7051 349.444 14.7743 349.571 14.9126C349.698 15.0454 349.762 15.2087 349.762 15.4023C349.762 15.596 349.698 15.7565 349.571 15.8838C349.444 16.0055 349.269 16.0664 349.048 16.0664C348.826 16.0664 348.652 16.0055 348.525 15.8838C348.403 15.7565 348.342 15.596 348.342 15.4023ZM359.914 16H352.343V15.2363L356.485 10.5381C357.172 9.74674 357.647 9.09375 357.913 8.5791C358.179 8.06445 358.312 7.56364 358.312 7.07666C358.312 6.31299 358.087 5.7098 357.639 5.26709C357.191 4.81885 356.574 4.59473 355.788 4.59473C354.975 4.59473 354.316 4.85482 353.812 5.375C353.314 5.89518 353.065 6.57031 353.065 7.40039H352.078C352.078 6.71973 352.23 6.09993 352.534 5.54102C352.844 4.9821 353.281 4.54492 353.846 4.22949C354.416 3.90853 355.063 3.74805 355.788 3.74805C356.895 3.74805 357.758 4.03857 358.378 4.61963C359.003 5.20068 359.316 5.99202 359.316 6.99365C359.316 7.55811 359.139 8.17513 358.785 8.84473C358.436 9.51432 357.819 10.3499 356.934 11.3516L353.563 15.1616H359.914V16ZM369.343 16H361.773V15.2363L365.915 10.5381C366.601 9.74674 367.077 9.09375 367.343 8.5791C367.608 8.06445 367.741 7.56364 367.741 7.07666C367.741 6.31299 367.517 5.7098 367.069 5.26709C366.621 4.81885 366.004 4.59473 365.218 4.59473C364.404 4.59473 363.746 4.85482 363.242 5.375C362.744 5.89518 362.495 6.57031 362.495 7.40039H361.507C361.507 6.71973 361.66 6.09993 361.964 5.54102C362.274 4.9821 362.711 4.54492 363.275 4.22949C363.845 3.90853 364.493 3.74805 365.218 3.74805C366.325 3.74805 367.188 4.03857 367.808 4.61963C368.433 5.20068 368.746 5.99202 368.746 6.99365C368.746 7.55811 368.569 8.17513 368.214 8.84473C367.866 9.51432 367.249 10.3499 366.363 11.3516L362.993 15.1616H369.343V16ZM371.875 9.80762L372.464 3.91406H378.507V4.83545H373.319L372.896 8.91943C373.543 8.47673 374.302 8.25537 375.17 8.25537C376.261 8.25537 377.129 8.60954 377.777 9.31787C378.424 10.0262 378.748 10.9697 378.748 12.1484C378.748 13.4212 378.433 14.409 377.802 15.1118C377.171 15.8146 376.283 16.166 375.137 16.166C374.086 16.166 373.234 15.8727 372.581 15.2861C371.928 14.6995 371.554 13.8778 371.46 12.8208H372.415C372.509 13.6453 372.788 14.2707 373.253 14.6968C373.718 15.1174 374.346 15.3276 375.137 15.3276C376 15.3276 376.651 15.0537 377.088 14.5059C377.531 13.958 377.752 13.1777 377.752 12.165C377.752 11.2796 377.506 10.5575 377.013 9.99854C376.521 9.43962 375.848 9.16016 374.996 9.16016C374.526 9.16016 374.116 9.22103 373.768 9.34277C373.419 9.45898 373.051 9.68864 372.664 10.0317L371.875 9.80762ZM385.256 16H384.26V5.10938L380.973 6.32959V5.3999L385.09 3.87256H385.256V16Z" fill="black"/>
</g>
<defs>
<clipPath id="clip0_2209_2748">
<rect width="389" height="20" fill="white"/>
</clipPath>
</defs>
</svg>
